G04 Generated by Ultiboard 14.1 *
%FSLAX24Y24*%
%MOIN*%

%ADD10C,0.0001*%
%ADD11C,0.0100*%
%ADD12C,0.0050*%
%ADD13C,0.0200*%
%ADD14C,0.0400*%


G04 ColorRGB FF0000 for the following layer *
%LNCopper Inner 2*%
%LPD*%
G54D10*
G36*
X31211Y15476D02*
X31211Y15476D01*
X28196Y13684D01*
X28196Y13684D01*
X26863Y12892D01*
X26863Y9207D01*
X27022Y9298D01*
X27022Y9298D01*
X28196Y9972D01*
X28196Y9972D01*
X31059Y11615D01*
G75*
D01*
G02X31136Y11635I75J-130*
G01*
G74*
D01*
G02X31285Y11485I2J150*
G01*
X31285Y11485D01*
X31285Y9062D01*
G75*
D01*
G02X31208Y8931I-151J0*
G01*
X31208Y8931D01*
X28785Y7577D01*
X28785Y3880D01*
X31064Y5088D01*
G74*
D01*
G02X31074Y5093I70J133*
G01*
G75*
D01*
G02X31285Y4955I60J-138*
G01*
X31285Y4955D01*
X31285Y2187D01*
X33335Y209D01*
X35385Y2187D01*
X35385Y4954D01*
G75*
D01*
G02X35397Y5013I150J1*
G01*
G75*
D01*
G02X35606Y5088I138J-58*
G01*
X35606Y5088D01*
X37645Y4006D01*
X37645Y4006D01*
X37881Y3880D01*
X37881Y7577D01*
X37645Y7709D01*
X37645Y7709D01*
X35462Y8931D01*
G75*
D01*
G02X35385Y9063I73J131*
G01*
X35385Y9063D01*
X35385Y11484D01*
G75*
D01*
G02X35394Y11537I150J1*
G01*
G75*
D01*
G02X35611Y11615I141J-52*
G01*
X35611Y11615D01*
X37645Y10449D01*
X37645Y10449D01*
X39653Y9298D01*
X39653Y9298D01*
X39809Y9209D01*
X39809Y12889D01*
X37645Y14175D01*
X37645Y14175D01*
X35458Y15473D01*
G75*
D01*
G02X35385Y15603I77J130*
G01*
X35385Y15603D01*
X35385Y18748D01*
G75*
D01*
G02X35435Y18861I150J0*
G01*
G75*
D01*
G02X35611Y18879I100J-113*
G01*
X35611Y18879D01*
X35840Y18747D01*
X35840Y18747D01*
X37645Y17706D01*
X37645Y17706D01*
X39196Y16812D01*
X39196Y16812D01*
X39196Y16812D01*
X40630Y15984D01*
X41291Y18747D01*
X41291Y18747D01*
X41672Y20340D01*
X41672Y20341D01*
X41672Y20341D01*
X41947Y21488D01*
G75*
D01*
G02X42201Y21560I147J-35*
G01*
X42201Y21560D01*
X44419Y19341D01*
G75*
D01*
G02X44458Y19197I-107J-106*
G01*
X44458Y19197D01*
X44343Y18747D01*
X44343Y18747D01*
X43208Y14305D01*
X45813Y11688D01*
X47078Y16361D01*
G75*
D01*
G02X47251Y16470I145J-40*
G01*
G74*
D01*
G02X47330Y16428I28J149*
G01*
X47330Y16428D01*
X48473Y15288D01*
X48473Y15287D01*
X48473Y15287D01*
X49042Y14719D01*
G74*
D01*
G02X49067Y14684I107J107*
G01*
G75*
D01*
G02X49080Y14571I-132J-72*
G01*
X49080Y14571D01*
X48327Y11902D01*
X49690Y10539D01*
X49690Y10538D01*
X49690Y10538D01*
X50931Y9298D01*
X50931Y9298D01*
X50941Y9287D01*
X50945Y9298D01*
X50945Y9298D01*
X51694Y11750D01*
G75*
D01*
G02X51945Y11813I144J-44*
G01*
X51945Y11813D01*
X53902Y9853D01*
X56542Y9904D01*
X56542Y9904D01*
X56756Y9908D01*
X56806Y12759D01*
X56542Y13024D01*
X56542Y13024D01*
X54851Y14719D01*
G75*
D01*
G02X54914Y14970I107J107*
G01*
X54914Y14970D01*
X56542Y15464D01*
X56542Y15464D01*
X57379Y15718D01*
X56700Y16400D01*
X56542Y16557D01*
X56542Y16557D01*
X54765Y18332D01*
X52090Y17582D01*
G75*
D01*
G02X52044Y17576I-40J145*
G01*
G74*
D01*
G02X51943Y17620I6J151*
G01*
X51943Y17620D01*
X50816Y18747D01*
X50816Y18747D01*
X50234Y19329D01*
G75*
D01*
G02X50274Y19571I106J106*
G01*
G74*
D01*
G02X50301Y19581I66J136*
G01*
X50301Y19581D01*
X54966Y20848D01*
X52361Y23451D01*
X48360Y22437D01*
X47464Y22206D01*
G75*
D01*
G02X47320Y22245I-37J146*
G01*
X47320Y22245D01*
X47093Y22472D01*
X47093Y22472D01*
X45094Y24472D01*
G75*
D01*
G02X45165Y24725I106J106*
G01*
X45165Y24725D01*
X47093Y25200D01*
X47093Y25200D01*
X50514Y26044D01*
G75*
D01*
G02X50626Y26191I151J1*
G01*
X50626Y26191D01*
X50757Y26226D01*
X49545Y28196D01*
X49545Y28196D01*
X47792Y31045D01*
G75*
D01*
G02X47921Y31274I129J79*
G01*
X47921Y31274D01*
X51061Y31274D01*
G74*
D01*
G02X51191Y31200I0J150*
G01*
X51191Y31200D01*
X52976Y28196D01*
X52976Y28196D01*
X53479Y27350D01*
X53479Y27350D01*
X53479Y27350D01*
X53770Y26857D01*
X57457Y26857D01*
X56689Y28196D01*
X56689Y28196D01*
X56542Y28452D01*
X56542Y28452D01*
X55594Y30104D01*
X55049Y31048D01*
G75*
D01*
G02X55179Y31274I130J76*
G01*
X55179Y31274D01*
X57601Y31274D01*
G74*
D01*
G02X57733Y31197I0J150*
G01*
X57733Y31197D01*
X59087Y28785D01*
X62786Y28785D01*
X61967Y30319D01*
X61967Y30319D01*
X61967Y30319D01*
X61576Y31053D01*
G75*
D01*
G02X61709Y31274I133J71*
G01*
X61709Y31274D01*
X64479Y31274D01*
X65991Y32841D01*
X65991Y32841D01*
X66459Y33326D01*
X65991Y33811D01*
X65991Y33811D01*
X64474Y35387D01*
X61704Y35387D01*
G75*
D01*
G02X61642Y35401I0J151*
G01*
G75*
D01*
G02X61571Y35609I62J137*
G01*
X61571Y35609D01*
X62656Y37645D01*
X62656Y37645D01*
X62781Y37879D01*
X59080Y37879D01*
X58948Y37645D01*
X58948Y37645D01*
X57728Y35465D01*
G74*
D01*
G02X57611Y35388I132J73*
G01*
G75*
D01*
G02X57596Y35387I-15J150*
G01*
X57596Y35387D01*
X55174Y35387D01*
G75*
D01*
G02X55149Y35389I0J151*
G01*
G75*
D01*
G02X55043Y35613I25J149*
G01*
X55043Y35613D01*
X56210Y37645D01*
X56210Y37645D01*
X56542Y38223D01*
X56542Y38223D01*
X57452Y39806D01*
X53765Y39806D01*
X52480Y37645D01*
X52480Y37645D01*
X51183Y35461D01*
G74*
D01*
G02X51108Y35397I130J77*
G01*
G75*
D01*
G02X51053Y35387I-55J141*
G01*
X51053Y35387D01*
X47905Y35387D01*
G75*
D01*
G02X47832Y35406I0J151*
G01*
G75*
D01*
G02X47775Y35613I73J132*
G01*
X47775Y35613D01*
X48947Y37645D01*
X48947Y37645D01*
X50369Y40110D01*
X50369Y40110D01*
X50369Y40110D01*
X50670Y40630D01*
X47093Y41486D01*
X47093Y41486D01*
X45168Y41947D01*
G75*
D01*
G02X45096Y42200I35J147*
G01*
X45096Y42200D01*
X46944Y44051D01*
X46944Y44051D01*
X46944Y44051D01*
X47095Y44201D01*
X47315Y44422D01*
G75*
D01*
G02X47459Y44461I107J-107*
G01*
X47459Y44461D01*
X52356Y43213D01*
X54961Y45818D01*
X50296Y47088D01*
G75*
D01*
G02X50229Y47341I39J146*
G01*
X50229Y47341D01*
X51938Y49047D01*
G74*
D01*
G02X52011Y49087I106J107*
G01*
G75*
D01*
G02X52085Y49085I33J-147*
G01*
X52085Y49085D01*
X54760Y48334D01*
X56542Y50116D01*
X56542Y50116D01*
X57374Y50946D01*
X56542Y51200D01*
X56542Y51200D01*
X54909Y51697D01*
G75*
D01*
G02X54846Y51948I44J144*
G01*
X54846Y51948D01*
X56542Y53645D01*
X56542Y53645D01*
X56801Y53905D01*
X56754Y56542D01*
X56754Y56542D01*
X56751Y56758D01*
X56542Y56762D01*
X56542Y56762D01*
X53897Y56809D01*
X53631Y56542D01*
X53631Y56542D01*
X51940Y54849D01*
G75*
D01*
G02X51689Y54911I-107J106*
G01*
X51689Y54911D01*
X51191Y56542D01*
X51191Y56542D01*
X50936Y57374D01*
X50103Y56542D01*
X50103Y56542D01*
X48322Y54762D01*
X49075Y52093D01*
G75*
D01*
G02X49036Y51945I-145J-41*
G01*
X49036Y51945D01*
X47325Y50234D01*
G75*
D01*
G02X47073Y50301I-107J106*
G01*
X47073Y50301D01*
X45808Y54971D01*
X43203Y52367D01*
X44453Y47470D01*
G75*
D01*
G02X44456Y47407I-146J-38*
G01*
G74*
D01*
G02X44414Y47325I149J25*
G01*
X44414Y47325D01*
X44182Y47093D01*
X44182Y47093D01*
X42187Y45096D01*
G75*
D01*
G02X41935Y45164I-106J107*
G01*
X41935Y45164D01*
X41419Y47093D01*
X41419Y47093D01*
X40438Y50758D01*
X37645Y49046D01*
X37645Y49046D01*
X36641Y48431D01*
X36641Y48431D01*
X36641Y48431D01*
X35609Y47800D01*
G74*
D01*
G02X35588Y47790I79J129*
G01*
G75*
D01*
G02X35379Y47929I-58J139*
G01*
X35379Y47929D01*
X35379Y51066D01*
G75*
D01*
G02X35453Y51196I151J0*
G01*
X35453Y51196D01*
X37645Y52496D01*
X37645Y52496D01*
X39804Y53777D01*
X39804Y57462D01*
X38198Y56542D01*
X38198Y56542D01*
X37645Y56225D01*
X37645Y56225D01*
X35605Y55056D01*
G74*
D01*
G02X35588Y55048I75J131*
G01*
G75*
D01*
G02X35379Y55188I-58J139*
G01*
X35379Y55188D01*
X35379Y57606D01*
G75*
D01*
G02X35456Y57738I151J1*
G01*
X35456Y57738D01*
X37645Y58963D01*
X37645Y58963D01*
X37876Y59093D01*
X37876Y62787D01*
X37645Y62664D01*
X37645Y62664D01*
X35601Y61579D01*
G74*
D01*
G02X35586Y61572I71J133*
G01*
G75*
D01*
G02X35379Y61712I-56J140*
G01*
X35379Y61712D01*
X35379Y64482D01*
X33813Y65991D01*
X33813Y65991D01*
X33330Y66457D01*
X32846Y65991D01*
X32846Y65991D01*
X31279Y64482D01*
X31279Y61712D01*
G75*
D01*
G02X31136Y61561I-150J0*
G01*
G75*
D01*
G02X31058Y61579I-7J151*
G01*
X31058Y61579D01*
X28780Y62787D01*
X28780Y59093D01*
X31202Y57738D01*
G74*
D01*
G02X31279Y57607I73J131*
G01*
X31279Y57607D01*
X31279Y55187D01*
G75*
D01*
G02X31136Y55037I-150J0*
G01*
G75*
D01*
G02X31054Y55056I-7J150*
G01*
X31054Y55056D01*
X28462Y56542D01*
X28462Y56542D01*
X28459Y56544D01*
X28196Y56695D01*
X28196Y56695D01*
X26857Y57462D01*
X26857Y53777D01*
X28196Y52983D01*
X28196Y52983D01*
X29893Y51976D01*
X31208Y51196D01*
G74*
D01*
G02X31282Y51066I77J130*
G01*
X31282Y51066D01*
X31282Y47916D01*
G75*
D01*
G02X31113Y47766I-151J0*
G01*
G74*
D01*
G02X31053Y47787I18J150*
G01*
X31053Y47787D01*
X28196Y49516D01*
X28196Y49516D01*
X26342Y50637D01*
G75*
D01*
G02X26164Y50604I-111J102*
G01*
G74*
D01*
G02X26154Y50610I67J135*
G01*
X26154Y50610D01*
X26039Y50678D01*
X25181Y47093D01*
X25181Y47093D01*
X24725Y45189D01*
G75*
D01*
G02X24537Y45065I-149J21*
G01*
G74*
D01*
G02X24469Y45104I39J145*
G01*
X24469Y45104D01*
X22480Y47093D01*
X22480Y47093D01*
X22245Y47328D01*
G75*
D01*
G02X22206Y47472I107J107*
G01*
X22206Y47472D01*
X23456Y52369D01*
X20849Y54974D01*
X19586Y50304D01*
G75*
D01*
G02X19334Y50237I-145J39*
G01*
X19334Y50237D01*
X18747Y50824D01*
X17623Y51948D01*
G75*
D01*
G02X17584Y52096I106J107*
G01*
X17584Y52096D01*
X18332Y54765D01*
X17445Y55654D01*
X17445Y55654D01*
X17445Y55654D01*
X16557Y56542D01*
X16557Y56542D01*
X15722Y57377D01*
X15466Y56542D01*
X15466Y56542D01*
X15402Y56337D01*
X14970Y54912D01*
G75*
D01*
G02X14719Y54849I-144J43*
G01*
X14719Y54849D01*
X13021Y56542D01*
X13021Y56542D01*
X12754Y56809D01*
X9879Y56753D01*
X9878Y56542D01*
X9878Y56542D01*
X9867Y54584D01*
X9867Y54582D01*
X9867Y54582D01*
X9856Y53902D01*
X11813Y51945D01*
G75*
D01*
G02X11750Y51694I-107J-107*
G01*
X11750Y51694D01*
X9298Y50947D01*
X9298Y50947D01*
X9288Y50944D01*
X9298Y50933D01*
X9298Y50933D01*
X11900Y48332D01*
X14569Y49083D01*
G75*
D01*
G02X14716Y49044I41J-145*
G01*
X14716Y49044D01*
X16428Y47338D01*
G75*
D01*
G02X16361Y47086I-107J-107*
G01*
X16361Y47086D01*
X11693Y45815D01*
X12219Y45289D01*
G74*
D01*
G02X12220Y45288I106J107*
G01*
X12220Y45288D01*
X14300Y43208D01*
X18747Y44340D01*
X18747Y44340D01*
X19200Y44456D01*
G75*
D01*
G02X19344Y44416I37J-146*
G01*
X19344Y44416D01*
X21125Y42640D01*
X21126Y42640D01*
X21126Y42640D01*
X21568Y42192D01*
G75*
D01*
G02X21539Y41957I-107J-106*
G01*
G74*
D01*
G02X21500Y41940I78J129*
G01*
X21500Y41940D01*
X18747Y41201D01*
X18747Y41201D01*
X15904Y40438D01*
X17623Y37645D01*
X17623Y37645D01*
X18264Y36603D01*
X18265Y36602D01*
X18265Y36602D01*
X18747Y35812D01*
X18747Y35812D01*
X18866Y35617D01*
G75*
D01*
G02X18843Y35430I-128J-79*
G01*
G75*
D01*
G02X18738Y35387I-105J108*
G01*
X18738Y35387D01*
X15603Y35387D01*
G75*
D01*
G02X15568Y35391I0J151*
G01*
G74*
D01*
G02X15473Y35461I35J147*
G01*
X15473Y35461D01*
X14179Y37645D01*
X14179Y37645D01*
X13319Y39095D01*
X12895Y39809D01*
X9207Y39809D01*
X9298Y39651D01*
X9298Y39651D01*
X9788Y38797D01*
X9788Y38797D01*
X9788Y38797D01*
X10448Y37645D01*
X10448Y37645D01*
X11610Y35616D01*
G75*
D01*
G02X11534Y35400I-130J-76*
G01*
G75*
D01*
G02X11479Y35390I-54J140*
G01*
X11479Y35390D01*
X9066Y35390D01*
G75*
D01*
G02X8934Y35467I-1J150*
G01*
X8934Y35467D01*
X7710Y37645D01*
X7710Y37645D01*
X7577Y37881D01*
X3885Y37881D01*
X4011Y37645D01*
X4011Y37645D01*
X5088Y35611D01*
G75*
D01*
G02X5090Y35474I-133J-71*
G01*
G75*
D01*
G02X4955Y35390I-135J66*
G01*
X4955Y35390D01*
X2185Y35390D01*
X209Y33337D01*
X2185Y31279D01*
X4955Y31279D01*
G75*
D01*
G02X5088Y31058I0J-150*
G01*
X5088Y31058D01*
X3885Y28791D01*
X7577Y28791D01*
X8934Y31203D01*
G75*
D01*
G02X9066Y31279I131J-74*
G01*
X9066Y31279D01*
X11480Y31279D01*
G75*
D01*
G02X11610Y31053I0J-150*
G01*
X11610Y31053D01*
X9972Y28196D01*
X9972Y28196D01*
X9298Y27021D01*
X9298Y27021D01*
X9207Y26863D01*
X12895Y26863D01*
X13686Y28196D01*
X13686Y28196D01*
X15473Y31206D01*
G75*
D01*
G02X15603Y31279I130J-77*
G01*
X15603Y31279D01*
X18751Y31279D01*
G75*
D01*
G02X18880Y31050I0J-150*
G01*
X18880Y31050D01*
X18747Y30832D01*
X18747Y30832D01*
X17147Y28196D01*
X17147Y28196D01*
X16023Y26345D01*
G75*
D01*
G02X16055Y26155I-98J-115*
G01*
X16055Y26155D01*
X15989Y26042D01*
X18747Y25380D01*
X18747Y25380D01*
X21488Y24722D01*
G75*
D01*
G02X21560Y24469I-35J-146*
G01*
X21560Y24469D01*
X19344Y22248D01*
G75*
D01*
G02X19200Y22208I-107J106*
G01*
X19200Y22208D01*
X18747Y22324D01*
X18747Y22324D01*
X14300Y23456D01*
X11696Y20854D01*
X16363Y19586D01*
G75*
D01*
G02X16430Y19334I-39J-145*
G01*
X16430Y19334D01*
X15842Y18747D01*
X15842Y18747D01*
X14719Y17625D01*
G75*
D01*
G02X14571Y17587I-107J107*
G01*
X14571Y17587D01*
X11902Y18337D01*
X9298Y15731D01*
X9298Y15731D01*
X9290Y15723D01*
X9298Y15721D01*
X9298Y15721D01*
X11752Y14975D01*
G74*
D01*
G02X11804Y14948I43J144*
G01*
G75*
D01*
G02X11815Y14724I-95J-117*
G01*
X11815Y14724D01*
X9858Y12765D01*
X9909Y9911D01*
X12757Y9858D01*
X14722Y11818D01*
G75*
D01*
G02X14969Y11766I106J-107*
G01*
G74*
D01*
G02X14972Y11755I141J55*
G01*
X14972Y11755D01*
X15724Y9298D01*
X15724Y9298D01*
X15725Y9293D01*
X15730Y9298D01*
X15730Y9298D01*
X16971Y10543D01*
X16971Y10544D01*
X16971Y10544D01*
X18335Y11907D01*
X17587Y14576D01*
G75*
D01*
G02X17625Y14724I145J41*
G01*
X17625Y14724D01*
X18747Y15844D01*
X18747Y15844D01*
X19337Y16433D01*
G75*
D01*
G02X19589Y16365I106J-107*
G01*
X19589Y16365D01*
X20657Y12415D01*
X20657Y12415D01*
X20657Y12415D01*
X20852Y11696D01*
X23459Y14313D01*
X22326Y18747D01*
X22326Y18747D01*
X22209Y19205D01*
G75*
D01*
G02X22248Y19349I146J38*
G01*
X22248Y19349D01*
X24474Y21578D01*
G75*
D01*
G02X24727Y21508I107J-106*
G01*
X24727Y21508D01*
X25407Y18747D01*
X25407Y18747D01*
X26044Y16158D01*
G74*
D01*
G02X26188Y16048I1J151*
G01*
X26188Y16048D01*
X26226Y15915D01*
X28196Y17121D01*
X28196Y17121D01*
X30851Y18747D01*
X30851Y18747D01*
X31037Y18861D01*
G75*
D01*
G02X31192Y18885I97J-115*
G01*
G74*
D01*
G02X31285Y18746I58J139*
G01*
X31285Y18746D01*
X31285Y15605D01*
G75*
D01*
G02X31211Y15476I-151J0*
G01*
D02*
G37*
%LPC*%
G36*
X18721Y28086D02*
G74*
D01*
G02X18576Y28231I89J234*
G01*
X18576Y28231D01*
X18721Y28231D01*
X18721Y28086D01*
D02*
G37*
G36*
X28196Y18393D02*
G75*
D01*
G02X28196Y18393I154J197*
G01*
D02*
G37*
G36*
X39894Y18747D02*
G75*
D01*
G02X39894Y18747I215J128*
G01*
D02*
G37*
G36*
X47069Y26396D02*
X47069Y26396D01*
X47069Y26541D01*
X47214Y26541D01*
G74*
D01*
G02X47069Y26396I234J89*
G01*
D02*
G37*
G36*
X47069Y26864D02*
G74*
D01*
G02X47214Y26719I89J234*
G01*
X47214Y26719D01*
X47069Y26719D01*
X47069Y26864D01*
D02*
G37*
G36*
X18086Y47093D02*
G75*
D01*
G02X18086Y47093I226J-107*
G01*
D02*
G37*
G36*
X47093Y18533D02*
G75*
D01*
G02X47093Y18533I-113J-223*
G01*
D02*
G37*
G36*
X48122Y47093D02*
G75*
D01*
G02X48122Y47093I228J-103*
G01*
D02*
G37*
G36*
X47093Y48579D02*
G75*
D01*
G02X47093Y48579I-117J-221*
G01*
D02*
G37*
G36*
X31118Y47093D02*
G75*
D01*
G02X31118Y47093I-68J-343*
G01*
D02*
G37*
G36*
X38301Y45734D02*
G75*
D01*
G02X38534Y45658I89J-122*
G01*
G74*
D01*
G02X38537Y45646I144J46*
G01*
X38537Y45646D01*
X39309Y42323D01*
G75*
D01*
G02X39274Y42189I-147J-34*
G01*
X39274Y42189D01*
X37645Y40364D01*
X37645Y40364D01*
X36033Y38560D01*
G74*
D01*
G02X35985Y38524I113J100*
G01*
G75*
D01*
G02X35769Y38660I-65J136*
G01*
X35769Y38660D01*
X35769Y43800D01*
G75*
D01*
G02X35831Y43922I151J0*
G01*
X35831Y43922D01*
X37645Y45252D01*
X37645Y45252D01*
X38301Y45734D01*
D02*
G37*
G36*
X27361Y42197D02*
X27360Y42198D01*
G75*
D01*
G02X27327Y42331I114J99*
G01*
X27327Y42331D01*
X28076Y45630D01*
G75*
D01*
G02X28311Y45719I147J-33*
G01*
X28311Y45719D01*
X30808Y43922D01*
G74*
D01*
G02X30852Y43873I88J122*
G01*
G75*
D01*
G02X30871Y43800I-132J-73*
G01*
X30871Y43800D01*
X30871Y38655D01*
G75*
D01*
G02X30607Y38555I-151J0*
G01*
X30607Y38555D01*
X28196Y41261D01*
X28196Y41261D01*
X27361Y42197D01*
D02*
G37*
G36*
X44178Y35851D02*
G75*
D01*
G02X44050Y35779I-128J79*
G01*
X44050Y35779D01*
X39040Y35779D01*
G75*
D01*
G02X38972Y35795I0J151*
G01*
G75*
D01*
G02X38933Y36037I68J135*
G01*
X38933Y36037D01*
X40540Y37645D01*
X40540Y37645D01*
X42178Y39284D01*
G75*
D01*
G02X42317Y39325I106J-106*
G01*
X42317Y39325D01*
X45275Y38658D01*
X45622Y38580D01*
G75*
D01*
G02X45717Y38354I-33J-147*
G01*
X45717Y38354D01*
X45281Y37645D01*
X45281Y37645D01*
X44178Y35851D01*
D02*
G37*
G36*
X45738Y28196D02*
X45738Y28196D01*
X45738Y28196D01*
G74*
D01*
G02X45638Y28120I133J71*
G01*
X45638Y28120D01*
X42313Y27348D01*
G75*
D01*
G02X42172Y27388I-34J147*
G01*
X42172Y27388D01*
X41366Y28196D01*
X41366Y28196D01*
X39751Y29812D01*
X38934Y30623D01*
G75*
D01*
G02X38889Y30737I106J107*
G01*
G75*
D01*
G02X39040Y30881I151J-7*
G01*
X39040Y30881D01*
X44050Y30881D01*
G74*
D01*
G02X44178Y30810I0J151*
G01*
X44178Y30810D01*
X44996Y29513D01*
X44996Y29513D01*
X44996Y29513D01*
X45732Y28347D01*
G74*
D01*
G02X45755Y28268I127J80*
G01*
G75*
D01*
G02X45738Y28196I-150J-1*
G01*
D02*
G37*
G36*
X35832Y22737D02*
G75*
D01*
G02X35769Y22860I88J123*
G01*
X35769Y22860D01*
X35769Y28020D01*
G75*
D01*
G02X35783Y28084I151J0*
G01*
G75*
D01*
G02X36033Y28120I137J-64*
G01*
X36033Y28120D01*
X37645Y26311D01*
X37645Y26311D01*
X39285Y24470D01*
G75*
D01*
G02X39319Y24336I-113J-100*
G01*
X39319Y24336D01*
X38570Y21034D01*
G75*
D01*
G02X38335Y20945I-147J33*
G01*
X38335Y20945D01*
X37645Y21440D01*
X37645Y21440D01*
X35832Y22737D01*
D02*
G37*
G36*
X28107Y21023D02*
X28107Y21023D01*
X27554Y23399D01*
X27553Y23399D01*
X27553Y23399D01*
X27335Y24346D01*
G75*
D01*
G02X27369Y24480I147J34*
G01*
X27369Y24480D01*
X28196Y25409D01*
X28196Y25409D01*
X30607Y28120D01*
G75*
D01*
G02X30735Y28170I113J-100*
G01*
G74*
D01*
G02X30871Y28020I15J150*
G01*
X30871Y28020D01*
X30871Y22860D01*
G75*
D01*
G02X30809Y22738I-151J0*
G01*
X30809Y22738D01*
X28343Y20935D01*
G75*
D01*
G02X28107Y21023I-89J122*
G01*
D02*
G37*
G36*
X27977Y37645D02*
G75*
D01*
G02X27977Y37645I-87J-235*
G01*
D02*
G37*
G36*
X27706Y36037D02*
G74*
D01*
G02X27751Y35935I106J107*
G01*
G75*
D01*
G02X27599Y35779I-151J-5*
G01*
X27599Y35779D01*
X22610Y35779D01*
G75*
D01*
G02X22484Y35847I0J151*
G01*
X22483Y35849D01*
X22483Y35849D01*
X21344Y37645D01*
X21344Y37645D01*
X21035Y38131D01*
X21035Y38132D01*
X21035Y38132D01*
X20917Y38320D01*
G75*
D01*
G02X21010Y38547I127J80*
G01*
X21010Y38547D01*
X24330Y39316D01*
G75*
D01*
G02X24471Y39276I35J-146*
G01*
X24471Y39276D01*
X26101Y37645D01*
X26101Y37645D01*
X27706Y36037D01*
D02*
G37*
G36*
X24464Y27380D02*
G75*
D01*
G02X24323Y27340I-107J107*
G01*
X24323Y27340D01*
X21026Y28091D01*
G75*
D01*
G02X20932Y28318I34J147*
G01*
X20932Y28318D01*
X22481Y30809D01*
G75*
D01*
G02X22610Y30881I129J-79*
G01*
X22610Y30881D01*
X27592Y30880D01*
G75*
D01*
G02X27751Y30730I8J-150*
G01*
G75*
D01*
G02X27702Y30618I-151J0*
G01*
X27702Y30618D01*
X25279Y28196D01*
X25279Y28196D01*
X24464Y27380D01*
D02*
G37*
G36*
X18899Y28086D02*
X18899Y28086D01*
X18899Y28231D01*
X19044Y28231D01*
G74*
D01*
G02X18899Y28086I234J89*
G01*
D02*
G37*
G36*
X18576Y28409D02*
G74*
D01*
G02X18721Y28554I234J89*
G01*
X18721Y28554D01*
X18721Y28409D01*
X18576Y28409D01*
D02*
G37*
G36*
X18170Y26080D02*
G75*
D01*
G02X18170Y26080I250J0*
G01*
D02*
G37*
G36*
X17410Y38730D02*
G75*
D01*
G02X17410Y38730I250J0*
G01*
D02*
G37*
G36*
X26220Y47580D02*
G75*
D01*
G02X26220Y47580I250J0*
G01*
D02*
G37*
G36*
X48650Y27920D02*
G75*
D01*
G02X48650Y27920I250J0*
G01*
D02*
G37*
G36*
X47896Y40517D02*
G75*
D01*
G02X47896Y40517I250J0*
G01*
D02*
G37*
G36*
X47700Y38240D02*
G75*
D01*
G02X47700Y38240I50J0*
G01*
D02*
G37*
G36*
X47661Y38006D02*
G74*
D01*
G02X47516Y38151I89J234*
G01*
X47516Y38151D01*
X47661Y38151D01*
X47661Y38006D01*
D02*
G37*
G36*
X47984Y38151D02*
G74*
D01*
G02X47839Y38006I234J89*
G01*
X47839Y38006D01*
X47839Y38151D01*
X47984Y38151D01*
D02*
G37*
G36*
X47839Y38474D02*
G74*
D01*
G02X47984Y38329I89J234*
G01*
X47984Y38329D01*
X47839Y38329D01*
X47839Y38474D01*
D02*
G37*
G36*
X47516Y38329D02*
G74*
D01*
G02X47661Y38474I234J89*
G01*
X47661Y38474D01*
X47661Y38329D01*
X47516Y38329D01*
D02*
G37*
G36*
X37962Y47973D02*
G75*
D01*
G02X37962Y47973I250J0*
G01*
D02*
G37*
G36*
X47410Y46100D02*
G75*
D01*
G02X47410Y46100I50J0*
G01*
D02*
G37*
G36*
X47694Y46011D02*
G74*
D01*
G02X47549Y45866I234J89*
G01*
X47549Y45866D01*
X47549Y46011D01*
X47694Y46011D01*
D02*
G37*
G36*
X47549Y46334D02*
G74*
D01*
G02X47694Y46189I89J234*
G01*
X47694Y46189D01*
X47549Y46189D01*
X47549Y46334D01*
D02*
G37*
G36*
X47371Y45866D02*
G74*
D01*
G02X47226Y46011I89J234*
G01*
X47226Y46011D01*
X47371Y46011D01*
X47371Y45866D01*
D02*
G37*
G36*
X47226Y46189D02*
G74*
D01*
G02X47371Y46334I234J89*
G01*
X47371Y46334D01*
X47371Y46189D01*
X47226Y46189D01*
D02*
G37*
G36*
X45830Y47480D02*
G75*
D01*
G02X45830Y47480I250J0*
G01*
D02*
G37*
G36*
X18040Y19690D02*
G75*
D01*
G02X18040Y19690I250J0*
G01*
D02*
G37*
G36*
X19434Y18312D02*
G75*
D01*
G02X19434Y18312I250J0*
G01*
D02*
G37*
G36*
X48090Y19680D02*
G75*
D01*
G02X48090Y19680I250J0*
G01*
D02*
G37*
G36*
X47200Y20590D02*
G75*
D01*
G02X47200Y20590I250J0*
G01*
D02*
G37*
G36*
X20471Y47236D02*
G74*
D01*
G02X20326Y47381I89J234*
G01*
X20326Y47381D01*
X20471Y47381D01*
X20471Y47236D01*
D02*
G37*
G36*
X20794Y47381D02*
G74*
D01*
G02X20649Y47236I234J89*
G01*
X20649Y47236D01*
X20649Y47381D01*
X20794Y47381D01*
D02*
G37*
G36*
X20326Y47559D02*
G74*
D01*
G02X20471Y47704I234J89*
G01*
X20471Y47704D01*
X20471Y47559D01*
X20326Y47559D01*
D02*
G37*
G36*
X20649Y47704D02*
G74*
D01*
G02X20794Y47559I89J234*
G01*
X20794Y47559D01*
X20649Y47559D01*
X20649Y47704D01*
D02*
G37*
G36*
X20510Y47470D02*
G75*
D01*
G02X20510Y47470I50J0*
G01*
D02*
G37*
G36*
X19440Y48360D02*
G75*
D01*
G02X19440Y48360I250J0*
G01*
D02*
G37*
G36*
X5880Y32370D02*
G75*
D01*
G02X5880Y32370I250J0*
G01*
D02*
G37*
G36*
X7140Y32360D02*
G75*
D01*
G02X7140Y32360I250J0*
G01*
D02*
G37*
G36*
X5860Y34330D02*
G75*
D01*
G02X5860Y34330I250J0*
G01*
D02*
G37*
G36*
X7146Y34399D02*
G74*
D01*
G02X7291Y34544I234J89*
G01*
X7291Y34544D01*
X7291Y34399D01*
X7146Y34399D01*
D02*
G37*
G36*
X7469Y34544D02*
G74*
D01*
G02X7614Y34399I89J234*
G01*
X7614Y34399D01*
X7469Y34399D01*
X7469Y34544D01*
D02*
G37*
G36*
X7614Y34221D02*
G74*
D01*
G02X7469Y34076I234J89*
G01*
X7469Y34076D01*
X7469Y34221D01*
X7614Y34221D01*
D02*
G37*
G36*
X7291Y34076D02*
G74*
D01*
G02X7146Y34221I89J234*
G01*
X7146Y34221D01*
X7291Y34221D01*
X7291Y34076D01*
D02*
G37*
G36*
X7330Y34310D02*
G75*
D01*
G02X7330Y34310I50J0*
G01*
D02*
G37*
G36*
X32090Y6120D02*
G75*
D01*
G02X32090Y6120I250J0*
G01*
D02*
G37*
G36*
X34050Y6130D02*
G75*
D01*
G02X34050Y6130I250J0*
G01*
D02*
G37*
G36*
X32126Y7469D02*
G74*
D01*
G02X32271Y7614I234J89*
G01*
X32271Y7614D01*
X32271Y7469D01*
X32126Y7469D01*
D02*
G37*
G36*
X32271Y7146D02*
G74*
D01*
G02X32126Y7291I89J234*
G01*
X32126Y7291D01*
X32271Y7291D01*
X32271Y7146D01*
D02*
G37*
G36*
X32449Y7614D02*
G74*
D01*
G02X32594Y7469I89J234*
G01*
X32594Y7469D01*
X32449Y7469D01*
X32449Y7614D01*
D02*
G37*
G36*
X32594Y7291D02*
G74*
D01*
G02X32449Y7146I234J89*
G01*
X32449Y7146D01*
X32449Y7291D01*
X32594Y7291D01*
D02*
G37*
G36*
X32310Y7380D02*
G75*
D01*
G02X32310Y7380I50J0*
G01*
D02*
G37*
G36*
X34040Y7380D02*
G75*
D01*
G02X34040Y7380I250J0*
G01*
D02*
G37*
G36*
X59191Y32146D02*
G74*
D01*
G02X59046Y32291I89J234*
G01*
X59046Y32291D01*
X59191Y32291D01*
X59191Y32146D01*
D02*
G37*
G36*
X59514Y32291D02*
G74*
D01*
G02X59369Y32146I234J89*
G01*
X59369Y32146D01*
X59369Y32291D01*
X59514Y32291D01*
D02*
G37*
G36*
X60270Y32370D02*
G75*
D01*
G02X60270Y32370I250J0*
G01*
D02*
G37*
G36*
X59046Y32469D02*
G74*
D01*
G02X59191Y32614I234J89*
G01*
X59191Y32614D01*
X59191Y32469D01*
X59046Y32469D01*
D02*
G37*
G36*
X59369Y32614D02*
G74*
D01*
G02X59514Y32469I89J234*
G01*
X59514Y32469D01*
X59369Y32469D01*
X59369Y32614D01*
D02*
G37*
G36*
X59230Y32380D02*
G75*
D01*
G02X59230Y32380I50J0*
G01*
D02*
G37*
G36*
X59020Y34320D02*
G75*
D01*
G02X59020Y34320I250J0*
G01*
D02*
G37*
G36*
X60280Y34310D02*
G75*
D01*
G02X60280Y34310I250J0*
G01*
D02*
G37*
G36*
X32100Y59280D02*
G75*
D01*
G02X32100Y59280I250J0*
G01*
D02*
G37*
G36*
X34534Y59191D02*
G74*
D01*
G02X34389Y59046I234J89*
G01*
X34389Y59046D01*
X34389Y59191D01*
X34534Y59191D01*
D02*
G37*
G36*
X34211Y59046D02*
G74*
D01*
G02X34066Y59191I89J234*
G01*
X34066Y59191D01*
X34211Y59191D01*
X34211Y59046D01*
D02*
G37*
G36*
X34066Y59369D02*
G74*
D01*
G02X34211Y59514I234J89*
G01*
X34211Y59514D01*
X34211Y59369D01*
X34066Y59369D01*
D02*
G37*
G36*
X34389Y59514D02*
G74*
D01*
G02X34534Y59369I89J234*
G01*
X34534Y59369D01*
X34389Y59369D01*
X34389Y59514D01*
D02*
G37*
G36*
X34250Y59280D02*
G75*
D01*
G02X34250Y59280I50J0*
G01*
D02*
G37*
G36*
X32110Y60530D02*
G75*
D01*
G02X32110Y60530I250J0*
G01*
D02*
G37*
G36*
X34050Y60530D02*
G75*
D01*
G02X34050Y60530I250J0*
G01*
D02*
G37*
G36*
X32560Y63130D02*
G75*
D01*
G02X32560Y63130I770J0*
G01*
D02*
G37*
G36*
X51836Y50789D02*
G74*
D01*
G02X51981Y50934I234J89*
G01*
X51981Y50934D01*
X51981Y50789D01*
X51836Y50789D01*
D02*
G37*
G36*
X51981Y50466D02*
G74*
D01*
G02X51836Y50611I89J234*
G01*
X51836Y50611D01*
X51981Y50611D01*
X51981Y50466D01*
D02*
G37*
G36*
X52159Y50934D02*
G74*
D01*
G02X52304Y50789I89J234*
G01*
X52304Y50789D01*
X52159Y50789D01*
X52159Y50934D01*
D02*
G37*
G36*
X52304Y50611D02*
G74*
D01*
G02X52159Y50466I234J89*
G01*
X52159Y50466D01*
X52159Y50611D01*
X52304Y50611D01*
D02*
G37*
G36*
X52020Y50700D02*
G75*
D01*
G02X52020Y50700I50J0*
G01*
D02*
G37*
G36*
X50420Y52090D02*
G75*
D01*
G02X50420Y52090I250J0*
G01*
D02*
G37*
G36*
X52710Y51590D02*
G75*
D01*
G02X52710Y51590I250J0*
G01*
D02*
G37*
G36*
X51336Y52968D02*
G75*
D01*
G02X51336Y52968I250J0*
G01*
D02*
G37*
G36*
X53690Y54460D02*
G75*
D01*
G02X53690Y54460I770J0*
G01*
D02*
G37*
G36*
X34554Y48007D02*
G74*
D01*
G02X34409Y47862I234J89*
G01*
X34409Y47862D01*
X34409Y48007D01*
X34554Y48007D01*
D02*
G37*
G36*
X34231Y47862D02*
G74*
D01*
G02X34086Y48007I89J234*
G01*
X34086Y48007D01*
X34231Y48007D01*
X34231Y47862D01*
D02*
G37*
G36*
X34086Y48184D02*
G74*
D01*
G02X34231Y48329I234J88*
G01*
X34231Y48329D01*
X34231Y48184D01*
X34086Y48184D01*
D02*
G37*
G36*
X34409Y48329D02*
G74*
D01*
G02X34554Y48184I89J233*
G01*
X34554Y48184D01*
X34409Y48184D01*
X34409Y48329D01*
D02*
G37*
G36*
X34270Y48096D02*
G75*
D01*
G02X34270Y48096I50J0*
G01*
D02*
G37*
G36*
X32090Y52770D02*
G75*
D01*
G02X32090Y52770I250J0*
G01*
D02*
G37*
G36*
X34250Y52780D02*
G75*
D01*
G02X34250Y52780I50J0*
G01*
D02*
G37*
G36*
X34534Y52691D02*
G74*
D01*
G02X34389Y52546I234J89*
G01*
X34389Y52546D01*
X34389Y52691D01*
X34534Y52691D01*
D02*
G37*
G36*
X34211Y52546D02*
G74*
D01*
G02X34066Y52691I89J234*
G01*
X34066Y52691D01*
X34211Y52691D01*
X34211Y52546D01*
D02*
G37*
G36*
X34066Y52869D02*
G74*
D01*
G02X34211Y53014I234J89*
G01*
X34211Y53014D01*
X34211Y52869D01*
X34066Y52869D01*
D02*
G37*
G36*
X34389Y53014D02*
G74*
D01*
G02X34534Y52869I89J234*
G01*
X34534Y52869D01*
X34389Y52869D01*
X34389Y53014D01*
D02*
G37*
G36*
X32110Y54020D02*
G75*
D01*
G02X32110Y54020I250J0*
G01*
D02*
G37*
G36*
X34070Y54020D02*
G75*
D01*
G02X34070Y54020I250J0*
G01*
D02*
G37*
G36*
X14330Y50700D02*
G75*
D01*
G02X14330Y50700I250J0*
G01*
D02*
G37*
G36*
X13452Y51596D02*
G75*
D01*
G02X13452Y51596I250J0*
G01*
D02*
G37*
G36*
X15871Y51846D02*
G74*
D01*
G02X15726Y51991I89J234*
G01*
X15726Y51991D01*
X15871Y51991D01*
X15871Y51846D01*
D02*
G37*
G36*
X16194Y51991D02*
G74*
D01*
G02X16049Y51846I234J89*
G01*
X16049Y51846D01*
X16049Y51991D01*
X16194Y51991D01*
D02*
G37*
G36*
X14820Y52970D02*
G75*
D01*
G02X14820Y52970I250J0*
G01*
D02*
G37*
G36*
X15726Y52169D02*
G74*
D01*
G02X15871Y52314I234J89*
G01*
X15871Y52314D01*
X15871Y52169D01*
X15726Y52169D01*
D02*
G37*
G36*
X16049Y52314D02*
G74*
D01*
G02X16194Y52169I89J234*
G01*
X16194Y52169D01*
X16049Y52169D01*
X16049Y52314D01*
D02*
G37*
G36*
X15910Y52080D02*
G75*
D01*
G02X15910Y52080I50J0*
G01*
D02*
G37*
G36*
X11420Y54460D02*
G75*
D01*
G02X11420Y54460I770J0*
G01*
D02*
G37*
G36*
X52661Y32136D02*
G74*
D01*
G02X52516Y32281I89J234*
G01*
X52516Y32281D01*
X52661Y32281D01*
X52661Y32136D01*
D02*
G37*
G36*
X52984Y32281D02*
G74*
D01*
G02X52839Y32136I234J89*
G01*
X52839Y32136D01*
X52839Y32281D01*
X52984Y32281D01*
D02*
G37*
G36*
X53750Y32360D02*
G75*
D01*
G02X53750Y32360I250J0*
G01*
D02*
G37*
G36*
X52700Y32370D02*
G75*
D01*
G02X52700Y32370I50J0*
G01*
D02*
G37*
G36*
X52516Y32459D02*
G74*
D01*
G02X52661Y32604I234J89*
G01*
X52661Y32604D01*
X52661Y32459D01*
X52516Y32459D01*
D02*
G37*
G36*
X52839Y32604D02*
G74*
D01*
G02X52984Y32459I89J234*
G01*
X52984Y32459D01*
X52839Y32459D01*
X52839Y32604D01*
D02*
G37*
G36*
X52500Y34310D02*
G75*
D01*
G02X52500Y34310I250J0*
G01*
D02*
G37*
G36*
X53750Y34310D02*
G75*
D01*
G02X53750Y34310I250J0*
G01*
D02*
G37*
G36*
X51340Y13700D02*
G75*
D01*
G02X51340Y13700I250J0*
G01*
D02*
G37*
G36*
X50466Y14659D02*
G74*
D01*
G02X50611Y14804I234J89*
G01*
X50611Y14804D01*
X50611Y14659D01*
X50466Y14659D01*
D02*
G37*
G36*
X50789Y14804D02*
G74*
D01*
G02X50934Y14659I89J234*
G01*
X50934Y14659D01*
X50789Y14659D01*
X50789Y14804D01*
D02*
G37*
G36*
X50934Y14481D02*
G74*
D01*
G02X50789Y14336I234J89*
G01*
X50789Y14336D01*
X50789Y14481D01*
X50934Y14481D01*
D02*
G37*
G36*
X50611Y14336D02*
G74*
D01*
G02X50466Y14481I89J234*
G01*
X50466Y14481D01*
X50611Y14481D01*
X50611Y14336D01*
D02*
G37*
G36*
X50650Y14570D02*
G75*
D01*
G02X50650Y14570I50J0*
G01*
D02*
G37*
G36*
X52720Y15080D02*
G75*
D01*
G02X52720Y15080I250J0*
G01*
D02*
G37*
G36*
X51840Y15960D02*
G75*
D01*
G02X51840Y15960I250J0*
G01*
D02*
G37*
G36*
X37389Y37234D02*
G74*
D01*
G02X37534Y37089I89J234*
G01*
X37534Y37089D01*
X37389Y37089D01*
X37389Y37234D01*
D02*
G37*
G36*
X36256Y28879D02*
G74*
D01*
G02X36401Y29024I234J89*
G01*
X36401Y29024D01*
X36401Y28879D01*
X36256Y28879D01*
D02*
G37*
G36*
X36579Y29024D02*
G74*
D01*
G02X36724Y28879I89J234*
G01*
X36724Y28879D01*
X36579Y28879D01*
X36579Y29024D01*
D02*
G37*
G36*
X36724Y28701D02*
G74*
D01*
G02X36579Y28556I234J89*
G01*
X36579Y28556D01*
X36579Y28701D01*
X36724Y28701D01*
D02*
G37*
G36*
X36401Y28556D02*
G74*
D01*
G02X36256Y28701I89J234*
G01*
X36256Y28701D01*
X36401Y28701D01*
X36401Y28556D01*
D02*
G37*
G36*
X36440Y28790D02*
G75*
D01*
G02X36440Y28790I50J0*
G01*
D02*
G37*
G36*
X29004Y30061D02*
G74*
D01*
G02X28859Y29916I234J89*
G01*
X28859Y29916D01*
X28859Y30061D01*
X29004Y30061D01*
D02*
G37*
G36*
X28681Y29916D02*
G74*
D01*
G02X28536Y30061I89J234*
G01*
X28536Y30061D01*
X28681Y30061D01*
X28681Y29916D01*
D02*
G37*
G36*
X28536Y30239D02*
G74*
D01*
G02X28681Y30384I234J89*
G01*
X28681Y30384D01*
X28681Y30239D01*
X28536Y30239D01*
D02*
G37*
G36*
X28859Y30384D02*
G74*
D01*
G02X29004Y30239I89J234*
G01*
X29004Y30239D01*
X28859Y30239D01*
X28859Y30384D01*
D02*
G37*
G36*
X28720Y30150D02*
G75*
D01*
G02X28720Y30150I50J0*
G01*
D02*
G37*
G36*
X35886Y31449D02*
G74*
D01*
G02X36031Y31594I234J89*
G01*
X36031Y31594D01*
X36031Y31449D01*
X35886Y31449D01*
D02*
G37*
G36*
X36209Y31504D02*
X36209Y31504D01*
X36209Y31594D01*
G74*
D01*
G02X36263Y31565I89J234*
G01*
G74*
D01*
G02X36331Y31604I157J195*
G01*
X36331Y31604D01*
X36331Y31494D01*
G74*
D01*
G02X36354Y31449I211J134*
G01*
X36354Y31449D01*
X36209Y31449D01*
X36209Y31459D01*
X36186Y31459D01*
G74*
D01*
G02X36209Y31504I234J89*
G01*
D02*
G37*
G36*
X36354Y31271D02*
G74*
D01*
G02X36331Y31226I234J89*
G01*
X36331Y31226D01*
X36331Y31136D01*
G74*
D01*
G02X36277Y31165I89J234*
G01*
G74*
D01*
G02X36209Y31126I157J195*
G01*
X36209Y31126D01*
X36209Y31236D01*
G74*
D01*
G02X36186Y31281I211J134*
G01*
X36186Y31281D01*
X36331Y31281D01*
X36331Y31271D01*
X36354Y31271D01*
D02*
G37*
G36*
X36031Y31126D02*
G74*
D01*
G02X35886Y31271I89J234*
G01*
X35886Y31271D01*
X36031Y31271D01*
X36031Y31126D01*
D02*
G37*
G36*
X36070Y31360D02*
G75*
D01*
G02X36070Y31360I50J0*
G01*
D02*
G37*
G36*
X36509Y31486D02*
X36509Y31486D01*
X36509Y31604D01*
G74*
D01*
G02X36575Y31566I89J234*
G01*
G74*
D01*
G02X36641Y31604I155J196*
G01*
X36641Y31604D01*
X36641Y31486D01*
G74*
D01*
G02X36654Y31459I221J116*
G01*
X36654Y31459D01*
X36496Y31459D01*
G74*
D01*
G02X36509Y31486I234J89*
G01*
D02*
G37*
G36*
X36816Y31459D02*
G74*
D01*
G02X36819Y31465I234J89*
G01*
X36819Y31465D01*
X36819Y31604D01*
G74*
D01*
G02X36890Y31562I89J234*
G01*
G74*
D01*
G02X36961Y31604I160J192*
G01*
X36961Y31604D01*
X36961Y31465D01*
G74*
D01*
G02X36964Y31459I231J95*
G01*
X36964Y31459D01*
X36816Y31459D01*
D02*
G37*
G36*
X37000Y31370D02*
G75*
D01*
G02X37000Y31370I50J0*
G01*
D02*
G37*
G36*
X36654Y31281D02*
G74*
D01*
G02X36641Y31254I234J89*
G01*
X36641Y31254D01*
X36641Y31136D01*
G74*
D01*
G02X36575Y31174I89J234*
G01*
G74*
D01*
G02X36509Y31136I155J196*
G01*
X36509Y31136D01*
X36509Y31254D01*
G74*
D01*
G02X36496Y31281I221J116*
G01*
X36496Y31281D01*
X36654Y31281D01*
D02*
G37*
G36*
X36370Y31370D02*
G75*
D01*
G02X36370Y31370I50J0*
G01*
D02*
G37*
G36*
X36961Y31275D02*
X36961Y31275D01*
X36961Y31136D01*
G74*
D01*
G02X36890Y31178I89J234*
G01*
G74*
D01*
G02X36819Y31136I160J192*
G01*
X36819Y31136D01*
X36819Y31275D01*
G74*
D01*
G02X36816Y31281I231J95*
G01*
X36816Y31281D01*
X36964Y31281D01*
G74*
D01*
G02X36961Y31275I234J89*
G01*
D02*
G37*
G36*
X36680Y31370D02*
G75*
D01*
G02X36680Y31370I50J0*
G01*
D02*
G37*
G36*
X37139Y31604D02*
G74*
D01*
G02X37284Y31459I89J234*
G01*
X37284Y31459D01*
X37139Y31459D01*
X37139Y31604D01*
D02*
G37*
G36*
X37284Y31281D02*
G74*
D01*
G02X37139Y31136I234J89*
G01*
X37139Y31136D01*
X37139Y31281D01*
X37284Y31281D01*
D02*
G37*
G36*
X28340Y35310D02*
G75*
D01*
G02X28340Y35310I250J0*
G01*
D02*
G37*
G36*
X37250Y37000D02*
G75*
D01*
G02X37250Y37000I50J0*
G01*
D02*
G37*
G36*
X37534Y36911D02*
G74*
D01*
G02X37389Y36766I234J89*
G01*
X37389Y36766D01*
X37389Y36911D01*
X37534Y36911D01*
D02*
G37*
G36*
X37211Y36766D02*
G74*
D01*
G02X37066Y36911I89J234*
G01*
X37066Y36911D01*
X37211Y36911D01*
X37211Y36766D01*
D02*
G37*
G36*
X37066Y37089D02*
G74*
D01*
G02X37211Y37234I234J89*
G01*
X37211Y37234D01*
X37211Y37089D01*
X37066Y37089D01*
D02*
G37*
G36*
X28560Y46740D02*
G75*
D01*
G02X28560Y46740I50J0*
G01*
D02*
G37*
G36*
X30051Y37646D02*
G74*
D01*
G02X29906Y37791I89J234*
G01*
X29906Y37791D01*
X30051Y37791D01*
X30051Y37646D01*
D02*
G37*
G36*
X30374Y37791D02*
G74*
D01*
G02X30229Y37646I234J89*
G01*
X30229Y37646D01*
X30229Y37791D01*
X30374Y37791D01*
D02*
G37*
G36*
X29906Y37969D02*
G74*
D01*
G02X30051Y38114I234J89*
G01*
X30051Y38114D01*
X30051Y37969D01*
X29906Y37969D01*
D02*
G37*
G36*
X30229Y38114D02*
G74*
D01*
G02X30374Y37969I89J234*
G01*
X30374Y37969D01*
X30229Y37969D01*
X30229Y38114D01*
D02*
G37*
G36*
X30090Y37880D02*
G75*
D01*
G02X30090Y37880I50J0*
G01*
D02*
G37*
G36*
X37126Y38768D02*
G75*
D01*
G02X37126Y38768I250J0*
G01*
D02*
G37*
G36*
X34056Y39069D02*
G74*
D01*
G02X34201Y39214I234J89*
G01*
X34201Y39214D01*
X34201Y39069D01*
X34056Y39069D01*
D02*
G37*
G36*
X34379Y39214D02*
G74*
D01*
G02X34524Y39069I89J234*
G01*
X34524Y39069D01*
X34379Y39069D01*
X34379Y39214D01*
D02*
G37*
G36*
X34524Y38891D02*
G74*
D01*
G02X34379Y38746I234J89*
G01*
X34379Y38746D01*
X34379Y38891D01*
X34524Y38891D01*
D02*
G37*
G36*
X34201Y38746D02*
G74*
D01*
G02X34056Y38891I89J234*
G01*
X34056Y38891D01*
X34201Y38891D01*
X34201Y38746D01*
D02*
G37*
G36*
X34240Y38980D02*
G75*
D01*
G02X34240Y38980I50J0*
G01*
D02*
G37*
G36*
X32100Y40230D02*
G75*
D01*
G02X32100Y40230I250J0*
G01*
D02*
G37*
G36*
X34544Y41556D02*
G74*
D01*
G02X34399Y41411I234J89*
G01*
X34399Y41411D01*
X34399Y41556D01*
X34544Y41556D01*
D02*
G37*
G36*
X34221Y41411D02*
G74*
D01*
G02X34076Y41556I89J234*
G01*
X34076Y41556D01*
X34221Y41556D01*
X34221Y41411D01*
D02*
G37*
G36*
X34260Y41645D02*
G75*
D01*
G02X34260Y41645I50J0*
G01*
D02*
G37*
G36*
X34076Y41734D02*
G74*
D01*
G02X34221Y41879I234J89*
G01*
X34221Y41879D01*
X34221Y41734D01*
X34076Y41734D01*
D02*
G37*
G36*
X34399Y41879D02*
G74*
D01*
G02X34544Y41734I89J234*
G01*
X34544Y41734D01*
X34399Y41734D01*
X34399Y41879D01*
D02*
G37*
G36*
X34056Y45579D02*
G74*
D01*
G02X34201Y45724I234J89*
G01*
X34201Y45724D01*
X34201Y45579D01*
X34056Y45579D01*
D02*
G37*
G36*
X34379Y45724D02*
G74*
D01*
G02X34524Y45579I89J234*
G01*
X34524Y45579D01*
X34379Y45579D01*
X34379Y45724D01*
D02*
G37*
G36*
X34524Y45401D02*
G74*
D01*
G02X34379Y45256I234J89*
G01*
X34379Y45256D01*
X34379Y45401D01*
X34524Y45401D01*
D02*
G37*
G36*
X34201Y45256D02*
G74*
D01*
G02X34056Y45401I89J234*
G01*
X34056Y45401D01*
X34201Y45401D01*
X34201Y45256D01*
D02*
G37*
G36*
X34240Y45490D02*
G75*
D01*
G02X34240Y45490I50J0*
G01*
D02*
G37*
G36*
X28376Y46829D02*
G74*
D01*
G02X28521Y46974I234J89*
G01*
X28521Y46974D01*
X28521Y46829D01*
X28376Y46829D01*
D02*
G37*
G36*
X28699Y46974D02*
G74*
D01*
G02X28844Y46829I89J234*
G01*
X28844Y46829D01*
X28699Y46829D01*
X28699Y46974D01*
D02*
G37*
G36*
X28844Y46651D02*
G74*
D01*
G02X28699Y46506I234J89*
G01*
X28699Y46506D01*
X28699Y46651D01*
X28844Y46651D01*
D02*
G37*
G36*
X28521Y46506D02*
G74*
D01*
G02X28376Y46651I89J234*
G01*
X28376Y46651D01*
X28521Y46651D01*
X28521Y46506D01*
D02*
G37*
G36*
X39800Y46340D02*
G75*
D01*
G02X39800Y46340I50J0*
G01*
D02*
G37*
G36*
X42554Y40861D02*
G74*
D01*
G02X42409Y40716I234J89*
G01*
X42409Y40716D01*
X42409Y40861D01*
X42554Y40861D01*
D02*
G37*
G36*
X42270Y40950D02*
G75*
D01*
G02X42270Y40950I50J0*
G01*
D02*
G37*
G36*
X42231Y40716D02*
G74*
D01*
G02X42086Y40861I89J234*
G01*
X42086Y40861D01*
X42231Y40861D01*
X42231Y40716D01*
D02*
G37*
G36*
X42409Y41184D02*
G74*
D01*
G02X42554Y41039I89J234*
G01*
X42554Y41039D01*
X42409Y41039D01*
X42409Y41184D01*
D02*
G37*
G36*
X42086Y41039D02*
G74*
D01*
G02X42231Y41184I234J89*
G01*
X42231Y41184D01*
X42231Y41039D01*
X42086Y41039D01*
D02*
G37*
G36*
X41590Y43230D02*
G75*
D01*
G02X41590Y43230I250J0*
G01*
D02*
G37*
G36*
X39616Y46429D02*
G74*
D01*
G02X39761Y46574I234J89*
G01*
X39761Y46574D01*
X39761Y46429D01*
X39616Y46429D01*
D02*
G37*
G36*
X39939Y46574D02*
G74*
D01*
G02X40084Y46429I89J234*
G01*
X40084Y46429D01*
X39939Y46429D01*
X39939Y46574D01*
D02*
G37*
G36*
X40084Y46251D02*
G74*
D01*
G02X39939Y46106I234J89*
G01*
X39939Y46106D01*
X39939Y46251D01*
X40084Y46251D01*
D02*
G37*
G36*
X39761Y46106D02*
G74*
D01*
G02X39616Y46251I89J234*
G01*
X39616Y46251D01*
X39761Y46251D01*
X39761Y46106D01*
D02*
G37*
G36*
X44080Y35010D02*
G75*
D01*
G02X44080Y35010I350J0*
G01*
D02*
G37*
G36*
X39290Y35170D02*
G75*
D01*
G02X39290Y35170I250J0*
G01*
D02*
G37*
G36*
X39790Y35170D02*
G75*
D01*
G02X39790Y35170I250J0*
G01*
D02*
G37*
G36*
X40290Y35170D02*
G75*
D01*
G02X40290Y35170I250J0*
G01*
D02*
G37*
G36*
X46490Y34310D02*
G75*
D01*
G02X46490Y34310I250J0*
G01*
D02*
G37*
G36*
X44390Y34297D02*
G75*
D01*
G02X44390Y34297I50J0*
G01*
D02*
G37*
G36*
X44351Y34063D02*
G74*
D01*
G02X44206Y34208I89J234*
G01*
X44206Y34208D01*
X44351Y34208D01*
X44351Y34063D01*
D02*
G37*
G36*
X44674Y34208D02*
G74*
D01*
G02X44529Y34063I234J89*
G01*
X44529Y34063D01*
X44529Y34208D01*
X44674Y34208D01*
D02*
G37*
G36*
X44529Y34531D02*
G74*
D01*
G02X44674Y34386I89J234*
G01*
X44674Y34386D01*
X44529Y34386D01*
X44529Y34531D01*
D02*
G37*
G36*
X44206Y34386D02*
G74*
D01*
G02X44351Y34531I234J89*
G01*
X44351Y34531D01*
X44351Y34386D01*
X44206Y34386D01*
D02*
G37*
G36*
X41110Y34310D02*
G75*
D01*
G02X41110Y34310I350J0*
G01*
D02*
G37*
G36*
X37780Y33700D02*
G75*
D01*
G02X37780Y33700I350J0*
G01*
D02*
G37*
G36*
X45420Y32370D02*
G75*
D01*
G02X45420Y32370I50J0*
G01*
D02*
G37*
G36*
X45236Y32459D02*
G74*
D01*
G02X45381Y32604I234J89*
G01*
X45381Y32604D01*
X45381Y32459D01*
X45236Y32459D01*
D02*
G37*
G36*
X45559Y32604D02*
G74*
D01*
G02X45704Y32459I89J234*
G01*
X45704Y32459D01*
X45559Y32459D01*
X45559Y32604D01*
D02*
G37*
G36*
X40690Y33030D02*
G75*
D01*
G02X40690Y33030I350J0*
G01*
D02*
G37*
G36*
X39530Y32370D02*
G75*
D01*
G02X39530Y32370I50J0*
G01*
D02*
G37*
G36*
X39669Y32604D02*
G74*
D01*
G02X39814Y32459I89J234*
G01*
X39814Y32459D01*
X39669Y32459D01*
X39669Y32604D01*
D02*
G37*
G36*
X39346Y32459D02*
G74*
D01*
G02X39491Y32604I234J89*
G01*
X39491Y32604D01*
X39491Y32459D01*
X39346Y32459D01*
D02*
G37*
G36*
X45381Y32136D02*
G74*
D01*
G02X45236Y32281I89J234*
G01*
X45236Y32281D01*
X45381Y32281D01*
X45381Y32136D01*
D02*
G37*
G36*
X45704Y32281D02*
G74*
D01*
G02X45559Y32136I234J89*
G01*
X45559Y32136D01*
X45559Y32281D01*
X45704Y32281D01*
D02*
G37*
G36*
X42629Y31744D02*
G74*
D01*
G02X42774Y31599I89J234*
G01*
X42774Y31599D01*
X42629Y31599D01*
X42629Y31744D01*
D02*
G37*
G36*
X42129Y31734D02*
G74*
D01*
G02X42274Y31589I89J234*
G01*
X42274Y31589D01*
X42129Y31589D01*
X42129Y31734D01*
D02*
G37*
G36*
X41806Y31589D02*
G74*
D01*
G02X41951Y31734I234J89*
G01*
X41951Y31734D01*
X41951Y31589D01*
X41806Y31589D01*
D02*
G37*
G36*
X42306Y31599D02*
G74*
D01*
G02X42451Y31744I234J89*
G01*
X42451Y31744D01*
X42451Y31599D01*
X42306Y31599D01*
D02*
G37*
G36*
X41306Y31589D02*
G74*
D01*
G02X41451Y31734I234J89*
G01*
X41451Y31734D01*
X41451Y31589D01*
X41306Y31589D01*
D02*
G37*
G36*
X41629Y31734D02*
G74*
D01*
G02X41774Y31589I89J234*
G01*
X41774Y31589D01*
X41629Y31589D01*
X41629Y31734D01*
D02*
G37*
G36*
X39814Y32281D02*
G74*
D01*
G02X39669Y32136I234J89*
G01*
X39669Y32136D01*
X39669Y32281D01*
X39814Y32281D01*
D02*
G37*
G36*
X39490Y31760D02*
G75*
D01*
G02X39490Y31760I50J0*
G01*
D02*
G37*
G36*
X39774Y31671D02*
G74*
D01*
G02X39629Y31526I234J89*
G01*
X39629Y31526D01*
X39629Y31671D01*
X39774Y31671D01*
D02*
G37*
G36*
X39629Y31994D02*
G74*
D01*
G02X39774Y31849I89J234*
G01*
X39774Y31849D01*
X39629Y31849D01*
X39629Y31994D01*
D02*
G37*
G36*
X39491Y32136D02*
G74*
D01*
G02X39346Y32281I89J234*
G01*
X39346Y32281D01*
X39491Y32281D01*
X39491Y32136D01*
D02*
G37*
G36*
X39451Y31526D02*
G74*
D01*
G02X39306Y31671I89J234*
G01*
X39306Y31671D01*
X39451Y31671D01*
X39451Y31526D01*
D02*
G37*
G36*
X39306Y31849D02*
G74*
D01*
G02X39451Y31994I234J89*
G01*
X39451Y31994D01*
X39451Y31849D01*
X39306Y31849D01*
D02*
G37*
G36*
X42774Y31421D02*
G74*
D01*
G02X42629Y31276I234J89*
G01*
X42629Y31276D01*
X42629Y31421D01*
X42774Y31421D01*
D02*
G37*
G36*
X41951Y31266D02*
G74*
D01*
G02X41806Y31411I89J234*
G01*
X41806Y31411D01*
X41951Y31411D01*
X41951Y31266D01*
D02*
G37*
G36*
X42274Y31411D02*
G74*
D01*
G02X42129Y31266I234J89*
G01*
X42129Y31266D01*
X42129Y31411D01*
X42274Y31411D01*
D02*
G37*
G36*
X42451Y31276D02*
G74*
D01*
G02X42306Y31421I89J234*
G01*
X42306Y31421D01*
X42451Y31421D01*
X42451Y31276D01*
D02*
G37*
G36*
X41990Y31500D02*
G75*
D01*
G02X41990Y31500I50J0*
G01*
D02*
G37*
G36*
X42490Y31510D02*
G75*
D01*
G02X42490Y31510I50J0*
G01*
D02*
G37*
G36*
X41451Y31266D02*
G74*
D01*
G02X41306Y31411I89J234*
G01*
X41306Y31411D01*
X41451Y31411D01*
X41451Y31266D01*
D02*
G37*
G36*
X41490Y31500D02*
G75*
D01*
G02X41490Y31500I50J0*
G01*
D02*
G37*
G36*
X41774Y31411D02*
G74*
D01*
G02X41629Y31266I234J89*
G01*
X41629Y31266D01*
X41629Y31411D01*
X41774Y31411D01*
D02*
G37*
G36*
X38490Y29270D02*
G75*
D01*
G02X38490Y29270I250J0*
G01*
D02*
G37*
G36*
X37851Y19456D02*
G74*
D01*
G02X37706Y19601I89J234*
G01*
X37706Y19601D01*
X37851Y19601D01*
X37851Y19456D01*
D02*
G37*
G36*
X37890Y19690D02*
G75*
D01*
G02X37890Y19690I50J0*
G01*
D02*
G37*
G36*
X38174Y19601D02*
G74*
D01*
G02X38029Y19456I234J89*
G01*
X38029Y19456D01*
X38029Y19601D01*
X38174Y19601D01*
D02*
G37*
G36*
X45846Y19289D02*
G74*
D01*
G02X45991Y19434I234J89*
G01*
X45991Y19434D01*
X45991Y19289D01*
X45846Y19289D01*
D02*
G37*
G36*
X46169Y19434D02*
G74*
D01*
G02X46314Y19289I89J234*
G01*
X46314Y19289D01*
X46169Y19289D01*
X46169Y19434D01*
D02*
G37*
G36*
X46314Y19111D02*
G74*
D01*
G02X46169Y18966I234J89*
G01*
X46169Y18966D01*
X46169Y19111D01*
X46314Y19111D01*
D02*
G37*
G36*
X45991Y18966D02*
G74*
D01*
G02X45846Y19111I89J234*
G01*
X45846Y19111D01*
X45991Y19111D01*
X45991Y18966D01*
D02*
G37*
G36*
X46030Y19200D02*
G75*
D01*
G02X46030Y19200I50J0*
G01*
D02*
G37*
G36*
X37706Y19779D02*
G74*
D01*
G02X37851Y19924I234J89*
G01*
X37851Y19924D01*
X37851Y19779D01*
X37706Y19779D01*
D02*
G37*
G36*
X38029Y19924D02*
G74*
D01*
G02X38174Y19779I89J234*
G01*
X38174Y19779D01*
X38029Y19779D01*
X38029Y19924D01*
D02*
G37*
G36*
X40900Y24350D02*
G75*
D01*
G02X40900Y24350I50J0*
G01*
D02*
G37*
G36*
X40861Y24116D02*
G74*
D01*
G02X40716Y24261I89J234*
G01*
X40716Y24261D01*
X40861Y24261D01*
X40861Y24116D01*
D02*
G37*
G36*
X41184Y24261D02*
G74*
D01*
G02X41039Y24116I234J89*
G01*
X41039Y24116D01*
X41039Y24261D01*
X41184Y24261D01*
D02*
G37*
G36*
X40716Y24439D02*
G74*
D01*
G02X40861Y24584I234J89*
G01*
X40861Y24584D01*
X40861Y24439D01*
X40716Y24439D01*
D02*
G37*
G36*
X41039Y24584D02*
G74*
D01*
G02X41184Y24439I89J234*
G01*
X41184Y24439D01*
X41039Y24439D01*
X41039Y24584D01*
D02*
G37*
G36*
X42960Y24820D02*
G75*
D01*
G02X42960Y24820I250J0*
G01*
D02*
G37*
G36*
X46746Y26719D02*
G74*
D01*
G02X46891Y26864I234J89*
G01*
X46891Y26864D01*
X46891Y26719D01*
X46746Y26719D01*
D02*
G37*
G36*
X46891Y26396D02*
G74*
D01*
G02X46746Y26541I89J234*
G01*
X46746Y26541D01*
X46891Y26541D01*
X46891Y26396D01*
D02*
G37*
G36*
X46930Y26630D02*
G75*
D01*
G02X46930Y26630I50J0*
G01*
D02*
G37*
G36*
X32300Y27690D02*
G75*
D01*
G02X32300Y27690I50J0*
G01*
D02*
G37*
G36*
X34050Y19920D02*
G75*
D01*
G02X34050Y19920I250J0*
G01*
D02*
G37*
G36*
X32126Y21259D02*
G74*
D01*
G02X32271Y21404I234J89*
G01*
X32271Y21404D01*
X32271Y21259D01*
X32126Y21259D01*
D02*
G37*
G36*
X32271Y20936D02*
G74*
D01*
G02X32126Y21081I89J234*
G01*
X32126Y21081D01*
X32271Y21081D01*
X32271Y20936D01*
D02*
G37*
G36*
X32449Y21404D02*
G74*
D01*
G02X32594Y21259I89J234*
G01*
X32594Y21259D01*
X32449Y21259D01*
X32449Y21404D01*
D02*
G37*
G36*
X32594Y21081D02*
G74*
D01*
G02X32449Y20936I234J89*
G01*
X32449Y20936D01*
X32449Y21081D01*
X32594Y21081D01*
D02*
G37*
G36*
X32310Y21170D02*
G75*
D01*
G02X32310Y21170I50J0*
G01*
D02*
G37*
G36*
X31830Y24520D02*
G75*
D01*
G02X31830Y24520I250J0*
G01*
D02*
G37*
G36*
X34330Y24520D02*
G75*
D01*
G02X34330Y24520I250J0*
G01*
D02*
G37*
G36*
X34050Y26440D02*
G75*
D01*
G02X34050Y26440I250J0*
G01*
D02*
G37*
G36*
X32261Y27456D02*
G74*
D01*
G02X32116Y27601I89J234*
G01*
X32116Y27601D01*
X32261Y27601D01*
X32261Y27456D01*
D02*
G37*
G36*
X32584Y27601D02*
G74*
D01*
G02X32439Y27456I234J89*
G01*
X32439Y27456D01*
X32439Y27601D01*
X32584Y27601D01*
D02*
G37*
G36*
X29020Y27900D02*
G75*
D01*
G02X29020Y27900I250J0*
G01*
D02*
G37*
G36*
X32116Y27779D02*
G74*
D01*
G02X32261Y27924I234J89*
G01*
X32261Y27924D01*
X32261Y27779D01*
X32116Y27779D01*
D02*
G37*
G36*
X32439Y27924D02*
G74*
D01*
G02X32584Y27779I89J234*
G01*
X32584Y27779D01*
X32439Y27779D01*
X32439Y27924D01*
D02*
G37*
G36*
X12400Y32370D02*
G75*
D01*
G02X12400Y32370I250J0*
G01*
D02*
G37*
G36*
X13660Y32370D02*
G75*
D01*
G02X13660Y32370I250J0*
G01*
D02*
G37*
G36*
X13666Y34399D02*
G74*
D01*
G02X13811Y34544I234J89*
G01*
X13811Y34544D01*
X13811Y34399D01*
X13666Y34399D01*
D02*
G37*
G36*
X13989Y34544D02*
G74*
D01*
G02X14134Y34399I89J234*
G01*
X14134Y34399D01*
X13989Y34399D01*
X13989Y34544D01*
D02*
G37*
G36*
X14134Y34221D02*
G74*
D01*
G02X13989Y34076I234J89*
G01*
X13989Y34076D01*
X13989Y34221D01*
X14134Y34221D01*
D02*
G37*
G36*
X13811Y34076D02*
G74*
D01*
G02X13666Y34221I89J234*
G01*
X13666Y34221D01*
X13811Y34221D01*
X13811Y34076D01*
D02*
G37*
G36*
X13850Y34310D02*
G75*
D01*
G02X13850Y34310I50J0*
G01*
D02*
G37*
G36*
X32110Y12650D02*
G75*
D01*
G02X32110Y12650I250J0*
G01*
D02*
G37*
G36*
X34050Y12650D02*
G75*
D01*
G02X34050Y12650I250J0*
G01*
D02*
G37*
G36*
X32126Y13989D02*
G74*
D01*
G02X32271Y14134I234J89*
G01*
X32271Y14134D01*
X32271Y13989D01*
X32126Y13989D01*
D02*
G37*
G36*
X32271Y13666D02*
G74*
D01*
G02X32126Y13811I89J234*
G01*
X32126Y13811D01*
X32271Y13811D01*
X32271Y13666D01*
D02*
G37*
G36*
X32449Y14134D02*
G74*
D01*
G02X32594Y13989I89J234*
G01*
X32594Y13989D01*
X32449Y13989D01*
X32449Y14134D01*
D02*
G37*
G36*
X32594Y13811D02*
G74*
D01*
G02X32449Y13666I234J89*
G01*
X32449Y13666D01*
X32449Y13811D01*
X32594Y13811D01*
D02*
G37*
G36*
X32310Y13900D02*
G75*
D01*
G02X32310Y13900I50J0*
G01*
D02*
G37*
G36*
X34040Y13910D02*
G75*
D01*
G02X34040Y13910I250J0*
G01*
D02*
G37*
G36*
X18940Y46100D02*
G75*
D01*
G02X18940Y46100I250J0*
G01*
D02*
G37*
G36*
X19326Y40119D02*
G74*
D01*
G02X19471Y40264I234J89*
G01*
X19471Y40264D01*
X19471Y40119D01*
X19326Y40119D01*
D02*
G37*
G36*
X19649Y40264D02*
G74*
D01*
G02X19794Y40119I89J234*
G01*
X19794Y40119D01*
X19649Y40119D01*
X19649Y40264D01*
D02*
G37*
G36*
X19794Y39941D02*
G74*
D01*
G02X19649Y39796I234J89*
G01*
X19649Y39796D01*
X19649Y39941D01*
X19794Y39941D01*
D02*
G37*
G36*
X19471Y39796D02*
G74*
D01*
G02X19326Y39941I89J234*
G01*
X19326Y39941D01*
X19471Y39941D01*
X19471Y39796D01*
D02*
G37*
G36*
X19510Y40030D02*
G75*
D01*
G02X19510Y40030I50J0*
G01*
D02*
G37*
G36*
X23192Y41846D02*
G75*
D01*
G02X23192Y41846I250J0*
G01*
D02*
G37*
G36*
X25466Y42419D02*
G74*
D01*
G02X25611Y42564I234J89*
G01*
X25611Y42564D01*
X25611Y42419D01*
X25466Y42419D01*
D02*
G37*
G36*
X25789Y42564D02*
G74*
D01*
G02X25934Y42419I89J234*
G01*
X25934Y42419D01*
X25789Y42419D01*
X25789Y42564D01*
D02*
G37*
G36*
X25934Y42241D02*
G74*
D01*
G02X25789Y42096I234J89*
G01*
X25789Y42096D01*
X25789Y42241D01*
X25934Y42241D01*
D02*
G37*
G36*
X25611Y42096D02*
G74*
D01*
G02X25466Y42241I89J234*
G01*
X25466Y42241D01*
X25611Y42241D01*
X25611Y42096D01*
D02*
G37*
G36*
X25650Y42330D02*
G75*
D01*
G02X25650Y42330I50J0*
G01*
D02*
G37*
G36*
X18760Y28320D02*
G75*
D01*
G02X18760Y28320I50J0*
G01*
D02*
G37*
G36*
X18899Y28554D02*
G74*
D01*
G02X19044Y28409I89J234*
G01*
X19044Y28409D01*
X18899Y28409D01*
X18899Y28554D01*
D02*
G37*
G36*
X19650Y32370D02*
G75*
D01*
G02X19650Y32370I250J0*
G01*
D02*
G37*
G36*
X25555Y32370D02*
G75*
D01*
G02X25555Y32370I250J0*
G01*
D02*
G37*
G36*
X21249Y34534D02*
G74*
D01*
G02X21394Y34389I89J234*
G01*
X21394Y34389D01*
X21249Y34389D01*
X21249Y34534D01*
D02*
G37*
G36*
X21394Y34211D02*
G74*
D01*
G02X21249Y34066I234J89*
G01*
X21249Y34066D01*
X21249Y34211D01*
X21394Y34211D01*
D02*
G37*
G36*
X20926Y34389D02*
G74*
D01*
G02X21071Y34534I234J89*
G01*
X21071Y34534D01*
X21071Y34389D01*
X20926Y34389D01*
D02*
G37*
G36*
X21071Y34066D02*
G74*
D01*
G02X20926Y34211I89J234*
G01*
X20926Y34211D01*
X21071Y34211D01*
X21071Y34066D01*
D02*
G37*
G36*
X21110Y34300D02*
G75*
D01*
G02X21110Y34300I50J0*
G01*
D02*
G37*
G36*
X25550Y34310D02*
G75*
D01*
G02X25550Y34310I250J0*
G01*
D02*
G37*
G36*
X26816Y34399D02*
G74*
D01*
G02X26961Y34544I234J89*
G01*
X26961Y34544D01*
X26961Y34399D01*
X26816Y34399D01*
D02*
G37*
G36*
X27139Y34544D02*
G74*
D01*
G02X27284Y34399I89J234*
G01*
X27284Y34399D01*
X27139Y34399D01*
X27139Y34544D01*
D02*
G37*
G36*
X27284Y34221D02*
G74*
D01*
G02X27139Y34076I234J89*
G01*
X27139Y34076D01*
X27139Y34221D01*
X27284Y34221D01*
D02*
G37*
G36*
X26961Y34076D02*
G74*
D01*
G02X26816Y34221I89J234*
G01*
X26816Y34221D01*
X26961Y34221D01*
X26961Y34076D01*
D02*
G37*
G36*
X27000Y34310D02*
G75*
D01*
G02X27000Y34310I50J0*
G01*
D02*
G37*
G36*
X14810Y13700D02*
G75*
D01*
G02X14810Y13700I250J0*
G01*
D02*
G37*
G36*
X13440Y15080D02*
G75*
D01*
G02X13440Y15080I250J0*
G01*
D02*
G37*
G36*
X14814Y15871D02*
G74*
D01*
G02X14669Y15726I234J89*
G01*
X14669Y15726D01*
X14669Y15871D01*
X14814Y15871D01*
D02*
G37*
G36*
X14491Y15726D02*
G74*
D01*
G02X14346Y15871I89J234*
G01*
X14346Y15871D01*
X14491Y15871D01*
X14491Y15726D01*
D02*
G37*
G36*
X14346Y16049D02*
G74*
D01*
G02X14491Y16194I234J89*
G01*
X14491Y16194D01*
X14491Y16049D01*
X14346Y16049D01*
D02*
G37*
G36*
X14669Y16194D02*
G74*
D01*
G02X14814Y16049I89J234*
G01*
X14814Y16049D01*
X14669Y16049D01*
X14669Y16194D01*
D02*
G37*
G36*
X14530Y15960D02*
G75*
D01*
G02X14530Y15960I50J0*
G01*
D02*
G37*
G36*
X20310Y19210D02*
G75*
D01*
G02X20310Y19210I250J0*
G01*
D02*
G37*
G36*
X19434Y20481D02*
G74*
D01*
G02X19289Y20336I234J89*
G01*
X19289Y20336D01*
X19289Y20481D01*
X19434Y20481D01*
D02*
G37*
G36*
X19111Y20336D02*
G74*
D01*
G02X18966Y20481I89J234*
G01*
X18966Y20481D01*
X19111Y20481D01*
X19111Y20336D01*
D02*
G37*
G36*
X26486Y20299D02*
G74*
D01*
G02X26631Y20444I234J89*
G01*
X26631Y20444D01*
X26631Y20299D01*
X26486Y20299D01*
D02*
G37*
G36*
X26631Y19976D02*
G74*
D01*
G02X26486Y20121I89J234*
G01*
X26486Y20121D01*
X26631Y20121D01*
X26631Y19976D01*
D02*
G37*
G36*
X26670Y20210D02*
G75*
D01*
G02X26670Y20210I50J0*
G01*
D02*
G37*
G36*
X26809Y20444D02*
G74*
D01*
G02X26954Y20299I89J234*
G01*
X26954Y20299D01*
X26809Y20299D01*
X26809Y20444D01*
D02*
G37*
G36*
X26954Y20121D02*
G74*
D01*
G02X26809Y19976I234J89*
G01*
X26809Y19976D01*
X26809Y20121D01*
X26954Y20121D01*
D02*
G37*
G36*
X18966Y20659D02*
G74*
D01*
G02X19111Y20804I234J89*
G01*
X19111Y20804D01*
X19111Y20659D01*
X18966Y20659D01*
D02*
G37*
G36*
X19289Y20804D02*
G74*
D01*
G02X19434Y20659I89J234*
G01*
X19434Y20659D01*
X19289Y20659D01*
X19289Y20804D01*
D02*
G37*
G36*
X19150Y20570D02*
G75*
D01*
G02X19150Y20570I50J0*
G01*
D02*
G37*
G36*
X24574Y23452D02*
G75*
D01*
G02X24574Y23452I250J0*
G01*
D02*
G37*
G36*
X24106Y25789D02*
G74*
D01*
G02X24251Y25934I234J89*
G01*
X24251Y25934D01*
X24251Y25789D01*
X24106Y25789D01*
D02*
G37*
G36*
X24251Y25466D02*
G74*
D01*
G02X24106Y25611I89J234*
G01*
X24106Y25611D01*
X24251Y25611D01*
X24251Y25466D01*
D02*
G37*
G36*
X24290Y25700D02*
G75*
D01*
G02X24290Y25700I50J0*
G01*
D02*
G37*
G36*
X24429Y25934D02*
G74*
D01*
G02X24574Y25789I89J234*
G01*
X24574Y25789D01*
X24429Y25789D01*
X24429Y25934D01*
D02*
G37*
G36*
X24574Y25611D02*
G74*
D01*
G02X24429Y25466I234J89*
G01*
X24429Y25466D01*
X24429Y25611D01*
X24574Y25611D01*
D02*
G37*
%LPD*%
G54D11*
X18721Y28086D02*
G74*
D01*
G02X18576Y28231I89J234*
G01*
X18721Y28231D01*
X18721Y28086D01*
X28196Y18393D02*
G75*
D01*
G02X28196Y18393I154J197*
G01*
X39894Y18747D02*
G75*
D01*
G02X39894Y18747I215J128*
G01*
X47069Y26396D02*
X47069Y26541D01*
X47214Y26541D01*
G74*
D01*
G02X47069Y26396I234J89*
G01*
X47069Y26864D02*
G74*
D01*
G02X47214Y26719I89J234*
G01*
X47069Y26719D01*
X47069Y26864D01*
X18086Y47093D02*
G75*
D01*
G02X18086Y47093I226J-107*
G01*
X47093Y18533D02*
G75*
D01*
G02X47093Y18533I-113J-223*
G01*
X48122Y47093D02*
G75*
D01*
G02X48122Y47093I228J-103*
G01*
X47093Y48579D02*
G75*
D01*
G02X47093Y48579I-117J-221*
G01*
X31118Y47093D02*
G75*
D01*
G02X31118Y47093I-68J-343*
G01*
X38301Y45734D02*
G75*
D01*
G02X38534Y45658I89J-122*
G01*
G74*
D01*
G02X38537Y45646I144J46*
G01*
X39309Y42323D01*
G75*
D01*
G02X39274Y42189I-147J-34*
G01*
X37645Y40364D01*
X37645Y40364D01*
X36033Y38560D01*
G74*
D01*
G02X35985Y38524I113J100*
G01*
G75*
D01*
G02X35769Y38660I-65J136*
G01*
X35769Y43800D01*
G75*
D01*
G02X35831Y43922I151J0*
G01*
X37645Y45252D01*
X37645Y45252D01*
X38301Y45734D01*
X27361Y42197D02*
X27360Y42198D01*
G75*
D01*
G02X27327Y42331I114J99*
G01*
X28076Y45630D01*
G75*
D01*
G02X28311Y45719I147J-33*
G01*
X30808Y43922D01*
G74*
D01*
G02X30852Y43873I88J122*
G01*
G75*
D01*
G02X30871Y43800I-132J-73*
G01*
X30871Y38655D01*
G75*
D01*
G02X30607Y38555I-151J0*
G01*
X28196Y41261D01*
X28196Y41261D01*
X27361Y42197D01*
X44178Y35851D02*
G75*
D01*
G02X44050Y35779I-128J79*
G01*
X39040Y35779D01*
G75*
D01*
G02X38972Y35795I0J151*
G01*
G75*
D01*
G02X38933Y36037I68J135*
G01*
X40540Y37645D01*
X40540Y37645D01*
X42178Y39284D01*
G75*
D01*
G02X42317Y39325I106J-106*
G01*
X45275Y38658D01*
X45622Y38580D01*
G75*
D01*
G02X45717Y38354I-33J-147*
G01*
X45281Y37645D01*
X45281Y37645D01*
X44178Y35851D01*
X45738Y28196D02*
X45738Y28196D01*
G74*
D01*
G02X45638Y28120I133J71*
G01*
X42313Y27348D01*
G75*
D01*
G02X42172Y27388I-34J147*
G01*
X41366Y28196D01*
X41366Y28196D01*
X39751Y29812D01*
X38934Y30623D01*
G75*
D01*
G02X38889Y30737I106J107*
G01*
G75*
D01*
G02X39040Y30881I151J-7*
G01*
X44050Y30881D01*
G74*
D01*
G02X44178Y30810I0J151*
G01*
X44996Y29513D01*
X44996Y29513D01*
X45732Y28347D01*
G74*
D01*
G02X45755Y28268I127J80*
G01*
G75*
D01*
G02X45738Y28196I-150J-1*
G01*
X35832Y22737D02*
G75*
D01*
G02X35769Y22860I88J123*
G01*
X35769Y28020D01*
G75*
D01*
G02X35783Y28084I151J0*
G01*
G75*
D01*
G02X36033Y28120I137J-64*
G01*
X37645Y26311D01*
X37645Y26311D01*
X39285Y24470D01*
G75*
D01*
G02X39319Y24336I-113J-100*
G01*
X38570Y21034D01*
G75*
D01*
G02X38335Y20945I-147J33*
G01*
X37645Y21440D01*
X37645Y21440D01*
X35832Y22737D01*
X28107Y21023D02*
X27554Y23399D01*
X27553Y23399D01*
X27335Y24346D01*
G75*
D01*
G02X27369Y24480I147J34*
G01*
X28196Y25409D01*
X28196Y25409D01*
X30607Y28120D01*
G75*
D01*
G02X30735Y28170I113J-100*
G01*
G74*
D01*
G02X30871Y28020I15J150*
G01*
X30871Y22860D01*
G75*
D01*
G02X30809Y22738I-151J0*
G01*
X28343Y20935D01*
G75*
D01*
G02X28107Y21023I-89J122*
G01*
X27977Y37645D02*
G75*
D01*
G02X27977Y37645I-87J-235*
G01*
X27706Y36037D02*
G74*
D01*
G02X27751Y35935I106J107*
G01*
G75*
D01*
G02X27599Y35779I-151J-5*
G01*
X22610Y35779D01*
G75*
D01*
G02X22484Y35847I0J151*
G01*
X22483Y35849D01*
X21344Y37645D01*
X21344Y37645D01*
X21035Y38131D01*
X21035Y38132D01*
X20917Y38320D01*
G75*
D01*
G02X21010Y38547I127J80*
G01*
X24330Y39316D01*
G75*
D01*
G02X24471Y39276I35J-146*
G01*
X26101Y37645D01*
X26101Y37645D01*
X27706Y36037D01*
X24464Y27380D02*
G75*
D01*
G02X24323Y27340I-107J107*
G01*
X21026Y28091D01*
G75*
D01*
G02X20932Y28318I34J147*
G01*
X22481Y30809D01*
G75*
D01*
G02X22610Y30881I129J-79*
G01*
X27592Y30880D01*
G75*
D01*
G02X27751Y30730I8J-150*
G01*
G75*
D01*
G02X27702Y30618I-151J0*
G01*
X25279Y28196D01*
X25279Y28196D01*
X24464Y27380D01*
X18899Y28086D02*
X18899Y28231D01*
X19044Y28231D01*
G74*
D01*
G02X18899Y28086I234J89*
G01*
X18576Y28409D02*
G74*
D01*
G02X18721Y28554I234J89*
G01*
X18721Y28409D01*
X18576Y28409D01*
X18170Y26080D02*
G75*
D01*
G02X18170Y26080I250J0*
G01*
X17410Y38730D02*
G75*
D01*
G02X17410Y38730I250J0*
G01*
X26220Y47580D02*
G75*
D01*
G02X26220Y47580I250J0*
G01*
X48650Y27920D02*
G75*
D01*
G02X48650Y27920I250J0*
G01*
X47896Y40517D02*
G75*
D01*
G02X47896Y40517I250J0*
G01*
X47700Y38240D02*
G75*
D01*
G02X47700Y38240I50J0*
G01*
X47661Y38006D02*
G74*
D01*
G02X47516Y38151I89J234*
G01*
X47661Y38151D01*
X47661Y38006D01*
X47984Y38151D02*
G74*
D01*
G02X47839Y38006I234J89*
G01*
X47839Y38151D01*
X47984Y38151D01*
X47839Y38474D02*
G74*
D01*
G02X47984Y38329I89J234*
G01*
X47839Y38329D01*
X47839Y38474D01*
X47516Y38329D02*
G74*
D01*
G02X47661Y38474I234J89*
G01*
X47661Y38329D01*
X47516Y38329D01*
X37962Y47973D02*
G75*
D01*
G02X37962Y47973I250J0*
G01*
X47410Y46100D02*
G75*
D01*
G02X47410Y46100I50J0*
G01*
X47694Y46011D02*
G74*
D01*
G02X47549Y45866I234J89*
G01*
X47549Y46011D01*
X47694Y46011D01*
X47549Y46334D02*
G74*
D01*
G02X47694Y46189I89J234*
G01*
X47549Y46189D01*
X47549Y46334D01*
X47371Y45866D02*
G74*
D01*
G02X47226Y46011I89J234*
G01*
X47371Y46011D01*
X47371Y45866D01*
X47226Y46189D02*
G74*
D01*
G02X47371Y46334I234J89*
G01*
X47371Y46189D01*
X47226Y46189D01*
X45830Y47480D02*
G75*
D01*
G02X45830Y47480I250J0*
G01*
X18040Y19690D02*
G75*
D01*
G02X18040Y19690I250J0*
G01*
X19434Y18312D02*
G75*
D01*
G02X19434Y18312I250J0*
G01*
X48090Y19680D02*
G75*
D01*
G02X48090Y19680I250J0*
G01*
X47200Y20590D02*
G75*
D01*
G02X47200Y20590I250J0*
G01*
X20471Y47236D02*
G74*
D01*
G02X20326Y47381I89J234*
G01*
X20471Y47381D01*
X20471Y47236D01*
X20794Y47381D02*
G74*
D01*
G02X20649Y47236I234J89*
G01*
X20649Y47381D01*
X20794Y47381D01*
X20326Y47559D02*
G74*
D01*
G02X20471Y47704I234J89*
G01*
X20471Y47559D01*
X20326Y47559D01*
X20649Y47704D02*
G74*
D01*
G02X20794Y47559I89J234*
G01*
X20649Y47559D01*
X20649Y47704D01*
X20510Y47470D02*
G75*
D01*
G02X20510Y47470I50J0*
G01*
X19440Y48360D02*
G75*
D01*
G02X19440Y48360I250J0*
G01*
X5880Y32370D02*
G75*
D01*
G02X5880Y32370I250J0*
G01*
X7140Y32360D02*
G75*
D01*
G02X7140Y32360I250J0*
G01*
X5860Y34330D02*
G75*
D01*
G02X5860Y34330I250J0*
G01*
X7146Y34399D02*
G74*
D01*
G02X7291Y34544I234J89*
G01*
X7291Y34399D01*
X7146Y34399D01*
X7469Y34544D02*
G74*
D01*
G02X7614Y34399I89J234*
G01*
X7469Y34399D01*
X7469Y34544D01*
X7614Y34221D02*
G74*
D01*
G02X7469Y34076I234J89*
G01*
X7469Y34221D01*
X7614Y34221D01*
X7291Y34076D02*
G74*
D01*
G02X7146Y34221I89J234*
G01*
X7291Y34221D01*
X7291Y34076D01*
X7330Y34310D02*
G75*
D01*
G02X7330Y34310I50J0*
G01*
X32090Y6120D02*
G75*
D01*
G02X32090Y6120I250J0*
G01*
X34050Y6130D02*
G75*
D01*
G02X34050Y6130I250J0*
G01*
X32126Y7469D02*
G74*
D01*
G02X32271Y7614I234J89*
G01*
X32271Y7469D01*
X32126Y7469D01*
X32271Y7146D02*
G74*
D01*
G02X32126Y7291I89J234*
G01*
X32271Y7291D01*
X32271Y7146D01*
X32449Y7614D02*
G74*
D01*
G02X32594Y7469I89J234*
G01*
X32449Y7469D01*
X32449Y7614D01*
X32594Y7291D02*
G74*
D01*
G02X32449Y7146I234J89*
G01*
X32449Y7291D01*
X32594Y7291D01*
X32310Y7380D02*
G75*
D01*
G02X32310Y7380I50J0*
G01*
X34040Y7380D02*
G75*
D01*
G02X34040Y7380I250J0*
G01*
X59191Y32146D02*
G74*
D01*
G02X59046Y32291I89J234*
G01*
X59191Y32291D01*
X59191Y32146D01*
X59514Y32291D02*
G74*
D01*
G02X59369Y32146I234J89*
G01*
X59369Y32291D01*
X59514Y32291D01*
X60270Y32370D02*
G75*
D01*
G02X60270Y32370I250J0*
G01*
X59046Y32469D02*
G74*
D01*
G02X59191Y32614I234J89*
G01*
X59191Y32469D01*
X59046Y32469D01*
X59369Y32614D02*
G74*
D01*
G02X59514Y32469I89J234*
G01*
X59369Y32469D01*
X59369Y32614D01*
X59230Y32380D02*
G75*
D01*
G02X59230Y32380I50J0*
G01*
X59020Y34320D02*
G75*
D01*
G02X59020Y34320I250J0*
G01*
X60280Y34310D02*
G75*
D01*
G02X60280Y34310I250J0*
G01*
X32100Y59280D02*
G75*
D01*
G02X32100Y59280I250J0*
G01*
X34534Y59191D02*
G74*
D01*
G02X34389Y59046I234J89*
G01*
X34389Y59191D01*
X34534Y59191D01*
X34211Y59046D02*
G74*
D01*
G02X34066Y59191I89J234*
G01*
X34211Y59191D01*
X34211Y59046D01*
X34066Y59369D02*
G74*
D01*
G02X34211Y59514I234J89*
G01*
X34211Y59369D01*
X34066Y59369D01*
X34389Y59514D02*
G74*
D01*
G02X34534Y59369I89J234*
G01*
X34389Y59369D01*
X34389Y59514D01*
X34250Y59280D02*
G75*
D01*
G02X34250Y59280I50J0*
G01*
X32110Y60530D02*
G75*
D01*
G02X32110Y60530I250J0*
G01*
X34050Y60530D02*
G75*
D01*
G02X34050Y60530I250J0*
G01*
X32560Y63130D02*
G75*
D01*
G02X32560Y63130I770J0*
G01*
X51836Y50789D02*
G74*
D01*
G02X51981Y50934I234J89*
G01*
X51981Y50789D01*
X51836Y50789D01*
X51981Y50466D02*
G74*
D01*
G02X51836Y50611I89J234*
G01*
X51981Y50611D01*
X51981Y50466D01*
X52159Y50934D02*
G74*
D01*
G02X52304Y50789I89J234*
G01*
X52159Y50789D01*
X52159Y50934D01*
X52304Y50611D02*
G74*
D01*
G02X52159Y50466I234J89*
G01*
X52159Y50611D01*
X52304Y50611D01*
X52020Y50700D02*
G75*
D01*
G02X52020Y50700I50J0*
G01*
X50420Y52090D02*
G75*
D01*
G02X50420Y52090I250J0*
G01*
X52710Y51590D02*
G75*
D01*
G02X52710Y51590I250J0*
G01*
X51336Y52968D02*
G75*
D01*
G02X51336Y52968I250J0*
G01*
X53690Y54460D02*
G75*
D01*
G02X53690Y54460I770J0*
G01*
X34554Y48007D02*
G74*
D01*
G02X34409Y47862I234J89*
G01*
X34409Y48007D01*
X34554Y48007D01*
X34231Y47862D02*
G74*
D01*
G02X34086Y48007I89J234*
G01*
X34231Y48007D01*
X34231Y47862D01*
X34086Y48184D02*
G74*
D01*
G02X34231Y48329I234J88*
G01*
X34231Y48184D01*
X34086Y48184D01*
X34409Y48329D02*
G74*
D01*
G02X34554Y48184I89J233*
G01*
X34409Y48184D01*
X34409Y48329D01*
X34270Y48096D02*
G75*
D01*
G02X34270Y48096I50J0*
G01*
X32090Y52770D02*
G75*
D01*
G02X32090Y52770I250J0*
G01*
X34250Y52780D02*
G75*
D01*
G02X34250Y52780I50J0*
G01*
X34534Y52691D02*
G74*
D01*
G02X34389Y52546I234J89*
G01*
X34389Y52691D01*
X34534Y52691D01*
X34211Y52546D02*
G74*
D01*
G02X34066Y52691I89J234*
G01*
X34211Y52691D01*
X34211Y52546D01*
X34066Y52869D02*
G74*
D01*
G02X34211Y53014I234J89*
G01*
X34211Y52869D01*
X34066Y52869D01*
X34389Y53014D02*
G74*
D01*
G02X34534Y52869I89J234*
G01*
X34389Y52869D01*
X34389Y53014D01*
X32110Y54020D02*
G75*
D01*
G02X32110Y54020I250J0*
G01*
X34070Y54020D02*
G75*
D01*
G02X34070Y54020I250J0*
G01*
X14330Y50700D02*
G75*
D01*
G02X14330Y50700I250J0*
G01*
X13452Y51596D02*
G75*
D01*
G02X13452Y51596I250J0*
G01*
X15871Y51846D02*
G74*
D01*
G02X15726Y51991I89J234*
G01*
X15871Y51991D01*
X15871Y51846D01*
X16194Y51991D02*
G74*
D01*
G02X16049Y51846I234J89*
G01*
X16049Y51991D01*
X16194Y51991D01*
X14820Y52970D02*
G75*
D01*
G02X14820Y52970I250J0*
G01*
X15726Y52169D02*
G74*
D01*
G02X15871Y52314I234J89*
G01*
X15871Y52169D01*
X15726Y52169D01*
X16049Y52314D02*
G74*
D01*
G02X16194Y52169I89J234*
G01*
X16049Y52169D01*
X16049Y52314D01*
X15910Y52080D02*
G75*
D01*
G02X15910Y52080I50J0*
G01*
X11420Y54460D02*
G75*
D01*
G02X11420Y54460I770J0*
G01*
X52661Y32136D02*
G74*
D01*
G02X52516Y32281I89J234*
G01*
X52661Y32281D01*
X52661Y32136D01*
X52984Y32281D02*
G74*
D01*
G02X52839Y32136I234J89*
G01*
X52839Y32281D01*
X52984Y32281D01*
X53750Y32360D02*
G75*
D01*
G02X53750Y32360I250J0*
G01*
X52700Y32370D02*
G75*
D01*
G02X52700Y32370I50J0*
G01*
X52516Y32459D02*
G74*
D01*
G02X52661Y32604I234J89*
G01*
X52661Y32459D01*
X52516Y32459D01*
X52839Y32604D02*
G74*
D01*
G02X52984Y32459I89J234*
G01*
X52839Y32459D01*
X52839Y32604D01*
X52500Y34310D02*
G75*
D01*
G02X52500Y34310I250J0*
G01*
X53750Y34310D02*
G75*
D01*
G02X53750Y34310I250J0*
G01*
X51340Y13700D02*
G75*
D01*
G02X51340Y13700I250J0*
G01*
X50466Y14659D02*
G74*
D01*
G02X50611Y14804I234J89*
G01*
X50611Y14659D01*
X50466Y14659D01*
X50789Y14804D02*
G74*
D01*
G02X50934Y14659I89J234*
G01*
X50789Y14659D01*
X50789Y14804D01*
X50934Y14481D02*
G74*
D01*
G02X50789Y14336I234J89*
G01*
X50789Y14481D01*
X50934Y14481D01*
X50611Y14336D02*
G74*
D01*
G02X50466Y14481I89J234*
G01*
X50611Y14481D01*
X50611Y14336D01*
X50650Y14570D02*
G75*
D01*
G02X50650Y14570I50J0*
G01*
X52720Y15080D02*
G75*
D01*
G02X52720Y15080I250J0*
G01*
X51840Y15960D02*
G75*
D01*
G02X51840Y15960I250J0*
G01*
X37389Y37234D02*
G74*
D01*
G02X37534Y37089I89J234*
G01*
X37389Y37089D01*
X37389Y37234D01*
X36256Y28879D02*
G74*
D01*
G02X36401Y29024I234J89*
G01*
X36401Y28879D01*
X36256Y28879D01*
X36579Y29024D02*
G74*
D01*
G02X36724Y28879I89J234*
G01*
X36579Y28879D01*
X36579Y29024D01*
X36724Y28701D02*
G74*
D01*
G02X36579Y28556I234J89*
G01*
X36579Y28701D01*
X36724Y28701D01*
X36401Y28556D02*
G74*
D01*
G02X36256Y28701I89J234*
G01*
X36401Y28701D01*
X36401Y28556D01*
X36440Y28790D02*
G75*
D01*
G02X36440Y28790I50J0*
G01*
X29004Y30061D02*
G74*
D01*
G02X28859Y29916I234J89*
G01*
X28859Y30061D01*
X29004Y30061D01*
X28681Y29916D02*
G74*
D01*
G02X28536Y30061I89J234*
G01*
X28681Y30061D01*
X28681Y29916D01*
X28536Y30239D02*
G74*
D01*
G02X28681Y30384I234J89*
G01*
X28681Y30239D01*
X28536Y30239D01*
X28859Y30384D02*
G74*
D01*
G02X29004Y30239I89J234*
G01*
X28859Y30239D01*
X28859Y30384D01*
X28720Y30150D02*
G75*
D01*
G02X28720Y30150I50J0*
G01*
X35886Y31449D02*
G74*
D01*
G02X36031Y31594I234J89*
G01*
X36031Y31449D01*
X35886Y31449D01*
X36209Y31504D02*
X36209Y31594D01*
G74*
D01*
G02X36263Y31565I89J234*
G01*
G74*
D01*
G02X36331Y31604I157J195*
G01*
X36331Y31494D01*
G74*
D01*
G02X36354Y31449I211J134*
G01*
X36209Y31449D01*
X36209Y31459D01*
X36186Y31459D01*
G74*
D01*
G02X36209Y31504I234J89*
G01*
X36354Y31271D02*
G74*
D01*
G02X36331Y31226I234J89*
G01*
X36331Y31136D01*
G74*
D01*
G02X36277Y31165I89J234*
G01*
G74*
D01*
G02X36209Y31126I157J195*
G01*
X36209Y31236D01*
G74*
D01*
G02X36186Y31281I211J134*
G01*
X36331Y31281D01*
X36331Y31271D01*
X36354Y31271D01*
X36031Y31126D02*
G74*
D01*
G02X35886Y31271I89J234*
G01*
X36031Y31271D01*
X36031Y31126D01*
X36070Y31360D02*
G75*
D01*
G02X36070Y31360I50J0*
G01*
X36509Y31486D02*
X36509Y31604D01*
G74*
D01*
G02X36575Y31566I89J234*
G01*
G74*
D01*
G02X36641Y31604I155J196*
G01*
X36641Y31486D01*
G74*
D01*
G02X36654Y31459I221J116*
G01*
X36496Y31459D01*
G74*
D01*
G02X36509Y31486I234J89*
G01*
X36816Y31459D02*
G74*
D01*
G02X36819Y31465I234J89*
G01*
X36819Y31604D01*
G74*
D01*
G02X36890Y31562I89J234*
G01*
G74*
D01*
G02X36961Y31604I160J192*
G01*
X36961Y31465D01*
G74*
D01*
G02X36964Y31459I231J95*
G01*
X36816Y31459D01*
X37000Y31370D02*
G75*
D01*
G02X37000Y31370I50J0*
G01*
X36654Y31281D02*
G74*
D01*
G02X36641Y31254I234J89*
G01*
X36641Y31136D01*
G74*
D01*
G02X36575Y31174I89J234*
G01*
G74*
D01*
G02X36509Y31136I155J196*
G01*
X36509Y31254D01*
G74*
D01*
G02X36496Y31281I221J116*
G01*
X36654Y31281D01*
X36370Y31370D02*
G75*
D01*
G02X36370Y31370I50J0*
G01*
X36961Y31275D02*
X36961Y31136D01*
G74*
D01*
G02X36890Y31178I89J234*
G01*
G74*
D01*
G02X36819Y31136I160J192*
G01*
X36819Y31275D01*
G74*
D01*
G02X36816Y31281I231J95*
G01*
X36964Y31281D01*
G74*
D01*
G02X36961Y31275I234J89*
G01*
X36680Y31370D02*
G75*
D01*
G02X36680Y31370I50J0*
G01*
X37139Y31604D02*
G74*
D01*
G02X37284Y31459I89J234*
G01*
X37139Y31459D01*
X37139Y31604D01*
X37284Y31281D02*
G74*
D01*
G02X37139Y31136I234J89*
G01*
X37139Y31281D01*
X37284Y31281D01*
X28340Y35310D02*
G75*
D01*
G02X28340Y35310I250J0*
G01*
X37250Y37000D02*
G75*
D01*
G02X37250Y37000I50J0*
G01*
X37534Y36911D02*
G74*
D01*
G02X37389Y36766I234J89*
G01*
X37389Y36911D01*
X37534Y36911D01*
X37211Y36766D02*
G74*
D01*
G02X37066Y36911I89J234*
G01*
X37211Y36911D01*
X37211Y36766D01*
X37066Y37089D02*
G74*
D01*
G02X37211Y37234I234J89*
G01*
X37211Y37089D01*
X37066Y37089D01*
X28560Y46740D02*
G75*
D01*
G02X28560Y46740I50J0*
G01*
X30051Y37646D02*
G74*
D01*
G02X29906Y37791I89J234*
G01*
X30051Y37791D01*
X30051Y37646D01*
X30374Y37791D02*
G74*
D01*
G02X30229Y37646I234J89*
G01*
X30229Y37791D01*
X30374Y37791D01*
X29906Y37969D02*
G74*
D01*
G02X30051Y38114I234J89*
G01*
X30051Y37969D01*
X29906Y37969D01*
X30229Y38114D02*
G74*
D01*
G02X30374Y37969I89J234*
G01*
X30229Y37969D01*
X30229Y38114D01*
X30090Y37880D02*
G75*
D01*
G02X30090Y37880I50J0*
G01*
X37126Y38768D02*
G75*
D01*
G02X37126Y38768I250J0*
G01*
X34056Y39069D02*
G74*
D01*
G02X34201Y39214I234J89*
G01*
X34201Y39069D01*
X34056Y39069D01*
X34379Y39214D02*
G74*
D01*
G02X34524Y39069I89J234*
G01*
X34379Y39069D01*
X34379Y39214D01*
X34524Y38891D02*
G74*
D01*
G02X34379Y38746I234J89*
G01*
X34379Y38891D01*
X34524Y38891D01*
X34201Y38746D02*
G74*
D01*
G02X34056Y38891I89J234*
G01*
X34201Y38891D01*
X34201Y38746D01*
X34240Y38980D02*
G75*
D01*
G02X34240Y38980I50J0*
G01*
X32100Y40230D02*
G75*
D01*
G02X32100Y40230I250J0*
G01*
X34544Y41556D02*
G74*
D01*
G02X34399Y41411I234J89*
G01*
X34399Y41556D01*
X34544Y41556D01*
X34221Y41411D02*
G74*
D01*
G02X34076Y41556I89J234*
G01*
X34221Y41556D01*
X34221Y41411D01*
X34260Y41645D02*
G75*
D01*
G02X34260Y41645I50J0*
G01*
X34076Y41734D02*
G74*
D01*
G02X34221Y41879I234J89*
G01*
X34221Y41734D01*
X34076Y41734D01*
X34399Y41879D02*
G74*
D01*
G02X34544Y41734I89J234*
G01*
X34399Y41734D01*
X34399Y41879D01*
X34056Y45579D02*
G74*
D01*
G02X34201Y45724I234J89*
G01*
X34201Y45579D01*
X34056Y45579D01*
X34379Y45724D02*
G74*
D01*
G02X34524Y45579I89J234*
G01*
X34379Y45579D01*
X34379Y45724D01*
X34524Y45401D02*
G74*
D01*
G02X34379Y45256I234J89*
G01*
X34379Y45401D01*
X34524Y45401D01*
X34201Y45256D02*
G74*
D01*
G02X34056Y45401I89J234*
G01*
X34201Y45401D01*
X34201Y45256D01*
X34240Y45490D02*
G75*
D01*
G02X34240Y45490I50J0*
G01*
X28376Y46829D02*
G74*
D01*
G02X28521Y46974I234J89*
G01*
X28521Y46829D01*
X28376Y46829D01*
X28699Y46974D02*
G74*
D01*
G02X28844Y46829I89J234*
G01*
X28699Y46829D01*
X28699Y46974D01*
X28844Y46651D02*
G74*
D01*
G02X28699Y46506I234J89*
G01*
X28699Y46651D01*
X28844Y46651D01*
X28521Y46506D02*
G74*
D01*
G02X28376Y46651I89J234*
G01*
X28521Y46651D01*
X28521Y46506D01*
X39800Y46340D02*
G75*
D01*
G02X39800Y46340I50J0*
G01*
X42554Y40861D02*
G74*
D01*
G02X42409Y40716I234J89*
G01*
X42409Y40861D01*
X42554Y40861D01*
X42270Y40950D02*
G75*
D01*
G02X42270Y40950I50J0*
G01*
X42231Y40716D02*
G74*
D01*
G02X42086Y40861I89J234*
G01*
X42231Y40861D01*
X42231Y40716D01*
X42409Y41184D02*
G74*
D01*
G02X42554Y41039I89J234*
G01*
X42409Y41039D01*
X42409Y41184D01*
X42086Y41039D02*
G74*
D01*
G02X42231Y41184I234J89*
G01*
X42231Y41039D01*
X42086Y41039D01*
X41590Y43230D02*
G75*
D01*
G02X41590Y43230I250J0*
G01*
X39616Y46429D02*
G74*
D01*
G02X39761Y46574I234J89*
G01*
X39761Y46429D01*
X39616Y46429D01*
X39939Y46574D02*
G74*
D01*
G02X40084Y46429I89J234*
G01*
X39939Y46429D01*
X39939Y46574D01*
X40084Y46251D02*
G74*
D01*
G02X39939Y46106I234J89*
G01*
X39939Y46251D01*
X40084Y46251D01*
X39761Y46106D02*
G74*
D01*
G02X39616Y46251I89J234*
G01*
X39761Y46251D01*
X39761Y46106D01*
X44080Y35010D02*
G75*
D01*
G02X44080Y35010I350J0*
G01*
X39290Y35170D02*
G75*
D01*
G02X39290Y35170I250J0*
G01*
X39790Y35170D02*
G75*
D01*
G02X39790Y35170I250J0*
G01*
X40290Y35170D02*
G75*
D01*
G02X40290Y35170I250J0*
G01*
X46490Y34310D02*
G75*
D01*
G02X46490Y34310I250J0*
G01*
X44390Y34297D02*
G75*
D01*
G02X44390Y34297I50J0*
G01*
X44351Y34063D02*
G74*
D01*
G02X44206Y34208I89J234*
G01*
X44351Y34208D01*
X44351Y34063D01*
X44674Y34208D02*
G74*
D01*
G02X44529Y34063I234J89*
G01*
X44529Y34208D01*
X44674Y34208D01*
X44529Y34531D02*
G74*
D01*
G02X44674Y34386I89J234*
G01*
X44529Y34386D01*
X44529Y34531D01*
X44206Y34386D02*
G74*
D01*
G02X44351Y34531I234J89*
G01*
X44351Y34386D01*
X44206Y34386D01*
X41110Y34310D02*
G75*
D01*
G02X41110Y34310I350J0*
G01*
X37780Y33700D02*
G75*
D01*
G02X37780Y33700I350J0*
G01*
X45420Y32370D02*
G75*
D01*
G02X45420Y32370I50J0*
G01*
X45236Y32459D02*
G74*
D01*
G02X45381Y32604I234J89*
G01*
X45381Y32459D01*
X45236Y32459D01*
X45559Y32604D02*
G74*
D01*
G02X45704Y32459I89J234*
G01*
X45559Y32459D01*
X45559Y32604D01*
X40690Y33030D02*
G75*
D01*
G02X40690Y33030I350J0*
G01*
X39530Y32370D02*
G75*
D01*
G02X39530Y32370I50J0*
G01*
X39669Y32604D02*
G74*
D01*
G02X39814Y32459I89J234*
G01*
X39669Y32459D01*
X39669Y32604D01*
X39346Y32459D02*
G74*
D01*
G02X39491Y32604I234J89*
G01*
X39491Y32459D01*
X39346Y32459D01*
X45381Y32136D02*
G74*
D01*
G02X45236Y32281I89J234*
G01*
X45381Y32281D01*
X45381Y32136D01*
X45704Y32281D02*
G74*
D01*
G02X45559Y32136I234J89*
G01*
X45559Y32281D01*
X45704Y32281D01*
X42629Y31744D02*
G74*
D01*
G02X42774Y31599I89J234*
G01*
X42629Y31599D01*
X42629Y31744D01*
X42129Y31734D02*
G74*
D01*
G02X42274Y31589I89J234*
G01*
X42129Y31589D01*
X42129Y31734D01*
X41806Y31589D02*
G74*
D01*
G02X41951Y31734I234J89*
G01*
X41951Y31589D01*
X41806Y31589D01*
X42306Y31599D02*
G74*
D01*
G02X42451Y31744I234J89*
G01*
X42451Y31599D01*
X42306Y31599D01*
X41306Y31589D02*
G74*
D01*
G02X41451Y31734I234J89*
G01*
X41451Y31589D01*
X41306Y31589D01*
X41629Y31734D02*
G74*
D01*
G02X41774Y31589I89J234*
G01*
X41629Y31589D01*
X41629Y31734D01*
X39814Y32281D02*
G74*
D01*
G02X39669Y32136I234J89*
G01*
X39669Y32281D01*
X39814Y32281D01*
X39490Y31760D02*
G75*
D01*
G02X39490Y31760I50J0*
G01*
X39774Y31671D02*
G74*
D01*
G02X39629Y31526I234J89*
G01*
X39629Y31671D01*
X39774Y31671D01*
X39629Y31994D02*
G74*
D01*
G02X39774Y31849I89J234*
G01*
X39629Y31849D01*
X39629Y31994D01*
X39491Y32136D02*
G74*
D01*
G02X39346Y32281I89J234*
G01*
X39491Y32281D01*
X39491Y32136D01*
X39451Y31526D02*
G74*
D01*
G02X39306Y31671I89J234*
G01*
X39451Y31671D01*
X39451Y31526D01*
X39306Y31849D02*
G74*
D01*
G02X39451Y31994I234J89*
G01*
X39451Y31849D01*
X39306Y31849D01*
X42774Y31421D02*
G74*
D01*
G02X42629Y31276I234J89*
G01*
X42629Y31421D01*
X42774Y31421D01*
X41951Y31266D02*
G74*
D01*
G02X41806Y31411I89J234*
G01*
X41951Y31411D01*
X41951Y31266D01*
X42274Y31411D02*
G74*
D01*
G02X42129Y31266I234J89*
G01*
X42129Y31411D01*
X42274Y31411D01*
X42451Y31276D02*
G74*
D01*
G02X42306Y31421I89J234*
G01*
X42451Y31421D01*
X42451Y31276D01*
X41990Y31500D02*
G75*
D01*
G02X41990Y31500I50J0*
G01*
X42490Y31510D02*
G75*
D01*
G02X42490Y31510I50J0*
G01*
X41451Y31266D02*
G74*
D01*
G02X41306Y31411I89J234*
G01*
X41451Y31411D01*
X41451Y31266D01*
X41490Y31500D02*
G75*
D01*
G02X41490Y31500I50J0*
G01*
X41774Y31411D02*
G74*
D01*
G02X41629Y31266I234J89*
G01*
X41629Y31411D01*
X41774Y31411D01*
X38490Y29270D02*
G75*
D01*
G02X38490Y29270I250J0*
G01*
X37851Y19456D02*
G74*
D01*
G02X37706Y19601I89J234*
G01*
X37851Y19601D01*
X37851Y19456D01*
X37890Y19690D02*
G75*
D01*
G02X37890Y19690I50J0*
G01*
X38174Y19601D02*
G74*
D01*
G02X38029Y19456I234J89*
G01*
X38029Y19601D01*
X38174Y19601D01*
X45846Y19289D02*
G74*
D01*
G02X45991Y19434I234J89*
G01*
X45991Y19289D01*
X45846Y19289D01*
X46169Y19434D02*
G74*
D01*
G02X46314Y19289I89J234*
G01*
X46169Y19289D01*
X46169Y19434D01*
X46314Y19111D02*
G74*
D01*
G02X46169Y18966I234J89*
G01*
X46169Y19111D01*
X46314Y19111D01*
X45991Y18966D02*
G74*
D01*
G02X45846Y19111I89J234*
G01*
X45991Y19111D01*
X45991Y18966D01*
X46030Y19200D02*
G75*
D01*
G02X46030Y19200I50J0*
G01*
X37706Y19779D02*
G74*
D01*
G02X37851Y19924I234J89*
G01*
X37851Y19779D01*
X37706Y19779D01*
X38029Y19924D02*
G74*
D01*
G02X38174Y19779I89J234*
G01*
X38029Y19779D01*
X38029Y19924D01*
X40900Y24350D02*
G75*
D01*
G02X40900Y24350I50J0*
G01*
X40861Y24116D02*
G74*
D01*
G02X40716Y24261I89J234*
G01*
X40861Y24261D01*
X40861Y24116D01*
X41184Y24261D02*
G74*
D01*
G02X41039Y24116I234J89*
G01*
X41039Y24261D01*
X41184Y24261D01*
X40716Y24439D02*
G74*
D01*
G02X40861Y24584I234J89*
G01*
X40861Y24439D01*
X40716Y24439D01*
X41039Y24584D02*
G74*
D01*
G02X41184Y24439I89J234*
G01*
X41039Y24439D01*
X41039Y24584D01*
X42960Y24820D02*
G75*
D01*
G02X42960Y24820I250J0*
G01*
X46746Y26719D02*
G74*
D01*
G02X46891Y26864I234J89*
G01*
X46891Y26719D01*
X46746Y26719D01*
X46891Y26396D02*
G74*
D01*
G02X46746Y26541I89J234*
G01*
X46891Y26541D01*
X46891Y26396D01*
X46930Y26630D02*
G75*
D01*
G02X46930Y26630I50J0*
G01*
X32300Y27690D02*
G75*
D01*
G02X32300Y27690I50J0*
G01*
X34050Y19920D02*
G75*
D01*
G02X34050Y19920I250J0*
G01*
X32126Y21259D02*
G74*
D01*
G02X32271Y21404I234J89*
G01*
X32271Y21259D01*
X32126Y21259D01*
X32271Y20936D02*
G74*
D01*
G02X32126Y21081I89J234*
G01*
X32271Y21081D01*
X32271Y20936D01*
X32449Y21404D02*
G74*
D01*
G02X32594Y21259I89J234*
G01*
X32449Y21259D01*
X32449Y21404D01*
X32594Y21081D02*
G74*
D01*
G02X32449Y20936I234J89*
G01*
X32449Y21081D01*
X32594Y21081D01*
X32310Y21170D02*
G75*
D01*
G02X32310Y21170I50J0*
G01*
X31830Y24520D02*
G75*
D01*
G02X31830Y24520I250J0*
G01*
X34330Y24520D02*
G75*
D01*
G02X34330Y24520I250J0*
G01*
X34050Y26440D02*
G75*
D01*
G02X34050Y26440I250J0*
G01*
X32261Y27456D02*
G74*
D01*
G02X32116Y27601I89J234*
G01*
X32261Y27601D01*
X32261Y27456D01*
X32584Y27601D02*
G74*
D01*
G02X32439Y27456I234J89*
G01*
X32439Y27601D01*
X32584Y27601D01*
X29020Y27900D02*
G75*
D01*
G02X29020Y27900I250J0*
G01*
X32116Y27779D02*
G74*
D01*
G02X32261Y27924I234J89*
G01*
X32261Y27779D01*
X32116Y27779D01*
X32439Y27924D02*
G74*
D01*
G02X32584Y27779I89J234*
G01*
X32439Y27779D01*
X32439Y27924D01*
X12400Y32370D02*
G75*
D01*
G02X12400Y32370I250J0*
G01*
X13660Y32370D02*
G75*
D01*
G02X13660Y32370I250J0*
G01*
X13666Y34399D02*
G74*
D01*
G02X13811Y34544I234J89*
G01*
X13811Y34399D01*
X13666Y34399D01*
X13989Y34544D02*
G74*
D01*
G02X14134Y34399I89J234*
G01*
X13989Y34399D01*
X13989Y34544D01*
X14134Y34221D02*
G74*
D01*
G02X13989Y34076I234J89*
G01*
X13989Y34221D01*
X14134Y34221D01*
X13811Y34076D02*
G74*
D01*
G02X13666Y34221I89J234*
G01*
X13811Y34221D01*
X13811Y34076D01*
X13850Y34310D02*
G75*
D01*
G02X13850Y34310I50J0*
G01*
X32110Y12650D02*
G75*
D01*
G02X32110Y12650I250J0*
G01*
X34050Y12650D02*
G75*
D01*
G02X34050Y12650I250J0*
G01*
X32126Y13989D02*
G74*
D01*
G02X32271Y14134I234J89*
G01*
X32271Y13989D01*
X32126Y13989D01*
X32271Y13666D02*
G74*
D01*
G02X32126Y13811I89J234*
G01*
X32271Y13811D01*
X32271Y13666D01*
X32449Y14134D02*
G74*
D01*
G02X32594Y13989I89J234*
G01*
X32449Y13989D01*
X32449Y14134D01*
X32594Y13811D02*
G74*
D01*
G02X32449Y13666I234J89*
G01*
X32449Y13811D01*
X32594Y13811D01*
X32310Y13900D02*
G75*
D01*
G02X32310Y13900I50J0*
G01*
X34040Y13910D02*
G75*
D01*
G02X34040Y13910I250J0*
G01*
X18940Y46100D02*
G75*
D01*
G02X18940Y46100I250J0*
G01*
X19326Y40119D02*
G74*
D01*
G02X19471Y40264I234J89*
G01*
X19471Y40119D01*
X19326Y40119D01*
X19649Y40264D02*
G74*
D01*
G02X19794Y40119I89J234*
G01*
X19649Y40119D01*
X19649Y40264D01*
X19794Y39941D02*
G74*
D01*
G02X19649Y39796I234J89*
G01*
X19649Y39941D01*
X19794Y39941D01*
X19471Y39796D02*
G74*
D01*
G02X19326Y39941I89J234*
G01*
X19471Y39941D01*
X19471Y39796D01*
X19510Y40030D02*
G75*
D01*
G02X19510Y40030I50J0*
G01*
X23192Y41846D02*
G75*
D01*
G02X23192Y41846I250J0*
G01*
X25466Y42419D02*
G74*
D01*
G02X25611Y42564I234J89*
G01*
X25611Y42419D01*
X25466Y42419D01*
X25789Y42564D02*
G74*
D01*
G02X25934Y42419I89J234*
G01*
X25789Y42419D01*
X25789Y42564D01*
X25934Y42241D02*
G74*
D01*
G02X25789Y42096I234J89*
G01*
X25789Y42241D01*
X25934Y42241D01*
X25611Y42096D02*
G74*
D01*
G02X25466Y42241I89J234*
G01*
X25611Y42241D01*
X25611Y42096D01*
X25650Y42330D02*
G75*
D01*
G02X25650Y42330I50J0*
G01*
X18760Y28320D02*
G75*
D01*
G02X18760Y28320I50J0*
G01*
X18899Y28554D02*
G74*
D01*
G02X19044Y28409I89J234*
G01*
X18899Y28409D01*
X18899Y28554D01*
X19650Y32370D02*
G75*
D01*
G02X19650Y32370I250J0*
G01*
X25555Y32370D02*
G75*
D01*
G02X25555Y32370I250J0*
G01*
X21249Y34534D02*
G74*
D01*
G02X21394Y34389I89J234*
G01*
X21249Y34389D01*
X21249Y34534D01*
X21394Y34211D02*
G74*
D01*
G02X21249Y34066I234J89*
G01*
X21249Y34211D01*
X21394Y34211D01*
X20926Y34389D02*
G74*
D01*
G02X21071Y34534I234J89*
G01*
X21071Y34389D01*
X20926Y34389D01*
X21071Y34066D02*
G74*
D01*
G02X20926Y34211I89J234*
G01*
X21071Y34211D01*
X21071Y34066D01*
X21110Y34300D02*
G75*
D01*
G02X21110Y34300I50J0*
G01*
X25550Y34310D02*
G75*
D01*
G02X25550Y34310I250J0*
G01*
X26816Y34399D02*
G74*
D01*
G02X26961Y34544I234J89*
G01*
X26961Y34399D01*
X26816Y34399D01*
X27139Y34544D02*
G74*
D01*
G02X27284Y34399I89J234*
G01*
X27139Y34399D01*
X27139Y34544D01*
X27284Y34221D02*
G74*
D01*
G02X27139Y34076I234J89*
G01*
X27139Y34221D01*
X27284Y34221D01*
X26961Y34076D02*
G74*
D01*
G02X26816Y34221I89J234*
G01*
X26961Y34221D01*
X26961Y34076D01*
X27000Y34310D02*
G75*
D01*
G02X27000Y34310I50J0*
G01*
X14810Y13700D02*
G75*
D01*
G02X14810Y13700I250J0*
G01*
X13440Y15080D02*
G75*
D01*
G02X13440Y15080I250J0*
G01*
X14814Y15871D02*
G74*
D01*
G02X14669Y15726I234J89*
G01*
X14669Y15871D01*
X14814Y15871D01*
X14491Y15726D02*
G74*
D01*
G02X14346Y15871I89J234*
G01*
X14491Y15871D01*
X14491Y15726D01*
X14346Y16049D02*
G74*
D01*
G02X14491Y16194I234J89*
G01*
X14491Y16049D01*
X14346Y16049D01*
X14669Y16194D02*
G74*
D01*
G02X14814Y16049I89J234*
G01*
X14669Y16049D01*
X14669Y16194D01*
X14530Y15960D02*
G75*
D01*
G02X14530Y15960I50J0*
G01*
X20310Y19210D02*
G75*
D01*
G02X20310Y19210I250J0*
G01*
X19434Y20481D02*
G74*
D01*
G02X19289Y20336I234J89*
G01*
X19289Y20481D01*
X19434Y20481D01*
X19111Y20336D02*
G74*
D01*
G02X18966Y20481I89J234*
G01*
X19111Y20481D01*
X19111Y20336D01*
X26486Y20299D02*
G74*
D01*
G02X26631Y20444I234J89*
G01*
X26631Y20299D01*
X26486Y20299D01*
X26631Y19976D02*
G74*
D01*
G02X26486Y20121I89J234*
G01*
X26631Y20121D01*
X26631Y19976D01*
X26670Y20210D02*
G75*
D01*
G02X26670Y20210I50J0*
G01*
X26809Y20444D02*
G74*
D01*
G02X26954Y20299I89J234*
G01*
X26809Y20299D01*
X26809Y20444D01*
X26954Y20121D02*
G74*
D01*
G02X26809Y19976I234J89*
G01*
X26809Y20121D01*
X26954Y20121D01*
X18966Y20659D02*
G74*
D01*
G02X19111Y20804I234J89*
G01*
X19111Y20659D01*
X18966Y20659D01*
X19289Y20804D02*
G74*
D01*
G02X19434Y20659I89J234*
G01*
X19289Y20659D01*
X19289Y20804D01*
X19150Y20570D02*
G75*
D01*
G02X19150Y20570I50J0*
G01*
X24574Y23452D02*
G75*
D01*
G02X24574Y23452I250J0*
G01*
X24106Y25789D02*
G74*
D01*
G02X24251Y25934I234J89*
G01*
X24251Y25789D01*
X24106Y25789D01*
X24251Y25466D02*
G74*
D01*
G02X24106Y25611I89J234*
G01*
X24251Y25611D01*
X24251Y25466D01*
X24290Y25700D02*
G75*
D01*
G02X24290Y25700I50J0*
G01*
X24429Y25934D02*
G74*
D01*
G02X24574Y25789I89J234*
G01*
X24429Y25789D01*
X24429Y25934D01*
X24574Y25611D02*
G74*
D01*
G02X24429Y25466I234J89*
G01*
X24429Y25611D01*
X24574Y25611D01*
X31211Y15476D02*
X28196Y13684D01*
X28196Y13684D01*
X26863Y12892D01*
X26863Y9207D01*
X27022Y9298D01*
X27022Y9298D01*
X28196Y9972D01*
X28196Y9972D01*
X31059Y11615D01*
G75*
D01*
G02X31136Y11635I75J-130*
G01*
G74*
D01*
G02X31285Y11485I2J150*
G01*
X31285Y9062D01*
G75*
D01*
G02X31208Y8931I-151J0*
G01*
X28785Y7577D01*
X28785Y3880D01*
X31064Y5088D01*
G74*
D01*
G02X31074Y5093I70J133*
G01*
G75*
D01*
G02X31285Y4955I60J-138*
G01*
X31285Y2187D01*
X33335Y209D01*
X35385Y2187D01*
X35385Y4954D01*
G75*
D01*
G02X35397Y5013I150J1*
G01*
G75*
D01*
G02X35606Y5088I138J-58*
G01*
X37645Y4006D01*
X37645Y4006D01*
X37881Y3880D01*
X37881Y7577D01*
X37645Y7709D01*
X37645Y7709D01*
X35462Y8931D01*
G75*
D01*
G02X35385Y9063I73J131*
G01*
X35385Y11484D01*
G75*
D01*
G02X35394Y11537I150J1*
G01*
G75*
D01*
G02X35611Y11615I141J-52*
G01*
X37645Y10449D01*
X37645Y10449D01*
X39653Y9298D01*
X39653Y9298D01*
X39809Y9209D01*
X39809Y12889D01*
X37645Y14175D01*
X37645Y14175D01*
X35458Y15473D01*
G75*
D01*
G02X35385Y15603I77J130*
G01*
X35385Y18748D01*
G75*
D01*
G02X35435Y18861I150J0*
G01*
G75*
D01*
G02X35611Y18879I100J-113*
G01*
X35840Y18747D01*
X35840Y18747D01*
X37645Y17706D01*
X37645Y17706D01*
X39196Y16812D01*
X39196Y16812D01*
X40630Y15984D01*
X41291Y18747D01*
X41291Y18747D01*
X41672Y20340D01*
X41672Y20341D01*
X41947Y21488D01*
G75*
D01*
G02X42201Y21560I147J-35*
G01*
X44419Y19341D01*
G75*
D01*
G02X44458Y19197I-107J-106*
G01*
X44343Y18747D01*
X44343Y18747D01*
X43208Y14305D01*
X45813Y11688D01*
X47078Y16361D01*
G75*
D01*
G02X47251Y16470I145J-40*
G01*
G74*
D01*
G02X47330Y16428I28J149*
G01*
X48473Y15288D01*
X48473Y15287D01*
X49042Y14719D01*
G74*
D01*
G02X49067Y14684I107J107*
G01*
G75*
D01*
G02X49080Y14571I-132J-72*
G01*
X48327Y11902D01*
X49690Y10539D01*
X49690Y10538D01*
X50931Y9298D01*
X50931Y9298D01*
X50941Y9287D01*
X50945Y9298D01*
X50945Y9298D01*
X51694Y11750D01*
G75*
D01*
G02X51945Y11813I144J-44*
G01*
X53902Y9853D01*
X56542Y9904D01*
X56542Y9904D01*
X56756Y9908D01*
X56806Y12759D01*
X56542Y13024D01*
X56542Y13024D01*
X54851Y14719D01*
G75*
D01*
G02X54914Y14970I107J107*
G01*
X56542Y15464D01*
X56542Y15464D01*
X57379Y15718D01*
X56700Y16400D01*
X56542Y16557D01*
X56542Y16557D01*
X54765Y18332D01*
X52090Y17582D01*
G75*
D01*
G02X52044Y17576I-40J145*
G01*
G74*
D01*
G02X51943Y17620I6J151*
G01*
X50816Y18747D01*
X50816Y18747D01*
X50234Y19329D01*
G75*
D01*
G02X50274Y19571I106J106*
G01*
G74*
D01*
G02X50301Y19581I66J136*
G01*
X54966Y20848D01*
X52361Y23451D01*
X48360Y22437D01*
X47464Y22206D01*
G75*
D01*
G02X47320Y22245I-37J146*
G01*
X47093Y22472D01*
X47093Y22472D01*
X45094Y24472D01*
G75*
D01*
G02X45165Y24725I106J106*
G01*
X47093Y25200D01*
X47093Y25200D01*
X50514Y26044D01*
G75*
D01*
G02X50626Y26191I151J1*
G01*
X50757Y26226D01*
X49545Y28196D01*
X49545Y28196D01*
X47792Y31045D01*
G75*
D01*
G02X47921Y31274I129J79*
G01*
X51061Y31274D01*
G74*
D01*
G02X51191Y31200I0J150*
G01*
X52976Y28196D01*
X52976Y28196D01*
X53479Y27350D01*
X53479Y27350D01*
X53770Y26857D01*
X57457Y26857D01*
X56689Y28196D01*
X56689Y28196D01*
X56542Y28452D01*
X56542Y28452D01*
X55594Y30104D01*
X55049Y31048D01*
G75*
D01*
G02X55179Y31274I130J76*
G01*
X57601Y31274D01*
G74*
D01*
G02X57733Y31197I0J150*
G01*
X59087Y28785D01*
X62786Y28785D01*
X61967Y30319D01*
X61967Y30319D01*
X61576Y31053D01*
G75*
D01*
G02X61709Y31274I133J71*
G01*
X64479Y31274D01*
X65991Y32841D01*
X65991Y32841D01*
X66459Y33326D01*
X65991Y33811D01*
X65991Y33811D01*
X64474Y35387D01*
X61704Y35387D01*
G75*
D01*
G02X61642Y35401I0J151*
G01*
G75*
D01*
G02X61571Y35609I62J137*
G01*
X62656Y37645D01*
X62656Y37645D01*
X62781Y37879D01*
X59080Y37879D01*
X58948Y37645D01*
X58948Y37645D01*
X57728Y35465D01*
G74*
D01*
G02X57611Y35388I132J73*
G01*
G75*
D01*
G02X57596Y35387I-15J150*
G01*
X55174Y35387D01*
G75*
D01*
G02X55149Y35389I0J151*
G01*
G75*
D01*
G02X55043Y35613I25J149*
G01*
X56210Y37645D01*
X56210Y37645D01*
X56542Y38223D01*
X56542Y38223D01*
X57452Y39806D01*
X53765Y39806D01*
X52480Y37645D01*
X52480Y37645D01*
X51183Y35461D01*
G74*
D01*
G02X51108Y35397I130J77*
G01*
G75*
D01*
G02X51053Y35387I-55J141*
G01*
X47905Y35387D01*
G75*
D01*
G02X47832Y35406I0J151*
G01*
G75*
D01*
G02X47775Y35613I73J132*
G01*
X48947Y37645D01*
X48947Y37645D01*
X50369Y40110D01*
X50369Y40110D01*
X50670Y40630D01*
X47093Y41486D01*
X47093Y41486D01*
X45168Y41947D01*
G75*
D01*
G02X45096Y42200I35J147*
G01*
X46944Y44051D01*
X46944Y44051D01*
X47095Y44201D01*
X47315Y44422D01*
G75*
D01*
G02X47459Y44461I107J-107*
G01*
X52356Y43213D01*
X54961Y45818D01*
X50296Y47088D01*
G75*
D01*
G02X50229Y47341I39J146*
G01*
X51938Y49047D01*
G74*
D01*
G02X52011Y49087I106J107*
G01*
G75*
D01*
G02X52085Y49085I33J-147*
G01*
X54760Y48334D01*
X56542Y50116D01*
X56542Y50116D01*
X57374Y50946D01*
X56542Y51200D01*
X56542Y51200D01*
X54909Y51697D01*
G75*
D01*
G02X54846Y51948I44J144*
G01*
X56542Y53645D01*
X56542Y53645D01*
X56801Y53905D01*
X56754Y56542D01*
X56754Y56542D01*
X56751Y56758D01*
X56542Y56762D01*
X56542Y56762D01*
X53897Y56809D01*
X53631Y56542D01*
X53631Y56542D01*
X51940Y54849D01*
G75*
D01*
G02X51689Y54911I-107J106*
G01*
X51191Y56542D01*
X51191Y56542D01*
X50936Y57374D01*
X50103Y56542D01*
X50103Y56542D01*
X48322Y54762D01*
X49075Y52093D01*
G75*
D01*
G02X49036Y51945I-145J-41*
G01*
X47325Y50234D01*
G75*
D01*
G02X47073Y50301I-107J106*
G01*
X45808Y54971D01*
X43203Y52367D01*
X44453Y47470D01*
G75*
D01*
G02X44456Y47407I-146J-38*
G01*
G74*
D01*
G02X44414Y47325I149J25*
G01*
X44182Y47093D01*
X44182Y47093D01*
X42187Y45096D01*
G75*
D01*
G02X41935Y45164I-106J107*
G01*
X41419Y47093D01*
X41419Y47093D01*
X40438Y50758D01*
X37645Y49046D01*
X37645Y49046D01*
X36641Y48431D01*
X36641Y48431D01*
X35609Y47800D01*
G74*
D01*
G02X35588Y47790I79J129*
G01*
G75*
D01*
G02X35379Y47929I-58J139*
G01*
X35379Y51066D01*
G75*
D01*
G02X35453Y51196I151J0*
G01*
X37645Y52496D01*
X37645Y52496D01*
X39804Y53777D01*
X39804Y57462D01*
X38198Y56542D01*
X38198Y56542D01*
X37645Y56225D01*
X37645Y56225D01*
X35605Y55056D01*
G74*
D01*
G02X35588Y55048I75J131*
G01*
G75*
D01*
G02X35379Y55188I-58J139*
G01*
X35379Y57606D01*
G75*
D01*
G02X35456Y57738I151J1*
G01*
X37645Y58963D01*
X37645Y58963D01*
X37876Y59093D01*
X37876Y62787D01*
X37645Y62664D01*
X37645Y62664D01*
X35601Y61579D01*
G74*
D01*
G02X35586Y61572I71J133*
G01*
G75*
D01*
G02X35379Y61712I-56J140*
G01*
X35379Y64482D01*
X33813Y65991D01*
X33813Y65991D01*
X33330Y66457D01*
X32846Y65991D01*
X32846Y65991D01*
X31279Y64482D01*
X31279Y61712D01*
G75*
D01*
G02X31136Y61561I-150J0*
G01*
G75*
D01*
G02X31058Y61579I-7J151*
G01*
X28780Y62787D01*
X28780Y59093D01*
X31202Y57738D01*
G74*
D01*
G02X31279Y57607I73J131*
G01*
X31279Y55187D01*
G75*
D01*
G02X31136Y55037I-150J0*
G01*
G75*
D01*
G02X31054Y55056I-7J150*
G01*
X28462Y56542D01*
X28462Y56542D01*
X28459Y56544D01*
X28196Y56695D01*
X28196Y56695D01*
X26857Y57462D01*
X26857Y53777D01*
X28196Y52983D01*
X28196Y52983D01*
X29893Y51976D01*
X31208Y51196D01*
G74*
D01*
G02X31282Y51066I77J130*
G01*
X31282Y47916D01*
G75*
D01*
G02X31113Y47766I-151J0*
G01*
G74*
D01*
G02X31053Y47787I18J150*
G01*
X28196Y49516D01*
X28196Y49516D01*
X26342Y50637D01*
G75*
D01*
G02X26164Y50604I-111J102*
G01*
G74*
D01*
G02X26154Y50610I67J135*
G01*
X26039Y50678D01*
X25181Y47093D01*
X25181Y47093D01*
X24725Y45189D01*
G75*
D01*
G02X24537Y45065I-149J21*
G01*
G74*
D01*
G02X24469Y45104I39J145*
G01*
X22480Y47093D01*
X22480Y47093D01*
X22245Y47328D01*
G75*
D01*
G02X22206Y47472I107J107*
G01*
X23456Y52369D01*
X20849Y54974D01*
X19586Y50304D01*
G75*
D01*
G02X19334Y50237I-145J39*
G01*
X18747Y50824D01*
X17623Y51948D01*
G75*
D01*
G02X17584Y52096I106J107*
G01*
X18332Y54765D01*
X17445Y55654D01*
X17445Y55654D01*
X16557Y56542D01*
X16557Y56542D01*
X15722Y57377D01*
X15466Y56542D01*
X15466Y56542D01*
X15402Y56337D01*
X14970Y54912D01*
G75*
D01*
G02X14719Y54849I-144J43*
G01*
X13021Y56542D01*
X13021Y56542D01*
X12754Y56809D01*
X9879Y56753D01*
X9878Y56542D01*
X9878Y56542D01*
X9867Y54584D01*
X9867Y54582D01*
X9856Y53902D01*
X11813Y51945D01*
G75*
D01*
G02X11750Y51694I-107J-107*
G01*
X9298Y50947D01*
X9298Y50947D01*
X9288Y50944D01*
X9298Y50933D01*
X9298Y50933D01*
X11900Y48332D01*
X14569Y49083D01*
G75*
D01*
G02X14716Y49044I41J-145*
G01*
X16428Y47338D01*
G75*
D01*
G02X16361Y47086I-107J-107*
G01*
X11693Y45815D01*
X12219Y45289D01*
G74*
D01*
G02X12220Y45288I106J107*
G01*
X14300Y43208D01*
X18747Y44340D01*
X18747Y44340D01*
X19200Y44456D01*
G75*
D01*
G02X19344Y44416I37J-146*
G01*
X21125Y42640D01*
X21126Y42640D01*
X21568Y42192D01*
G75*
D01*
G02X21539Y41957I-107J-106*
G01*
G74*
D01*
G02X21500Y41940I78J129*
G01*
X18747Y41201D01*
X18747Y41201D01*
X15904Y40438D01*
X17623Y37645D01*
X17623Y37645D01*
X18264Y36603D01*
X18265Y36602D01*
X18747Y35812D01*
X18747Y35812D01*
X18866Y35617D01*
G75*
D01*
G02X18843Y35430I-128J-79*
G01*
G75*
D01*
G02X18738Y35387I-105J108*
G01*
X15603Y35387D01*
G75*
D01*
G02X15568Y35391I0J151*
G01*
G74*
D01*
G02X15473Y35461I35J147*
G01*
X14179Y37645D01*
X14179Y37645D01*
X13319Y39095D01*
X12895Y39809D01*
X9207Y39809D01*
X9298Y39651D01*
X9298Y39651D01*
X9788Y38797D01*
X9788Y38797D01*
X10448Y37645D01*
X10448Y37645D01*
X11610Y35616D01*
G75*
D01*
G02X11534Y35400I-130J-76*
G01*
G75*
D01*
G02X11479Y35390I-54J140*
G01*
X9066Y35390D01*
G75*
D01*
G02X8934Y35467I-1J150*
G01*
X7710Y37645D01*
X7710Y37645D01*
X7577Y37881D01*
X3885Y37881D01*
X4011Y37645D01*
X4011Y37645D01*
X5088Y35611D01*
G75*
D01*
G02X5090Y35474I-133J-71*
G01*
G75*
D01*
G02X4955Y35390I-135J66*
G01*
X2185Y35390D01*
X209Y33337D01*
X2185Y31279D01*
X4955Y31279D01*
G75*
D01*
G02X5088Y31058I0J-150*
G01*
X3885Y28791D01*
X7577Y28791D01*
X8934Y31203D01*
G75*
D01*
G02X9066Y31279I131J-74*
G01*
X11480Y31279D01*
G75*
D01*
G02X11610Y31053I0J-150*
G01*
X9972Y28196D01*
X9972Y28196D01*
X9298Y27021D01*
X9298Y27021D01*
X9207Y26863D01*
X12895Y26863D01*
X13686Y28196D01*
X13686Y28196D01*
X15473Y31206D01*
G75*
D01*
G02X15603Y31279I130J-77*
G01*
X18751Y31279D01*
G75*
D01*
G02X18880Y31050I0J-150*
G01*
X18747Y30832D01*
X18747Y30832D01*
X17147Y28196D01*
X17147Y28196D01*
X16023Y26345D01*
G75*
D01*
G02X16055Y26155I-98J-115*
G01*
X15989Y26042D01*
X18747Y25380D01*
X18747Y25380D01*
X21488Y24722D01*
G75*
D01*
G02X21560Y24469I-35J-146*
G01*
X19344Y22248D01*
G75*
D01*
G02X19200Y22208I-107J106*
G01*
X18747Y22324D01*
X18747Y22324D01*
X14300Y23456D01*
X11696Y20854D01*
X16363Y19586D01*
G75*
D01*
G02X16430Y19334I-39J-145*
G01*
X15842Y18747D01*
X15842Y18747D01*
X14719Y17625D01*
G75*
D01*
G02X14571Y17587I-107J107*
G01*
X11902Y18337D01*
X9298Y15731D01*
X9298Y15731D01*
X9290Y15723D01*
X9298Y15721D01*
X9298Y15721D01*
X11752Y14975D01*
G74*
D01*
G02X11804Y14948I43J144*
G01*
G75*
D01*
G02X11815Y14724I-95J-117*
G01*
X9858Y12765D01*
X9909Y9911D01*
X12757Y9858D01*
X14722Y11818D01*
G75*
D01*
G02X14969Y11766I106J-107*
G01*
G74*
D01*
G02X14972Y11755I141J55*
G01*
X15724Y9298D01*
X15724Y9298D01*
X15725Y9293D01*
X15730Y9298D01*
X15730Y9298D01*
X16971Y10543D01*
X16971Y10544D01*
X18335Y11907D01*
X17587Y14576D01*
G75*
D01*
G02X17625Y14724I145J41*
G01*
X18747Y15844D01*
X18747Y15844D01*
X19337Y16433D01*
G75*
D01*
G02X19589Y16365I106J-107*
G01*
X20657Y12415D01*
X20657Y12415D01*
X20852Y11696D01*
X23459Y14313D01*
X22326Y18747D01*
X22326Y18747D01*
X22209Y19205D01*
G75*
D01*
G02X22248Y19349I146J38*
G01*
X24474Y21578D01*
G75*
D01*
G02X24727Y21508I107J-106*
G01*
X25407Y18747D01*
X25407Y18747D01*
X26044Y16158D01*
G74*
D01*
G02X26188Y16048I1J151*
G01*
X26226Y15915D01*
X28196Y17121D01*
X28196Y17121D01*
X30851Y18747D01*
X30851Y18747D01*
X31037Y18861D01*
G75*
D01*
G02X31192Y18885I97J-115*
G01*
G74*
D01*
G02X31285Y18746I58J139*
G01*
X31285Y15605D01*
G75*
D01*
G02X31211Y15476I-151J0*
G01*
G54D12*
X-100Y-100D02*
X-100Y6587D01*
X-100Y-100D02*
X6586Y-100D01*
X66764Y-100D02*
X60078Y-100D01*
X66764Y-100D02*
X66764Y6587D01*
X66764Y66767D02*
X66764Y60080D01*
X66764Y66767D02*
X60078Y66767D01*
X-100Y66767D02*
X6586Y66767D01*
X-100Y66767D02*
X-100Y60080D01*
X-2069Y-100D02*
X-6006Y-100D01*
X-4037Y-2069D02*
X-4037Y1869D01*
X-5513Y-100D02*
G75*
D01*
G02X-5513Y-100I1476J0*
G01*
X68733Y-100D02*
X72670Y-100D01*
X70701Y-2069D02*
X70701Y1869D01*
X69225Y-100D02*
G75*
D01*
G02X69225Y-100I1476J0*
G01*
X70209Y-100D02*
G75*
D01*
G02X70209Y-100I492J0*
G01*
X-2069Y66767D02*
X-6006Y66767D01*
X-4037Y64798D02*
X-4037Y68735D01*
X-5513Y66767D02*
G75*
D01*
G02X-5513Y66767I1476J0*
G01*
X-5021Y66767D02*
G75*
D01*
G02X-5021Y66767I984J0*
G01*
X-4529Y66767D02*
G75*
D01*
G02X-4529Y66767I492J0*
G01*
G54D13*
X27890Y37410D03*
X32350Y40230D03*
X46740Y34310D03*
X48900Y27920D03*
X43210Y24820D03*
X48340Y19680D03*
X52970Y15080D03*
X15060Y13700D03*
X18420Y26080D03*
X17660Y38730D03*
X26470Y47580D03*
X41840Y43230D03*
X38212Y47973D03*
X60530Y34310D03*
X19900Y32370D03*
X28350Y18590D03*
X38740Y29270D03*
X29270Y27900D03*
X32360Y60530D03*
X32360Y54020D03*
X39580Y32370D03*
X51586Y52968D03*
X32350Y59280D03*
X52960Y51590D03*
X14580Y50700D03*
X34300Y60530D03*
X50670Y52090D03*
X60520Y32370D03*
X59270Y34320D03*
X51590Y13700D03*
X52090Y15960D03*
X32340Y6120D03*
X40040Y35170D03*
X52750Y34310D03*
X46980Y18310D03*
X40540Y35170D03*
X39540Y35170D03*
X25805Y32370D03*
X37376Y38768D03*
X34300Y26440D03*
X23442Y41846D03*
X48146Y40517D03*
X40109Y18875D03*
X34300Y19920D03*
X24824Y23452D03*
X12650Y32370D03*
X18312Y46986D03*
X46976Y48358D03*
X54000Y34310D03*
X34300Y12650D03*
X19684Y18312D03*
X6130Y32370D03*
X13702Y51596D03*
X34300Y6130D03*
X47450Y20590D03*
X32360Y12650D03*
X7390Y32360D03*
X15070Y52970D03*
X34290Y7380D03*
X13690Y15080D03*
X20560Y19210D03*
X6110Y34330D03*
X34290Y13910D03*
X18290Y19690D03*
X28590Y35310D03*
X34580Y24520D03*
X32080Y24520D03*
X25800Y34310D03*
X13910Y32370D03*
X19690Y48360D03*
X19190Y46100D03*
X34320Y54020D03*
X32340Y52770D03*
X48350Y46990D03*
X46080Y47480D03*
X54000Y32360D03*
X36120Y31360D03*
X36420Y31370D03*
X37050Y31370D03*
X36730Y31370D03*
X27050Y34310D03*
X30140Y37880D03*
X34290Y38980D03*
X37300Y37000D03*
X36490Y28790D03*
X32350Y27690D03*
X28770Y30150D03*
X21160Y34300D03*
X19560Y40030D03*
X25700Y42330D03*
X28610Y46740D03*
X34290Y45490D03*
X39850Y46340D03*
X42320Y40950D03*
X47750Y38240D03*
X45470Y32370D03*
X46980Y26630D03*
X40950Y24350D03*
X37940Y19690D03*
X32360Y21170D03*
X26720Y20210D03*
X24340Y25700D03*
X18810Y28320D03*
X13900Y34310D03*
X20560Y47470D03*
X34300Y52780D03*
X47460Y46100D03*
X52750Y32370D03*
X46080Y19200D03*
X32360Y13900D03*
X19200Y20570D03*
X7380Y34310D03*
X15960Y52080D03*
X34300Y59280D03*
X52070Y50700D03*
X59280Y32380D03*
X50700Y14570D03*
X32360Y7380D03*
X14580Y15960D03*
X34310Y41645D03*
X34320Y48096D03*
X39540Y31760D03*
X44440Y34297D03*
X42540Y31510D03*
X42040Y31500D03*
X41540Y31500D03*
G54D14*
X41460Y34310D03*
X31050Y46750D03*
X38130Y33700D03*
X41040Y33030D03*
X44430Y35010D03*

M02*
