999
DXF created by UltiBoard 14.1.0.0
0
SECTION
2
HEADER
9
$ACADVER
1
AC1014
9
$EXTMIN
10
-684.641732
20
-684.641732
30
0.0
9
$EXTMAX
10
7351.058898
20
7351.307717
30
0.0
9
$LUNITS
70
2
9
$HANDSEED
5
126
0
ENDSEC
0
SECTION
2
TABLES
0
TABLE
2
VPORT
5
1
100
AcDbSymbolTable
70
1
0
VPORT
5
2
100
AcDbSymbolTableRecord
100
AcDbViewportTableRecord
2
*ACTIVE
70
0
0
ENDTAB
0
TABLE
2
LTYPE
5
3
100
AcDbSymbolTable
70
1
0
LTYPE
5
4
100
AcDbSymbolTableRecord
100
AcDbLinetypeTableRecord
2
BYBLOCK
70
0
3

72
65
73
0
40
0.0
0
LTYPE
5
5
100
AcDbSymbolTableRecord
100
AcDbLinetypeTableRecord
2
BYLAYER
70
0
3

72
65
73
0
40
0.0
0
LTYPE
5
6
100
AcDbSymbolTableRecord
100
AcDbLinetypeTableRecord
2
CONTINUOUS
70
0
3
Solid line
72
65
73
0
40
0.0
0
ENDTAB
0
TABLE
2
LAYER
5
7
100
AcDbSymbolTable
70
2
0
LAYER
5
8
100
AcDbSymbolTableRecord
100
AcDbLayerTableRecord
2
0
70
0
62
7
6
CONTINUOUS
0
LAYER
5
9
100
AcDbSymbolTableRecord
100
AcDbLayerTableRecord
2
BOARD_OUTLINE
70
0
62
2
6
CONTINUOUS
0
ENDTAB
0
TABLE
2
STYLE
5
A
100
AcDbSymbolTable
70
2
0
STYLE
5
B
100
AcDbSymbolTableRecord
100
AcDbTextStyleTableRecord
2
MONOTxtStyle
70
0
40
0.0
41
1.0
50
0.0
71
0
42
0.2
3
monotxt
4

0
STYLE
5
C
100
AcDbSymbolTableRecord
100
AcDbTextStyleTableRecord
2
MONOTxtStyle_M
70
0
40
0.0
41
1.0
50
0.0
71
2
42
0.2
3
monotxt
4

0
STYLE
5
D
100
AcDbSymbolTableRecord
100
AcDbTextStyleTableRecord
2
STANDARD
70
0
40
0.0
41
1.0
50
0.0
71
0
42
0.2
3
Arial
4

0
STYLE
5
E
100
AcDbSymbolTableRecord
100
AcDbTextStyleTableRecord
2
STANDARD_M
70
0
40
0.0
41
1.0
50
0.0
71
2
42
0.2
3
Arial
4

0
ENDTAB
0
TABLE
2
VIEW
5
F
100
AcDbSymbolTable
70
0
0
ENDTAB
0
TABLE
2
UCS
5
10
100
AcDbSymbolTable
70
0
0
ENDTAB
0
TABLE
2
APPID
5
11
100
AcDbSymbolTable
70
1
0
APPID
5
12
100
AcDbSymbolTableRecord
100
AcDbRegAppTableRecord
2
ACAD
70
0
0
ENDTAB
0
TABLE
2
DIMSTYLE
5
13
100
AcDbSymbolTable
70
1
0
DIMSTYLE
105
14
100
AcDbSymbolTableRecord
100
AcDbDimStyleTableRecord
2
STANDARD
70
0
0
ENDTAB
0
TABLE
2
BLOCK_RECORD
5
15
100
AcDbSymbolTable
70
0
0
BLOCK_RECORD
5
16
100
AcDbSymbolTableRecord
100
AcDbBlockTableRecord
2
*MODEL_SPACE
0
BLOCK_RECORD
5
17
100
AcDbSymbolTableRecord
100
AcDbBlockTableRecord
2
*PAPER_SPACE
0
ENDTAB
0
ENDSEC
0
SECTION
2
BLOCKS
0
BLOCK
5
18
100
AcDbEntity
8
0
100
AcDbBlockBegin
2
*MODEL_SPACE
70
0
0
ENDBLK
5
19
100
AcDbEntity
8
0
100
AcDbBlockEnd
0
BLOCK
5
1A
100
AcDbEntity
8
0
100
AcDbBlockBegin
2
*PAPER_SPACE
70
0
0
ENDBLK
5
1B
100
AcDbEntity
8
0
100
AcDbBlockEnd
0
ENDSEC
0
SECTION
2
ENTITIES
0
LWPOLYLINE
5
1C
100
AcDbEntity
8
BOARD_OUTLINE
62
2
100
AcDbPolyline
90
2
70
0
43
0.000039
39
0.000039
10
6666.417008
20
3332.165984
10
6665.915984
20
3333.459016
0
LWPOLYLINE
5
1D
100
AcDbEntity
8
BOARD_OUTLINE
62
2
100
AcDbPolyline
90
2
70
0
43
0.000039
39
0.000039
10
6303.249016
20
3802.959016
10
5899.125000
20
3802.959016
0
LWPOLYLINE
5
1E
100
AcDbEntity
8
BOARD_OUTLINE
62
2
100
AcDbPolyline
90
2
70
0
43
0.000039
39
0.000039
10
5771.207992
20
3995.709016
10
5367.875984
20
3995.709016
0
LWPOLYLINE
5
1F
100
AcDbEntity
8
BOARD_OUTLINE
62
2
100
AcDbPolyline
90
2
70
0
43
0.000039
39
0.000039
10
5049.999016
20
4003.457992
10
5090.165984
20
4072.959016
0
LWPOLYLINE
5
20
100
AcDbEntity
8
BOARD_OUTLINE
62
2
100
AcDbPolyline
90
2
70
0
43
0.000039
39
0.000039
10
5090.165984
20
4072.959016
10
4520.292008
20
4209.375000
0
LWPOLYLINE
5
21
100
AcDbEntity
8
BOARD_OUTLINE
62
2
100
AcDbPolyline
90
2
70
0
43
0.000039
39
0.000039
10
4520.292008
20
4209.375000
10
4705.082992
20
4394.417992
0
LWPOLYLINE
5
22
100
AcDbEntity
8
BOARD_OUTLINE
62
2
100
AcDbPolyline
90
2
70
0
43
0.000039
39
0.000039
10
4705.082992
20
4394.417992
10
4742.165984
20
4431.500984
0
LWPOLYLINE
5
23
100
AcDbEntity
8
BOARD_OUTLINE
62
2
100
AcDbPolyline
90
2
70
0
43
0.000039
39
0.000039
10
4742.165984
20
4431.500984
10
5240.207992
20
4304.582992
0
LWPOLYLINE
5
24
100
AcDbEntity
8
BOARD_OUTLINE
62
2
100
AcDbPolyline
90
2
70
0
43
0.000039
39
0.000039
10
5240.207992
20
4304.582992
10
5525.124016
20
4589.540984
0
LWPOLYLINE
5
25
100
AcDbEntity
8
BOARD_OUTLINE
62
2
100
AcDbPolyline
90
2
70
0
43
0.000039
39
0.000039
10
5525.124016
20
4589.540984
10
5033.540984
20
4723.374016
0
LWPOLYLINE
5
26
100
AcDbEntity
8
BOARD_OUTLINE
62
2
100
AcDbPolyline
90
2
70
0
43
0.000039
39
0.000039
10
5033.540984
20
4723.374016
10
5204.417992
20
4893.999016
0
LWPOLYLINE
5
27
100
AcDbEntity
8
BOARD_OUTLINE
62
2
100
AcDbPolyline
90
2
70
0
43
0.000039
39
0.000039
10
5204.417992
20
4893.999016
10
5480.375984
20
4816.542008
0
LWPOLYLINE
5
28
100
AcDbEntity
8
BOARD_OUTLINE
62
2
100
AcDbPolyline
90
2
70
0
43
0.000039
39
0.000039
10
5480.375984
20
4816.542008
10
5765.792992
20
5101.749016
0
LWPOLYLINE
5
29
100
AcDbEntity
8
BOARD_OUTLINE
62
2
100
AcDbPolyline
90
2
70
0
43
0.000039
39
0.000039
10
5765.792992
20
5101.749016
10
5495.292008
20
5184.084016
0
LWPOLYLINE
5
2A
100
AcDbEntity
8
BOARD_OUTLINE
62
2
100
AcDbPolyline
90
2
70
0
43
0.000039
39
0.000039
10
5495.292008
20
5184.084016
10
5695.292992
20
5384.334016
0
LWPOLYLINE
5
2B
100
AcDbEntity
8
BOARD_OUTLINE
62
2
100
AcDbPolyline
90
2
70
0
43
0.000039
39
0.000039
10
5695.292992
20
5384.334016
10
5689.875000
20
5690.625000
0
LWPOLYLINE
5
2C
100
AcDbEntity
8
BOARD_OUTLINE
62
2
100
AcDbPolyline
90
2
70
0
43
0.000039
39
0.000039
10
5689.875000
20
5690.625000
10
5383.584016
20
5696.042992
0
LWPOLYLINE
5
2D
100
AcDbEntity
8
BOARD_OUTLINE
62
2
100
AcDbPolyline
90
2
70
0
43
0.000039
39
0.000039
10
5383.584016
20
5696.042992
10
5183.334016
20
5495.540984
0
LWPOLYLINE
5
2E
100
AcDbEntity
8
BOARD_OUTLINE
62
2
100
AcDbPolyline
90
2
70
0
43
0.000039
39
0.000039
10
5183.334016
20
5495.540984
10
5100.707992
20
5765.792992
0
LWPOLYLINE
5
2F
100
AcDbEntity
8
BOARD_OUTLINE
62
2
100
AcDbPolyline
90
2
70
0
43
0.000039
39
0.000039
10
5100.707992
20
5765.792992
10
4815.249016
20
5480.625000
0
LWPOLYLINE
5
30
100
AcDbEntity
8
BOARD_OUTLINE
62
2
100
AcDbPolyline
90
2
70
0
43
0.000039
39
0.000039
10
4815.249016
20
5480.625000
10
4893.000000
20
5205.207008
0
LWPOLYLINE
5
31
100
AcDbEntity
8
BOARD_OUTLINE
62
2
100
AcDbPolyline
90
2
70
0
43
0.000039
39
0.000039
10
4893.000000
20
5205.207008
10
4721.832008
20
5034.042008
0
LWPOLYLINE
5
32
100
AcDbEntity
8
BOARD_OUTLINE
62
2
100
AcDbPolyline
90
2
70
0
43
0.000039
39
0.000039
10
4721.832008
20
5034.042008
10
4588.500000
20
5526.167992
0
LWPOLYLINE
5
33
100
AcDbEntity
8
BOARD_OUTLINE
62
2
100
AcDbPolyline
90
2
70
0
43
0.000039
39
0.000039
10
4588.500000
20
5526.167992
10
4303.584016
20
5241.249016
0
LWPOLYLINE
5
34
100
AcDbEntity
8
BOARD_OUTLINE
62
2
100
AcDbPolyline
90
2
70
0
43
0.000039
39
0.000039
10
4303.584016
20
5241.249016
10
4430.709016
20
4743.207008
0
LWPOLYLINE
5
35
100
AcDbEntity
8
BOARD_OUTLINE
62
2
100
AcDbPolyline
90
2
70
0
43
0.000039
39
0.000039
10
4430.709016
20
4743.207008
10
4208.082008
20
4520.292008
0
LWPOLYLINE
5
36
100
AcDbEntity
8
BOARD_OUTLINE
62
2
100
AcDbPolyline
90
2
70
0
43
0.000039
39
0.000039
10
4208.082008
20
4520.292008
10
4053.125984
20
5099.165984
0
LWPOLYLINE
5
37
100
AcDbEntity
8
BOARD_OUTLINE
62
2
100
AcDbPolyline
90
2
70
0
43
0.000039
39
0.000039
10
4053.125984
20
5099.165984
10
3656.250000
20
4855.917008
0
LWPOLYLINE
5
38
100
AcDbEntity
8
BOARD_OUTLINE
62
2
100
AcDbPolyline
90
2
70
0
43
0.000039
39
0.000039
10
3656.250000
20
4855.917008
10
3552.999016
20
4792.875000
0
LWPOLYLINE
5
39
100
AcDbEntity
8
BOARD_OUTLINE
62
2
100
AcDbPolyline
90
2
70
0
43
0.000039
39
0.000039
10
3552.999016
20
4792.875000
10
3552.999016
20
5106.624016
0
LWPOLYLINE
5
3A
100
AcDbEntity
8
BOARD_OUTLINE
62
2
100
AcDbPolyline
90
2
70
0
43
0.000039
39
0.000039
10
3552.999016
20
5106.624016
10
3995.457008
20
5369.165984
0
LWPOLYLINE
5
3B
100
AcDbEntity
8
BOARD_OUTLINE
62
2
100
AcDbPolyline
90
2
70
0
43
0.000039
39
0.000039
10
3995.457008
20
5369.165984
10
3995.457008
20
5772.249016
0
LWPOLYLINE
5
3C
100
AcDbEntity
8
BOARD_OUTLINE
62
2
100
AcDbPolyline
90
2
70
0
43
0.000039
39
0.000039
10
3995.457008
20
5772.249016
10
3552.999016
20
5518.707008
0
LWPOLYLINE
5
3D
100
AcDbEntity
8
BOARD_OUTLINE
62
2
100
AcDbPolyline
90
2
70
0
43
0.000039
39
0.000039
10
3552.999016
20
5518.707008
10
3552.999016
20
5760.665984
0
LWPOLYLINE
5
3E
100
AcDbEntity
8
BOARD_OUTLINE
62
2
100
AcDbPolyline
90
2
70
0
43
0.000039
39
0.000039
10
3552.999016
20
5760.665984
10
3802.707008
20
5900.417992
0
LWPOLYLINE
5
3F
100
AcDbEntity
8
BOARD_OUTLINE
62
2
100
AcDbPolyline
90
2
70
0
43
0.000039
39
0.000039
10
3802.707008
20
5900.417992
10
3802.707008
20
6303.750000
0
LWPOLYLINE
5
40
100
AcDbEntity
8
BOARD_OUTLINE
62
2
100
AcDbPolyline
90
2
70
0
43
0.000039
39
0.000039
10
3802.707008
20
6303.750000
10
3552.999016
20
6171.167992
0
LWPOLYLINE
5
41
100
AcDbEntity
8
BOARD_OUTLINE
62
2
100
AcDbPolyline
90
2
70
0
43
0.000039
39
0.000039
10
3552.999016
20
6171.167992
10
3552.999016
20
6454.584016
0
LWPOLYLINE
5
42
100
AcDbEntity
8
BOARD_OUTLINE
62
2
100
AcDbPolyline
90
2
70
0
43
0.000039
39
0.000039
10
3552.999016
20
6454.584016
10
3332.957992
20
6666.665984
0
LWPOLYLINE
5
43
100
AcDbEntity
8
BOARD_OUTLINE
62
2
100
AcDbPolyline
90
2
70
0
43
0.000039
39
0.000039
10
3332.957992
20
6666.665984
10
3112.875000
20
6454.584016
0
LWPOLYLINE
5
44
100
AcDbEntity
8
BOARD_OUTLINE
62
2
100
AcDbPolyline
90
2
70
0
43
0.000039
39
0.000039
10
3112.875000
20
6454.584016
10
3112.875000
20
6171.167992
0
LWPOLYLINE
5
45
100
AcDbEntity
8
BOARD_OUTLINE
62
2
100
AcDbPolyline
90
2
70
0
43
0.000039
39
0.000039
10
3112.875000
20
6171.167992
10
2862.957008
20
6303.750000
0
LWPOLYLINE
5
46
100
AcDbEntity
8
BOARD_OUTLINE
62
2
100
AcDbPolyline
90
2
70
0
43
0.000039
39
0.000039
10
2862.957008
20
6303.750000
10
2862.957008
20
6188.417992
0
LWPOLYLINE
5
47
100
AcDbEntity
8
BOARD_OUTLINE
62
2
100
AcDbPolyline
90
2
70
0
43
0.000039
39
0.000039
10
2862.957008
20
6188.417992
10
2862.957008
20
5900.417992
0
LWPOLYLINE
5
48
100
AcDbEntity
8
BOARD_OUTLINE
62
2
100
AcDbPolyline
90
2
70
0
43
0.000039
39
0.000039
10
2862.957008
20
5900.417992
10
3112.875000
20
5760.665984
0
LWPOLYLINE
5
49
100
AcDbEntity
8
BOARD_OUTLINE
62
2
100
AcDbPolyline
90
2
70
0
43
0.000039
39
0.000039
10
3112.875000
20
5760.665984
10
3112.875000
20
5518.707008
0
LWPOLYLINE
5
4A
100
AcDbEntity
8
BOARD_OUTLINE
62
2
100
AcDbPolyline
90
2
70
0
43
0.000039
39
0.000039
10
3112.875000
20
5518.707008
10
2670.665984
20
5772.249016
0
LWPOLYLINE
5
4B
100
AcDbEntity
8
BOARD_OUTLINE
62
2
100
AcDbPolyline
90
2
70
0
43
0.000039
39
0.000039
10
2670.665984
20
5772.249016
10
2670.665984
20
5369.165984
0
LWPOLYLINE
5
4C
100
AcDbEntity
8
BOARD_OUTLINE
62
2
100
AcDbPolyline
90
2
70
0
43
0.000039
39
0.000039
10
2670.665984
20
5369.165984
10
2981.625000
20
5184.624016
0
LWPOLYLINE
5
4D
100
AcDbEntity
8
BOARD_OUTLINE
62
2
100
AcDbPolyline
90
2
70
0
43
0.000039
39
0.000039
10
2981.625000
20
5184.624016
10
3113.124016
20
5106.624016
0
LWPOLYLINE
5
4E
100
AcDbEntity
8
BOARD_OUTLINE
62
2
100
AcDbPolyline
90
2
70
0
43
0.000039
39
0.000039
10
3113.124016
20
5106.624016
10
3113.124016
20
4791.582008
0
LWPOLYLINE
5
4F
100
AcDbEntity
8
BOARD_OUTLINE
62
2
100
AcDbPolyline
90
2
70
0
43
0.000039
39
0.000039
10
3113.124016
20
4791.582008
10
2626.415984
20
5086.040984
0
LWPOLYLINE
5
50
100
AcDbEntity
8
BOARD_OUTLINE
62
2
100
AcDbPolyline
90
2
70
0
43
0.000039
39
0.000039
10
2626.415984
20
5086.040984
10
2623.082992
20
5073.917992
0
LWPOLYLINE
5
51
100
AcDbEntity
8
BOARD_OUTLINE
62
2
100
AcDbPolyline
90
2
70
0
43
0.000039
39
0.000039
10
2623.082992
20
5073.917992
10
2594.000984
20
5091.167992
0
LWPOLYLINE
5
52
100
AcDbEntity
8
BOARD_OUTLINE
62
2
100
AcDbPolyline
90
2
70
0
43
0.000039
39
0.000039
10
2594.000984
20
5091.167992
10
2457.582008
20
4521.332992
0
LWPOLYLINE
5
53
100
AcDbEntity
8
BOARD_OUTLINE
62
2
100
AcDbPolyline
90
2
70
0
43
0.000039
39
0.000039
10
2457.582008
20
4521.332992
10
2457.582008
20
4521.042008
0
LWPOLYLINE
5
54
100
AcDbEntity
8
BOARD_OUTLINE
62
2
100
AcDbPolyline
90
2
70
0
43
0.000039
39
0.000039
10
2457.582008
20
4521.042008
10
2235.167992
20
4743.459016
0
LWPOLYLINE
5
55
100
AcDbEntity
8
BOARD_OUTLINE
62
2
100
AcDbPolyline
90
2
70
0
43
0.000039
39
0.000039
10
2235.167992
20
4743.459016
10
2362.332008
20
5241.500984
0
LWPOLYLINE
5
56
100
AcDbEntity
8
BOARD_OUTLINE
62
2
100
AcDbPolyline
90
2
70
0
43
0.000039
39
0.000039
10
2362.332008
20
5241.500984
10
2077.125000
20
5526.417008
0
LWPOLYLINE
5
57
100
AcDbEntity
8
BOARD_OUTLINE
62
2
100
AcDbPolyline
90
2
70
0
43
0.000039
39
0.000039
10
2077.125000
20
5526.417008
10
1944.084016
20
5034.290984
0
LWPOLYLINE
5
58
100
AcDbEntity
8
BOARD_OUTLINE
62
2
100
AcDbPolyline
90
2
70
0
43
0.000039
39
0.000039
10
1944.084016
20
5034.290984
10
1772.915984
20
5205.459016
0
LWPOLYLINE
5
59
100
AcDbEntity
8
BOARD_OUTLINE
62
2
100
AcDbPolyline
90
2
70
0
43
0.000039
39
0.000039
10
1772.915984
20
5205.459016
10
1850.124016
20
5480.874016
0
LWPOLYLINE
5
5A
100
AcDbEntity
8
BOARD_OUTLINE
62
2
100
AcDbPolyline
90
2
70
0
43
0.000039
39
0.000039
10
1850.124016
20
5480.874016
10
1755.167992
20
5576.082008
0
LWPOLYLINE
5
5B
100
AcDbEntity
8
BOARD_OUTLINE
62
2
100
AcDbPolyline
90
2
70
0
43
0.000039
39
0.000039
10
1755.167992
20
5576.082008
10
1565.207992
20
5766.042008
0
LWPOLYLINE
5
5C
100
AcDbEntity
8
BOARD_OUTLINE
62
2
100
AcDbPolyline
90
2
70
0
43
0.000039
39
0.000039
10
1565.207992
20
5766.042008
10
1525.832992
20
5638.125000
0
LWPOLYLINE
5
5D
100
AcDbEntity
8
BOARD_OUTLINE
62
2
100
AcDbPolyline
90
2
70
0
43
0.000039
39
0.000039
10
1525.832992
20
5638.125000
10
1482.582008
20
5495.540984
0
LWPOLYLINE
5
5E
100
AcDbEntity
8
BOARD_OUTLINE
62
2
100
AcDbPolyline
90
2
70
0
43
0.000039
39
0.000039
10
1482.582008
20
5495.540984
10
1281.542992
20
5696.042992
0
LWPOLYLINE
5
5F
100
AcDbEntity
8
BOARD_OUTLINE
62
2
100
AcDbPolyline
90
2
70
0
43
0.000039
39
0.000039
10
1281.542992
20
5696.042992
10
972.957008
20
5690.124016
0
LWPOLYLINE
5
60
100
AcDbEntity
8
BOARD_OUTLINE
62
2
100
AcDbPolyline
90
2
70
0
43
0.000039
39
0.000039
10
972.957008
20
5690.124016
10
971.667008
20
5458.457992
0
LWPOLYLINE
5
61
100
AcDbEntity
8
BOARD_OUTLINE
62
2
100
AcDbPolyline
90
2
70
0
43
0.000039
39
0.000039
10
971.667008
20
5458.457992
10
970.374016
20
5384.082008
0
LWPOLYLINE
5
62
100
AcDbEntity
8
BOARD_OUTLINE
62
2
100
AcDbPolyline
90
2
70
0
43
0.000039
39
0.000039
10
970.374016
20
5384.082008
10
1170.624016
20
5183.832008
0
LWPOLYLINE
5
63
100
AcDbEntity
8
BOARD_OUTLINE
62
2
100
AcDbPolyline
90
2
70
0
43
0.000039
39
0.000039
10
1170.624016
20
5183.832008
10
900.375000
20
5101.457992
0
LWPOLYLINE
5
64
100
AcDbEntity
8
BOARD_OUTLINE
62
2
100
AcDbPolyline
90
2
70
0
43
0.000039
39
0.000039
10
900.375000
20
5101.457992
10
1185.542992
20
4816.292992
0
LWPOLYLINE
5
65
100
AcDbEntity
8
BOARD_OUTLINE
62
2
100
AcDbPolyline
90
2
70
0
43
0.000039
39
0.000039
10
1185.542992
20
4816.292992
10
1460.957992
20
4893.750000
0
LWPOLYLINE
5
66
100
AcDbEntity
8
BOARD_OUTLINE
62
2
100
AcDbPolyline
90
2
70
0
43
0.000039
39
0.000039
10
1460.957992
20
4893.750000
10
1632.125984
20
4723.125000
0
LWPOLYLINE
5
67
100
AcDbEntity
8
BOARD_OUTLINE
62
2
100
AcDbPolyline
90
2
70
0
43
0.000039
39
0.000039
10
1632.125984
20
4723.125000
10
1140.249016
20
4589.250000
0
LWPOLYLINE
5
68
100
AcDbEntity
8
BOARD_OUTLINE
62
2
100
AcDbPolyline
90
2
70
0
43
0.000039
39
0.000039
10
1140.249016
20
4589.250000
10
1211.292008
20
4518.207008
0
LWPOLYLINE
5
69
100
AcDbEntity
8
BOARD_OUTLINE
62
2
100
AcDbPolyline
90
2
70
0
43
0.000039
39
0.000039
10
1211.292008
20
4518.207008
10
1425.417008
20
4304.082008
0
LWPOLYLINE
5
6A
100
AcDbEntity
8
BOARD_OUTLINE
62
2
100
AcDbPolyline
90
2
70
0
43
0.000039
39
0.000039
10
1425.417008
20
4304.082008
10
1923.750000
20
4430.957992
0
LWPOLYLINE
5
6B
100
AcDbEntity
8
BOARD_OUTLINE
62
2
100
AcDbPolyline
90
2
70
0
43
0.000039
39
0.000039
10
1923.750000
20
4430.957992
10
2101.832992
20
4253.375984
0
LWPOLYLINE
5
6C
100
AcDbEntity
8
BOARD_OUTLINE
62
2
100
AcDbPolyline
90
2
70
0
43
0.000039
39
0.000039
10
2101.832992
20
4253.375984
10
2146.125000
20
4208.582992
0
LWPOLYLINE
5
6D
100
AcDbEntity
8
BOARD_OUTLINE
62
2
100
AcDbPolyline
90
2
70
0
43
0.000039
39
0.000039
10
2146.125000
20
4208.582992
10
1566.999016
20
4053.125984
0
LWPOLYLINE
5
6E
100
AcDbEntity
8
BOARD_OUTLINE
62
2
100
AcDbPolyline
90
2
70
0
43
0.000039
39
0.000039
10
1566.999016
20
4053.125984
10
1813.584016
20
3652.374016
0
LWPOLYLINE
5
6F
100
AcDbEntity
8
BOARD_OUTLINE
62
2
100
AcDbPolyline
90
2
70
0
43
0.000039
39
0.000039
10
1344.875984
20
3917.207992
10
1298.042992
20
3996.000000
0
LWPOLYLINE
5
70
100
AcDbEntity
8
BOARD_OUTLINE
62
2
100
AcDbPolyline
90
2
70
0
43
0.000039
39
0.000039
10
1298.042992
20
3996.000000
10
894.707992
20
3996.000000
0
LWPOLYLINE
5
71
100
AcDbEntity
8
BOARD_OUTLINE
62
2
100
AcDbPolyline
90
2
70
0
43
0.000039
39
0.000039
10
894.707992
20
3996.000000
10
965.750984
20
3872.165984
0
LWPOLYLINE
5
72
100
AcDbEntity
8
BOARD_OUTLINE
62
2
100
AcDbPolyline
90
2
70
0
43
0.000039
39
0.000039
10
766.500000
20
3803.207992
10
363.459016
20
3803.207992
0
LWPOLYLINE
5
73
100
AcDbEntity
8
BOARD_OUTLINE
62
2
100
AcDbPolyline
90
2
70
0
43
0.000039
39
0.000039
10
0.000000
20
3333.707992
10
212.082008
20
3112.875000
0
LWPOLYLINE
5
74
100
AcDbEntity
8
BOARD_OUTLINE
62
2
100
AcDbPolyline
90
2
70
0
43
0.000039
39
0.000039
10
212.082008
20
3112.875000
10
495.500984
20
3112.875000
0
LWPOLYLINE
5
75
100
AcDbEntity
8
BOARD_OUTLINE
62
2
100
AcDbPolyline
90
2
70
0
43
0.000039
39
0.000039
10
495.500984
20
3112.875000
10
363.459016
20
2864.000984
0
LWPOLYLINE
5
76
100
AcDbEntity
8
BOARD_OUTLINE
62
2
100
AcDbPolyline
90
2
70
0
43
0.000039
39
0.000039
10
363.459016
20
2864.000984
10
420.834016
20
2864.000984
0
LWPOLYLINE
5
77
100
AcDbEntity
8
BOARD_OUTLINE
62
2
100
AcDbPolyline
90
2
70
0
43
0.000039
39
0.000039
10
420.834016
20
2864.000984
10
766.500000
20
2864.000984
0
LWPOLYLINE
5
78
100
AcDbEntity
8
BOARD_OUTLINE
62
2
100
AcDbPolyline
90
2
70
0
43
0.000039
39
0.000039
10
766.500000
20
2864.000984
10
906.542992
20
3112.875000
0
LWPOLYLINE
5
79
100
AcDbEntity
8
BOARD_OUTLINE
62
2
100
AcDbPolyline
90
2
70
0
43
0.000039
39
0.000039
10
906.542992
20
3112.875000
10
1147.959016
20
3112.875000
0
LWPOLYLINE
5
7A
100
AcDbEntity
8
BOARD_OUTLINE
62
2
100
AcDbPolyline
90
2
70
0
43
0.000039
39
0.000039
10
1147.959016
20
3112.875000
10
894.707992
20
2671.209016
0
LWPOLYLINE
5
7B
100
AcDbEntity
8
BOARD_OUTLINE
62
2
100
AcDbPolyline
90
2
70
0
43
0.000039
39
0.000039
10
894.707992
20
2671.209016
10
1298.042992
20
2671.209016
0
LWPOLYLINE
5
7C
100
AcDbEntity
8
BOARD_OUTLINE
62
2
100
AcDbPolyline
90
2
70
0
43
0.000039
39
0.000039
10
1298.042992
20
2671.209016
10
1560.290984
20
3112.875000
0
LWPOLYLINE
5
7D
100
AcDbEntity
8
BOARD_OUTLINE
62
2
100
AcDbPolyline
90
2
70
0
43
0.000039
39
0.000039
10
1560.290984
20
3112.875000
10
1875.084016
20
3112.875000
0
LWPOLYLINE
5
7E
100
AcDbEntity
8
BOARD_OUTLINE
62
2
100
AcDbPolyline
90
2
70
0
43
0.000039
39
0.000039
10
1875.084016
20
3112.875000
10
1580.375984
20
2627.417992
0
LWPOLYLINE
5
7F
100
AcDbEntity
8
BOARD_OUTLINE
62
2
100
AcDbPolyline
90
2
70
0
43
0.000039
39
0.000039
10
1580.375984
20
2627.417992
10
1592.457008
20
2623.040984
0
LWPOLYLINE
5
80
100
AcDbEntity
8
BOARD_OUTLINE
62
2
100
AcDbPolyline
90
2
70
0
43
0.000039
39
0.000039
10
1592.457008
20
2623.040984
10
1575.750000
20
2594.250000
0
LWPOLYLINE
5
81
100
AcDbEntity
8
BOARD_OUTLINE
62
2
100
AcDbPolyline
90
2
70
0
43
0.000039
39
0.000039
10
1575.750000
20
2594.250000
10
2145.332992
20
2457.582008
0
LWPOLYLINE
5
82
100
AcDbEntity
8
BOARD_OUTLINE
62
2
100
AcDbPolyline
90
2
70
0
43
0.000039
39
0.000039
10
2145.332992
20
2457.582008
10
1923.750000
20
2235.417008
0
LWPOLYLINE
5
83
100
AcDbEntity
8
BOARD_OUTLINE
62
2
100
AcDbPolyline
90
2
70
0
43
0.000039
39
0.000039
10
1923.750000
20
2235.417008
10
1425.417008
20
2362.332008
0
LWPOLYLINE
5
84
100
AcDbEntity
8
BOARD_OUTLINE
62
2
100
AcDbPolyline
90
2
70
0
43
0.000039
39
0.000039
10
1425.417008
20
2362.332008
10
1140.500984
20
2077.667992
0
LWPOLYLINE
5
85
100
AcDbEntity
8
BOARD_OUTLINE
62
2
100
AcDbPolyline
90
2
70
0
43
0.000039
39
0.000039
10
1140.500984
20
2077.667992
10
1632.375000
20
1944.084016
0
LWPOLYLINE
5
86
100
AcDbEntity
8
BOARD_OUTLINE
62
2
100
AcDbPolyline
90
2
70
0
43
0.000039
39
0.000039
10
1632.375000
20
1944.084016
10
1461.207008
20
1773.167992
0
LWPOLYLINE
5
87
100
AcDbEntity
8
BOARD_OUTLINE
62
2
100
AcDbPolyline
90
2
70
0
43
0.000039
39
0.000039
10
1461.207008
20
1773.167992
10
1185.792008
20
1850.625000
0
LWPOLYLINE
5
88
100
AcDbEntity
8
BOARD_OUTLINE
62
2
100
AcDbPolyline
90
2
70
0
43
0.000039
39
0.000039
10
1185.792008
20
1850.625000
10
900.624016
20
1565.207992
0
LWPOLYLINE
5
89
100
AcDbEntity
8
BOARD_OUTLINE
62
2
100
AcDbPolyline
90
2
70
0
43
0.000039
39
0.000039
10
900.624016
20
1565.207992
10
1170.875984
20
1483.082992
0
LWPOLYLINE
5
8A
100
AcDbEntity
8
BOARD_OUTLINE
62
2
100
AcDbPolyline
90
2
70
0
43
0.000039
39
0.000039
10
1170.875984
20
1483.082992
10
970.625984
20
1282.584016
0
LWPOLYLINE
5
8B
100
AcDbEntity
8
BOARD_OUTLINE
62
2
100
AcDbPolyline
90
2
70
0
43
0.000039
39
0.000039
10
970.625984
20
1282.584016
10
976.040984
20
976.292992
0
LWPOLYLINE
5
8C
100
AcDbEntity
8
BOARD_OUTLINE
62
2
100
AcDbPolyline
90
2
70
0
43
0.000039
39
0.000039
10
976.040984
20
976.292992
10
1281.042008
20
970.625984
0
LWPOLYLINE
5
8D
100
AcDbEntity
8
BOARD_OUTLINE
62
2
100
AcDbPolyline
90
2
70
0
43
0.000039
39
0.000039
10
1281.042008
20
970.625984
10
1281.792008
20
970.625984
0
LWPOLYLINE
5
8E
100
AcDbEntity
8
BOARD_OUTLINE
62
2
100
AcDbPolyline
90
2
70
0
43
0.000039
39
0.000039
10
1281.792008
20
970.625984
10
1482.834016
20
1171.125000
0
LWPOLYLINE
5
8F
100
AcDbEntity
8
BOARD_OUTLINE
62
2
100
AcDbPolyline
90
2
70
0
43
0.000039
39
0.000039
10
1482.834016
20
1171.125000
10
1565.457008
20
900.875984
0
LWPOLYLINE
5
90
100
AcDbEntity
8
BOARD_OUTLINE
62
2
100
AcDbPolyline
90
2
70
0
43
0.000039
39
0.000039
10
1565.457008
20
900.875984
10
1707.792008
20
1043.709016
0
LWPOLYLINE
5
91
100
AcDbEntity
8
BOARD_OUTLINE
62
2
100
AcDbPolyline
90
2
70
0
43
0.000039
39
0.000039
10
1707.792008
20
1043.709016
10
1850.375984
20
1186.292992
0
LWPOLYLINE
5
92
100
AcDbEntity
8
BOARD_OUTLINE
62
2
100
AcDbPolyline
90
2
70
0
43
0.000039
39
0.000039
10
1850.375984
20
1186.292992
10
1773.167992
20
1461.707992
0
LWPOLYLINE
5
93
100
AcDbEntity
8
BOARD_OUTLINE
62
2
100
AcDbPolyline
90
2
70
0
43
0.000039
39
0.000039
10
1773.167992
20
1461.707992
10
1944.332992
20
1632.624016
0
LWPOLYLINE
5
94
100
AcDbEntity
8
BOARD_OUTLINE
62
2
100
AcDbPolyline
90
2
70
0
43
0.000039
39
0.000039
10
1944.332992
20
1632.624016
10
2051.165984
20
1237.542008
0
LWPOLYLINE
5
95
100
AcDbEntity
8
BOARD_OUTLINE
62
2
100
AcDbPolyline
90
2
70
0
43
0.000039
39
0.000039
10
2051.165984
20
1237.542008
10
2077.415984
20
1140.500984
0
LWPOLYLINE
5
96
100
AcDbEntity
8
BOARD_OUTLINE
62
2
100
AcDbPolyline
90
2
70
0
43
0.000039
39
0.000039
10
2077.415984
20
1140.500984
10
2362.584016
20
1426.707008
0
LWPOLYLINE
5
97
100
AcDbEntity
8
BOARD_OUTLINE
62
2
100
AcDbPolyline
90
2
70
0
43
0.000039
39
0.000039
10
2362.584016
20
1426.707008
10
2235.459016
20
1924.250984
0
LWPOLYLINE
5
98
100
AcDbEntity
8
BOARD_OUTLINE
62
2
100
AcDbPolyline
90
2
70
0
43
0.000039
39
0.000039
10
2235.459016
20
1924.250984
10
2458.082992
20
2147.165984
0
LWPOLYLINE
5
99
100
AcDbEntity
8
BOARD_OUTLINE
62
2
100
AcDbPolyline
90
2
70
0
43
0.000039
39
0.000039
10
2458.082992
20
2147.165984
10
2594.000984
20
1594.790984
0
LWPOLYLINE
5
9A
100
AcDbEntity
8
BOARD_OUTLINE
62
2
100
AcDbPolyline
90
2
70
0
43
0.000039
39
0.000039
10
2594.000984
20
1594.790984
10
2604.290984
20
1600.707008
0
LWPOLYLINE
5
9B
100
AcDbEntity
8
BOARD_OUTLINE
62
2
100
AcDbPolyline
90
2
70
0
43
0.000039
39
0.000039
10
2604.290984
20
1600.707008
10
2613.542992
20
1568.292008
0
LWPOLYLINE
5
9C
100
AcDbEntity
8
BOARD_OUTLINE
62
2
100
AcDbPolyline
90
2
70
0
43
0.000039
39
0.000039
10
2613.542992
20
1568.292008
10
3112.875000
20
1874.042992
0
LWPOLYLINE
5
9D
100
AcDbEntity
8
BOARD_OUTLINE
62
2
100
AcDbPolyline
90
2
70
0
43
0.000039
39
0.000039
10
3112.875000
20
1874.042992
10
3113.417992
20
1874.582992
0
LWPOLYLINE
5
9E
100
AcDbEntity
8
BOARD_OUTLINE
62
2
100
AcDbPolyline
90
2
70
0
43
0.000039
39
0.000039
10
3113.417992
20
1874.582992
10
3113.417992
20
1560.542992
0
LWPOLYLINE
5
9F
100
AcDbEntity
8
BOARD_OUTLINE
62
2
100
AcDbPolyline
90
2
70
0
43
0.000039
39
0.000039
10
3113.417992
20
1560.542992
10
2671.209016
20
1297.749016
0
LWPOLYLINE
5
A0
100
AcDbEntity
8
BOARD_OUTLINE
62
2
100
AcDbPolyline
90
2
70
0
43
0.000039
39
0.000039
10
2671.209016
20
1297.749016
10
2671.209016
20
894.665984
0
LWPOLYLINE
5
A1
100
AcDbEntity
8
BOARD_OUTLINE
62
2
100
AcDbPolyline
90
2
70
0
43
0.000039
39
0.000039
10
2671.209016
20
894.665984
10
3113.417992
20
1148.457008
0
LWPOLYLINE
5
A2
100
AcDbEntity
8
BOARD_OUTLINE
62
2
100
AcDbPolyline
90
2
70
0
43
0.000039
39
0.000039
10
3113.417992
20
1148.457008
10
3113.417992
20
906.249016
0
LWPOLYLINE
5
A3
100
AcDbEntity
8
BOARD_OUTLINE
62
2
100
AcDbPolyline
90
2
70
0
43
0.000039
39
0.000039
10
3113.417992
20
906.249016
10
2863.457992
20
766.500000
0
LWPOLYLINE
5
A4
100
AcDbEntity
8
BOARD_OUTLINE
62
2
100
AcDbPolyline
90
2
70
0
43
0.000039
39
0.000039
10
2863.457992
20
766.500000
10
2863.457992
20
362.915984
0
LWPOLYLINE
5
A5
100
AcDbEntity
8
BOARD_OUTLINE
62
2
100
AcDbPolyline
90
2
70
0
43
0.000039
39
0.000039
10
2863.457992
20
362.915984
10
3113.417992
20
495.459016
0
LWPOLYLINE
5
A6
100
AcDbEntity
8
BOARD_OUTLINE
62
2
100
AcDbPolyline
90
2
70
0
43
0.000039
39
0.000039
10
3113.417992
20
495.459016
10
3113.417992
20
212.334016
0
LWPOLYLINE
5
A7
100
AcDbEntity
8
BOARD_OUTLINE
62
2
100
AcDbPolyline
90
2
70
0
43
0.000039
39
0.000039
10
3113.417992
20
212.334016
10
3333.459016
20
0.000000
0
LWPOLYLINE
5
A8
100
AcDbEntity
8
BOARD_OUTLINE
62
2
100
AcDbPolyline
90
2
70
0
43
0.000039
39
0.000039
10
3333.459016
20
0.000000
10
3553.542008
20
212.334016
0
LWPOLYLINE
5
A9
100
AcDbEntity
8
BOARD_OUTLINE
62
2
100
AcDbPolyline
90
2
70
0
43
0.000039
39
0.000039
10
3553.542008
20
212.334016
10
3553.542008
20
495.459016
0
LWPOLYLINE
5
AA
100
AcDbEntity
8
BOARD_OUTLINE
62
2
100
AcDbPolyline
90
2
70
0
43
0.000039
39
0.000039
10
3553.542008
20
495.459016
10
3803.207992
20
362.915984
0
LWPOLYLINE
5
AB
100
AcDbEntity
8
BOARD_OUTLINE
62
2
100
AcDbPolyline
90
2
70
0
43
0.000039
39
0.000039
10
3803.207992
20
362.915984
10
3803.207992
20
766.500000
0
LWPOLYLINE
5
AC
100
AcDbEntity
8
BOARD_OUTLINE
62
2
100
AcDbPolyline
90
2
70
0
43
0.000039
39
0.000039
10
3803.207992
20
766.500000
10
3553.542008
20
906.249016
0
LWPOLYLINE
5
AD
100
AcDbEntity
8
BOARD_OUTLINE
62
2
100
AcDbPolyline
90
2
70
0
43
0.000039
39
0.000039
10
3553.542008
20
906.249016
10
3553.542008
20
986.832008
0
LWPOLYLINE
5
AE
100
AcDbEntity
8
BOARD_OUTLINE
62
2
100
AcDbPolyline
90
2
70
0
43
0.000039
39
0.000039
10
3553.542008
20
986.832008
10
3553.542008
20
1148.457008
0
LWPOLYLINE
5
AF
100
AcDbEntity
8
BOARD_OUTLINE
62
2
100
AcDbPolyline
90
2
70
0
43
0.000039
39
0.000039
10
3553.542008
20
1148.457008
10
3980.540984
20
903.707992
0
LWPOLYLINE
5
B0
100
AcDbEntity
8
BOARD_OUTLINE
62
2
100
AcDbPolyline
90
2
70
0
43
0.000039
39
0.000039
10
3980.540984
20
903.707992
10
3996.000000
20
894.417008
0
LWPOLYLINE
5
B1
100
AcDbEntity
8
BOARD_OUTLINE
62
2
100
AcDbPolyline
90
2
70
0
43
0.000039
39
0.000039
10
3996.000000
20
894.417008
10
3996.000000
20
1297.500000
0
LWPOLYLINE
5
B2
100
AcDbEntity
8
BOARD_OUTLINE
62
2
100
AcDbPolyline
90
2
70
0
43
0.000039
39
0.000039
10
3996.000000
20
1297.500000
10
3553.542008
20
1560.290984
0
LWPOLYLINE
5
B3
100
AcDbEntity
8
BOARD_OUTLINE
62
2
100
AcDbPolyline
90
2
70
0
43
0.000039
39
0.000039
10
3553.542008
20
1560.290984
10
3553.542008
20
1630.040984
0
LWPOLYLINE
5
B4
100
AcDbEntity
8
BOARD_OUTLINE
62
2
100
AcDbPolyline
90
2
70
0
43
0.000039
39
0.000039
10
3553.542008
20
1630.040984
10
3553.542008
20
1874.832008
0
LWPOLYLINE
5
B5
100
AcDbEntity
8
BOARD_OUTLINE
62
2
100
AcDbPolyline
90
2
70
0
43
0.000039
39
0.000039
10
3553.542008
20
1874.832008
10
3912.084016
20
1668.125984
0
LWPOLYLINE
5
B6
100
AcDbEntity
8
BOARD_OUTLINE
62
2
100
AcDbPolyline
90
2
70
0
43
0.000039
39
0.000039
10
3912.084016
20
1668.125984
10
4072.959016
20
1575.207008
0
LWPOLYLINE
5
B7
100
AcDbEntity
8
BOARD_OUTLINE
62
2
100
AcDbPolyline
90
2
70
0
43
0.000039
39
0.000039
10
4072.959016
20
1575.207008
10
4181.832008
20
2030.540984
0
LWPOLYLINE
5
B8
100
AcDbEntity
8
BOARD_OUTLINE
62
2
100
AcDbPolyline
90
2
70
0
43
0.000039
39
0.000039
10
4181.832008
20
2030.540984
10
4209.375000
20
2145.332992
0
LWPOLYLINE
5
B9
100
AcDbEntity
8
BOARD_OUTLINE
62
2
100
AcDbPolyline
90
2
70
0
43
0.000039
39
0.000039
10
4209.375000
20
2145.332992
10
4431.249016
20
1923.459016
0
LWPOLYLINE
5
BA
100
AcDbEntity
8
BOARD_OUTLINE
62
2
100
AcDbPolyline
90
2
70
0
43
0.000039
39
0.000039
10
4431.249016
20
1923.459016
10
4304.082008
20
1425.957008
0
LWPOLYLINE
5
BB
100
AcDbEntity
8
BOARD_OUTLINE
62
2
100
AcDbPolyline
90
2
70
0
43
0.000039
39
0.000039
10
4304.082008
20
1425.957008
10
4589.000984
20
1139.709016
0
LWPOLYLINE
5
BC
100
AcDbEntity
8
BOARD_OUTLINE
62
2
100
AcDbPolyline
90
2
70
0
43
0.000039
39
0.000039
10
4589.000984
20
1139.709016
10
4722.332992
20
1632.125984
0
LWPOLYLINE
5
BD
100
AcDbEntity
8
BOARD_OUTLINE
62
2
100
AcDbPolyline
90
2
70
0
43
0.000039
39
0.000039
10
4722.332992
20
1632.125984
10
4836.624016
20
1518.084016
0
LWPOLYLINE
5
BE
100
AcDbEntity
8
BOARD_OUTLINE
62
2
100
AcDbPolyline
90
2
70
0
43
0.000039
39
0.000039
10
4836.624016
20
1518.084016
10
4893.500984
20
1461.207008
0
LWPOLYLINE
5
BF
100
AcDbEntity
8
BOARD_OUTLINE
62
2
100
AcDbPolyline
90
2
70
0
43
0.000039
39
0.000039
10
4893.500984
20
1461.207008
10
4815.792008
20
1185.792008
0
LWPOLYLINE
5
C0
100
AcDbEntity
8
BOARD_OUTLINE
62
2
100
AcDbPolyline
90
2
70
0
43
0.000039
39
0.000039
10
4815.792008
20
1185.792008
10
4958.375984
20
1043.207992
0
LWPOLYLINE
5
C1
100
AcDbEntity
8
BOARD_OUTLINE
62
2
100
AcDbPolyline
90
2
70
0
43
0.000039
39
0.000039
10
4958.375984
20
1043.207992
10
5101.209016
20
900.332992
0
LWPOLYLINE
5
C2
100
AcDbEntity
8
BOARD_OUTLINE
62
2
100
AcDbPolyline
90
2
70
0
43
0.000039
39
0.000039
10
5101.209016
20
900.332992
10
5183.832008
20
1170.624016
0
LWPOLYLINE
5
C3
100
AcDbEntity
8
BOARD_OUTLINE
62
2
100
AcDbPolyline
90
2
70
0
43
0.000039
39
0.000039
10
5183.832008
20
1170.624016
10
5384.082008
20
970.125000
0
LWPOLYLINE
5
C4
100
AcDbEntity
8
BOARD_OUTLINE
62
2
100
AcDbPolyline
90
2
70
0
43
0.000039
39
0.000039
10
5384.082008
20
970.125000
10
5690.375984
20
976.040984
0
LWPOLYLINE
5
C5
100
AcDbEntity
8
BOARD_OUTLINE
62
2
100
AcDbPolyline
90
2
70
0
43
0.000039
39
0.000039
10
5690.375984
20
976.040984
10
5695.790984
20
1282.040984
0
LWPOLYLINE
5
C6
100
AcDbEntity
8
BOARD_OUTLINE
62
2
100
AcDbPolyline
90
2
70
0
43
0.000039
39
0.000039
10
5695.790984
20
1282.040984
10
5495.792992
20
1482.582008
0
LWPOLYLINE
5
C7
100
AcDbEntity
8
BOARD_OUTLINE
62
2
100
AcDbPolyline
90
2
70
0
43
0.000039
39
0.000039
10
5495.792992
20
1482.582008
10
5766.332992
20
1564.667992
0
LWPOLYLINE
5
C8
100
AcDbEntity
8
BOARD_OUTLINE
62
2
100
AcDbPolyline
90
2
70
0
43
0.000039
39
0.000039
10
5766.332992
20
1564.667992
10
5680.625984
20
1650.624016
0
LWPOLYLINE
5
C9
100
AcDbEntity
8
BOARD_OUTLINE
62
2
100
AcDbPolyline
90
2
70
0
43
0.000039
39
0.000039
10
5680.625984
20
1650.624016
10
5480.874016
20
1850.124016
0
LWPOLYLINE
5
CA
100
AcDbEntity
8
BOARD_OUTLINE
62
2
100
AcDbPolyline
90
2
70
0
43
0.000039
39
0.000039
10
5480.874016
20
1850.124016
10
5204.957992
20
1772.667008
0
LWPOLYLINE
5
CB
100
AcDbEntity
8
BOARD_OUTLINE
62
2
100
AcDbPolyline
90
2
70
0
43
0.000039
39
0.000039
10
5204.957992
20
1772.667008
10
5034.042008
20
1943.540984
0
LWPOLYLINE
5
CC
100
AcDbEntity
8
BOARD_OUTLINE
62
2
100
AcDbPolyline
90
2
70
0
43
0.000039
39
0.000039
10
5034.042008
20
1943.540984
10
5525.667008
20
2077.125000
0
LWPOLYLINE
5
CD
100
AcDbEntity
8
BOARD_OUTLINE
62
2
100
AcDbPolyline
90
2
70
0
43
0.000039
39
0.000039
10
5525.667008
20
2077.125000
10
5240.709016
20
2361.792008
0
LWPOLYLINE
5
CE
100
AcDbEntity
8
BOARD_OUTLINE
62
2
100
AcDbPolyline
90
2
70
0
43
0.000039
39
0.000039
10
5240.709016
20
2361.792008
10
4832.250000
20
2258.334016
0
LWPOLYLINE
5
CF
100
AcDbEntity
8
BOARD_OUTLINE
62
2
100
AcDbPolyline
90
2
70
0
43
0.000039
39
0.000039
10
4832.250000
20
2258.334016
10
4742.667008
20
2235.167992
0
LWPOLYLINE
5
D0
100
AcDbEntity
8
BOARD_OUTLINE
62
2
100
AcDbPolyline
90
2
70
0
43
0.000039
39
0.000039
10
4742.667008
20
2235.167992
10
4520.042992
20
2457.834016
0
LWPOLYLINE
5
D1
100
AcDbEntity
8
BOARD_OUTLINE
62
2
100
AcDbPolyline
90
2
70
0
43
0.000039
39
0.000039
10
4520.042992
20
2457.834016
10
5072.124016
20
2594.000984
0
LWPOLYLINE
5
D2
100
AcDbEntity
8
BOARD_OUTLINE
62
2
100
AcDbPolyline
90
2
70
0
43
0.000039
39
0.000039
10
5072.124016
20
2594.000984
10
5066.457008
20
2604.542992
0
LWPOLYLINE
5
D3
100
AcDbEntity
8
BOARD_OUTLINE
62
2
100
AcDbPolyline
90
2
70
0
43
0.000039
39
0.000039
10
5066.457008
20
2604.542992
10
5099.165984
20
2613.290984
0
LWPOLYLINE
5
D4
100
AcDbEntity
8
BOARD_OUTLINE
62
2
100
AcDbPolyline
90
2
70
0
43
0.000039
39
0.000039
10
5099.165984
20
2613.290984
10
4792.082992
20
3112.374016
0
LWPOLYLINE
5
D5
100
AcDbEntity
8
BOARD_OUTLINE
62
2
100
AcDbPolyline
90
2
70
0
43
0.000039
39
0.000039
10
4792.082992
20
3112.374016
10
5106.125984
20
3112.374016
0
LWPOLYLINE
5
D6
100
AcDbEntity
8
BOARD_OUTLINE
62
2
100
AcDbPolyline
90
2
70
0
43
0.000039
39
0.000039
10
5106.125984
20
3112.374016
10
5334.917992
20
2727.290984
0
LWPOLYLINE
5
D7
100
AcDbEntity
8
BOARD_OUTLINE
62
2
100
AcDbPolyline
90
2
70
0
43
0.000039
39
0.000039
10
5334.917992
20
2727.290984
10
5368.374016
20
2670.665984
0
LWPOLYLINE
5
D8
100
AcDbEntity
8
BOARD_OUTLINE
62
2
100
AcDbPolyline
90
2
70
0
43
0.000039
39
0.000039
10
5368.374016
20
2670.665984
10
5771.709016
20
2670.665984
0
LWPOLYLINE
5
D9
100
AcDbEntity
8
BOARD_OUTLINE
62
2
100
AcDbPolyline
90
2
70
0
43
0.000039
39
0.000039
10
5771.709016
20
2670.665984
10
5572.500000
20
3017.915984
0
LWPOLYLINE
5
DA
100
AcDbEntity
8
BOARD_OUTLINE
62
2
100
AcDbPolyline
90
2
70
0
43
0.000039
39
0.000039
10
5572.500000
20
3017.915984
10
5517.917992
20
3112.374016
0
LWPOLYLINE
5
DB
100
AcDbEntity
8
BOARD_OUTLINE
62
2
100
AcDbPolyline
90
2
70
0
43
0.000039
39
0.000039
10
5517.917992
20
3112.374016
10
5760.125984
20
3112.374016
0
LWPOLYLINE
5
DC
100
AcDbEntity
8
BOARD_OUTLINE
62
2
100
AcDbPolyline
90
2
70
0
43
0.000039
39
0.000039
10
5760.125984
20
3112.374016
10
5899.917008
20
2863.457992
0
LWPOLYLINE
5
DD
100
AcDbEntity
8
BOARD_OUTLINE
62
2
100
AcDbPolyline
90
2
70
0
43
0.000039
39
0.000039
10
5899.917008
20
2863.457992
10
6101.457008
20
2863.457992
0
LWPOLYLINE
5
DE
100
AcDbEntity
8
BOARD_OUTLINE
62
2
100
AcDbPolyline
90
2
70
0
43
0.000039
39
0.000039
10
6101.457008
20
2863.457992
10
6303.750000
20
2863.457992
0
LWPOLYLINE
5
DF
100
AcDbEntity
8
BOARD_OUTLINE
62
2
100
AcDbPolyline
90
2
70
0
43
0.000039
39
0.000039
10
6303.750000
20
2863.457992
10
6210.042008
20
3039.000000
0
LWPOLYLINE
5
E0
100
AcDbEntity
8
BOARD_OUTLINE
62
2
100
AcDbPolyline
90
2
70
0
43
0.000039
39
0.000039
10
6210.042008
20
3039.000000
10
6170.915984
20
3112.374016
0
LWPOLYLINE
5
E1
100
AcDbEntity
8
BOARD_OUTLINE
62
2
100
AcDbPolyline
90
2
70
0
43
0.000039
39
0.000039
10
6170.915984
20
3112.374016
10
6454.332008
20
3112.374016
0
LWPOLYLINE
5
E2
100
AcDbEntity
8
BOARD_OUTLINE
62
2
100
AcDbPolyline
90
2
70
0
43
0.000039
39
0.000039
10
6454.332008
20
3112.374016
10
6666.417008
20
3332.165984
0
LWPOLYLINE
5
E3
100
AcDbEntity
8
BOARD_OUTLINE
62
2
100
AcDbPolyline
90
2
70
0
43
0.000039
39
0.000039
10
4227.917992
20
2749.457992
10
3985.707008
20
2991.917992
0
LWPOLYLINE
5
E4
100
AcDbEntity
8
BOARD_OUTLINE
62
2
100
AcDbPolyline
90
2
70
0
43
0.000039
39
0.000039
10
4486.832992
20
2943.249016
10
4560.459016
20
2826.665984
0
LWPOLYLINE
5
E5
100
AcDbEntity
8
BOARD_OUTLINE
62
2
100
AcDbPolyline
90
2
70
0
43
0.000039
39
0.000039
10
4560.459016
20
2826.665984
10
4227.917992
20
2749.457992
0
LWPOLYLINE
5
E6
100
AcDbEntity
8
BOARD_OUTLINE
62
2
100
AcDbPolyline
90
2
70
0
43
0.000039
39
0.000039
10
3839.000984
20
4561.209016
10
3916.209016
20
4228.917008
0
LWPOLYLINE
5
E7
100
AcDbEntity
8
BOARD_OUTLINE
62
2
100
AcDbPolyline
90
2
70
0
43
0.000039
39
0.000039
10
4228.415984
20
3917.750984
10
4524.167992
20
3851.082008
0
LWPOLYLINE
5
E8
100
AcDbEntity
8
BOARD_OUTLINE
62
2
100
AcDbPolyline
90
2
70
0
43
0.000039
39
0.000039
10
4524.167992
20
3851.082008
10
4558.917008
20
3843.332992
0
LWPOLYLINE
5
E9
100
AcDbEntity
8
BOARD_OUTLINE
62
2
100
AcDbPolyline
90
2
70
0
43
0.000039
39
0.000039
10
3917.207992
20
2436.957008
10
3842.334016
20
2106.750000
0
LWPOLYLINE
5
EA
100
AcDbEntity
8
BOARD_OUTLINE
62
2
100
AcDbPolyline
90
2
70
0
43
0.000039
39
0.000039
10
2747.375984
20
4229.709016
10
2822.292008
20
4559.667008
0
LWPOLYLINE
5
EB
100
AcDbEntity
8
BOARD_OUTLINE
62
2
100
AcDbPolyline
90
2
70
0
43
0.000039
39
0.000039
10
2435.709016
20
2748.665984
10
2105.957992
20
2823.834016
0
LWPOLYLINE
5
EC
100
AcDbEntity
8
BOARD_OUTLINE
62
2
100
AcDbPolyline
90
2
70
0
43
0.000039
39
0.000039
10
2104.415984
20
3840.000000
10
2436.459016
20
3916.959016
0
LWPOLYLINE
5
ED
100
AcDbEntity
8
BOARD_OUTLINE
62
2
100
AcDbPolyline
90
2
70
0
43
0.000039
39
0.000039
10
2116.250984
20
3821.207992
10
2104.415984
20
3840.000000
0
LWPOLYLINE
5
EE
100
AcDbEntity
8
BOARD_OUTLINE
62
2
100
AcDbPolyline
90
2
70
0
43
0.000039
39
0.000039
10
2825.375984
20
2105.709016
10
2770.040984
20
2343.290984
0
LWPOLYLINE
5
EF
100
AcDbEntity
8
BOARD_OUTLINE
62
2
100
AcDbPolyline
90
2
70
0
43
0.000039
39
0.000039
10
2770.040984
20
2343.290984
10
2748.167992
20
2438.000984
0
LWPOLYLINE
5
F0
100
AcDbEntity
8
BOARD_OUTLINE
62
2
100
AcDbPolyline
90
2
70
0
43
0.000039
39
0.000039
10
3592.000039
20
2801.999961
10
3917.207992
20
2436.957008
0
LWPOLYLINE
5
F1
100
AcDbEntity
8
BOARD_OUTLINE
62
2
100
AcDbPolyline
90
2
70
0
43
0.000039
39
0.000039
10
3592.000039
20
2286.000039
10
3592.000039
20
2801.999961
0
LWPOLYLINE
5
F2
100
AcDbEntity
8
BOARD_OUTLINE
62
2
100
AcDbPolyline
90
2
70
0
43
0.000039
39
0.000039
10
3072.000039
20
2801.999961
10
3072.000039
20
2286.000000
0
LWPOLYLINE
5
F3
100
AcDbEntity
8
BOARD_OUTLINE
62
2
100
AcDbPolyline
90
2
70
0
43
0.000039
39
0.000039
10
3592.000000
20
3866.000039
10
3592.000000
20
4379.999961
0
LWPOLYLINE
5
F4
100
AcDbEntity
8
BOARD_OUTLINE
62
2
100
AcDbPolyline
90
2
70
0
43
0.000039
39
0.000039
10
3072.000039
20
4379.999961
10
3072.000512
20
3865.497913
0
LWPOLYLINE
5
F5
100
AcDbEntity
8
BOARD_OUTLINE
62
2
100
AcDbPolyline
90
2
70
0
43
0.000039
39
0.000039
10
2748.167992
20
2438.000984
10
3072.000039
20
2801.999961
0
LWPOLYLINE
5
F6
100
AcDbEntity
8
BOARD_OUTLINE
62
2
100
AcDbPolyline
90
2
70
0
43
0.000039
39
0.000039
10
3072.000039
20
2286.000000
10
2825.375984
20
2105.709016
0
LWPOLYLINE
5
F7
100
AcDbEntity
8
BOARD_OUTLINE
62
2
100
AcDbPolyline
90
2
70
0
43
0.000039
39
0.000039
10
3842.334016
20
2106.750000
10
3592.000039
20
2286.000039
0
LWPOLYLINE
5
F8
100
AcDbEntity
8
BOARD_OUTLINE
62
2
100
AcDbPolyline
90
2
70
0
43
0.000039
39
0.000039
10
3592.000000
20
4379.999961
10
3839.000984
20
4561.209016
0
LWPOLYLINE
5
F9
100
AcDbEntity
8
BOARD_OUTLINE
62
2
100
AcDbPolyline
90
2
70
0
43
0.000039
39
0.000039
10
3916.209016
20
4228.917008
10
3592.000000
20
3866.000039
0
LWPOLYLINE
5
FA
100
AcDbEntity
8
BOARD_OUTLINE
62
2
100
AcDbPolyline
90
2
70
0
43
0.000039
39
0.000039
10
3072.000512
20
3865.497913
10
2747.375984
20
4229.709016
0
LWPOLYLINE
5
FB
100
AcDbEntity
8
BOARD_OUTLINE
62
2
100
AcDbPolyline
90
2
70
0
43
0.000039
39
0.000039
10
2822.292008
20
4559.667008
10
3072.000039
20
4379.999961
0
LWPOLYLINE
5
FC
100
AcDbEntity
8
BOARD_OUTLINE
62
2
100
AcDbPolyline
90
2
70
0
43
0.000039
39
0.000039
10
212.082008
20
3554.042992
10
0.000000
20
3333.707992
0
LWPOLYLINE
5
FD
100
AcDbEntity
8
BOARD_OUTLINE
62
2
100
AcDbPolyline
90
2
70
0
43
0.000039
39
0.000039
10
495.500984
20
3554.042992
10
212.082008
20
3554.042992
0
LWPOLYLINE
5
FE
100
AcDbEntity
8
BOARD_OUTLINE
62
2
100
AcDbPolyline
90
2
70
0
43
0.000039
39
0.000039
10
363.459016
20
3803.207992
10
495.500984
20
3554.042992
0
LWPOLYLINE
5
FF
100
AcDbEntity
8
BOARD_OUTLINE
62
2
100
AcDbPolyline
90
2
70
0
43
0.000039
39
0.000039
10
906.542992
20
3554.042992
10
766.500000
20
3803.207992
0
LWPOLYLINE
5
100
100
AcDbEntity
8
BOARD_OUTLINE
62
2
100
AcDbPolyline
90
2
70
0
43
0.000039
39
0.000039
10
1147.959016
20
3554.042992
10
906.542992
20
3554.042992
0
LWPOLYLINE
5
101
100
AcDbEntity
8
BOARD_OUTLINE
62
2
100
AcDbPolyline
90
2
70
0
43
0.000039
39
0.000039
10
965.750984
20
3872.165984
10
1147.959016
20
3554.042992
0
LWPOLYLINE
5
102
100
AcDbEntity
8
BOARD_OUTLINE
62
2
100
AcDbPolyline
90
2
70
0
43
0.000039
39
0.000039
10
1560.290984
20
3553.790984
10
1344.875984
20
3917.207992
0
LWPOLYLINE
5
103
100
AcDbEntity
8
BOARD_OUTLINE
62
2
100
AcDbPolyline
90
2
70
0
43
0.000039
39
0.000039
10
1664.540984
20
3553.790984
10
1560.290984
20
3553.790984
0
LWPOLYLINE
5
104
100
AcDbEntity
8
BOARD_OUTLINE
62
2
100
AcDbPolyline
90
2
70
0
43
0.000039
39
0.000039
10
1873.790984
20
3553.790984
10
1664.540984
20
3553.790984
0
LWPOLYLINE
5
105
100
AcDbEntity
8
BOARD_OUTLINE
62
2
100
AcDbPolyline
90
2
70
0
43
0.000039
39
0.000039
10
1813.584016
20
3652.374016
10
1873.790984
20
3553.790984
0
LWPOLYLINE
5
106
100
AcDbEntity
8
BOARD_OUTLINE
62
2
100
AcDbPolyline
90
2
70
0
43
0.000039
39
0.000039
10
5105.334016
20
3553.790984
10
4790.540984
20
3553.790984
0
LWPOLYLINE
5
107
100
AcDbEntity
8
BOARD_OUTLINE
62
2
100
AcDbPolyline
90
2
70
0
43
0.000039
39
0.000039
10
4790.540984
20
3553.790984
10
5049.999016
20
4003.457992
0
LWPOLYLINE
5
108
100
AcDbEntity
8
BOARD_OUTLINE
62
2
100
AcDbPolyline
90
2
70
0
43
0.000039
39
0.000039
10
5367.875984
20
3995.709016
10
5105.334016
20
3553.790984
0
LWPOLYLINE
5
109
100
AcDbEntity
8
BOARD_OUTLINE
62
2
100
AcDbPolyline
90
2
70
0
43
0.000039
39
0.000039
10
5759.625000
20
3553.790984
10
5517.417008
20
3553.790984
0
LWPOLYLINE
5
10A
100
AcDbEntity
8
BOARD_OUTLINE
62
2
100
AcDbPolyline
90
2
70
0
43
0.000039
39
0.000039
10
5517.417008
20
3553.790984
10
5771.207992
20
3995.709016
0
LWPOLYLINE
5
10B
100
AcDbEntity
8
BOARD_OUTLINE
62
2
100
AcDbPolyline
90
2
70
0
43
0.000039
39
0.000039
10
5899.125000
20
3802.959016
10
5759.625000
20
3553.790984
0
LWPOLYLINE
5
10C
100
AcDbEntity
8
BOARD_OUTLINE
62
2
100
AcDbPolyline
90
2
70
0
43
0.000039
39
0.000039
10
6453.792008
20
3553.790984
10
6170.417992
20
3553.790984
0
LWPOLYLINE
5
10D
100
AcDbEntity
8
BOARD_OUTLINE
62
2
100
AcDbPolyline
90
2
70
0
43
0.000039
39
0.000039
10
6170.417992
20
3553.790984
10
6303.249016
20
3802.959016
0
LWPOLYLINE
5
10E
100
AcDbEntity
8
BOARD_OUTLINE
62
2
100
AcDbPolyline
90
2
70
0
43
0.000039
39
0.000039
10
6665.915984
20
3333.459016
10
6453.792008
20
3553.790984
0
LWPOLYLINE
5
10F
100
AcDbEntity
8
BOARD_OUTLINE
62
2
100
AcDbPolyline
90
2
70
0
43
0.000039
39
0.000039
10
2105.957992
20
2823.834016
10
2260.999961
20
3072.999961
0
LWPOLYLINE
5
110
100
AcDbEntity
8
BOARD_OUTLINE
62
2
100
AcDbPolyline
90
2
70
0
43
0.000039
39
0.000039
10
2759.999961
20
3072.999961
10
2435.709016
20
2748.665984
0
LWPOLYLINE
5
111
100
AcDbEntity
8
BOARD_OUTLINE
62
2
100
AcDbPolyline
90
2
70
0
43
0.000039
39
0.000039
10
2261.000039
20
3073.001102
10
2759.999961
20
3072.977205
0
LWPOLYLINE
5
112
100
AcDbEntity
8
BOARD_OUTLINE
62
2
100
AcDbPolyline
90
2
70
0
43
0.000039
39
0.000039
10
2260.999961
20
3593.000039
10
2116.250984
20
3821.207992
0
LWPOLYLINE
5
113
100
AcDbEntity
8
BOARD_OUTLINE
62
2
100
AcDbPolyline
90
2
70
0
43
0.000039
39
0.000039
10
2759.999961
20
3593.000591
10
2261.000039
20
3593.000000
0
LWPOLYLINE
5
114
100
AcDbEntity
8
BOARD_OUTLINE
62
2
100
AcDbPolyline
90
2
70
0
43
0.000039
39
0.000039
10
2436.459016
20
3916.959016
10
2759.999961
20
3593.000039
0
LWPOLYLINE
5
115
100
AcDbEntity
8
BOARD_OUTLINE
62
2
100
AcDbPolyline
90
2
70
0
43
0.000039
39
0.000039
10
3904.000039
20
3593.000039
10
4228.415984
20
3917.750984
0
LWPOLYLINE
5
116
100
AcDbEntity
8
BOARD_OUTLINE
62
2
100
AcDbPolyline
90
2
70
0
43
0.000039
39
0.000039
10
4404.999961
20
3593.000039
10
3904.000039
20
3593.000039
0
LWPOLYLINE
5
117
100
AcDbEntity
8
BOARD_OUTLINE
62
2
100
AcDbPolyline
90
2
70
0
43
0.000039
39
0.000039
10
4558.917008
20
3843.332992
10
4405.000039
20
3593.000039
0
LWPOLYLINE
5
118
100
AcDbEntity
8
BOARD_OUTLINE
62
2
100
AcDbPolyline
90
2
70
0
43
0.000039
39
0.000039
10
4405.000039
20
3072.999961
10
4486.832992
20
2943.249016
0
LWPOLYLINE
5
119
100
AcDbEntity
8
BOARD_OUTLINE
62
2
100
AcDbPolyline
90
2
70
0
43
0.000039
39
0.000039
10
3904.000039
20
3073.000945
10
4404.999961
20
3073.000000
0
LWPOLYLINE
5
11A
100
AcDbEntity
8
BOARD_OUTLINE
62
2
100
AcDbPolyline
90
2
70
0
43
0.000039
39
0.000039
10
3985.707008
20
2991.917992
10
3904.000039
20
3072.999961
0
HATCH
5
11B
100
AcDbEntity
8
BOARD_OUTLINE
62
255
100
AcDbHatch
10
0.0
20
0.0
30
0.0
210
0.0
220
0.0
230
1.0
2
SOLID
70
1
71
0
91
1
92
1
93
1
72
2
10
1219.000000
20
5446.000000
40
62.000000
50
0.000000
51
360.000000
73
1
97
0
75
0
76
0
98
1
10
0.0
20
0.0
0
CIRCLE
5
11C
100
AcDbEntity
8
BOARD_OUTLINE
62
255
100
AcDbCircle
39
0.000039
10
1219.000000
20
5446.000000
30
0
40
62.000000
0
HATCH
5
11D
100
AcDbEntity
8
BOARD_OUTLINE
62
255
100
AcDbHatch
10
0.0
20
0.0
30
0.0
210
0.0
220
0.0
230
1.0
2
SOLID
70
1
71
0
91
1
92
1
93
1
72
2
10
3333.000000
20
6313.000000
40
62.000000
50
0.000000
51
360.000000
73
1
97
0
75
0
76
0
98
1
10
0.0
20
0.0
0
CIRCLE
5
11E
100
AcDbEntity
8
BOARD_OUTLINE
62
255
100
AcDbCircle
39
0.000039
10
3333.000000
20
6313.000000
30
0
40
62.000000
0
HATCH
5
11F
100
AcDbEntity
8
BOARD_OUTLINE
62
255
100
AcDbHatch
10
0.0
20
0.0
30
0.0
210
0.0
220
0.0
230
1.0
2
SOLID
70
1
71
0
91
1
92
1
93
1
72
2
10
5446.000000
20
5446.000000
40
62.000000
50
0.000000
51
360.000000
73
1
97
0
75
0
76
0
98
1
10
0.0
20
0.0
0
CIRCLE
5
120
100
AcDbEntity
8
BOARD_OUTLINE
62
255
100
AcDbCircle
39
0.000039
10
5446.000000
20
5446.000000
30
0
40
62.000000
0
ENDSEC
0
SECTION
2
OBJECTS
0
DICTIONARY
5
121
100
AcDbDictionary
3
ACAD_GROUP
350
122
3
ACAD_LAYOUT
350
123
3
ACAD_MLINESTYLE
350
124
0
DICTIONARY
5
122
100
AcDbDictionary
0
DICTIONARY
5
123
100
AcDbDictionary
0
DICTIONARY
5
124
100
AcDbDictionary
3
STANDARD
350
125
0
MLINESTYLE
5
125
100
AcDbMlineStyle
2
Standard
70
0
3

62
256
51
90.0
52
90.0
71
2
49
0.5
62
256
6
BYLAYER
49
-0.5
62
256
6
BYLAYER
0
ENDSEC
0
EOF
