G04 Generated by Ultiboard 14.1 *
%FSLAX24Y24*%
%MOIN*%

%ADD10C,0.0001*%
%ADD11C,0.0001*%
%ADD12C,0.0050*%


G04 ColorRGB 00FFFF for the following layer *
%LNBoard Outline*%
%LPD*%
G54D10*
G54D11*
X66664Y33322D02*
X66659Y33335D01*
X63032Y38030D02*
X58991Y38030D01*
X57712Y39957D02*
X53679Y39957D01*
X50500Y40035D02*
X50902Y40730D01*
X45203Y42094D01*
X47051Y43944D01*
X47422Y44315D01*
X52402Y43046D01*
X55251Y45895D01*
X50335Y47234D01*
X52044Y48940D01*
X54804Y48165D01*
X57658Y51017D01*
X54953Y51841D01*
X56953Y53843D01*
X56899Y56906D01*
X53836Y56960D01*
X51833Y54955D01*
X51007Y57658D01*
X48152Y54806D01*
X48930Y52052D01*
X47218Y50340D01*
X45885Y55262D01*
X43036Y52412D01*
X44307Y47432D01*
X42081Y45203D01*
X40531Y50992D01*
X36563Y48559D01*
X35530Y47929D01*
X35530Y51066D01*
X39955Y53692D01*
X39955Y57722D01*
X35530Y55187D01*
X35530Y57607D01*
X38027Y59004D01*
X38027Y63038D01*
X35530Y61712D01*
X35530Y64546D01*
X33330Y66667D01*
X31129Y64546D01*
X31129Y61712D01*
X28630Y63038D01*
X28630Y61884D01*
X28630Y59004D01*
X31129Y57607D01*
X31129Y55187D01*
X26707Y57722D01*
X26707Y53692D01*
X29816Y51846D01*
X31131Y51066D01*
X31131Y47916D01*
X26264Y50860D01*
X26231Y50739D01*
X25940Y50912D01*
X24576Y45213D01*
X24576Y45210D01*
X22352Y47435D01*
X23623Y52415D01*
X20771Y55264D01*
X19441Y50343D01*
X17729Y52055D01*
X18501Y54809D01*
X17552Y55761D01*
X15652Y57660D01*
X15258Y56381D01*
X14826Y54955D01*
X12815Y56960D01*
X9730Y56901D01*
X9717Y54585D01*
X9704Y53841D01*
X11706Y51838D01*
X9004Y51015D01*
X11855Y48163D01*
X14610Y48938D01*
X16321Y47231D01*
X11402Y45893D01*
X12113Y45182D01*
X14254Y43041D01*
X19238Y44310D01*
X21018Y42534D01*
X21461Y42086D01*
X15670Y40531D01*
X18136Y36524D01*
X13449Y39172D02*
X12980Y39960D01*
X8947Y39960D01*
X9658Y38722D01*
X7665Y38032D02*
X3635Y38032D01*
X0Y33337D02*
X2121Y31129D01*
X4955Y31129D01*
X3635Y28640D01*
X4208Y28640D01*
X7665Y28640D01*
X9065Y31129D01*
X11480Y31129D01*
X8947Y26712D01*
X12980Y26712D01*
X15603Y31129D01*
X18751Y31129D01*
X15804Y26274D01*
X15925Y26230D01*
X15758Y25943D01*
X21453Y24576D01*
X19238Y22354D01*
X14254Y23623D01*
X11405Y20777D01*
X16324Y19441D01*
X14612Y17732D01*
X11858Y18506D01*
X9006Y15652D01*
X11709Y14831D01*
X9706Y12826D01*
X9760Y9763D01*
X12810Y9706D01*
X12818Y9706D01*
X14828Y11711D01*
X15655Y9009D01*
X17078Y10437D01*
X18504Y11863D01*
X17732Y14617D01*
X19443Y16326D01*
X20512Y12375D01*
X20774Y11405D01*
X23626Y14267D01*
X22355Y19243D01*
X24581Y21472D01*
X25940Y15948D01*
X26043Y16007D01*
X26135Y15683D01*
X31129Y18740D01*
X31134Y18746D01*
X31134Y15605D01*
X26712Y12977D01*
X26712Y8947D01*
X31134Y11485D01*
X31134Y9062D01*
X28635Y7665D01*
X28635Y3629D01*
X31134Y4955D01*
X31134Y2123D01*
X33335Y0D01*
X35535Y2123D01*
X35535Y4955D01*
X38032Y3629D01*
X38032Y7665D01*
X35535Y9062D01*
X35535Y9868D01*
X35535Y11485D01*
X39805Y9037D01*
X39960Y8944D01*
X39960Y12975D01*
X35535Y15603D01*
X35535Y16300D01*
X35535Y18748D01*
X39121Y16681D01*
X40730Y15752D01*
X41818Y20305D01*
X42094Y21453D01*
X44312Y19235D01*
X43041Y14260D01*
X45890Y11397D01*
X47223Y16321D01*
X48366Y15181D01*
X48935Y14612D01*
X48158Y11858D01*
X49584Y10432D01*
X51012Y9003D01*
X51838Y11706D01*
X53841Y9701D01*
X56904Y9760D01*
X56958Y12820D01*
X54958Y14826D01*
X57663Y15647D01*
X56806Y16506D01*
X54809Y18501D01*
X52050Y17727D01*
X50340Y19435D01*
X55257Y20771D01*
X52407Y23618D01*
X48323Y22583D01*
X47427Y22352D01*
X45200Y24578D01*
X50721Y25940D01*
X50665Y26045D01*
X50992Y26133D01*
X47921Y31124D01*
X51061Y31124D01*
X53349Y27273D01*
X53684Y26707D01*
X57717Y26707D01*
X55725Y30179D01*
X55179Y31124D01*
X57601Y31124D01*
X58999Y28635D01*
X61015Y28635D01*
X63038Y28635D01*
X62100Y30390D01*
X61709Y31124D01*
X64543Y31124D01*
X66664Y33322D01*
X42279Y27495D02*
X39857Y29919D01*
X44868Y29432D02*
X45605Y28267D01*
X42279Y27495D01*
X38390Y45612D02*
X39162Y42289D01*
X42284Y39178D02*
X45242Y38511D01*
X45589Y38433D01*
X39172Y24370D02*
X38423Y21068D01*
X27474Y42297D02*
X28223Y45597D01*
X24357Y27487D02*
X21060Y28238D01*
X21044Y38400D02*
X24365Y39170D01*
X21163Y38212D02*
X21044Y38400D01*
X28254Y21057D02*
X27700Y23433D01*
X27482Y24380D01*
X35920Y28020D02*
X39172Y24370D01*
X35920Y22860D02*
X35920Y28020D01*
X30720Y28020D02*
X30720Y22860D01*
X35920Y38660D02*
X35920Y43800D01*
X30720Y43800D02*
X30720Y38655D01*
X27482Y24380D02*
X30720Y28020D01*
X30720Y22860D02*
X28254Y21057D01*
X38423Y21068D02*
X35920Y22860D01*
X35920Y43800D02*
X38390Y45612D01*
X39162Y42289D02*
X35920Y38660D01*
X30720Y38655D02*
X27474Y42297D01*
X28223Y45597D02*
X30720Y43800D01*
X2121Y35540D02*
X0Y33337D01*
X4955Y35540D02*
X2121Y35540D01*
X3635Y38032D02*
X4955Y35540D01*
X9065Y35540D02*
X7665Y38032D01*
X11480Y35540D02*
X9065Y35540D01*
X9658Y38722D02*
X11480Y35540D01*
X15603Y35538D02*
X13449Y39172D01*
X16645Y35538D02*
X15603Y35538D01*
X18738Y35538D02*
X16645Y35538D01*
X18136Y36524D02*
X18738Y35538D01*
X51053Y35538D02*
X47905Y35538D01*
X50500Y40035D01*
X53679Y39957D02*
X51053Y35538D01*
X57596Y35538D02*
X55174Y35538D01*
X57712Y39957D01*
X58991Y38030D02*
X57596Y35538D01*
X64538Y35538D02*
X61704Y35538D01*
X63032Y38030D01*
X66659Y33335D02*
X64538Y35538D01*
X21060Y28238D02*
X22610Y30730D01*
X27600Y30730D02*
X24357Y27487D01*
X22610Y30730D02*
X27600Y30730D01*
X22610Y35930D02*
X21163Y38212D01*
X27600Y35930D02*
X22610Y35930D01*
X24365Y39170D02*
X27600Y35930D01*
X39040Y35930D02*
X42284Y39178D01*
X44050Y35930D02*
X39040Y35930D01*
X45589Y38433D02*
X44050Y35930D01*
X44050Y30730D02*
X44868Y29432D01*
X39040Y30730D02*
X44050Y30730D01*
X39857Y29919D02*
X39040Y30730D01*
G54D12*
X-100Y-100D02*
X-100Y6587D01*
X-100Y-100D02*
X6586Y-100D01*
X66764Y-100D02*
X60078Y-100D01*
X66764Y-100D02*
X66764Y6587D01*
X66764Y66767D02*
X66764Y60080D01*
X66764Y66767D02*
X60078Y66767D01*
X-100Y66767D02*
X6586Y66767D01*
X-100Y66767D02*
X-100Y60080D01*
X-2069Y-100D02*
X-6006Y-100D01*
X-4037Y-2069D02*
X-4037Y1869D01*
X-5513Y-100D02*
G75*
D01*
G02X-5513Y-100I1476J0*
G01*
X68733Y-100D02*
X72670Y-100D01*
X70701Y-2069D02*
X70701Y1869D01*
X69225Y-100D02*
G75*
D01*
G02X69225Y-100I1476J0*
G01*
X70209Y-100D02*
G75*
D01*
G02X70209Y-100I492J0*
G01*
X-2069Y66767D02*
X-6006Y66767D01*
X-4037Y64798D02*
X-4037Y68735D01*
X-5513Y66767D02*
G75*
D01*
G02X-5513Y66767I1476J0*
G01*
X-5021Y66767D02*
G75*
D01*
G02X-5021Y66767I984J0*
G01*
X-4529Y66767D02*
G75*
D01*
G02X-4529Y66767I492J0*
G01*

M02*
