G04 Generated by Ultiboard 14.1 *
%FSLAX24Y24*%
%MOIN*%

%ADD10C,0.0001*%
%ADD11C,0.0067*%
%ADD12C,0.0150*%
%ADD13C,0.0100*%
%ADD14C,0.0080*%
%ADD15C,0.0001*%
%ADD16C,0.0200*%
%ADD17C,0.0061*%
%ADD18C,0.0098*%
%ADD19C,0.0050*%


G04 ColorRGB FFFFFF for the following layer *
%LNSilkscreen Top*%
%LPD*%
G54D10*
G54D11*
X32341Y41214D02*
X32341Y40871D01*
X32427Y40785D01*
X32512Y40785D01*
X32597Y40871D01*
X32597Y41214D01*
X32853Y40785D02*
X32853Y41000D01*
X32981Y41128D01*
X32981Y41214D01*
X32725Y41214D01*
X32725Y41128D01*
X32149Y47734D02*
X32149Y47391D01*
X32235Y47305D01*
X32320Y47305D01*
X32405Y47391D01*
X32405Y47734D01*
X32576Y47648D02*
X32661Y47734D01*
X32661Y47305D01*
X32533Y47305D02*
X32789Y47305D01*
X33045Y47305D02*
X33045Y47520D01*
X33173Y47648D01*
X33173Y47734D01*
X32917Y47734D01*
X32917Y47648D01*
X32149Y55004D02*
X32149Y54661D01*
X32235Y54575D01*
X32320Y54575D01*
X32405Y54661D01*
X32405Y55004D01*
X32576Y54961D02*
X32619Y55004D01*
X32704Y55004D01*
X32789Y54918D01*
X32789Y54832D01*
X32747Y54790D01*
X32789Y54747D01*
X32789Y54661D01*
X32704Y54575D01*
X32619Y54575D01*
X32576Y54618D01*
X32619Y54790D02*
X32747Y54790D01*
X32960Y54918D02*
X33045Y55004D01*
X33045Y54575D01*
X32917Y54575D02*
X33173Y54575D01*
X32149Y61514D02*
X32149Y61171D01*
X32235Y61085D01*
X32320Y61085D01*
X32405Y61171D01*
X32405Y61514D01*
X32576Y61471D02*
X32619Y61514D01*
X32704Y61514D01*
X32789Y61428D01*
X32789Y61342D01*
X32747Y61300D01*
X32789Y61257D01*
X32789Y61171D01*
X32704Y61085D01*
X32619Y61085D01*
X32576Y61128D01*
X32619Y61300D02*
X32747Y61300D01*
X32917Y61171D02*
X33003Y61085D01*
X33088Y61085D01*
X33173Y61171D01*
X33173Y61342D01*
X33173Y61428D01*
X33088Y61514D01*
X33003Y61514D01*
X32917Y61428D01*
X32917Y61342D01*
X33003Y61257D01*
X33088Y61257D01*
X33173Y61342D01*
X28717Y27058D02*
X28960Y27300D01*
X28960Y27421D01*
X28900Y27481D01*
X28779Y27481D01*
X28536Y27239D01*
X28476Y27420D02*
X28355Y27420D01*
X28658Y27723D01*
X28749Y27632D02*
X28568Y27813D01*
X28235Y27661D02*
X28114Y27661D01*
X28054Y27721D01*
X28054Y27842D01*
X28084Y27873D01*
X28477Y27904D01*
X28296Y28085D01*
X28266Y28054D01*
X39592Y28727D02*
X39350Y28970D01*
X39229Y28970D01*
X39169Y28910D01*
X39169Y28789D01*
X39411Y28546D01*
X39230Y28486D02*
X39230Y28365D01*
X38927Y28668D01*
X39018Y28759D02*
X38837Y28578D01*
X38989Y28245D02*
X38989Y28124D01*
X38929Y28064D01*
X38808Y28064D01*
X38626Y28246D01*
X38626Y28367D01*
X38686Y28427D01*
X38807Y28427D01*
X38989Y28245D01*
X38808Y28064D02*
X38807Y28427D01*
X27183Y38079D02*
X27426Y37836D01*
X27547Y37836D01*
X27607Y37896D01*
X27607Y38017D01*
X27364Y38260D01*
X27606Y38501D02*
X27515Y38410D01*
X27515Y38289D01*
X27637Y38168D01*
X27697Y38108D01*
X27818Y38107D01*
X27879Y38168D01*
X27878Y38289D01*
X27818Y38349D01*
X27697Y38349D01*
X27636Y38289D01*
X27637Y38168D01*
X38059Y39477D02*
X37816Y39234D01*
X37816Y39113D01*
X37876Y39053D01*
X37997Y39053D01*
X38240Y39296D01*
X38148Y38781D02*
X38087Y38842D01*
X38088Y38963D01*
X38148Y39023D01*
X38209Y39023D01*
X38209Y39084D01*
X38269Y39145D01*
X38390Y39145D01*
X38451Y39084D01*
X38450Y38964D01*
X38390Y38903D01*
X38329Y38903D01*
X38329Y38842D01*
X38269Y38782D01*
X38148Y38781D01*
X38209Y39023D02*
X38329Y38903D01*
X41819Y34329D02*
X41476Y34329D01*
X41390Y34243D01*
X41390Y34158D01*
X41476Y34073D01*
X41819Y34073D01*
X41476Y33945D02*
X41390Y33859D01*
X41390Y33774D01*
X41476Y33689D01*
X41647Y33689D01*
X41733Y33689D01*
X41819Y33774D01*
X41819Y33859D01*
X41733Y33945D01*
X41647Y33945D01*
X41562Y33859D01*
X41562Y33774D01*
X41647Y33689D01*
X47714Y34521D02*
X47371Y34521D01*
X47285Y34435D01*
X47285Y34350D01*
X47371Y34265D01*
X47714Y34265D01*
X47628Y34137D02*
X47714Y34051D01*
X47714Y33966D01*
X47628Y33881D01*
X47585Y33881D01*
X47285Y34137D01*
X47285Y33881D01*
X47328Y33881D01*
X47628Y33710D02*
X47714Y33625D01*
X47285Y33625D01*
X47285Y33753D02*
X47285Y33497D01*
X34511Y5146D02*
X34511Y5489D01*
X34425Y5575D01*
X34340Y5575D01*
X34255Y5489D01*
X34255Y5146D01*
X33871Y5403D02*
X34127Y5403D01*
X33913Y5146D01*
X33913Y5575D01*
X33956Y5575D02*
X33871Y5575D01*
X33700Y5189D02*
X33657Y5146D01*
X33572Y5146D01*
X33487Y5232D01*
X33487Y5318D01*
X33529Y5360D01*
X33487Y5403D01*
X33487Y5489D01*
X33572Y5575D01*
X33657Y5575D01*
X33700Y5532D01*
X33657Y5360D02*
X33529Y5360D01*
X34511Y11666D02*
X34511Y12009D01*
X34425Y12095D01*
X34340Y12095D01*
X34255Y12009D01*
X34255Y11666D01*
X34084Y11709D02*
X34041Y11666D01*
X33956Y11666D01*
X33871Y11752D01*
X33871Y11838D01*
X33913Y11880D01*
X33871Y11923D01*
X33871Y12009D01*
X33956Y12095D01*
X34041Y12095D01*
X34084Y12052D01*
X34041Y11880D02*
X33913Y11880D01*
X33487Y11666D02*
X33743Y11666D01*
X33743Y11838D01*
X33572Y11838D01*
X33487Y11923D01*
X33487Y12009D01*
X33572Y12095D01*
X33743Y12095D01*
X14527Y12858D02*
X14770Y13100D01*
X14770Y13221D01*
X14710Y13281D01*
X14589Y13281D01*
X14346Y13039D01*
X14257Y13492D02*
X14438Y13311D01*
X14105Y13280D01*
X14408Y13583D01*
X14438Y13553D02*
X14378Y13613D01*
X13985Y13763D02*
X14166Y13582D01*
X13833Y13551D01*
X14136Y13854D01*
X14167Y13824D02*
X14106Y13885D01*
X53812Y14527D02*
X53570Y14770D01*
X53449Y14770D01*
X53389Y14710D01*
X53389Y14589D01*
X53631Y14346D01*
X53178Y14257D02*
X53359Y14438D01*
X53390Y14105D01*
X53087Y14408D01*
X53117Y14438D02*
X53057Y14378D01*
X53209Y14045D02*
X53209Y13924D01*
X53149Y13864D01*
X53028Y13864D01*
X52997Y13894D01*
X52966Y14287D01*
X52785Y14106D01*
X52816Y14076D01*
X19137Y17468D02*
X19380Y17710D01*
X19380Y17831D01*
X19320Y17891D01*
X19199Y17891D01*
X18956Y17649D01*
X18866Y17800D02*
X18805Y17799D01*
X18745Y17860D01*
X18745Y17981D01*
X18806Y18041D01*
X18866Y18041D01*
X18867Y18102D01*
X18927Y18163D01*
X19048Y18163D01*
X19108Y18102D01*
X19108Y18042D01*
X18957Y17951D02*
X18866Y18041D01*
X18443Y18161D02*
X18534Y18071D01*
X18655Y18071D01*
X18776Y18192D01*
X18837Y18253D01*
X18837Y18374D01*
X18777Y18434D01*
X18656Y18434D01*
X18595Y18373D01*
X18595Y18252D01*
X18655Y18192D01*
X18776Y18192D01*
X26747Y18117D02*
X26747Y17774D01*
X26832Y17689D01*
X26917Y17689D01*
X27003Y17774D01*
X27003Y18117D01*
X27131Y18031D02*
X27216Y18117D01*
X27301Y18117D01*
X27387Y18031D01*
X27387Y17989D01*
X27131Y17689D01*
X27387Y17689D01*
X27387Y17731D01*
X27728Y18117D02*
X27600Y18117D01*
X27515Y18031D01*
X27515Y17860D01*
X27515Y17774D01*
X27600Y17689D01*
X27685Y17689D01*
X27771Y17774D01*
X27771Y17860D01*
X27685Y17946D01*
X27600Y17946D01*
X27515Y17860D01*
X39006Y18017D02*
X39006Y17674D01*
X39091Y17589D01*
X39177Y17589D01*
X39262Y17674D01*
X39262Y18017D01*
X39390Y17931D02*
X39475Y18017D01*
X39561Y18017D01*
X39646Y17931D01*
X39646Y17889D01*
X39390Y17589D01*
X39646Y17589D01*
X39646Y17631D01*
X40030Y17760D02*
X39774Y17760D01*
X39987Y18017D01*
X39987Y17589D01*
X39945Y17589D02*
X40030Y17589D01*
X49192Y19137D02*
X48950Y19380D01*
X48829Y19380D01*
X48769Y19320D01*
X48769Y19199D01*
X49011Y18956D01*
X48860Y18866D02*
X48861Y18805D01*
X48800Y18745D01*
X48679Y18745D01*
X48619Y18806D01*
X48619Y18866D01*
X48558Y18867D01*
X48497Y18927D01*
X48497Y19048D01*
X48558Y19108D01*
X48618Y19108D01*
X48709Y18957D02*
X48619Y18866D01*
X48287Y18595D02*
X48468Y18776D01*
X48499Y18443D01*
X48196Y18746D01*
X48226Y18777D02*
X48165Y18716D01*
X34511Y18936D02*
X34511Y19279D01*
X34425Y19365D01*
X34340Y19365D01*
X34255Y19279D01*
X34255Y18936D01*
X34127Y19022D02*
X34041Y18936D01*
X33956Y18936D01*
X33871Y19022D01*
X33871Y19065D01*
X34127Y19365D01*
X33871Y19365D01*
X33871Y19322D01*
X33487Y18936D02*
X33743Y18936D01*
X33743Y19108D01*
X33572Y19108D01*
X33487Y19193D01*
X33487Y19279D01*
X33572Y19365D01*
X33743Y19365D01*
X24277Y22608D02*
X24520Y22850D01*
X24520Y22971D01*
X24460Y23031D01*
X24339Y23031D01*
X24096Y22789D01*
X24066Y22940D02*
X23945Y22939D01*
X23885Y23000D01*
X23885Y23121D01*
X23916Y23151D01*
X24309Y23182D01*
X24128Y23363D01*
X24097Y23333D01*
X23947Y23544D02*
X23795Y23393D01*
X23614Y23392D01*
X23553Y23332D01*
X23734Y23151D01*
X23795Y23211D01*
X34511Y25456D02*
X34511Y25799D01*
X34425Y25885D01*
X34340Y25885D01*
X34255Y25799D01*
X34255Y25456D01*
X34084Y25542D02*
X33999Y25456D01*
X33999Y25885D01*
X34127Y25885D02*
X33871Y25885D01*
X33700Y25542D02*
X33615Y25456D01*
X33615Y25885D01*
X33743Y25885D02*
X33487Y25885D01*
X44062Y24277D02*
X43820Y24520D01*
X43699Y24520D01*
X43639Y24460D01*
X43639Y24339D01*
X43881Y24096D01*
X43730Y24066D02*
X43731Y23945D01*
X43670Y23885D01*
X43549Y23885D01*
X43519Y23916D01*
X43488Y24309D01*
X43307Y24128D01*
X43337Y24097D01*
X43459Y23734D02*
X43459Y23674D01*
X43399Y23614D01*
X43278Y23614D01*
X43217Y23674D01*
X43217Y23735D01*
X43157Y23735D01*
X43096Y23796D01*
X43096Y23917D01*
X43156Y23977D01*
X43216Y23977D01*
X43308Y23825D02*
X43217Y23735D01*
X16423Y26567D02*
X16423Y26224D01*
X16508Y26139D01*
X16593Y26139D01*
X16679Y26224D01*
X16679Y26567D01*
X16807Y26481D02*
X16892Y26567D01*
X16977Y26567D01*
X17063Y26481D01*
X17063Y26439D01*
X16807Y26139D01*
X17063Y26139D01*
X17063Y26181D01*
X17361Y26139D02*
X17276Y26139D01*
X17191Y26224D01*
X17191Y26310D01*
X17233Y26353D01*
X17191Y26396D01*
X17191Y26481D01*
X17276Y26567D01*
X17361Y26567D01*
X17447Y26481D01*
X17447Y26396D01*
X17404Y26353D01*
X17447Y26310D01*
X17447Y26224D01*
X17361Y26139D01*
X17233Y26353D02*
X17404Y26353D01*
X49093Y26637D02*
X49093Y26294D01*
X49178Y26209D01*
X49263Y26209D01*
X49349Y26294D01*
X49349Y26637D01*
X49477Y26551D02*
X49562Y26637D01*
X49647Y26637D01*
X49733Y26551D01*
X49733Y26509D01*
X49477Y26209D01*
X49733Y26209D01*
X49733Y26251D01*
X49861Y26551D02*
X49946Y26637D01*
X50031Y26637D01*
X50117Y26551D01*
X50117Y26509D01*
X49861Y26209D01*
X50117Y26209D01*
X50117Y26251D01*
X5146Y32159D02*
X5489Y32159D01*
X5575Y32245D01*
X5575Y32330D01*
X5489Y32415D01*
X5146Y32415D01*
X5189Y32586D02*
X5146Y32629D01*
X5146Y32714D01*
X5232Y32799D01*
X5318Y32799D01*
X5360Y32757D01*
X5403Y32799D01*
X5489Y32799D01*
X5575Y32714D01*
X5575Y32629D01*
X5532Y32586D01*
X5360Y32629D02*
X5360Y32757D01*
X5575Y33055D02*
X5360Y33055D01*
X5232Y33183D01*
X5146Y33183D01*
X5146Y32927D01*
X5232Y32927D01*
X11666Y32159D02*
X12009Y32159D01*
X12095Y32245D01*
X12095Y32330D01*
X12009Y32415D01*
X11666Y32415D01*
X11752Y32543D02*
X11666Y32629D01*
X11666Y32714D01*
X11752Y32799D01*
X11795Y32799D01*
X12095Y32543D01*
X12095Y32799D01*
X12052Y32799D01*
X12009Y32927D02*
X12095Y33013D01*
X12095Y33098D01*
X12009Y33183D01*
X11838Y33183D01*
X11752Y33183D01*
X11666Y33098D01*
X11666Y33013D01*
X11752Y32927D01*
X11838Y32927D01*
X11923Y33013D01*
X11923Y33098D01*
X11838Y33183D01*
X18926Y32159D02*
X19269Y32159D01*
X19355Y32245D01*
X19355Y32330D01*
X19269Y32415D01*
X18926Y32415D01*
X19012Y32586D02*
X18926Y32671D01*
X19355Y32671D01*
X19355Y32543D02*
X19355Y32799D01*
X18969Y32970D02*
X18926Y33013D01*
X18926Y33098D01*
X19012Y33183D01*
X19098Y33183D01*
X19140Y33141D01*
X19183Y33183D01*
X19269Y33183D01*
X19355Y33098D01*
X19355Y33013D01*
X19312Y32970D01*
X19140Y33013D02*
X19140Y33141D01*
X24821Y32351D02*
X25164Y32351D01*
X25250Y32437D01*
X25250Y32522D01*
X25164Y32607D01*
X24821Y32607D01*
X24821Y32991D02*
X24821Y32735D01*
X24993Y32735D01*
X24993Y32906D01*
X25078Y32991D01*
X25164Y32991D01*
X25250Y32906D01*
X25250Y32735D01*
X54984Y34521D02*
X54641Y34521D01*
X54555Y34435D01*
X54555Y34350D01*
X54641Y34265D01*
X54984Y34265D01*
X54941Y34094D02*
X54984Y34051D01*
X54984Y33966D01*
X54898Y33881D01*
X54812Y33881D01*
X54770Y33923D01*
X54727Y33881D01*
X54641Y33881D01*
X54555Y33966D01*
X54555Y34051D01*
X54598Y34094D01*
X54770Y34051D02*
X54770Y33923D01*
X54941Y33710D02*
X54984Y33667D01*
X54984Y33582D01*
X54898Y33497D01*
X54812Y33497D01*
X54770Y33539D01*
X54727Y33497D01*
X54641Y33497D01*
X54555Y33582D01*
X54555Y33667D01*
X54598Y33710D01*
X54770Y33667D02*
X54770Y33539D01*
X61514Y34521D02*
X61171Y34521D01*
X61085Y34435D01*
X61085Y34350D01*
X61171Y34265D01*
X61514Y34265D01*
X61257Y33881D02*
X61257Y34137D01*
X61514Y33923D01*
X61085Y33923D01*
X61085Y33966D02*
X61085Y33881D01*
X61428Y33710D02*
X61514Y33625D01*
X61085Y33625D01*
X61085Y33753D02*
X61085Y33497D01*
X16467Y40362D02*
X16467Y40019D01*
X16553Y39933D01*
X16638Y39933D01*
X16723Y40019D01*
X16723Y40362D01*
X16894Y40276D02*
X16979Y40362D01*
X16979Y39933D01*
X16851Y39933D02*
X17107Y39933D01*
X17491Y40105D02*
X17235Y40105D01*
X17449Y40362D01*
X17449Y39933D01*
X17406Y39933D02*
X17491Y39933D01*
X49003Y40597D02*
X49003Y40254D01*
X49088Y40169D01*
X49173Y40169D01*
X49259Y40254D01*
X49259Y40597D01*
X49387Y40511D02*
X49472Y40597D01*
X49557Y40597D01*
X49643Y40511D01*
X49643Y40469D01*
X49387Y40169D01*
X49643Y40169D01*
X49643Y40211D01*
X49771Y40511D02*
X49856Y40597D01*
X49941Y40597D01*
X50027Y40511D01*
X50027Y40254D01*
X49941Y40169D01*
X49856Y40169D01*
X49771Y40254D01*
X49771Y40511D01*
X50027Y40511D02*
X49771Y40254D01*
X22598Y42393D02*
X22840Y42150D01*
X22961Y42150D01*
X23021Y42210D01*
X23021Y42331D01*
X22779Y42574D01*
X22960Y42634D02*
X22960Y42755D01*
X23263Y42452D01*
X23172Y42361D02*
X23353Y42542D01*
X23322Y43117D02*
X23141Y42936D01*
X23262Y42815D01*
X23382Y42935D01*
X23503Y42935D01*
X23564Y42874D01*
X23564Y42753D01*
X23444Y42633D01*
X42383Y44062D02*
X42140Y43820D01*
X42140Y43699D01*
X42200Y43639D01*
X42321Y43639D01*
X42564Y43881D01*
X42624Y43700D02*
X42745Y43700D01*
X42442Y43397D01*
X42351Y43488D02*
X42532Y43307D01*
X42683Y43277D02*
X42683Y43156D01*
X42743Y43096D01*
X42864Y43096D01*
X42986Y43217D01*
X43046Y43278D01*
X43046Y43399D01*
X42986Y43459D01*
X42865Y43459D01*
X42805Y43398D01*
X42804Y43277D01*
X42865Y43217D01*
X42986Y43217D01*
X17468Y47533D02*
X17710Y47290D01*
X17831Y47290D01*
X17891Y47350D01*
X17891Y47471D01*
X17649Y47714D01*
X17800Y47804D02*
X17799Y47865D01*
X17860Y47925D01*
X17981Y47925D01*
X18041Y47864D01*
X18041Y47804D01*
X18102Y47803D01*
X18163Y47743D01*
X18163Y47622D01*
X18102Y47562D01*
X18042Y47562D01*
X17951Y47713D02*
X18041Y47804D01*
X18071Y48015D02*
X18071Y48136D01*
X18131Y48196D01*
X18252Y48196D01*
X18434Y48014D01*
X18434Y47893D01*
X18374Y47833D01*
X18253Y47833D01*
X18071Y48015D01*
X18252Y48196D02*
X18253Y47833D01*
X47523Y49202D02*
X47280Y48960D01*
X47280Y48839D01*
X47340Y48779D01*
X47461Y48779D01*
X47704Y49021D01*
X47794Y48870D02*
X47855Y48871D01*
X47915Y48810D01*
X47915Y48689D01*
X47854Y48629D01*
X47794Y48629D01*
X47793Y48568D01*
X47733Y48507D01*
X47612Y48507D01*
X47552Y48568D01*
X47552Y48628D01*
X47703Y48719D02*
X47794Y48629D01*
X48005Y48599D02*
X48126Y48599D01*
X48186Y48539D01*
X48186Y48418D01*
X48156Y48387D01*
X47763Y48356D01*
X47944Y48175D01*
X47974Y48206D01*
X26353Y48797D02*
X26353Y48454D01*
X26438Y48369D01*
X26523Y48369D01*
X26609Y48454D01*
X26609Y48797D01*
X26779Y48711D02*
X26865Y48797D01*
X26865Y48369D01*
X26737Y48369D02*
X26993Y48369D01*
X27334Y48797D02*
X27206Y48797D01*
X27121Y48711D01*
X27121Y48540D01*
X27121Y48454D01*
X27206Y48369D01*
X27291Y48369D01*
X27377Y48454D01*
X27377Y48540D01*
X27291Y48626D01*
X27206Y48626D01*
X27121Y48540D01*
X38987Y48947D02*
X38987Y48604D01*
X39072Y48519D01*
X39157Y48519D01*
X39243Y48604D01*
X39243Y48947D01*
X39413Y48861D02*
X39499Y48947D01*
X39499Y48519D01*
X39371Y48519D02*
X39627Y48519D01*
X39925Y48519D02*
X39840Y48519D01*
X39755Y48604D01*
X39755Y48690D01*
X39797Y48733D01*
X39755Y48776D01*
X39755Y48861D01*
X39840Y48947D01*
X39925Y48947D01*
X40011Y48861D01*
X40011Y48776D01*
X39968Y48733D01*
X40011Y48690D01*
X40011Y48604D01*
X39925Y48519D01*
X39797Y48733D02*
X39968Y48733D01*
X12858Y52143D02*
X13100Y51900D01*
X13221Y51900D01*
X13281Y51960D01*
X13281Y52081D01*
X13039Y52324D01*
X13190Y52414D02*
X13189Y52475D01*
X13250Y52535D01*
X13371Y52535D01*
X13431Y52474D01*
X13431Y52414D01*
X13492Y52413D01*
X13553Y52353D01*
X13553Y52232D01*
X13492Y52172D01*
X13432Y52172D01*
X13341Y52323D02*
X13431Y52414D01*
X13824Y52503D02*
X13764Y52443D01*
X13643Y52443D01*
X13582Y52504D01*
X13582Y52564D01*
X13522Y52565D01*
X13461Y52625D01*
X13461Y52746D01*
X13521Y52806D01*
X13642Y52806D01*
X13703Y52746D01*
X13703Y52685D01*
X13763Y52685D01*
X13824Y52624D01*
X13824Y52503D01*
X13582Y52564D02*
X13703Y52685D01*
X52133Y53812D02*
X51890Y53570D01*
X51890Y53449D01*
X51950Y53389D01*
X52071Y53389D01*
X52314Y53631D01*
X52403Y53178D02*
X52222Y53359D01*
X52555Y53390D01*
X52252Y53087D01*
X52222Y53117D02*
X52282Y53057D01*
X52615Y53209D02*
X52736Y53209D01*
X52796Y53149D01*
X52796Y53028D01*
X52614Y52846D01*
X52493Y52846D01*
X52433Y52906D01*
X52433Y53027D01*
X52615Y53209D01*
X52796Y53028D02*
X52433Y53027D01*
G54D12*
X32350Y40580D02*
X34310Y40580D01*
X34310Y38620D01*
X32350Y38620D01*
X32350Y40580D01*
X32350Y47100D02*
X34310Y47100D01*
X34310Y45140D01*
X32350Y45140D01*
X32350Y47100D01*
X32350Y54370D02*
X34310Y54370D01*
X34310Y52410D01*
X32350Y52410D01*
X32350Y54370D01*
X32350Y60880D02*
X34310Y60880D01*
X34310Y58920D01*
X32350Y58920D01*
X32350Y60880D01*
X29024Y27648D02*
X30409Y29034D01*
X29024Y30419D01*
X27638Y29034D01*
X29024Y27648D01*
X39002Y29034D02*
X37616Y30419D01*
X36231Y29034D01*
X37616Y27648D01*
X39002Y29034D01*
X27638Y37636D02*
X29024Y36251D01*
X30409Y37636D01*
X29024Y39022D01*
X27638Y37636D01*
X37616Y39022D02*
X36231Y37636D01*
X37616Y36251D01*
X39002Y37636D01*
X37616Y39022D01*
X41185Y34320D02*
X39225Y34320D01*
X39225Y32360D01*
X41185Y32360D01*
X41185Y34320D01*
X47080Y34320D02*
X45120Y34320D01*
X45120Y32360D01*
X47080Y32360D01*
X47080Y34320D01*
X34310Y5780D02*
X32350Y5780D01*
X32350Y7740D01*
X34310Y7740D01*
X34310Y5780D01*
X34310Y12300D02*
X32350Y12300D01*
X32350Y14260D01*
X34310Y14260D01*
X34310Y12300D01*
X14834Y13448D02*
X16219Y14834D01*
X14834Y16219D01*
X13448Y14834D01*
X14834Y13448D01*
X53222Y14834D02*
X51836Y16219D01*
X50451Y14834D01*
X51836Y13448D01*
X53222Y14834D01*
X19444Y18058D02*
X20829Y19444D01*
X19444Y20829D01*
X18058Y19444D01*
X19444Y18058D01*
X28306Y18238D02*
X28713Y20155D01*
X26796Y20562D01*
X26389Y18645D01*
X28306Y18238D01*
X40191Y18535D02*
X39784Y20452D01*
X37867Y20045D01*
X38274Y18128D01*
X40191Y18535D01*
X48602Y19444D02*
X47216Y20829D01*
X45831Y19444D01*
X47216Y18058D01*
X48602Y19444D01*
X34310Y19570D02*
X32350Y19570D01*
X32350Y21530D01*
X34310Y21530D01*
X34310Y19570D01*
X24584Y23198D02*
X25969Y24584D01*
X24584Y25969D01*
X23198Y24584D01*
X24584Y23198D01*
X34310Y26090D02*
X32350Y26090D01*
X32350Y28050D01*
X34310Y28050D01*
X34310Y26090D01*
X43472Y24584D02*
X42086Y25969D01*
X40701Y24584D01*
X42086Y23198D01*
X43472Y24584D01*
X18105Y25925D02*
X19910Y26691D01*
X19144Y28495D01*
X17340Y27729D01*
X18105Y25925D01*
X49230Y27789D02*
X47426Y28555D01*
X46660Y26751D01*
X48465Y25985D01*
X49230Y27789D01*
X5780Y32360D02*
X7740Y32360D01*
X7740Y34320D01*
X5780Y34320D01*
X5780Y32360D01*
X12300Y32360D02*
X14260Y32360D01*
X14260Y34320D01*
X12300Y34320D01*
X12300Y32360D01*
X19560Y32360D02*
X21520Y32360D01*
X21520Y34320D01*
X19560Y34320D01*
X19560Y32360D01*
X25455Y32360D02*
X27415Y32360D01*
X27415Y34320D01*
X25455Y34320D01*
X25455Y32360D01*
X54350Y34320D02*
X52390Y34320D01*
X52390Y32360D01*
X54350Y32360D01*
X54350Y34320D01*
X60880Y34320D02*
X58920Y34320D01*
X58920Y32360D01*
X60880Y32360D01*
X60880Y34320D01*
X17340Y38859D02*
X19144Y38093D01*
X19910Y39897D01*
X18105Y40663D01*
X17340Y38859D01*
X48465Y40663D02*
X46660Y39897D01*
X47426Y38093D01*
X49230Y38859D01*
X48465Y40663D01*
X23188Y42086D02*
X24574Y40701D01*
X25959Y42086D01*
X24574Y43472D01*
X23188Y42086D01*
X42076Y43472D02*
X40691Y42086D01*
X42076Y40701D01*
X43462Y42086D01*
X42076Y43472D01*
X18058Y47226D02*
X19444Y45841D01*
X20829Y47226D01*
X19444Y48612D01*
X18058Y47226D01*
X47216Y48612D02*
X45831Y47226D01*
X47216Y45841D01*
X48602Y47226D01*
X47216Y48612D01*
X26389Y47910D02*
X26796Y45993D01*
X28713Y46400D01*
X28306Y48317D01*
X26389Y47910D01*
X38275Y48317D02*
X37868Y46400D01*
X39785Y45993D01*
X40192Y47910D01*
X38275Y48317D01*
X13448Y51836D02*
X14834Y50451D01*
X16219Y51836D01*
X14834Y53222D01*
X13448Y51836D01*
X51826Y53222D02*
X50441Y51836D01*
X51826Y50451D01*
X53212Y51836D01*
X51826Y53222D01*
G54D13*
X32580Y39600D02*
G75*
D01*
G02X32580Y39600I750J0*
G01*
X32580Y46120D02*
G75*
D01*
G02X32580Y46120I750J0*
G01*
X32580Y53390D02*
G75*
D01*
G02X32580Y53390I750J0*
G01*
X32580Y59900D02*
G75*
D01*
G02X32580Y59900I750J0*
G01*
X28274Y29034D02*
G75*
D01*
G02X28274Y29034I750J0*
G01*
X36866Y29034D02*
G75*
D01*
G02X36866Y29034I750J0*
G01*
X28274Y37636D02*
G75*
D01*
G02X28274Y37636I750J0*
G01*
X36866Y37636D02*
G75*
D01*
G02X36866Y37636I750J0*
G01*
X39455Y33340D02*
G75*
D01*
G02X39455Y33340I750J0*
G01*
X45350Y33340D02*
G75*
D01*
G02X45350Y33340I750J0*
G01*
X32580Y6760D02*
G75*
D01*
G02X32580Y6760I750J0*
G01*
X32580Y13280D02*
G75*
D01*
G02X32580Y13280I750J0*
G01*
X14084Y14834D02*
G75*
D01*
G02X14084Y14834I750J0*
G01*
X51086Y14834D02*
G75*
D01*
G02X51086Y14834I750J0*
G01*
X18694Y19444D02*
G75*
D01*
G02X18694Y19444I750J0*
G01*
X26801Y19400D02*
G75*
D01*
G02X26801Y19400I750J0*
G01*
X38279Y19290D02*
G75*
D01*
G02X38279Y19290I750J0*
G01*
X46466Y19444D02*
G75*
D01*
G02X46466Y19444I750J0*
G01*
X32580Y20550D02*
G75*
D01*
G02X32580Y20550I750J0*
G01*
X23834Y24584D02*
G75*
D01*
G02X23834Y24584I750J0*
G01*
X32580Y27070D02*
G75*
D01*
G02X32580Y27070I750J0*
G01*
X41336Y24584D02*
G75*
D01*
G02X41336Y24584I750J0*
G01*
X17875Y27210D02*
G75*
D01*
G02X17875Y27210I750J0*
G01*
X47195Y27270D02*
G75*
D01*
G02X47195Y27270I750J0*
G01*
X6010Y33340D02*
G75*
D01*
G02X6010Y33340I750J0*
G01*
X12530Y33340D02*
G75*
D01*
G02X12530Y33340I750J0*
G01*
X19790Y33340D02*
G75*
D01*
G02X19790Y33340I750J0*
G01*
X25685Y33340D02*
G75*
D01*
G02X25685Y33340I750J0*
G01*
X52620Y33340D02*
G75*
D01*
G02X52620Y33340I750J0*
G01*
X59150Y33340D02*
G75*
D01*
G02X59150Y33340I750J0*
G01*
X17875Y39378D02*
G75*
D01*
G02X17875Y39378I750J0*
G01*
X47195Y39378D02*
G75*
D01*
G02X47195Y39378I750J0*
G01*
X23824Y42086D02*
G75*
D01*
G02X23824Y42086I750J0*
G01*
X41326Y42086D02*
G75*
D01*
G02X41326Y42086I750J0*
G01*
X18694Y47226D02*
G75*
D01*
G02X18694Y47226I750J0*
G01*
X46466Y47226D02*
G75*
D01*
G02X46466Y47226I750J0*
G01*
X26801Y47155D02*
G75*
D01*
G02X26801Y47155I750J0*
G01*
X38280Y47155D02*
G75*
D01*
G02X38280Y47155I750J0*
G01*
X14084Y51836D02*
G75*
D01*
G02X14084Y51836I750J0*
G01*
X51076Y51836D02*
G75*
D01*
G02X51076Y51836I750J0*
G01*
G54D14*
X32956Y29814D02*
X32956Y29442D01*
X33049Y29349D01*
X33141Y29349D01*
X33234Y29442D01*
X33234Y29814D01*
X33372Y29721D02*
X33465Y29814D01*
X33557Y29814D01*
X33650Y29721D01*
X33650Y29674D01*
X33372Y29349D01*
X33650Y29349D01*
X33650Y29396D01*
G54D15*
G36*
X31435Y37634D02*
X31435Y37634D01*
X31408Y37639D01*
X31418Y37519D01*
X31435Y37634D01*
D02*
G37*
X31408Y37639D01*
X31418Y37519D01*
X31435Y37634D01*
G36*
X31435Y37634D01*
X31418Y37519D01*
X31428Y37500D01*
X31435Y37634D01*
D02*
G37*
X31418Y37519D01*
X31428Y37500D01*
X31435Y37634D01*
G36*
X31435Y37634D01*
X31428Y37500D01*
X31431Y37477D01*
X31435Y37634D01*
D02*
G37*
X31428Y37500D01*
X31431Y37477D01*
X31435Y37634D01*
G36*
X31435Y37634D01*
X31431Y37477D01*
X31467Y37350D01*
X31435Y37634D01*
D02*
G37*
X31431Y37477D01*
X31467Y37350D01*
X31435Y37634D01*
G36*
X31435Y37634D01*
X31467Y37350D01*
X31458Y37625D01*
X31435Y37634D01*
D02*
G37*
X31467Y37350D01*
X31458Y37625D01*
X31435Y37634D01*
G36*
X31305Y37555D02*
X31305Y37555D01*
X31341Y37642D01*
X31198Y37555D01*
X31305Y37555D01*
D02*
G37*
X31341Y37642D01*
X31198Y37555D01*
X31305Y37555D01*
G36*
X31341Y37642D02*
X31341Y37642D01*
X31305Y37555D01*
X31355Y37553D01*
X31341Y37642D01*
D02*
G37*
X31305Y37555D01*
X31355Y37553D01*
X31341Y37642D01*
G36*
X31355Y37553D02*
X31355Y37553D01*
X31378Y37641D01*
X31341Y37642D01*
X31355Y37553D01*
D02*
G37*
X31378Y37641D01*
X31341Y37642D01*
X31355Y37553D01*
G36*
X31378Y37641D02*
X31378Y37641D01*
X31355Y37553D01*
X31385Y37546D01*
X31378Y37641D01*
D02*
G37*
X31355Y37553D01*
X31385Y37546D01*
X31378Y37641D01*
G36*
X31385Y37546D02*
X31385Y37546D01*
X31408Y37639D01*
X31378Y37641D01*
X31385Y37546D01*
D02*
G37*
X31408Y37639D01*
X31378Y37641D01*
X31385Y37546D01*
G36*
X31408Y37639D02*
X31408Y37639D01*
X31385Y37546D01*
X31404Y37535D01*
X31408Y37639D01*
D02*
G37*
X31385Y37546D01*
X31404Y37535D01*
X31408Y37639D01*
G36*
X31404Y37535D02*
X31404Y37535D01*
X31418Y37519D01*
X31408Y37639D01*
X31404Y37535D01*
D02*
G37*
X31418Y37519D01*
X31408Y37639D01*
X31404Y37535D01*
G36*
X31198Y37555D02*
X31198Y37555D01*
X31341Y37642D01*
X31153Y37642D01*
X31198Y37555D01*
D02*
G37*
X31341Y37642D01*
X31153Y37642D01*
X31198Y37555D01*
G36*
X31198Y37555D01*
X31153Y37642D01*
X31163Y37064D01*
X31198Y37555D01*
D02*
G37*
X31153Y37642D01*
X31163Y37064D01*
X31198Y37555D01*
G36*
X31198Y37555D01*
X31163Y37064D01*
X31182Y37077D01*
X31198Y37555D01*
D02*
G37*
X31163Y37064D01*
X31182Y37077D01*
X31198Y37555D01*
G36*
X31198Y37555D01*
X31182Y37077D01*
X31194Y37099D01*
X31198Y37555D01*
D02*
G37*
X31182Y37077D01*
X31194Y37099D01*
X31198Y37555D01*
G36*
X31198Y37555D01*
X31194Y37099D01*
X31198Y37130D01*
X31198Y37555D01*
D02*
G37*
X31194Y37099D01*
X31198Y37130D01*
X31198Y37555D01*
G36*
X31198Y37555D01*
X31198Y37130D01*
X31198Y37314D01*
X31198Y37555D01*
D02*
G37*
X31198Y37130D01*
X31198Y37314D01*
X31198Y37555D01*
G36*
X31198Y37555D01*
X31198Y37314D01*
X31198Y37397D01*
X31198Y37555D01*
D02*
G37*
X31198Y37314D01*
X31198Y37397D01*
X31198Y37555D01*
G36*
X31153Y37642D02*
X31153Y37642D01*
X31140Y37060D01*
X31163Y37064D01*
X31153Y37642D01*
D02*
G37*
X31140Y37060D01*
X31163Y37064D01*
X31153Y37642D01*
G36*
X31140Y37060D02*
X31140Y37060D01*
X31153Y37642D01*
X31120Y37638D01*
X31140Y37060D01*
D02*
G37*
X31153Y37642D01*
X31120Y37638D01*
X31140Y37060D01*
G36*
X31120Y37638D02*
X31120Y37638D01*
X31115Y37064D01*
X31140Y37060D01*
X31120Y37638D01*
D02*
G37*
X31115Y37064D01*
X31140Y37060D01*
X31120Y37638D01*
G36*
X31115Y37064D02*
X31115Y37064D01*
X31120Y37638D01*
X31099Y37625D01*
X31115Y37064D01*
D02*
G37*
X31120Y37638D01*
X31099Y37625D01*
X31115Y37064D01*
G36*
X31099Y37625D02*
X31099Y37625D01*
X31097Y37078D01*
X31115Y37064D01*
X31099Y37625D01*
D02*
G37*
X31097Y37078D01*
X31115Y37064D01*
X31099Y37625D01*
G36*
X31097Y37078D02*
X31097Y37078D01*
X31099Y37625D01*
X31086Y37603D01*
X31097Y37078D01*
D02*
G37*
X31099Y37625D01*
X31086Y37603D01*
X31097Y37078D01*
G36*
X31086Y37603D02*
X31086Y37603D01*
X31086Y37100D01*
X31097Y37078D01*
X31086Y37603D01*
D02*
G37*
X31086Y37100D01*
X31097Y37078D01*
X31086Y37603D01*
G36*
X31086Y37100D02*
X31086Y37100D01*
X31086Y37603D01*
X31082Y37571D01*
X31086Y37100D01*
D02*
G37*
X31086Y37603D01*
X31082Y37571D01*
X31086Y37100D01*
G36*
X31082Y37571D02*
X31082Y37571D01*
X31082Y37130D01*
X31086Y37100D01*
X31082Y37571D01*
D02*
G37*
X31082Y37130D01*
X31086Y37100D01*
X31082Y37571D01*
G36*
X31545Y37515D02*
X31545Y37515D01*
X31546Y37454D01*
X31548Y37485D01*
X31545Y37515D01*
D02*
G37*
X31546Y37454D01*
X31548Y37485D01*
X31545Y37515D01*
G36*
X31546Y37454D02*
X31546Y37454D01*
X31545Y37515D01*
X31537Y37544D01*
X31546Y37454D01*
D02*
G37*
X31545Y37515D01*
X31537Y37544D01*
X31546Y37454D01*
G36*
X31537Y37544D02*
X31537Y37544D01*
X31528Y37403D01*
X31546Y37454D01*
X31537Y37544D01*
D02*
G37*
X31528Y37403D01*
X31546Y37454D01*
X31537Y37544D01*
G36*
X31528Y37403D02*
X31528Y37403D01*
X31537Y37544D01*
X31524Y37570D01*
X31528Y37403D01*
D02*
G37*
X31537Y37544D01*
X31524Y37570D01*
X31528Y37403D01*
G36*
X31524Y37570D02*
X31524Y37570D01*
X31512Y37382D01*
X31528Y37403D01*
X31524Y37570D01*
D02*
G37*
X31512Y37382D01*
X31528Y37403D01*
X31524Y37570D01*
G36*
X31512Y37382D02*
X31512Y37382D01*
X31524Y37570D01*
X31506Y37593D01*
X31512Y37382D01*
D02*
G37*
X31524Y37570D01*
X31506Y37593D01*
X31512Y37382D01*
G36*
X31506Y37593D02*
X31506Y37593D01*
X31484Y37611D01*
X31512Y37382D01*
X31506Y37593D01*
D02*
G37*
X31484Y37611D01*
X31512Y37382D01*
X31506Y37593D01*
G36*
X31484Y37611D02*
X31484Y37611D01*
X31458Y37625D01*
X31467Y37350D01*
X31484Y37611D01*
D02*
G37*
X31458Y37625D01*
X31467Y37350D01*
X31484Y37611D01*
G36*
X31484Y37611D01*
X31467Y37350D01*
X31512Y37382D01*
X31484Y37611D01*
D02*
G37*
X31467Y37350D01*
X31512Y37382D01*
X31484Y37611D01*
G36*
X31330Y37276D02*
X31330Y37276D01*
X31340Y37399D01*
X31310Y37294D01*
X31330Y37276D01*
D02*
G37*
X31340Y37399D01*
X31310Y37294D01*
X31330Y37276D01*
G36*
X31340Y37399D02*
X31340Y37399D01*
X31330Y37276D01*
X31351Y37248D01*
X31340Y37399D01*
D02*
G37*
X31330Y37276D01*
X31351Y37248D01*
X31340Y37399D01*
G36*
X31351Y37248D02*
X31351Y37248D01*
X31372Y37405D01*
X31340Y37399D01*
X31351Y37248D01*
D02*
G37*
X31372Y37405D01*
X31340Y37399D01*
X31351Y37248D01*
G36*
X31372Y37405D02*
X31372Y37405D01*
X31351Y37248D01*
X31374Y37211D01*
X31372Y37405D01*
D02*
G37*
X31351Y37248D01*
X31374Y37211D01*
X31372Y37405D01*
G36*
X31374Y37211D02*
X31374Y37211D01*
X31397Y37414D01*
X31372Y37405D01*
X31374Y37211D01*
D02*
G37*
X31397Y37414D01*
X31372Y37405D01*
X31374Y37211D01*
G36*
X31397Y37414D02*
X31397Y37414D01*
X31374Y37211D01*
X31402Y37328D01*
X31397Y37414D01*
D02*
G37*
X31374Y37211D01*
X31402Y37328D01*
X31397Y37414D01*
G36*
X31402Y37328D02*
X31402Y37328D01*
X31416Y37429D01*
X31397Y37414D01*
X31402Y37328D01*
D02*
G37*
X31416Y37429D01*
X31397Y37414D01*
X31402Y37328D01*
G36*
X31416Y37429D02*
X31416Y37429D01*
X31402Y37328D01*
X31467Y37350D01*
X31416Y37429D01*
D02*
G37*
X31402Y37328D01*
X31467Y37350D01*
X31416Y37429D01*
G36*
X31467Y37350D02*
X31467Y37350D01*
X31427Y37450D01*
X31416Y37429D01*
X31467Y37350D01*
D02*
G37*
X31427Y37450D01*
X31416Y37429D01*
X31467Y37350D01*
G36*
X31427Y37450D02*
X31427Y37450D01*
X31467Y37350D01*
X31431Y37477D01*
X31427Y37450D01*
D02*
G37*
X31467Y37350D01*
X31431Y37477D01*
X31427Y37450D01*
G36*
X31543Y37074D02*
X31543Y37074D01*
X31546Y37146D01*
X31531Y37066D01*
X31543Y37074D01*
D02*
G37*
X31546Y37146D01*
X31531Y37066D01*
X31543Y37074D01*
G36*
X31546Y37146D02*
X31546Y37146D01*
X31543Y37074D01*
X31551Y37084D01*
X31546Y37146D01*
D02*
G37*
X31543Y37074D01*
X31551Y37084D01*
X31546Y37146D01*
G36*
X31551Y37084D02*
X31551Y37084D01*
X31555Y37122D01*
X31546Y37146D01*
X31551Y37084D01*
D02*
G37*
X31555Y37122D01*
X31546Y37146D01*
X31551Y37084D01*
G36*
X31555Y37122D02*
X31555Y37122D01*
X31551Y37084D01*
X31556Y37095D01*
X31555Y37122D01*
D02*
G37*
X31551Y37084D01*
X31556Y37095D01*
X31555Y37122D01*
G36*
X31556Y37095D02*
X31556Y37095D01*
X31558Y37106D01*
X31555Y37122D01*
X31556Y37095D01*
D02*
G37*
X31558Y37106D01*
X31555Y37122D01*
X31556Y37095D01*
G36*
X31484Y37062D02*
X31484Y37062D01*
X31488Y37246D01*
X31470Y37069D01*
X31484Y37062D01*
D02*
G37*
X31488Y37246D01*
X31470Y37069D01*
X31484Y37062D01*
G36*
X31488Y37246D02*
X31488Y37246D01*
X31484Y37062D01*
X31502Y37060D01*
X31488Y37246D01*
D02*
G37*
X31484Y37062D01*
X31502Y37060D01*
X31488Y37246D01*
G36*
X31502Y37060D02*
X31502Y37060D01*
X31512Y37211D01*
X31488Y37246D01*
X31502Y37060D01*
D02*
G37*
X31512Y37211D01*
X31488Y37246D01*
X31502Y37060D01*
G36*
X31512Y37211D02*
X31512Y37211D01*
X31502Y37060D01*
X31518Y37061D01*
X31512Y37211D01*
D02*
G37*
X31502Y37060D01*
X31518Y37061D01*
X31512Y37211D01*
G36*
X31518Y37061D02*
X31518Y37061D01*
X31531Y37177D01*
X31512Y37211D01*
X31518Y37061D01*
D02*
G37*
X31531Y37177D01*
X31512Y37211D01*
X31518Y37061D01*
G36*
X31531Y37177D02*
X31531Y37177D01*
X31518Y37061D01*
X31531Y37066D01*
X31531Y37177D01*
D02*
G37*
X31518Y37061D01*
X31531Y37066D01*
X31531Y37177D01*
G36*
X31531Y37066D02*
X31531Y37066D01*
X31546Y37146D01*
X31531Y37177D01*
X31531Y37066D01*
D02*
G37*
X31546Y37146D01*
X31531Y37177D01*
X31531Y37066D01*
G36*
X31461Y37280D02*
X31461Y37280D01*
X31433Y37308D01*
X31435Y37109D01*
X31461Y37280D01*
D02*
G37*
X31433Y37308D01*
X31435Y37109D01*
X31461Y37280D01*
G36*
X31461Y37280D01*
X31435Y37109D01*
X31447Y37092D01*
X31461Y37280D01*
D02*
G37*
X31435Y37109D01*
X31447Y37092D01*
X31461Y37280D01*
G36*
X31461Y37280D01*
X31447Y37092D01*
X31457Y37079D01*
X31461Y37280D01*
D02*
G37*
X31447Y37092D01*
X31457Y37079D01*
X31461Y37280D01*
G36*
X31461Y37280D01*
X31457Y37079D01*
X31470Y37069D01*
X31461Y37280D01*
D02*
G37*
X31457Y37079D01*
X31470Y37069D01*
X31461Y37280D01*
G36*
X31461Y37280D01*
X31470Y37069D01*
X31488Y37246D01*
X31461Y37280D01*
D02*
G37*
X31470Y37069D01*
X31488Y37246D01*
X31461Y37280D01*
G36*
X31421Y37133D02*
X31421Y37133D01*
X31435Y37109D01*
X31433Y37308D01*
X31421Y37133D01*
D02*
G37*
X31435Y37109D01*
X31433Y37308D01*
X31421Y37133D01*
G36*
X31421Y37133D01*
X31433Y37308D01*
X31402Y37328D01*
X31421Y37133D01*
D02*
G37*
X31433Y37308D01*
X31402Y37328D01*
X31421Y37133D01*
G36*
X31421Y37133D01*
X31402Y37328D01*
X31374Y37211D01*
X31421Y37133D01*
D02*
G37*
X31402Y37328D01*
X31374Y37211D01*
X31421Y37133D01*
G36*
X31302Y37397D02*
X31302Y37397D01*
X31198Y37397D01*
X31238Y37314D01*
X31302Y37397D01*
D02*
G37*
X31198Y37397D01*
X31238Y37314D01*
X31302Y37397D01*
G36*
X31302Y37397D01*
X31238Y37314D01*
X31267Y37312D01*
X31302Y37397D01*
D02*
G37*
X31238Y37314D01*
X31267Y37312D01*
X31302Y37397D01*
G36*
X31302Y37397D01*
X31267Y37312D01*
X31290Y37306D01*
X31302Y37397D01*
D02*
G37*
X31267Y37312D01*
X31290Y37306D01*
X31302Y37397D01*
G36*
X31302Y37397D01*
X31290Y37306D01*
X31310Y37294D01*
X31302Y37397D01*
D02*
G37*
X31290Y37306D01*
X31310Y37294D01*
X31302Y37397D01*
G36*
X31302Y37397D01*
X31310Y37294D01*
X31340Y37399D01*
X31302Y37397D01*
D02*
G37*
X31310Y37294D01*
X31340Y37399D01*
X31302Y37397D01*
G36*
X31238Y37314D02*
X31238Y37314D01*
X31198Y37397D01*
X31198Y37314D01*
X31238Y37314D01*
D02*
G37*
X31198Y37397D01*
X31198Y37314D01*
X31238Y37314D01*
G36*
X32000Y37553D02*
X32000Y37553D01*
X32000Y37642D01*
X31772Y37553D01*
X32000Y37553D01*
D02*
G37*
X32000Y37642D01*
X31772Y37553D01*
X32000Y37553D01*
G36*
X32000Y37642D02*
X32000Y37642D01*
X32000Y37553D01*
X32024Y37556D01*
X32000Y37642D01*
D02*
G37*
X32000Y37553D01*
X32024Y37556D01*
X32000Y37642D01*
G36*
X32024Y37556D02*
X32024Y37556D01*
X32024Y37639D01*
X32000Y37642D01*
X32024Y37556D01*
D02*
G37*
X32024Y37639D01*
X32000Y37642D01*
X32024Y37556D01*
G36*
X32024Y37639D02*
X32024Y37639D01*
X32024Y37556D01*
X32041Y37565D01*
X32024Y37639D01*
D02*
G37*
X32024Y37556D01*
X32041Y37565D01*
X32024Y37639D01*
G36*
X32041Y37565D02*
X32041Y37565D01*
X32041Y37630D01*
X32024Y37639D01*
X32041Y37565D01*
D02*
G37*
X32041Y37630D01*
X32024Y37639D01*
X32041Y37565D01*
G36*
X32041Y37630D02*
X32041Y37630D01*
X32041Y37565D01*
X32051Y37579D01*
X32041Y37630D01*
D02*
G37*
X32041Y37565D01*
X32051Y37579D01*
X32041Y37630D01*
G36*
X32051Y37579D02*
X32051Y37579D01*
X32051Y37616D01*
X32041Y37630D01*
X32051Y37579D01*
D02*
G37*
X32051Y37616D01*
X32041Y37630D01*
X32051Y37579D01*
G36*
X32051Y37616D02*
X32051Y37616D01*
X32051Y37579D01*
X32055Y37597D01*
X32051Y37616D01*
D02*
G37*
X32051Y37579D01*
X32055Y37597D01*
X32051Y37616D01*
G36*
X32012Y37380D02*
X32012Y37380D01*
X32012Y37344D01*
X32015Y37362D01*
X32012Y37380D01*
D02*
G37*
X32012Y37344D01*
X32015Y37362D01*
X32012Y37380D01*
G36*
X32012Y37344D02*
X32012Y37344D01*
X32012Y37380D01*
X32002Y37394D01*
X32012Y37344D01*
D02*
G37*
X32012Y37380D01*
X32002Y37394D01*
X32012Y37344D01*
G36*
X32002Y37394D02*
X32002Y37394D01*
X32002Y37331D01*
X32012Y37344D01*
X32002Y37394D01*
D02*
G37*
X32002Y37331D01*
X32012Y37344D01*
X32002Y37394D01*
G36*
X32002Y37331D02*
X32002Y37331D01*
X32002Y37394D01*
X31986Y37403D01*
X32002Y37331D01*
D02*
G37*
X32002Y37394D01*
X31986Y37403D01*
X32002Y37331D01*
G36*
X31986Y37403D02*
X31986Y37403D01*
X31986Y37322D01*
X32002Y37331D01*
X31986Y37403D01*
D02*
G37*
X31986Y37322D01*
X32002Y37331D01*
X31986Y37403D01*
G36*
X31986Y37322D02*
X31986Y37322D01*
X31986Y37403D01*
X31963Y37406D01*
X31986Y37322D01*
D02*
G37*
X31986Y37403D01*
X31963Y37406D01*
X31986Y37322D01*
G36*
X31963Y37406D02*
X31963Y37406D01*
X31963Y37319D01*
X31986Y37322D01*
X31963Y37406D01*
D02*
G37*
X31963Y37319D01*
X31986Y37322D01*
X31963Y37406D01*
G36*
X31963Y37319D02*
X31963Y37319D01*
X31963Y37406D01*
X31772Y37406D01*
X31963Y37319D01*
D02*
G37*
X31963Y37406D01*
X31772Y37406D01*
X31963Y37319D01*
G36*
X31772Y37406D02*
X31772Y37406D01*
X31772Y37319D01*
X31963Y37319D01*
X31772Y37406D01*
D02*
G37*
X31772Y37319D01*
X31963Y37319D01*
X31772Y37406D01*
G36*
X31772Y37319D02*
X31772Y37319D01*
X31772Y37553D01*
X31772Y37319D01*
D02*
G37*
X31772Y37553D01*
X31772Y37319D01*
G36*
X31772Y37553D02*
X31772Y37553D01*
X31772Y37130D01*
X31772Y37319D01*
X31772Y37553D01*
D02*
G37*
X31772Y37130D01*
X31772Y37319D01*
X31772Y37553D01*
G36*
X31772Y37130D02*
X31772Y37130D01*
X31772Y37553D01*
X31768Y37099D01*
X31772Y37130D01*
D02*
G37*
X31772Y37553D01*
X31768Y37099D01*
X31772Y37130D01*
G36*
X31690Y37064D02*
X31690Y37064D01*
X31704Y37640D01*
X31686Y37635D01*
X31690Y37064D01*
D02*
G37*
X31704Y37640D01*
X31686Y37635D01*
X31690Y37064D01*
G36*
X31704Y37640D02*
X31704Y37640D01*
X31690Y37064D01*
X31714Y37060D01*
X31704Y37640D01*
D02*
G37*
X31690Y37064D01*
X31714Y37060D01*
X31704Y37640D01*
G36*
X31714Y37060D02*
X31714Y37060D01*
X31727Y37642D01*
X31704Y37640D01*
X31714Y37060D01*
D02*
G37*
X31727Y37642D01*
X31704Y37640D01*
X31714Y37060D01*
G36*
X31727Y37642D02*
X31727Y37642D01*
X31714Y37060D01*
X31737Y37064D01*
X31727Y37642D01*
D02*
G37*
X31714Y37060D01*
X31737Y37064D01*
X31727Y37642D01*
G36*
X31737Y37064D02*
X31737Y37064D01*
X31772Y37553D01*
X31727Y37642D01*
X31737Y37064D01*
D02*
G37*
X31772Y37553D01*
X31727Y37642D01*
X31737Y37064D01*
G36*
X31772Y37553D02*
X31772Y37553D01*
X31737Y37064D01*
X31755Y37077D01*
X31772Y37553D01*
D02*
G37*
X31737Y37064D01*
X31755Y37077D01*
X31772Y37553D01*
G36*
X31755Y37077D02*
X31755Y37077D01*
X31768Y37099D01*
X31772Y37553D01*
X31755Y37077D01*
D02*
G37*
X31768Y37099D01*
X31772Y37553D01*
X31755Y37077D01*
G36*
X31660Y37099D02*
X31660Y37099D01*
X31663Y37612D01*
X31657Y37594D01*
X31660Y37099D01*
D02*
G37*
X31663Y37612D01*
X31657Y37594D01*
X31660Y37099D01*
G36*
X31663Y37612D02*
X31663Y37612D01*
X31660Y37099D01*
X31672Y37077D01*
X31663Y37612D01*
D02*
G37*
X31660Y37099D01*
X31672Y37077D01*
X31663Y37612D01*
G36*
X31672Y37077D02*
X31672Y37077D01*
X31672Y37625D01*
X31663Y37612D01*
X31672Y37077D01*
D02*
G37*
X31672Y37625D01*
X31663Y37612D01*
X31672Y37077D01*
G36*
X31672Y37625D02*
X31672Y37625D01*
X31672Y37077D01*
X31690Y37064D01*
X31672Y37625D01*
D02*
G37*
X31672Y37077D01*
X31690Y37064D01*
X31672Y37625D01*
G36*
X31690Y37064D02*
X31690Y37064D01*
X31686Y37635D01*
X31672Y37625D01*
X31690Y37064D01*
D02*
G37*
X31686Y37635D01*
X31672Y37625D01*
X31690Y37064D01*
G36*
X31656Y37571D02*
X31656Y37571D01*
X31656Y37130D01*
X31660Y37099D01*
X31656Y37571D01*
D02*
G37*
X31656Y37130D01*
X31660Y37099D01*
X31656Y37571D01*
G36*
X31656Y37571D01*
X31660Y37099D01*
X31657Y37594D01*
X31656Y37571D01*
D02*
G37*
X31660Y37099D01*
X31657Y37594D01*
X31656Y37571D01*
G36*
X31727Y37642D02*
X31727Y37642D01*
X31772Y37553D01*
X32000Y37642D01*
X31727Y37642D01*
D02*
G37*
X31772Y37553D01*
X32000Y37642D01*
X31727Y37642D01*
G36*
X32613Y37064D02*
X32613Y37064D01*
X32616Y37642D01*
X32597Y37076D01*
X32613Y37064D01*
D02*
G37*
X32616Y37642D01*
X32597Y37076D01*
X32613Y37064D01*
G36*
X32616Y37642D02*
X32616Y37642D01*
X32613Y37064D01*
X32634Y37060D01*
X32616Y37642D01*
D02*
G37*
X32613Y37064D01*
X32634Y37060D01*
X32616Y37642D01*
G36*
X32634Y37060D02*
X32634Y37060D01*
X32646Y37639D01*
X32616Y37642D01*
X32634Y37060D01*
D02*
G37*
X32646Y37639D01*
X32616Y37642D01*
X32634Y37060D01*
G36*
X32646Y37639D02*
X32646Y37639D01*
X32634Y37060D01*
X32657Y37064D01*
X32646Y37639D01*
D02*
G37*
X32634Y37060D01*
X32657Y37064D01*
X32646Y37639D01*
G36*
X32657Y37064D02*
X32657Y37064D01*
X32669Y37629D01*
X32646Y37639D01*
X32657Y37064D01*
D02*
G37*
X32669Y37629D01*
X32646Y37639D01*
X32657Y37064D01*
G36*
X32669Y37629D02*
X32669Y37629D01*
X32657Y37064D01*
X32674Y37076D01*
X32669Y37629D01*
D02*
G37*
X32657Y37064D01*
X32674Y37076D01*
X32669Y37629D01*
G36*
X32674Y37076D02*
X32674Y37076D01*
X32683Y37610D01*
X32669Y37629D01*
X32674Y37076D01*
D02*
G37*
X32683Y37610D01*
X32669Y37629D01*
X32674Y37076D01*
G36*
X32683Y37610D02*
X32683Y37610D01*
X32674Y37076D01*
X32685Y37097D01*
X32683Y37610D01*
D02*
G37*
X32674Y37076D01*
X32685Y37097D01*
X32683Y37610D01*
G36*
X32685Y37097D02*
X32685Y37097D01*
X32688Y37578D01*
X32683Y37610D01*
X32685Y37097D01*
D02*
G37*
X32688Y37578D01*
X32683Y37610D01*
X32685Y37097D01*
G36*
X32688Y37578D02*
X32688Y37578D01*
X32685Y37097D01*
X32688Y37125D01*
X32688Y37578D01*
D02*
G37*
X32685Y37097D01*
X32688Y37125D01*
X32688Y37578D01*
G36*
X32616Y37642D02*
X32616Y37642D01*
X32580Y37642D01*
X32582Y37521D01*
X32616Y37642D01*
D02*
G37*
X32580Y37642D01*
X32582Y37521D01*
X32616Y37642D01*
G36*
X32616Y37642D01*
X32582Y37521D01*
X32585Y37097D01*
X32616Y37642D01*
D02*
G37*
X32582Y37521D01*
X32585Y37097D01*
X32616Y37642D01*
G36*
X32616Y37642D01*
X32585Y37097D01*
X32597Y37076D01*
X32616Y37642D01*
D02*
G37*
X32585Y37097D01*
X32597Y37076D01*
X32616Y37642D01*
G36*
X32582Y37521D02*
X32582Y37521D01*
X32580Y37642D01*
X32552Y37641D01*
X32582Y37521D01*
D02*
G37*
X32580Y37642D01*
X32552Y37641D01*
X32582Y37521D01*
G36*
X32582Y37521D01*
X32552Y37641D01*
X32533Y37636D01*
X32582Y37521D01*
D02*
G37*
X32552Y37641D01*
X32533Y37636D01*
X32582Y37521D01*
G36*
X32582Y37521D01*
X32533Y37636D01*
X32520Y37628D01*
X32582Y37521D01*
D02*
G37*
X32533Y37636D01*
X32520Y37628D01*
X32582Y37521D01*
G36*
X32582Y37521D01*
X32520Y37628D01*
X32511Y37615D01*
X32582Y37521D01*
D02*
G37*
X32520Y37628D01*
X32511Y37615D01*
X32582Y37521D01*
G36*
X32582Y37521D01*
X32511Y37615D01*
X32504Y37595D01*
X32582Y37521D01*
D02*
G37*
X32511Y37615D01*
X32504Y37595D01*
X32582Y37521D01*
G36*
X32582Y37521D01*
X32504Y37595D01*
X32495Y37565D01*
X32582Y37521D01*
D02*
G37*
X32504Y37595D01*
X32495Y37565D01*
X32582Y37521D01*
G36*
X32582Y37521D01*
X32495Y37565D01*
X32490Y37156D01*
X32582Y37521D01*
D02*
G37*
X32495Y37565D01*
X32490Y37156D01*
X32582Y37521D01*
G36*
X32495Y37565D02*
X32495Y37565D01*
X32412Y37252D01*
X32436Y37063D01*
X32495Y37565D01*
D02*
G37*
X32412Y37252D01*
X32436Y37063D01*
X32495Y37565D01*
G36*
X32495Y37565D01*
X32436Y37063D01*
X32454Y37073D01*
X32495Y37565D01*
D02*
G37*
X32436Y37063D01*
X32454Y37073D01*
X32495Y37565D01*
G36*
X32495Y37565D01*
X32454Y37073D01*
X32467Y37088D01*
X32495Y37565D01*
D02*
G37*
X32454Y37073D01*
X32467Y37088D01*
X32495Y37565D01*
G36*
X32495Y37565D01*
X32467Y37088D01*
X32475Y37104D01*
X32495Y37565D01*
D02*
G37*
X32467Y37088D01*
X32475Y37104D01*
X32495Y37565D01*
G36*
X32495Y37565D01*
X32475Y37104D01*
X32482Y37125D01*
X32495Y37565D01*
D02*
G37*
X32475Y37104D01*
X32482Y37125D01*
X32495Y37565D01*
G36*
X32495Y37565D01*
X32482Y37125D01*
X32490Y37156D01*
X32495Y37565D01*
D02*
G37*
X32482Y37125D01*
X32490Y37156D01*
X32495Y37565D01*
G36*
X32412Y37252D02*
X32412Y37252D01*
X32329Y37565D01*
X32334Y37156D01*
X32412Y37252D01*
D02*
G37*
X32329Y37565D01*
X32334Y37156D01*
X32412Y37252D01*
G36*
X32412Y37252D01*
X32334Y37156D01*
X32339Y37138D01*
X32412Y37252D01*
D02*
G37*
X32334Y37156D01*
X32339Y37138D01*
X32412Y37252D01*
G36*
X32412Y37252D01*
X32339Y37138D01*
X32344Y37121D01*
X32412Y37252D01*
D02*
G37*
X32339Y37138D01*
X32344Y37121D01*
X32412Y37252D01*
G36*
X32412Y37252D01*
X32344Y37121D01*
X32349Y37105D01*
X32412Y37252D01*
D02*
G37*
X32344Y37121D01*
X32349Y37105D01*
X32412Y37252D01*
G36*
X32412Y37252D01*
X32349Y37105D01*
X32356Y37091D01*
X32412Y37252D01*
D02*
G37*
X32349Y37105D01*
X32356Y37091D01*
X32412Y37252D01*
G36*
X32412Y37252D01*
X32356Y37091D01*
X32365Y37078D01*
X32412Y37252D01*
D02*
G37*
X32356Y37091D01*
X32365Y37078D01*
X32412Y37252D01*
G36*
X32412Y37252D01*
X32365Y37078D01*
X32378Y37068D01*
X32412Y37252D01*
D02*
G37*
X32365Y37078D01*
X32378Y37068D01*
X32412Y37252D01*
G36*
X32412Y37252D01*
X32378Y37068D01*
X32393Y37062D01*
X32412Y37252D01*
D02*
G37*
X32378Y37068D01*
X32393Y37062D01*
X32412Y37252D01*
G36*
X32412Y37252D01*
X32393Y37062D01*
X32412Y37060D01*
X32412Y37252D01*
D02*
G37*
X32393Y37062D01*
X32412Y37060D01*
X32412Y37252D01*
G36*
X32412Y37252D01*
X32412Y37060D01*
X32436Y37063D01*
X32412Y37252D01*
D02*
G37*
X32412Y37060D01*
X32436Y37063D01*
X32412Y37252D01*
G36*
X32334Y37156D02*
X32334Y37156D01*
X32329Y37565D01*
X32320Y37595D01*
X32334Y37156D01*
D02*
G37*
X32329Y37565D01*
X32320Y37595D01*
X32334Y37156D01*
G36*
X32334Y37156D01*
X32320Y37595D01*
X32313Y37615D01*
X32334Y37156D01*
D02*
G37*
X32320Y37595D01*
X32313Y37615D01*
X32334Y37156D01*
G36*
X32334Y37156D01*
X32313Y37615D01*
X32304Y37628D01*
X32334Y37156D01*
D02*
G37*
X32313Y37615D01*
X32304Y37628D01*
X32334Y37156D01*
G36*
X32334Y37156D01*
X32304Y37628D01*
X32291Y37636D01*
X32334Y37156D01*
D02*
G37*
X32304Y37628D01*
X32291Y37636D01*
X32334Y37156D01*
G36*
X32334Y37156D01*
X32291Y37636D01*
X32272Y37641D01*
X32334Y37156D01*
D02*
G37*
X32291Y37636D01*
X32272Y37641D01*
X32334Y37156D01*
G36*
X32334Y37156D01*
X32272Y37641D01*
X32244Y37642D01*
X32334Y37156D01*
D02*
G37*
X32272Y37641D01*
X32244Y37642D01*
X32334Y37156D01*
G36*
X32334Y37156D01*
X32244Y37642D01*
X32243Y37521D01*
X32334Y37156D01*
D02*
G37*
X32244Y37642D01*
X32243Y37521D01*
X32334Y37156D01*
G36*
X32140Y37096D02*
X32140Y37096D01*
X32141Y37610D01*
X32136Y37578D01*
X32140Y37096D01*
D02*
G37*
X32141Y37610D01*
X32136Y37578D01*
X32140Y37096D01*
G36*
X32141Y37610D02*
X32141Y37610D01*
X32140Y37096D01*
X32151Y37076D01*
X32141Y37610D01*
D02*
G37*
X32140Y37096D01*
X32151Y37076D01*
X32141Y37610D01*
G36*
X32151Y37076D02*
X32151Y37076D01*
X32156Y37629D01*
X32141Y37610D01*
X32151Y37076D01*
D02*
G37*
X32156Y37629D01*
X32141Y37610D01*
X32151Y37076D01*
G36*
X32156Y37629D02*
X32156Y37629D01*
X32151Y37076D01*
X32168Y37064D01*
X32156Y37629D01*
D02*
G37*
X32151Y37076D01*
X32168Y37064D01*
X32156Y37629D01*
G36*
X32168Y37064D02*
X32168Y37064D01*
X32178Y37639D01*
X32156Y37629D01*
X32168Y37064D01*
D02*
G37*
X32178Y37639D01*
X32156Y37629D01*
X32168Y37064D01*
G36*
X32178Y37639D02*
X32178Y37639D01*
X32168Y37064D01*
X32189Y37060D01*
X32178Y37639D01*
D02*
G37*
X32168Y37064D01*
X32189Y37060D01*
X32178Y37639D01*
G36*
X32189Y37060D02*
X32189Y37060D01*
X32208Y37642D01*
X32178Y37639D01*
X32189Y37060D01*
D02*
G37*
X32208Y37642D01*
X32178Y37639D01*
X32189Y37060D01*
G36*
X32208Y37642D02*
X32208Y37642D01*
X32189Y37060D01*
X32211Y37064D01*
X32208Y37642D01*
D02*
G37*
X32189Y37060D01*
X32211Y37064D01*
X32208Y37642D01*
G36*
X32211Y37064D02*
X32211Y37064D01*
X32244Y37642D01*
X32208Y37642D01*
X32211Y37064D01*
D02*
G37*
X32244Y37642D01*
X32208Y37642D01*
X32211Y37064D01*
G36*
X32244Y37642D02*
X32244Y37642D01*
X32211Y37064D01*
X32228Y37076D01*
X32244Y37642D01*
D02*
G37*
X32211Y37064D01*
X32228Y37076D01*
X32244Y37642D01*
G36*
X32228Y37076D02*
X32228Y37076D01*
X32243Y37521D01*
X32244Y37642D01*
X32228Y37076D01*
D02*
G37*
X32243Y37521D01*
X32244Y37642D01*
X32228Y37076D01*
G36*
X32243Y37521D02*
X32243Y37521D01*
X32228Y37076D01*
X32239Y37097D01*
X32243Y37521D01*
D02*
G37*
X32228Y37076D01*
X32239Y37097D01*
X32243Y37521D01*
G36*
X32239Y37097D02*
X32239Y37097D01*
X32243Y37125D01*
X32243Y37521D01*
X32239Y37097D01*
D02*
G37*
X32243Y37125D01*
X32243Y37521D01*
X32239Y37097D01*
G36*
X32585Y37097D02*
X32585Y37097D01*
X32582Y37521D01*
X32582Y37125D01*
X32585Y37097D01*
D02*
G37*
X32582Y37521D01*
X32582Y37125D01*
X32585Y37097D01*
G36*
X32140Y37096D02*
X32140Y37096D01*
X32136Y37578D01*
X32136Y37125D01*
X32140Y37096D01*
D02*
G37*
X32136Y37578D01*
X32136Y37125D01*
X32140Y37096D01*
G36*
X33141Y37483D02*
X33141Y37483D01*
X33148Y37578D01*
X33124Y37480D01*
X33141Y37483D01*
D02*
G37*
X33148Y37578D01*
X33124Y37480D01*
X33141Y37483D01*
G36*
X33148Y37578D02*
X33148Y37578D01*
X33141Y37483D01*
X33155Y37493D01*
X33148Y37578D01*
D02*
G37*
X33141Y37483D01*
X33155Y37493D01*
X33148Y37578D01*
G36*
X33155Y37493D02*
X33155Y37493D01*
X33162Y37549D01*
X33148Y37578D01*
X33155Y37493D01*
D02*
G37*
X33162Y37549D01*
X33148Y37578D01*
X33155Y37493D01*
G36*
X33162Y37549D02*
X33162Y37549D01*
X33155Y37493D01*
X33164Y37507D01*
X33162Y37549D01*
D02*
G37*
X33155Y37493D01*
X33164Y37507D01*
X33162Y37549D01*
G36*
X33164Y37507D02*
X33164Y37507D01*
X33167Y37522D01*
X33162Y37549D01*
X33164Y37507D01*
D02*
G37*
X33167Y37522D01*
X33162Y37549D01*
X33164Y37507D01*
G36*
X33124Y37604D02*
X33124Y37604D01*
X33091Y37626D01*
X33094Y37490D01*
X33124Y37604D01*
D02*
G37*
X33091Y37626D01*
X33094Y37490D01*
X33124Y37604D01*
G36*
X33124Y37604D01*
X33094Y37490D01*
X33108Y37483D01*
X33124Y37604D01*
D02*
G37*
X33094Y37490D01*
X33108Y37483D01*
X33124Y37604D01*
G36*
X33124Y37604D01*
X33108Y37483D01*
X33124Y37480D01*
X33124Y37604D01*
D02*
G37*
X33108Y37483D01*
X33124Y37480D01*
X33124Y37604D01*
G36*
X33124Y37604D01*
X33124Y37480D01*
X33148Y37578D01*
X33124Y37604D01*
D02*
G37*
X33124Y37480D01*
X33148Y37578D01*
X33124Y37604D01*
G36*
X33091Y37626D02*
X33091Y37626D01*
X33049Y37641D01*
X33062Y37540D01*
X33091Y37626D01*
D02*
G37*
X33049Y37641D01*
X33062Y37540D01*
X33091Y37626D01*
G36*
X33091Y37626D01*
X33062Y37540D01*
X33073Y37519D01*
X33091Y37626D01*
D02*
G37*
X33062Y37540D01*
X33073Y37519D01*
X33091Y37626D01*
G36*
X33091Y37626D01*
X33073Y37519D01*
X33082Y37503D01*
X33091Y37626D01*
D02*
G37*
X33073Y37519D01*
X33082Y37503D01*
X33091Y37626D01*
G36*
X33091Y37626D01*
X33082Y37503D01*
X33094Y37490D01*
X33091Y37626D01*
D02*
G37*
X33082Y37503D01*
X33094Y37490D01*
X33091Y37626D01*
G36*
X32999Y37571D02*
X32999Y37571D01*
X33002Y37646D01*
X32979Y37568D01*
X32999Y37571D01*
D02*
G37*
X33002Y37646D01*
X32979Y37568D01*
X32999Y37571D01*
G36*
X33002Y37646D02*
X33002Y37646D01*
X32999Y37571D01*
X33024Y37567D01*
X33002Y37646D01*
D02*
G37*
X32999Y37571D01*
X33024Y37567D01*
X33002Y37646D01*
G36*
X33024Y37567D02*
X33024Y37567D01*
X33049Y37641D01*
X33002Y37646D01*
X33024Y37567D01*
D02*
G37*
X33049Y37641D01*
X33002Y37646D01*
X33024Y37567D01*
G36*
X33049Y37641D02*
X33049Y37641D01*
X33024Y37567D01*
X33045Y37557D01*
X33049Y37641D01*
D02*
G37*
X33024Y37567D01*
X33045Y37557D01*
X33049Y37641D01*
G36*
X33045Y37557D02*
X33045Y37557D01*
X33062Y37540D01*
X33049Y37641D01*
X33045Y37557D01*
D02*
G37*
X33062Y37540D01*
X33049Y37641D01*
X33045Y37557D01*
G36*
X32939Y37545D02*
X32939Y37545D01*
X32953Y37641D01*
X32924Y37527D01*
X32939Y37545D01*
D02*
G37*
X32953Y37641D01*
X32924Y37527D01*
X32939Y37545D01*
G36*
X32953Y37641D02*
X32953Y37641D01*
X32939Y37545D01*
X32958Y37559D01*
X32953Y37641D01*
D02*
G37*
X32939Y37545D01*
X32958Y37559D01*
X32953Y37641D01*
G36*
X32958Y37559D02*
X32958Y37559D01*
X33002Y37646D01*
X32953Y37641D01*
X32958Y37559D01*
D02*
G37*
X33002Y37646D01*
X32953Y37641D01*
X32958Y37559D01*
G36*
X33002Y37646D02*
X33002Y37646D01*
X32958Y37559D01*
X32979Y37568D01*
X33002Y37646D01*
D02*
G37*
X32958Y37559D01*
X32979Y37568D01*
X33002Y37646D01*
G36*
X32910Y37626D02*
X32910Y37626D01*
X32872Y37602D01*
X32890Y37379D01*
X32910Y37626D01*
D02*
G37*
X32872Y37602D01*
X32890Y37379D01*
X32910Y37626D01*
G36*
X32910Y37626D01*
X32890Y37379D01*
X32901Y37469D01*
X32910Y37626D01*
D02*
G37*
X32890Y37379D01*
X32901Y37469D01*
X32910Y37626D01*
G36*
X32910Y37626D01*
X32901Y37469D01*
X32924Y37527D01*
X32910Y37626D01*
D02*
G37*
X32901Y37469D01*
X32924Y37527D01*
X32910Y37626D01*
G36*
X32910Y37626D01*
X32924Y37527D01*
X32953Y37641D01*
X32910Y37626D01*
D02*
G37*
X32924Y37527D01*
X32953Y37641D01*
X32910Y37626D01*
G36*
X32872Y37602D02*
X32872Y37602D01*
X32880Y37092D01*
X32890Y37379D01*
X32872Y37602D01*
D02*
G37*
X32880Y37092D01*
X32890Y37379D01*
X32872Y37602D01*
G36*
X32880Y37092D02*
X32880Y37092D01*
X32872Y37602D01*
X32841Y37568D01*
X32880Y37092D01*
D02*
G37*
X32872Y37602D01*
X32841Y37568D01*
X32880Y37092D01*
G36*
X32841Y37568D02*
X32841Y37568D01*
X32838Y37131D01*
X32880Y37092D01*
X32841Y37568D01*
D02*
G37*
X32838Y37131D01*
X32880Y37092D01*
X32841Y37568D01*
G36*
X32838Y37131D02*
X32838Y37131D01*
X32841Y37568D01*
X32816Y37525D01*
X32838Y37131D01*
D02*
G37*
X32841Y37568D01*
X32816Y37525D01*
X32838Y37131D01*
G36*
X32816Y37525D02*
X32816Y37525D01*
X32807Y37186D01*
X32838Y37131D01*
X32816Y37525D01*
D02*
G37*
X32807Y37186D01*
X32838Y37131D01*
X32816Y37525D01*
G36*
X32807Y37186D02*
X32807Y37186D01*
X32816Y37525D01*
X32797Y37472D01*
X32807Y37186D01*
D02*
G37*
X32816Y37525D01*
X32797Y37472D01*
X32807Y37186D01*
G36*
X32797Y37472D02*
X32797Y37472D01*
X32788Y37256D01*
X32807Y37186D01*
X32797Y37472D01*
D02*
G37*
X32788Y37256D01*
X32807Y37186D01*
X32797Y37472D01*
G36*
X32788Y37256D02*
X32788Y37256D01*
X32797Y37472D01*
X32786Y37410D01*
X32788Y37256D01*
D02*
G37*
X32797Y37472D01*
X32786Y37410D01*
X32788Y37256D01*
G36*
X32786Y37410D02*
X32786Y37410D01*
X32782Y37340D01*
X32788Y37256D01*
X32786Y37410D01*
D02*
G37*
X32782Y37340D01*
X32788Y37256D01*
X32786Y37410D01*
G36*
X33187Y37292D02*
X33187Y37292D01*
X33184Y37202D01*
X33191Y37255D01*
X33187Y37292D01*
D02*
G37*
X33184Y37202D01*
X33191Y37255D01*
X33187Y37292D01*
G36*
X33184Y37202D02*
X33184Y37202D01*
X33187Y37292D01*
X33178Y37328D01*
X33184Y37202D01*
D02*
G37*
X33187Y37292D01*
X33178Y37328D01*
X33184Y37202D01*
G36*
X33178Y37328D02*
X33178Y37328D01*
X33166Y37155D01*
X33184Y37202D01*
X33178Y37328D01*
D02*
G37*
X33166Y37155D01*
X33184Y37202D01*
X33178Y37328D01*
G36*
X33166Y37155D02*
X33166Y37155D01*
X33178Y37328D01*
X33162Y37360D01*
X33166Y37155D01*
D02*
G37*
X33178Y37328D01*
X33162Y37360D01*
X33166Y37155D01*
G36*
X33162Y37360D02*
X33162Y37360D01*
X33141Y37388D01*
X33166Y37155D01*
X33162Y37360D01*
D02*
G37*
X33141Y37388D01*
X33166Y37155D01*
X33162Y37360D01*
G36*
X33141Y37388D02*
X33141Y37388D01*
X33135Y37115D01*
X33166Y37155D01*
X33141Y37388D01*
D02*
G37*
X33135Y37115D01*
X33166Y37155D01*
X33141Y37388D01*
G36*
X33135Y37115D02*
X33135Y37115D01*
X33141Y37388D01*
X33116Y37411D01*
X33135Y37115D01*
D02*
G37*
X33141Y37388D01*
X33116Y37411D01*
X33135Y37115D01*
G36*
X33116Y37411D02*
X33116Y37411D01*
X33095Y37085D01*
X33135Y37115D01*
X33116Y37411D01*
D02*
G37*
X33095Y37085D01*
X33135Y37115D01*
X33116Y37411D01*
G36*
X33095Y37085D02*
X33095Y37085D01*
X33116Y37411D01*
X33086Y37253D01*
X33095Y37085D01*
D02*
G37*
X33116Y37411D01*
X33086Y37253D01*
X33095Y37085D01*
G36*
X33086Y37253D02*
X33086Y37253D01*
X33080Y37206D01*
X33095Y37085D01*
X33086Y37253D01*
D02*
G37*
X33080Y37206D01*
X33095Y37085D01*
X33086Y37253D01*
G36*
X33086Y37427D02*
X33086Y37427D01*
X33053Y37438D01*
X33060Y37337D01*
X33086Y37427D01*
D02*
G37*
X33053Y37438D01*
X33060Y37337D01*
X33086Y37427D01*
G36*
X33086Y37427D01*
X33060Y37337D01*
X33074Y37314D01*
X33086Y37427D01*
D02*
G37*
X33060Y37337D01*
X33074Y37314D01*
X33086Y37427D01*
G36*
X33086Y37427D01*
X33074Y37314D01*
X33083Y37286D01*
X33086Y37427D01*
D02*
G37*
X33074Y37314D01*
X33083Y37286D01*
X33086Y37427D01*
G36*
X33086Y37427D01*
X33083Y37286D01*
X33086Y37253D01*
X33086Y37427D01*
D02*
G37*
X33083Y37286D01*
X33086Y37253D01*
X33086Y37427D01*
G36*
X33086Y37427D01*
X33086Y37253D01*
X33116Y37411D01*
X33086Y37427D01*
D02*
G37*
X33086Y37253D01*
X33116Y37411D01*
X33086Y37427D01*
G36*
X32971Y37364D02*
X32971Y37364D01*
X32981Y37437D01*
X32948Y37354D01*
X32971Y37364D01*
D02*
G37*
X32981Y37437D01*
X32948Y37354D01*
X32971Y37364D01*
G36*
X32981Y37437D02*
X32981Y37437D01*
X32971Y37364D01*
X32995Y37367D01*
X32981Y37437D01*
D02*
G37*
X32971Y37364D01*
X32995Y37367D01*
X32981Y37437D01*
G36*
X32995Y37367D02*
X32995Y37367D01*
X33018Y37441D01*
X32981Y37437D01*
X32995Y37367D01*
D02*
G37*
X33018Y37441D01*
X32981Y37437D01*
X32995Y37367D01*
G36*
X33018Y37441D02*
X33018Y37441D01*
X32995Y37367D01*
X33019Y37364D01*
X33018Y37441D01*
D02*
G37*
X32995Y37367D01*
X33019Y37364D01*
X33018Y37441D01*
G36*
X33019Y37364D02*
X33019Y37364D01*
X33053Y37438D01*
X33018Y37441D01*
X33019Y37364D01*
D02*
G37*
X33053Y37438D01*
X33018Y37441D01*
X33019Y37364D01*
G36*
X33053Y37438D02*
X33053Y37438D01*
X33019Y37364D01*
X33041Y37354D01*
X33053Y37438D01*
D02*
G37*
X33019Y37364D01*
X33041Y37354D01*
X33053Y37438D01*
G36*
X33041Y37354D02*
X33041Y37354D01*
X33060Y37337D01*
X33053Y37438D01*
X33041Y37354D01*
D02*
G37*
X33060Y37337D01*
X33053Y37438D01*
X33041Y37354D01*
G36*
X32913Y37317D02*
X32913Y37317D01*
X32918Y37407D01*
X32903Y37290D01*
X32913Y37317D01*
D02*
G37*
X32918Y37407D01*
X32903Y37290D01*
X32913Y37317D01*
G36*
X32918Y37407D02*
X32918Y37407D01*
X32913Y37317D01*
X32928Y37338D01*
X32918Y37407D01*
D02*
G37*
X32913Y37317D01*
X32928Y37338D01*
X32918Y37407D01*
G36*
X32928Y37338D02*
X32928Y37338D01*
X32948Y37426D01*
X32918Y37407D01*
X32928Y37338D01*
D02*
G37*
X32948Y37426D01*
X32918Y37407D01*
X32928Y37338D01*
G36*
X32948Y37426D02*
X32948Y37426D01*
X32928Y37338D01*
X32948Y37354D01*
X32948Y37426D01*
D02*
G37*
X32928Y37338D01*
X32948Y37354D01*
X32948Y37426D01*
G36*
X32948Y37354D02*
X32948Y37354D01*
X32981Y37437D01*
X32948Y37426D01*
X32948Y37354D01*
D02*
G37*
X32981Y37437D01*
X32948Y37426D01*
X32948Y37354D01*
G36*
X32927Y37172D02*
X32927Y37172D01*
X32932Y37068D01*
X32958Y37145D01*
X32927Y37172D01*
D02*
G37*
X32932Y37068D01*
X32958Y37145D01*
X32927Y37172D01*
G36*
X32932Y37068D02*
X32932Y37068D01*
X32927Y37172D01*
X32906Y37211D01*
X32932Y37068D01*
D02*
G37*
X32927Y37172D01*
X32906Y37211D01*
X32932Y37068D01*
G36*
X32906Y37211D02*
X32906Y37211D01*
X32880Y37092D01*
X32932Y37068D01*
X32906Y37211D01*
D02*
G37*
X32880Y37092D01*
X32932Y37068D01*
X32906Y37211D01*
G36*
X32880Y37092D02*
X32880Y37092D01*
X32906Y37211D01*
X32899Y37260D01*
X32880Y37092D01*
D02*
G37*
X32906Y37211D01*
X32899Y37260D01*
X32880Y37092D01*
G36*
X32899Y37260D02*
X32899Y37260D01*
X32890Y37379D01*
X32880Y37092D01*
X32899Y37260D01*
D02*
G37*
X32890Y37379D01*
X32880Y37092D01*
X32899Y37260D01*
G36*
X32890Y37379D02*
X32890Y37379D01*
X32899Y37260D01*
X32903Y37290D01*
X32890Y37379D01*
D02*
G37*
X32899Y37260D01*
X32903Y37290D01*
X32890Y37379D01*
G36*
X32903Y37290D02*
X32903Y37290D01*
X32918Y37407D01*
X32890Y37379D01*
X32903Y37290D01*
D02*
G37*
X32918Y37407D01*
X32890Y37379D01*
X32903Y37290D01*
G36*
X33061Y37169D02*
X33061Y37169D01*
X33031Y37145D01*
X33047Y37066D01*
X33061Y37169D01*
D02*
G37*
X33031Y37145D01*
X33047Y37066D01*
X33061Y37169D01*
G36*
X33061Y37169D01*
X33047Y37066D01*
X33095Y37085D01*
X33061Y37169D01*
D02*
G37*
X33047Y37066D01*
X33095Y37085D01*
X33061Y37169D01*
G36*
X33061Y37169D01*
X33095Y37085D01*
X33080Y37206D01*
X33061Y37169D01*
D02*
G37*
X33095Y37085D01*
X33080Y37206D01*
X33061Y37169D01*
G36*
X32995Y37137D02*
X32995Y37137D01*
X32958Y37145D01*
X32993Y37060D01*
X32995Y37137D01*
D02*
G37*
X32958Y37145D01*
X32993Y37060D01*
X32995Y37137D01*
G36*
X32995Y37137D01*
X32993Y37060D01*
X33047Y37066D01*
X32995Y37137D01*
D02*
G37*
X32993Y37060D01*
X33047Y37066D01*
X32995Y37137D01*
G36*
X32995Y37137D01*
X33047Y37066D01*
X33031Y37145D01*
X32995Y37137D01*
D02*
G37*
X33047Y37066D01*
X33031Y37145D01*
X32995Y37137D01*
G36*
X32958Y37145D02*
X32958Y37145D01*
X32932Y37068D01*
X32993Y37060D01*
X32958Y37145D01*
D02*
G37*
X32932Y37068D01*
X32993Y37060D01*
X32958Y37145D01*
G36*
X33651Y37429D02*
X33651Y37429D01*
X33651Y37295D01*
X33655Y37365D01*
X33651Y37429D01*
D02*
G37*
X33651Y37295D01*
X33655Y37365D01*
X33651Y37429D01*
G36*
X33651Y37295D02*
X33651Y37295D01*
X33651Y37429D01*
X33640Y37486D01*
X33651Y37295D01*
D02*
G37*
X33651Y37429D01*
X33640Y37486D01*
X33651Y37295D01*
G36*
X33640Y37486D02*
X33640Y37486D01*
X33640Y37233D01*
X33651Y37295D01*
X33640Y37486D01*
D02*
G37*
X33640Y37233D01*
X33651Y37295D01*
X33640Y37486D01*
G36*
X33640Y37233D02*
X33640Y37233D01*
X33640Y37486D01*
X33623Y37534D01*
X33640Y37233D01*
D02*
G37*
X33640Y37486D01*
X33623Y37534D01*
X33640Y37233D01*
G36*
X33623Y37534D02*
X33623Y37534D01*
X33621Y37181D01*
X33640Y37233D01*
X33623Y37534D01*
D02*
G37*
X33621Y37181D01*
X33640Y37233D01*
X33623Y37534D01*
G36*
X33621Y37181D02*
X33621Y37181D01*
X33623Y37534D01*
X33599Y37574D01*
X33621Y37181D01*
D02*
G37*
X33623Y37534D01*
X33599Y37574D01*
X33621Y37181D01*
G36*
X33599Y37574D02*
X33599Y37574D01*
X33595Y37137D01*
X33621Y37181D01*
X33599Y37574D01*
D02*
G37*
X33595Y37137D01*
X33621Y37181D01*
X33599Y37574D01*
G36*
X33595Y37137D02*
X33595Y37137D01*
X33599Y37574D01*
X33569Y37605D01*
X33595Y37137D01*
D02*
G37*
X33599Y37574D01*
X33569Y37605D01*
X33595Y37137D01*
G36*
X33569Y37605D02*
X33569Y37605D01*
X33563Y37103D01*
X33595Y37137D01*
X33569Y37605D01*
D02*
G37*
X33563Y37103D01*
X33595Y37137D01*
X33569Y37605D01*
G36*
X33563Y37103D02*
X33563Y37103D01*
X33569Y37605D01*
X33546Y37326D01*
X33563Y37103D01*
D02*
G37*
X33569Y37605D01*
X33546Y37326D01*
X33563Y37103D01*
G36*
X33546Y37326D02*
X33546Y37326D01*
X33535Y37236D01*
X33563Y37103D01*
X33546Y37326D01*
D02*
G37*
X33535Y37236D01*
X33563Y37103D01*
X33546Y37326D01*
G36*
X33530Y37495D02*
X33530Y37495D01*
X33533Y37627D01*
X33521Y37516D01*
X33530Y37495D01*
D02*
G37*
X33533Y37627D01*
X33521Y37516D01*
X33530Y37495D01*
G36*
X33533Y37627D02*
X33533Y37627D01*
X33530Y37495D01*
X33535Y37471D01*
X33533Y37627D01*
D02*
G37*
X33530Y37495D01*
X33535Y37471D01*
X33533Y37627D01*
G36*
X33535Y37471D02*
X33535Y37471D01*
X33569Y37605D01*
X33533Y37627D01*
X33535Y37471D01*
D02*
G37*
X33569Y37605D01*
X33533Y37627D01*
X33535Y37471D01*
G36*
X33569Y37605D02*
X33569Y37605D01*
X33535Y37471D01*
X33537Y37446D01*
X33569Y37605D01*
D02*
G37*
X33535Y37471D01*
X33537Y37446D01*
X33569Y37605D01*
G36*
X33537Y37446D02*
X33537Y37446D01*
X33546Y37326D01*
X33569Y37605D01*
X33537Y37446D01*
D02*
G37*
X33546Y37326D01*
X33569Y37605D01*
X33537Y37446D01*
G36*
X33546Y37326D02*
X33546Y37326D01*
X33537Y37446D01*
X33534Y37415D01*
X33546Y37326D01*
D02*
G37*
X33537Y37446D01*
X33534Y37415D01*
X33546Y37326D01*
G36*
X33534Y37415D02*
X33534Y37415D01*
X33523Y37389D01*
X33546Y37326D01*
X33534Y37415D01*
D02*
G37*
X33523Y37389D01*
X33546Y37326D01*
X33534Y37415D01*
G36*
X33478Y37559D02*
X33478Y37559D01*
X33490Y37641D01*
X33459Y37566D01*
X33478Y37559D01*
D02*
G37*
X33490Y37641D01*
X33459Y37566D01*
X33478Y37559D01*
G36*
X33490Y37641D02*
X33490Y37641D01*
X33478Y37559D01*
X33495Y37548D01*
X33490Y37641D01*
D02*
G37*
X33478Y37559D01*
X33495Y37548D01*
X33490Y37641D01*
G36*
X33495Y37548D02*
X33495Y37548D01*
X33533Y37627D01*
X33490Y37641D01*
X33495Y37548D01*
D02*
G37*
X33533Y37627D01*
X33490Y37641D01*
X33495Y37548D01*
G36*
X33533Y37627D02*
X33533Y37627D01*
X33495Y37548D01*
X33510Y37533D01*
X33533Y37627D01*
D02*
G37*
X33495Y37548D01*
X33510Y37533D01*
X33533Y37627D01*
G36*
X33510Y37533D02*
X33510Y37533D01*
X33521Y37516D01*
X33533Y37627D01*
X33510Y37533D01*
D02*
G37*
X33521Y37516D01*
X33533Y37627D01*
X33510Y37533D01*
G36*
X33443Y37646D02*
X33443Y37646D01*
X33401Y37642D01*
X33404Y37561D01*
X33443Y37646D01*
D02*
G37*
X33401Y37642D01*
X33404Y37561D01*
X33443Y37646D01*
G36*
X33443Y37646D01*
X33404Y37561D01*
X33439Y37569D01*
X33443Y37646D01*
D02*
G37*
X33404Y37561D01*
X33439Y37569D01*
X33443Y37646D01*
G36*
X33443Y37646D01*
X33439Y37569D01*
X33459Y37566D01*
X33443Y37646D01*
D02*
G37*
X33439Y37569D01*
X33459Y37566D01*
X33443Y37646D01*
G36*
X33443Y37646D01*
X33459Y37566D01*
X33490Y37641D01*
X33443Y37646D01*
D02*
G37*
X33459Y37566D01*
X33490Y37641D01*
X33443Y37646D01*
G36*
X33357Y37500D02*
X33357Y37500D01*
X33363Y37631D01*
X33350Y37453D01*
X33357Y37500D01*
D02*
G37*
X33363Y37631D01*
X33350Y37453D01*
X33357Y37500D01*
G36*
X33363Y37631D02*
X33363Y37631D01*
X33357Y37500D01*
X33376Y37537D01*
X33363Y37631D01*
D02*
G37*
X33357Y37500D01*
X33376Y37537D01*
X33363Y37631D01*
G36*
X33376Y37537D02*
X33376Y37537D01*
X33401Y37642D01*
X33363Y37631D01*
X33376Y37537D01*
D02*
G37*
X33401Y37642D01*
X33363Y37631D01*
X33376Y37537D01*
G36*
X33401Y37642D02*
X33401Y37642D01*
X33376Y37537D01*
X33404Y37561D01*
X33401Y37642D01*
D02*
G37*
X33376Y37537D01*
X33404Y37561D01*
X33401Y37642D01*
G36*
X33376Y37370D02*
X33376Y37370D01*
X33383Y37268D01*
X33405Y37347D01*
X33376Y37370D01*
D02*
G37*
X33383Y37268D01*
X33405Y37347D01*
X33376Y37370D01*
G36*
X33383Y37268D02*
X33383Y37268D01*
X33376Y37370D01*
X33357Y37406D01*
X33383Y37268D01*
D02*
G37*
X33376Y37370D01*
X33357Y37406D01*
X33383Y37268D01*
G36*
X33357Y37406D02*
X33357Y37406D01*
X33349Y37279D01*
X33383Y37268D01*
X33357Y37406D01*
D02*
G37*
X33349Y37279D01*
X33383Y37268D01*
X33357Y37406D01*
G36*
X33349Y37279D02*
X33349Y37279D01*
X33357Y37406D01*
X33350Y37453D01*
X33349Y37279D01*
D02*
G37*
X33357Y37406D01*
X33350Y37453D01*
X33349Y37279D01*
G36*
X33350Y37453D02*
X33350Y37453D01*
X33329Y37613D01*
X33349Y37279D01*
X33350Y37453D01*
D02*
G37*
X33329Y37613D01*
X33349Y37279D01*
X33350Y37453D01*
G36*
X33329Y37613D02*
X33329Y37613D01*
X33350Y37453D01*
X33363Y37631D01*
X33329Y37613D01*
D02*
G37*
X33350Y37453D01*
X33363Y37631D01*
X33329Y37613D01*
G36*
X33249Y37414D02*
X33249Y37414D01*
X33250Y37489D01*
X33246Y37450D01*
X33249Y37414D01*
D02*
G37*
X33250Y37489D01*
X33246Y37450D01*
X33249Y37414D01*
G36*
X33250Y37489D02*
X33250Y37489D01*
X33249Y37414D01*
X33259Y37379D01*
X33250Y37489D01*
D02*
G37*
X33249Y37414D01*
X33259Y37379D01*
X33250Y37489D01*
G36*
X33259Y37379D02*
X33259Y37379D01*
X33260Y37527D01*
X33250Y37489D01*
X33259Y37379D01*
D02*
G37*
X33260Y37527D01*
X33250Y37489D01*
X33259Y37379D01*
G36*
X33260Y37527D02*
X33260Y37527D01*
X33259Y37379D01*
X33274Y37347D01*
X33260Y37527D01*
D02*
G37*
X33259Y37379D01*
X33274Y37347D01*
X33260Y37527D01*
G36*
X33274Y37347D02*
X33274Y37347D01*
X33277Y37560D01*
X33260Y37527D01*
X33274Y37347D01*
D02*
G37*
X33277Y37560D01*
X33260Y37527D01*
X33274Y37347D01*
G36*
X33277Y37560D02*
X33277Y37560D01*
X33274Y37347D01*
X33294Y37319D01*
X33277Y37560D01*
D02*
G37*
X33274Y37347D01*
X33294Y37319D01*
X33277Y37560D01*
G36*
X33294Y37319D02*
X33294Y37319D01*
X33300Y37589D01*
X33277Y37560D01*
X33294Y37319D01*
D02*
G37*
X33300Y37589D01*
X33277Y37560D01*
X33294Y37319D01*
G36*
X33300Y37589D02*
X33300Y37589D01*
X33294Y37319D01*
X33320Y37296D01*
X33300Y37589D01*
D02*
G37*
X33294Y37319D01*
X33320Y37296D01*
X33300Y37589D01*
G36*
X33320Y37296D02*
X33320Y37296D01*
X33329Y37613D01*
X33300Y37589D01*
X33320Y37296D01*
D02*
G37*
X33329Y37613D01*
X33300Y37589D01*
X33320Y37296D01*
G36*
X33329Y37613D02*
X33329Y37613D01*
X33320Y37296D01*
X33349Y37279D01*
X33329Y37613D01*
D02*
G37*
X33320Y37296D01*
X33349Y37279D01*
X33329Y37613D01*
G36*
X33525Y37079D02*
X33525Y37079D01*
X33563Y37103D01*
X33535Y37236D01*
X33525Y37079D01*
D02*
G37*
X33563Y37103D01*
X33535Y37236D01*
X33525Y37079D01*
G36*
X33525Y37079D01*
X33535Y37236D01*
X33513Y37178D01*
X33525Y37079D01*
D02*
G37*
X33535Y37236D01*
X33513Y37178D01*
X33525Y37079D01*
G36*
X33525Y37079D01*
X33513Y37178D01*
X33497Y37160D01*
X33525Y37079D01*
D02*
G37*
X33513Y37178D01*
X33497Y37160D01*
X33525Y37079D01*
G36*
X33525Y37079D01*
X33497Y37160D01*
X33482Y37065D01*
X33525Y37079D01*
D02*
G37*
X33497Y37160D01*
X33482Y37065D01*
X33525Y37079D01*
G36*
X33482Y37065D02*
X33482Y37065D01*
X33497Y37160D01*
X33479Y37146D01*
X33482Y37065D01*
D02*
G37*
X33497Y37160D01*
X33479Y37146D01*
X33482Y37065D01*
G36*
X33482Y37065D01*
X33479Y37146D01*
X33458Y37138D01*
X33482Y37065D01*
D02*
G37*
X33479Y37146D01*
X33458Y37138D01*
X33482Y37065D01*
G36*
X33482Y37065D01*
X33458Y37138D01*
X33436Y37135D01*
X33482Y37065D01*
D02*
G37*
X33458Y37138D01*
X33436Y37135D01*
X33482Y37065D01*
G36*
X33482Y37065D01*
X33436Y37135D01*
X33433Y37060D01*
X33482Y37065D01*
D02*
G37*
X33436Y37135D01*
X33433Y37060D01*
X33482Y37065D01*
G36*
X33413Y37139D02*
X33413Y37139D01*
X33433Y37060D01*
X33436Y37135D01*
X33413Y37139D01*
D02*
G37*
X33433Y37060D01*
X33436Y37135D01*
X33413Y37139D01*
G36*
X33433Y37060D02*
X33433Y37060D01*
X33413Y37139D01*
X33391Y37149D01*
X33433Y37060D01*
D02*
G37*
X33413Y37139D01*
X33391Y37149D01*
X33433Y37060D01*
G36*
X33391Y37149D02*
X33391Y37149D01*
X33386Y37065D01*
X33433Y37060D01*
X33391Y37149D01*
D02*
G37*
X33386Y37065D01*
X33433Y37060D01*
X33391Y37149D01*
G36*
X33386Y37065D02*
X33386Y37065D01*
X33391Y37149D01*
X33374Y37166D01*
X33386Y37065D01*
D02*
G37*
X33391Y37149D01*
X33374Y37166D01*
X33386Y37065D01*
G36*
X33374Y37166D02*
X33374Y37166D01*
X33363Y37187D01*
X33386Y37065D01*
X33374Y37166D01*
D02*
G37*
X33363Y37187D01*
X33386Y37065D01*
X33374Y37166D01*
G36*
X33354Y37204D02*
X33354Y37204D01*
X33342Y37216D01*
X33345Y37080D01*
X33354Y37204D01*
D02*
G37*
X33342Y37216D01*
X33345Y37080D01*
X33354Y37204D01*
G36*
X33354Y37204D01*
X33345Y37080D01*
X33386Y37065D01*
X33354Y37204D01*
D02*
G37*
X33345Y37080D01*
X33386Y37065D01*
X33354Y37204D01*
G36*
X33354Y37204D01*
X33386Y37065D01*
X33363Y37187D01*
X33354Y37204D01*
D02*
G37*
X33386Y37065D01*
X33363Y37187D01*
X33354Y37204D01*
G36*
X33328Y37223D02*
X33328Y37223D01*
X33311Y37225D01*
X33312Y37101D01*
X33328Y37223D01*
D02*
G37*
X33311Y37225D01*
X33312Y37101D01*
X33328Y37223D01*
G36*
X33328Y37223D01*
X33312Y37101D01*
X33345Y37080D01*
X33328Y37223D01*
D02*
G37*
X33312Y37101D01*
X33345Y37080D01*
X33328Y37223D01*
G36*
X33328Y37223D01*
X33345Y37080D01*
X33342Y37216D01*
X33328Y37223D01*
D02*
G37*
X33345Y37080D01*
X33342Y37216D01*
X33328Y37223D01*
G36*
X33273Y37156D02*
X33273Y37156D01*
X33281Y37212D01*
X33271Y37199D01*
X33273Y37156D01*
D02*
G37*
X33281Y37212D01*
X33271Y37199D01*
X33273Y37156D01*
G36*
X33281Y37212D02*
X33281Y37212D01*
X33273Y37156D01*
X33288Y37128D01*
X33281Y37212D01*
D02*
G37*
X33273Y37156D01*
X33288Y37128D01*
X33281Y37212D01*
G36*
X33288Y37128D02*
X33288Y37128D01*
X33294Y37222D01*
X33281Y37212D01*
X33288Y37128D01*
D02*
G37*
X33294Y37222D01*
X33281Y37212D01*
X33288Y37128D01*
G36*
X33294Y37222D02*
X33294Y37222D01*
X33288Y37128D01*
X33312Y37101D01*
X33294Y37222D01*
D02*
G37*
X33288Y37128D01*
X33312Y37101D01*
X33294Y37222D01*
G36*
X33312Y37101D02*
X33312Y37101D01*
X33311Y37225D01*
X33294Y37222D01*
X33312Y37101D01*
D02*
G37*
X33311Y37225D01*
X33294Y37222D01*
X33312Y37101D01*
G36*
X33523Y37389D02*
X33523Y37389D01*
X33519Y37299D01*
X33546Y37326D01*
X33523Y37389D01*
D02*
G37*
X33519Y37299D01*
X33546Y37326D01*
X33523Y37389D01*
G36*
X33519Y37299D02*
X33519Y37299D01*
X33523Y37389D01*
X33507Y37367D01*
X33519Y37299D01*
D02*
G37*
X33523Y37389D01*
X33507Y37367D01*
X33519Y37299D01*
G36*
X33507Y37367D02*
X33507Y37367D01*
X33489Y37280D01*
X33519Y37299D01*
X33507Y37367D01*
D02*
G37*
X33489Y37280D01*
X33519Y37299D01*
X33507Y37367D01*
G36*
X33489Y37280D02*
X33489Y37280D01*
X33507Y37367D01*
X33487Y37352D01*
X33489Y37280D01*
D02*
G37*
X33507Y37367D01*
X33487Y37352D01*
X33489Y37280D01*
G36*
X33487Y37352D02*
X33487Y37352D01*
X33465Y37342D01*
X33489Y37280D01*
X33487Y37352D01*
D02*
G37*
X33465Y37342D01*
X33489Y37280D01*
X33487Y37352D01*
G36*
X33465Y37342D02*
X33465Y37342D01*
X33455Y37269D01*
X33489Y37280D01*
X33465Y37342D01*
D02*
G37*
X33455Y37269D01*
X33489Y37280D01*
X33465Y37342D01*
G36*
X33455Y37269D02*
X33455Y37269D01*
X33465Y37342D01*
X33441Y37339D01*
X33455Y37269D01*
D02*
G37*
X33465Y37342D01*
X33441Y37339D01*
X33455Y37269D01*
G36*
X33441Y37339D02*
X33441Y37339D01*
X33418Y37265D01*
X33455Y37269D01*
X33441Y37339D01*
D02*
G37*
X33418Y37265D01*
X33455Y37269D01*
X33441Y37339D01*
G36*
X33418Y37265D02*
X33418Y37265D01*
X33441Y37339D01*
X33405Y37347D01*
X33418Y37265D01*
D02*
G37*
X33441Y37339D01*
X33405Y37347D01*
X33418Y37265D01*
G36*
X33405Y37347D02*
X33405Y37347D01*
X33383Y37268D01*
X33418Y37265D01*
X33405Y37347D01*
D02*
G37*
X33383Y37268D01*
X33418Y37265D01*
X33405Y37347D01*
G36*
X33273Y37156D02*
X33273Y37156D01*
X33271Y37199D01*
X33268Y37183D01*
X33273Y37156D01*
D02*
G37*
X33271Y37199D01*
X33268Y37183D01*
X33273Y37156D01*
G36*
X34125Y37581D02*
X34125Y37581D01*
X34129Y37100D01*
X34129Y37612D01*
X34125Y37581D01*
D02*
G37*
X34129Y37100D01*
X34129Y37612D01*
X34125Y37581D01*
G36*
X34129Y37100D02*
X34129Y37100D01*
X34125Y37581D01*
X34125Y37417D01*
X34129Y37100D01*
D02*
G37*
X34125Y37581D01*
X34125Y37417D01*
X34129Y37100D01*
G36*
X34125Y37417D02*
X34125Y37417D01*
X34125Y37323D01*
X34129Y37100D01*
X34125Y37417D01*
D02*
G37*
X34125Y37323D01*
X34129Y37100D01*
X34125Y37417D01*
G36*
X34125Y37323D02*
X34125Y37323D01*
X34125Y37417D01*
X33875Y37417D01*
X34125Y37323D01*
D02*
G37*
X34125Y37417D01*
X33875Y37417D01*
X34125Y37323D01*
G36*
X33875Y37417D02*
X33875Y37417D01*
X33875Y37323D01*
X34125Y37323D01*
X33875Y37417D01*
D02*
G37*
X33875Y37323D01*
X34125Y37323D01*
X33875Y37417D01*
G36*
X33875Y37323D02*
X33875Y37323D01*
X33875Y37581D01*
X33875Y37323D01*
D02*
G37*
X33875Y37581D01*
X33875Y37323D01*
G36*
X33875Y37581D02*
X33875Y37581D01*
X33875Y37130D01*
X33875Y37323D01*
X33875Y37581D01*
D02*
G37*
X33875Y37130D01*
X33875Y37323D01*
X33875Y37581D01*
G36*
X33875Y37130D02*
X33875Y37130D01*
X33875Y37581D01*
X33871Y37612D01*
X33875Y37130D01*
D02*
G37*
X33875Y37581D01*
X33871Y37612D01*
X33875Y37130D01*
G36*
X33871Y37612D02*
X33871Y37612D01*
X33871Y37099D01*
X33875Y37130D01*
X33871Y37612D01*
D02*
G37*
X33871Y37099D01*
X33875Y37130D01*
X33871Y37612D01*
G36*
X33871Y37099D02*
X33871Y37099D01*
X33871Y37612D01*
X33859Y37634D01*
X33871Y37099D01*
D02*
G37*
X33871Y37612D01*
X33859Y37634D01*
X33871Y37099D01*
G36*
X33859Y37634D02*
X33859Y37634D01*
X33859Y37077D01*
X33871Y37099D01*
X33859Y37634D01*
D02*
G37*
X33859Y37077D01*
X33871Y37099D01*
X33859Y37634D01*
G36*
X33859Y37077D02*
X33859Y37077D01*
X33859Y37634D01*
X33840Y37647D01*
X33859Y37077D01*
D02*
G37*
X33859Y37634D01*
X33840Y37647D01*
X33859Y37077D01*
G36*
X33840Y37647D02*
X33840Y37647D01*
X33840Y37064D01*
X33859Y37077D01*
X33840Y37647D01*
D02*
G37*
X33840Y37064D01*
X33859Y37077D01*
X33840Y37647D01*
G36*
X33840Y37064D02*
X33840Y37064D01*
X33840Y37647D01*
X33816Y37652D01*
X33840Y37064D01*
D02*
G37*
X33840Y37647D01*
X33816Y37652D01*
X33840Y37064D01*
G36*
X33816Y37652D02*
X33816Y37652D01*
X33816Y37060D01*
X33840Y37064D01*
X33816Y37652D01*
D02*
G37*
X33816Y37060D01*
X33840Y37064D01*
X33816Y37652D01*
G36*
X33816Y37060D02*
X33816Y37060D01*
X33816Y37652D01*
X33793Y37064D01*
X33816Y37060D01*
D02*
G37*
X33816Y37652D01*
X33793Y37064D01*
X33816Y37060D01*
G36*
X33763Y37100D02*
X33763Y37100D01*
X33774Y37634D01*
X33763Y37612D01*
X33763Y37100D01*
D02*
G37*
X33774Y37634D01*
X33763Y37612D01*
X33763Y37100D01*
G36*
X33774Y37634D02*
X33774Y37634D01*
X33763Y37100D01*
X33775Y37077D01*
X33774Y37634D01*
D02*
G37*
X33763Y37100D01*
X33775Y37077D01*
X33774Y37634D01*
G36*
X33775Y37077D02*
X33775Y37077D01*
X33793Y37647D01*
X33774Y37634D01*
X33775Y37077D01*
D02*
G37*
X33793Y37647D01*
X33774Y37634D01*
X33775Y37077D01*
G36*
X33793Y37647D02*
X33793Y37647D01*
X33775Y37077D01*
X33793Y37064D01*
X33793Y37647D01*
D02*
G37*
X33775Y37077D01*
X33793Y37064D01*
X33793Y37647D01*
G36*
X33793Y37064D02*
X33793Y37064D01*
X33816Y37652D01*
X33793Y37647D01*
X33793Y37064D01*
D02*
G37*
X33816Y37652D01*
X33793Y37647D01*
X33793Y37064D01*
G36*
X33759Y37581D02*
X33759Y37581D01*
X33759Y37130D01*
X33763Y37100D01*
X33759Y37581D01*
D02*
G37*
X33759Y37130D01*
X33763Y37100D01*
X33759Y37581D01*
G36*
X33759Y37581D01*
X33763Y37100D01*
X33763Y37612D01*
X33759Y37581D01*
D02*
G37*
X33763Y37100D01*
X33763Y37612D01*
X33759Y37581D01*
G36*
X34141Y37077D02*
X34141Y37077D01*
X34141Y37634D01*
X34129Y37612D01*
X34141Y37077D01*
D02*
G37*
X34141Y37634D01*
X34129Y37612D01*
X34141Y37077D01*
G36*
X34141Y37634D02*
X34141Y37634D01*
X34141Y37077D01*
X34159Y37064D01*
X34141Y37634D01*
D02*
G37*
X34141Y37077D01*
X34159Y37064D01*
X34141Y37634D01*
G36*
X34159Y37064D02*
X34159Y37064D01*
X34160Y37647D01*
X34141Y37634D01*
X34159Y37064D01*
D02*
G37*
X34160Y37647D01*
X34141Y37634D01*
X34159Y37064D01*
G36*
X34160Y37647D02*
X34160Y37647D01*
X34159Y37064D01*
X34183Y37060D01*
X34160Y37647D01*
D02*
G37*
X34159Y37064D01*
X34183Y37060D01*
X34160Y37647D01*
G36*
X34183Y37060D02*
X34183Y37060D01*
X34183Y37652D01*
X34160Y37647D01*
X34183Y37060D01*
D02*
G37*
X34183Y37652D01*
X34160Y37647D01*
X34183Y37060D01*
G36*
X34183Y37652D02*
X34183Y37652D01*
X34183Y37060D01*
X34206Y37064D01*
X34183Y37652D01*
D02*
G37*
X34183Y37060D01*
X34206Y37064D01*
X34183Y37652D01*
G36*
X34206Y37064D02*
X34206Y37064D01*
X34207Y37647D01*
X34183Y37652D01*
X34206Y37064D01*
D02*
G37*
X34207Y37647D01*
X34183Y37652D01*
X34206Y37064D01*
G36*
X34207Y37647D02*
X34207Y37647D01*
X34206Y37064D01*
X34225Y37077D01*
X34207Y37647D01*
D02*
G37*
X34206Y37064D01*
X34225Y37077D01*
X34207Y37647D01*
G36*
X34225Y37077D02*
X34225Y37077D01*
X34225Y37634D01*
X34207Y37647D01*
X34225Y37077D01*
D02*
G37*
X34225Y37634D01*
X34207Y37647D01*
X34225Y37077D01*
G36*
X34225Y37634D02*
X34225Y37634D01*
X34225Y37077D01*
X34237Y37099D01*
X34225Y37634D01*
D02*
G37*
X34225Y37077D01*
X34237Y37099D01*
X34225Y37634D01*
G36*
X34237Y37099D02*
X34237Y37099D01*
X34237Y37612D01*
X34225Y37634D01*
X34237Y37099D01*
D02*
G37*
X34237Y37612D01*
X34225Y37634D01*
X34237Y37099D01*
G36*
X34237Y37612D02*
X34237Y37612D01*
X34237Y37099D01*
X34241Y37130D01*
X34237Y37612D01*
D02*
G37*
X34237Y37099D01*
X34241Y37130D01*
X34237Y37612D01*
G36*
X34241Y37130D02*
X34241Y37130D01*
X34241Y37581D01*
X34237Y37612D01*
X34241Y37130D01*
D02*
G37*
X34241Y37581D01*
X34237Y37612D01*
X34241Y37130D01*
G36*
X34129Y37100D02*
X34129Y37100D01*
X34125Y37323D01*
X34125Y37130D01*
X34129Y37100D01*
D02*
G37*
X34125Y37323D01*
X34125Y37130D01*
X34129Y37100D01*
G36*
X34129Y37612D02*
X34129Y37612D01*
X34129Y37100D01*
X34141Y37077D01*
X34129Y37612D01*
D02*
G37*
X34129Y37100D01*
X34141Y37077D01*
X34129Y37612D01*
G36*
X34823Y37432D02*
X34823Y37432D01*
X34824Y37556D01*
X34804Y37428D01*
X34823Y37432D01*
D02*
G37*
X34824Y37556D01*
X34804Y37428D01*
X34823Y37432D01*
G36*
X34824Y37556D02*
X34824Y37556D01*
X34823Y37432D01*
X34838Y37443D01*
X34824Y37556D01*
D02*
G37*
X34823Y37432D01*
X34838Y37443D01*
X34824Y37556D01*
G36*
X34838Y37443D02*
X34838Y37443D01*
X34845Y37516D01*
X34824Y37556D01*
X34838Y37443D01*
D02*
G37*
X34845Y37516D01*
X34824Y37556D01*
X34838Y37443D01*
G36*
X34845Y37516D02*
X34845Y37516D01*
X34838Y37443D01*
X34849Y37460D01*
X34845Y37516D01*
D02*
G37*
X34838Y37443D01*
X34849Y37460D01*
X34845Y37516D01*
G36*
X34849Y37460D02*
X34849Y37460D01*
X34852Y37478D01*
X34845Y37516D01*
X34849Y37460D01*
D02*
G37*
X34852Y37478D01*
X34845Y37516D01*
X34849Y37460D01*
G36*
X34788Y37593D02*
X34788Y37593D01*
X34740Y37624D01*
X34746Y37475D01*
X34788Y37593D01*
D02*
G37*
X34740Y37624D01*
X34746Y37475D01*
X34788Y37593D01*
G36*
X34788Y37593D01*
X34746Y37475D01*
X34759Y37453D01*
X34788Y37593D01*
D02*
G37*
X34746Y37475D01*
X34759Y37453D01*
X34788Y37593D01*
G36*
X34788Y37593D01*
X34759Y37453D01*
X34771Y37439D01*
X34788Y37593D01*
D02*
G37*
X34759Y37453D01*
X34771Y37439D01*
X34788Y37593D01*
G36*
X34788Y37593D01*
X34771Y37439D01*
X34785Y37431D01*
X34788Y37593D01*
D02*
G37*
X34771Y37439D01*
X34785Y37431D01*
X34788Y37593D01*
G36*
X34788Y37593D01*
X34785Y37431D01*
X34804Y37428D01*
X34788Y37593D01*
D02*
G37*
X34785Y37431D01*
X34804Y37428D01*
X34788Y37593D01*
G36*
X34788Y37593D01*
X34804Y37428D01*
X34824Y37556D01*
X34788Y37593D01*
D02*
G37*
X34804Y37428D01*
X34824Y37556D01*
X34788Y37593D01*
G36*
X34659Y37554D02*
X34659Y37554D01*
X34682Y37645D01*
X34617Y37560D01*
X34659Y37554D01*
D02*
G37*
X34682Y37645D01*
X34617Y37560D01*
X34659Y37554D01*
G36*
X34682Y37645D02*
X34682Y37645D01*
X34659Y37554D01*
X34693Y37539D01*
X34682Y37645D01*
D02*
G37*
X34659Y37554D01*
X34693Y37539D01*
X34682Y37645D01*
G36*
X34693Y37539D02*
X34693Y37539D01*
X34740Y37624D01*
X34682Y37645D01*
X34693Y37539D01*
D02*
G37*
X34740Y37624D01*
X34682Y37645D01*
X34693Y37539D01*
G36*
X34740Y37624D02*
X34740Y37624D01*
X34693Y37539D01*
X34722Y37512D01*
X34740Y37624D01*
D02*
G37*
X34693Y37539D01*
X34722Y37512D01*
X34740Y37624D01*
G36*
X34722Y37512D02*
X34722Y37512D01*
X34746Y37475D01*
X34740Y37624D01*
X34722Y37512D01*
D02*
G37*
X34746Y37475D01*
X34740Y37624D01*
X34722Y37512D01*
G36*
X34503Y37505D02*
X34503Y37505D01*
X34509Y37631D01*
X34485Y37475D01*
X34503Y37505D01*
D02*
G37*
X34509Y37631D01*
X34485Y37475D01*
X34503Y37505D01*
G36*
X34509Y37631D02*
X34509Y37631D01*
X34503Y37505D01*
X34526Y37529D01*
X34509Y37631D01*
D02*
G37*
X34503Y37505D01*
X34526Y37529D01*
X34509Y37631D01*
G36*
X34526Y37529D02*
X34526Y37529D01*
X34561Y37647D01*
X34509Y37631D01*
X34526Y37529D01*
D02*
G37*
X34561Y37647D01*
X34509Y37631D01*
X34526Y37529D01*
G36*
X34561Y37647D02*
X34561Y37647D01*
X34526Y37529D01*
X34583Y37556D01*
X34561Y37647D01*
D02*
G37*
X34526Y37529D01*
X34583Y37556D01*
X34561Y37647D01*
G36*
X34583Y37556D02*
X34583Y37556D01*
X34616Y37652D01*
X34561Y37647D01*
X34583Y37556D01*
D02*
G37*
X34616Y37652D01*
X34561Y37647D01*
X34583Y37556D01*
G36*
X34616Y37652D02*
X34616Y37652D01*
X34583Y37556D01*
X34617Y37560D01*
X34616Y37652D01*
D02*
G37*
X34583Y37556D01*
X34617Y37560D01*
X34616Y37652D01*
G36*
X34617Y37560D02*
X34617Y37560D01*
X34682Y37645D01*
X34616Y37652D01*
X34617Y37560D01*
D02*
G37*
X34682Y37645D01*
X34616Y37652D01*
X34617Y37560D01*
G36*
X34509Y37631D02*
X34509Y37631D01*
X34464Y37398D01*
X34485Y37475D01*
X34509Y37631D01*
D02*
G37*
X34464Y37398D01*
X34485Y37475D01*
X34509Y37631D01*
G36*
X34464Y37398D02*
X34464Y37398D01*
X34509Y37631D01*
X34462Y37607D01*
X34464Y37398D01*
D02*
G37*
X34509Y37631D01*
X34462Y37607D01*
X34464Y37398D01*
G36*
X34462Y37607D02*
X34462Y37607D01*
X34461Y37351D01*
X34464Y37398D01*
X34462Y37607D01*
D02*
G37*
X34461Y37351D01*
X34464Y37398D01*
X34462Y37607D01*
G36*
X34461Y37351D02*
X34461Y37351D01*
X34462Y37607D01*
X34441Y37116D01*
X34461Y37351D01*
D02*
G37*
X34462Y37607D01*
X34441Y37116D01*
X34461Y37351D01*
G36*
X34441Y37116D02*
X34441Y37116D01*
X34470Y37095D01*
X34461Y37351D01*
X34441Y37116D01*
D02*
G37*
X34470Y37095D01*
X34461Y37351D01*
X34441Y37116D01*
G36*
X34421Y37572D02*
X34421Y37572D01*
X34388Y37529D01*
X34393Y37171D01*
X34421Y37572D01*
D02*
G37*
X34388Y37529D01*
X34393Y37171D01*
X34421Y37572D01*
G36*
X34421Y37572D01*
X34393Y37171D01*
X34414Y37143D01*
X34421Y37572D01*
D02*
G37*
X34393Y37171D01*
X34414Y37143D01*
X34421Y37572D01*
G36*
X34421Y37572D01*
X34414Y37143D01*
X34441Y37116D01*
X34421Y37572D01*
D02*
G37*
X34414Y37143D01*
X34441Y37116D01*
X34421Y37572D01*
G36*
X34421Y37572D01*
X34441Y37116D01*
X34462Y37607D01*
X34421Y37572D01*
D02*
G37*
X34441Y37116D01*
X34462Y37607D01*
X34421Y37572D01*
G36*
X34361Y37238D02*
X34361Y37238D01*
X34364Y37479D01*
X34351Y37274D01*
X34361Y37238D01*
D02*
G37*
X34364Y37479D01*
X34351Y37274D01*
X34361Y37238D01*
G36*
X34364Y37479D02*
X34364Y37479D01*
X34361Y37238D01*
X34375Y37203D01*
X34364Y37479D01*
D02*
G37*
X34361Y37238D01*
X34375Y37203D01*
X34364Y37479D01*
G36*
X34375Y37203D02*
X34375Y37203D01*
X34388Y37529D01*
X34364Y37479D01*
X34375Y37203D01*
D02*
G37*
X34388Y37529D01*
X34364Y37479D01*
X34375Y37203D01*
G36*
X34388Y37529D02*
X34388Y37529D01*
X34375Y37203D01*
X34393Y37171D01*
X34388Y37529D01*
D02*
G37*
X34375Y37203D01*
X34393Y37171D01*
X34388Y37529D01*
G36*
X34348Y37420D02*
X34348Y37420D01*
X34343Y37355D01*
X34345Y37314D01*
X34348Y37420D01*
D02*
G37*
X34343Y37355D01*
X34345Y37314D01*
X34348Y37420D01*
G36*
X34348Y37420D01*
X34345Y37314D01*
X34351Y37274D01*
X34348Y37420D01*
D02*
G37*
X34345Y37314D01*
X34351Y37274D01*
X34348Y37420D01*
G36*
X34348Y37420D01*
X34351Y37274D01*
X34364Y37479D01*
X34348Y37420D01*
D02*
G37*
X34351Y37274D01*
X34364Y37479D01*
X34348Y37420D01*
G36*
X34823Y37160D02*
X34823Y37160D01*
X34839Y37286D01*
X34823Y37297D01*
X34823Y37160D01*
D02*
G37*
X34839Y37286D01*
X34823Y37297D01*
X34823Y37160D01*
G36*
X34839Y37286D02*
X34839Y37286D01*
X34823Y37160D01*
X34841Y37191D01*
X34839Y37286D01*
D02*
G37*
X34823Y37160D01*
X34841Y37191D01*
X34839Y37286D01*
G36*
X34841Y37191D02*
X34841Y37191D01*
X34850Y37270D01*
X34839Y37286D01*
X34841Y37191D01*
D02*
G37*
X34850Y37270D01*
X34839Y37286D01*
X34841Y37191D01*
G36*
X34850Y37270D02*
X34850Y37270D01*
X34841Y37191D01*
X34851Y37222D01*
X34850Y37270D01*
D02*
G37*
X34841Y37191D01*
X34851Y37222D01*
X34850Y37270D01*
G36*
X34851Y37222D02*
X34851Y37222D01*
X34854Y37250D01*
X34850Y37270D01*
X34851Y37222D01*
D02*
G37*
X34854Y37250D01*
X34850Y37270D01*
X34851Y37222D01*
G36*
X34804Y37301D02*
X34804Y37301D01*
X34783Y37297D01*
X34798Y37129D01*
X34804Y37301D01*
D02*
G37*
X34783Y37297D01*
X34798Y37129D01*
X34804Y37301D01*
G36*
X34804Y37301D01*
X34798Y37129D01*
X34823Y37160D01*
X34804Y37301D01*
D02*
G37*
X34798Y37129D01*
X34823Y37160D01*
X34804Y37301D01*
G36*
X34804Y37301D01*
X34823Y37160D01*
X34823Y37297D01*
X34804Y37301D01*
D02*
G37*
X34823Y37160D01*
X34823Y37297D01*
X34804Y37301D01*
G36*
X34768Y37286D02*
X34768Y37286D01*
X34758Y37270D01*
X34765Y37101D01*
X34768Y37286D01*
D02*
G37*
X34758Y37270D01*
X34765Y37101D01*
X34768Y37286D01*
G36*
X34768Y37286D01*
X34765Y37101D01*
X34798Y37129D01*
X34768Y37286D01*
D02*
G37*
X34765Y37101D01*
X34798Y37129D01*
X34768Y37286D01*
G36*
X34768Y37286D01*
X34798Y37129D01*
X34783Y37297D01*
X34768Y37286D01*
D02*
G37*
X34798Y37129D01*
X34783Y37297D01*
X34768Y37286D01*
G36*
X34750Y37249D02*
X34750Y37249D01*
X34765Y37101D01*
X34758Y37270D01*
X34750Y37249D01*
D02*
G37*
X34765Y37101D01*
X34758Y37270D01*
X34750Y37249D01*
G36*
X34765Y37101D02*
X34765Y37101D01*
X34750Y37249D01*
X34728Y37207D01*
X34765Y37101D01*
D02*
G37*
X34750Y37249D01*
X34728Y37207D01*
X34765Y37101D01*
G36*
X34728Y37207D02*
X34728Y37207D01*
X34724Y37079D01*
X34765Y37101D01*
X34728Y37207D01*
D02*
G37*
X34724Y37079D01*
X34765Y37101D01*
X34728Y37207D01*
G36*
X34724Y37079D02*
X34724Y37079D01*
X34728Y37207D01*
X34698Y37177D01*
X34724Y37079D01*
D02*
G37*
X34728Y37207D01*
X34698Y37177D01*
X34724Y37079D01*
G36*
X34698Y37177D02*
X34698Y37177D01*
X34676Y37064D01*
X34724Y37079D01*
X34698Y37177D01*
D02*
G37*
X34676Y37064D01*
X34724Y37079D01*
X34698Y37177D01*
G36*
X34676Y37064D02*
X34676Y37064D01*
X34698Y37177D01*
X34660Y37158D01*
X34676Y37064D01*
D02*
G37*
X34698Y37177D01*
X34660Y37158D01*
X34676Y37064D01*
G36*
X34660Y37158D02*
X34660Y37158D01*
X34620Y37060D01*
X34676Y37064D01*
X34660Y37158D01*
D02*
G37*
X34620Y37060D01*
X34676Y37064D01*
X34660Y37158D01*
G36*
X34620Y37060D02*
X34620Y37060D01*
X34660Y37158D01*
X34613Y37152D01*
X34620Y37060D01*
D02*
G37*
X34660Y37158D01*
X34613Y37152D01*
X34620Y37060D01*
G36*
X34613Y37152D02*
X34613Y37152D01*
X34576Y37062D01*
X34620Y37060D01*
X34613Y37152D01*
D02*
G37*
X34576Y37062D01*
X34620Y37060D01*
X34613Y37152D01*
G36*
X34576Y37062D02*
X34576Y37062D01*
X34613Y37152D01*
X34570Y37157D01*
X34576Y37062D01*
D02*
G37*
X34613Y37152D01*
X34570Y37157D01*
X34576Y37062D01*
G36*
X34570Y37157D02*
X34570Y37157D01*
X34537Y37068D01*
X34576Y37062D01*
X34570Y37157D01*
D02*
G37*
X34537Y37068D01*
X34576Y37062D01*
X34570Y37157D01*
G36*
X34537Y37068D02*
X34537Y37068D01*
X34570Y37157D01*
X34533Y37174D01*
X34537Y37068D01*
D02*
G37*
X34570Y37157D01*
X34533Y37174D01*
X34537Y37068D01*
G36*
X34533Y37174D02*
X34533Y37174D01*
X34502Y37201D01*
X34537Y37068D01*
X34533Y37174D01*
D02*
G37*
X34502Y37201D01*
X34537Y37068D01*
X34533Y37174D01*
G36*
X34502Y37201D02*
X34502Y37201D01*
X34502Y37079D01*
X34537Y37068D01*
X34502Y37201D01*
D02*
G37*
X34502Y37079D01*
X34537Y37068D01*
X34502Y37201D01*
G36*
X34502Y37079D02*
X34502Y37079D01*
X34502Y37201D01*
X34480Y37240D01*
X34502Y37079D01*
D02*
G37*
X34502Y37201D01*
X34480Y37240D01*
X34502Y37079D01*
G36*
X34480Y37240D02*
X34480Y37240D01*
X34470Y37095D01*
X34502Y37079D01*
X34480Y37240D01*
D02*
G37*
X34470Y37095D01*
X34502Y37079D01*
X34480Y37240D01*
G36*
X34470Y37095D02*
X34470Y37095D01*
X34480Y37240D01*
X34466Y37290D01*
X34470Y37095D01*
D02*
G37*
X34480Y37240D01*
X34466Y37290D01*
X34470Y37095D01*
G36*
X34466Y37290D02*
X34466Y37290D01*
X34461Y37351D01*
X34470Y37095D01*
X34466Y37290D01*
D02*
G37*
X34461Y37351D01*
X34470Y37095D01*
X34466Y37290D01*
G36*
X35628Y37620D02*
X35628Y37620D01*
X35616Y37637D01*
X35623Y37548D01*
X35628Y37620D01*
D02*
G37*
X35616Y37637D01*
X35623Y37548D01*
X35628Y37620D01*
G36*
X35628Y37620D01*
X35623Y37548D01*
X35630Y37578D01*
X35628Y37620D01*
D02*
G37*
X35623Y37548D01*
X35630Y37578D01*
X35628Y37620D01*
G36*
X35628Y37620D01*
X35630Y37578D01*
X35632Y37599D01*
X35628Y37620D01*
D02*
G37*
X35630Y37578D01*
X35632Y37599D01*
X35628Y37620D01*
G36*
X35623Y37548D02*
X35623Y37548D01*
X35616Y37637D01*
X35598Y37648D01*
X35623Y37548D01*
D02*
G37*
X35616Y37637D01*
X35598Y37648D01*
X35623Y37548D01*
G36*
X35623Y37548D01*
X35598Y37648D01*
X35577Y37652D01*
X35623Y37548D01*
D02*
G37*
X35598Y37648D01*
X35577Y37652D01*
X35623Y37548D01*
G36*
X35623Y37548D01*
X35577Y37652D01*
X35557Y37649D01*
X35623Y37548D01*
D02*
G37*
X35577Y37652D01*
X35557Y37649D01*
X35623Y37548D01*
G36*
X35623Y37548D01*
X35557Y37649D01*
X35543Y37640D01*
X35623Y37548D01*
D02*
G37*
X35557Y37649D01*
X35543Y37640D01*
X35623Y37548D01*
G36*
X35623Y37548D01*
X35543Y37640D01*
X35533Y37628D01*
X35623Y37548D01*
D02*
G37*
X35543Y37640D01*
X35533Y37628D01*
X35623Y37548D01*
G36*
X35623Y37548D01*
X35533Y37628D01*
X35528Y37162D01*
X35623Y37548D01*
D02*
G37*
X35533Y37628D01*
X35528Y37162D01*
X35623Y37548D01*
G36*
X35512Y37105D02*
X35512Y37105D01*
X35516Y37572D01*
X35503Y37088D01*
X35512Y37105D01*
D02*
G37*
X35516Y37572D01*
X35503Y37088D01*
X35512Y37105D01*
G36*
X35516Y37572D02*
X35516Y37572D01*
X35512Y37105D01*
X35519Y37129D01*
X35516Y37572D01*
D02*
G37*
X35512Y37105D01*
X35519Y37129D01*
X35516Y37572D01*
G36*
X35519Y37129D02*
X35519Y37129D01*
X35521Y37596D01*
X35516Y37572D01*
X35519Y37129D01*
D02*
G37*
X35521Y37596D01*
X35516Y37572D01*
X35519Y37129D01*
G36*
X35521Y37596D02*
X35521Y37596D01*
X35519Y37129D01*
X35528Y37162D01*
X35521Y37596D01*
D02*
G37*
X35519Y37129D01*
X35528Y37162D01*
X35521Y37596D01*
G36*
X35528Y37162D02*
X35528Y37162D01*
X35526Y37614D01*
X35521Y37596D01*
X35528Y37162D01*
D02*
G37*
X35526Y37614D01*
X35521Y37596D01*
X35528Y37162D01*
G36*
X35526Y37614D02*
X35526Y37614D01*
X35528Y37162D01*
X35533Y37628D01*
X35526Y37614D01*
D02*
G37*
X35528Y37162D01*
X35533Y37628D01*
X35526Y37614D01*
G36*
X35516Y37572D02*
X35516Y37572D01*
X35441Y37238D01*
X35446Y37060D01*
X35516Y37572D01*
D02*
G37*
X35441Y37238D01*
X35446Y37060D01*
X35516Y37572D01*
G36*
X35516Y37572D01*
X35446Y37060D01*
X35471Y37063D01*
X35516Y37572D01*
D02*
G37*
X35446Y37060D01*
X35471Y37063D01*
X35516Y37572D01*
G36*
X35516Y37572D01*
X35471Y37063D01*
X35490Y37073D01*
X35516Y37572D01*
D02*
G37*
X35471Y37063D01*
X35490Y37073D01*
X35516Y37572D01*
G36*
X35516Y37572D01*
X35490Y37073D01*
X35503Y37088D01*
X35516Y37572D01*
D02*
G37*
X35490Y37073D01*
X35503Y37088D01*
X35516Y37572D01*
G36*
X35441Y37238D02*
X35441Y37238D01*
X35356Y37551D01*
X35364Y37160D01*
X35441Y37238D01*
D02*
G37*
X35356Y37551D01*
X35364Y37160D01*
X35441Y37238D01*
G36*
X35441Y37238D01*
X35364Y37160D01*
X35374Y37125D01*
X35441Y37238D01*
D02*
G37*
X35364Y37160D01*
X35374Y37125D01*
X35441Y37238D01*
G36*
X35441Y37238D01*
X35374Y37125D01*
X35381Y37103D01*
X35441Y37238D01*
D02*
G37*
X35374Y37125D01*
X35381Y37103D01*
X35441Y37238D01*
G36*
X35441Y37238D01*
X35381Y37103D01*
X35390Y37087D01*
X35441Y37238D01*
D02*
G37*
X35381Y37103D01*
X35390Y37087D01*
X35441Y37238D01*
G36*
X35441Y37238D01*
X35390Y37087D01*
X35404Y37073D01*
X35441Y37238D01*
D02*
G37*
X35390Y37087D01*
X35404Y37073D01*
X35441Y37238D01*
G36*
X35441Y37238D01*
X35404Y37073D01*
X35422Y37063D01*
X35441Y37238D01*
D02*
G37*
X35404Y37073D01*
X35422Y37063D01*
X35441Y37238D01*
G36*
X35441Y37238D01*
X35422Y37063D01*
X35446Y37060D01*
X35441Y37238D01*
D02*
G37*
X35422Y37063D01*
X35446Y37060D01*
X35441Y37238D01*
G36*
X35364Y37160D02*
X35364Y37160D01*
X35356Y37551D01*
X35346Y37584D01*
X35364Y37160D01*
D02*
G37*
X35356Y37551D01*
X35346Y37584D01*
X35364Y37160D01*
G36*
X35364Y37160D01*
X35346Y37584D01*
X35339Y37606D01*
X35364Y37160D01*
D02*
G37*
X35346Y37584D01*
X35339Y37606D01*
X35364Y37160D01*
G36*
X35364Y37160D01*
X35339Y37606D01*
X35330Y37623D01*
X35364Y37160D01*
D02*
G37*
X35339Y37606D01*
X35330Y37623D01*
X35364Y37160D01*
G36*
X35364Y37160D01*
X35330Y37623D01*
X35317Y37638D01*
X35364Y37160D01*
D02*
G37*
X35330Y37623D01*
X35317Y37638D01*
X35364Y37160D01*
G36*
X35364Y37160D01*
X35317Y37638D01*
X35297Y37648D01*
X35364Y37160D01*
D02*
G37*
X35317Y37638D01*
X35297Y37648D01*
X35364Y37160D01*
G36*
X35364Y37160D01*
X35297Y37648D01*
X35271Y37652D01*
X35364Y37160D01*
D02*
G37*
X35297Y37648D01*
X35271Y37652D01*
X35364Y37160D01*
G36*
X35364Y37160D01*
X35271Y37652D01*
X35271Y37503D01*
X35364Y37160D01*
D02*
G37*
X35271Y37652D01*
X35271Y37503D01*
X35364Y37160D01*
G36*
X35271Y37503D02*
X35271Y37503D01*
X35271Y37652D01*
X35245Y37648D01*
X35271Y37503D01*
D02*
G37*
X35271Y37652D01*
X35245Y37648D01*
X35271Y37503D01*
G36*
X35271Y37503D01*
X35245Y37648D01*
X35225Y37638D01*
X35271Y37503D01*
D02*
G37*
X35245Y37648D01*
X35225Y37638D01*
X35271Y37503D01*
G36*
X35271Y37503D01*
X35225Y37638D01*
X35211Y37623D01*
X35271Y37503D01*
D02*
G37*
X35225Y37638D01*
X35211Y37623D01*
X35271Y37503D01*
G36*
X35271Y37503D01*
X35211Y37623D01*
X35201Y37606D01*
X35271Y37503D01*
D02*
G37*
X35211Y37623D01*
X35201Y37606D01*
X35271Y37503D01*
G36*
X35271Y37503D01*
X35201Y37606D01*
X35193Y37583D01*
X35271Y37503D01*
D02*
G37*
X35201Y37606D01*
X35193Y37583D01*
X35271Y37503D01*
G36*
X35271Y37503D01*
X35193Y37583D01*
X35184Y37551D01*
X35271Y37503D01*
D02*
G37*
X35193Y37583D01*
X35184Y37551D01*
X35271Y37503D01*
G36*
X35271Y37503D01*
X35184Y37551D01*
X35177Y37160D01*
X35271Y37503D01*
D02*
G37*
X35184Y37551D01*
X35177Y37160D01*
X35271Y37503D01*
G36*
X35184Y37551D02*
X35184Y37551D01*
X35100Y37238D01*
X35119Y37063D01*
X35184Y37551D01*
D02*
G37*
X35100Y37238D01*
X35119Y37063D01*
X35184Y37551D01*
G36*
X35184Y37551D01*
X35119Y37063D01*
X35138Y37073D01*
X35184Y37551D01*
D02*
G37*
X35119Y37063D01*
X35138Y37073D01*
X35184Y37551D01*
G36*
X35184Y37551D01*
X35138Y37073D01*
X35151Y37087D01*
X35184Y37551D01*
D02*
G37*
X35138Y37073D01*
X35151Y37087D01*
X35184Y37551D01*
G36*
X35184Y37551D01*
X35151Y37087D01*
X35160Y37104D01*
X35184Y37551D01*
D02*
G37*
X35151Y37087D01*
X35160Y37104D01*
X35184Y37551D01*
G36*
X35184Y37551D01*
X35160Y37104D01*
X35168Y37126D01*
X35184Y37551D01*
D02*
G37*
X35160Y37104D01*
X35168Y37126D01*
X35184Y37551D01*
G36*
X35184Y37551D01*
X35168Y37126D01*
X35177Y37160D01*
X35184Y37551D01*
D02*
G37*
X35168Y37126D01*
X35177Y37160D01*
X35184Y37551D01*
G36*
X35100Y37238D02*
X35100Y37238D01*
X35025Y37572D01*
X35029Y37106D01*
X35100Y37238D01*
D02*
G37*
X35025Y37572D01*
X35029Y37106D01*
X35100Y37238D01*
G36*
X35100Y37238D01*
X35029Y37106D01*
X35037Y37090D01*
X35100Y37238D01*
D02*
G37*
X35029Y37106D01*
X35037Y37090D01*
X35100Y37238D01*
G36*
X35100Y37238D01*
X35037Y37090D01*
X35047Y37077D01*
X35100Y37238D01*
D02*
G37*
X35037Y37090D01*
X35047Y37077D01*
X35100Y37238D01*
G36*
X35100Y37238D01*
X35047Y37077D01*
X35060Y37068D01*
X35100Y37238D01*
D02*
G37*
X35047Y37077D01*
X35060Y37068D01*
X35100Y37238D01*
G36*
X35100Y37238D01*
X35060Y37068D01*
X35075Y37062D01*
X35100Y37238D01*
D02*
G37*
X35060Y37068D01*
X35075Y37062D01*
X35100Y37238D01*
G36*
X35100Y37238D01*
X35075Y37062D01*
X35095Y37060D01*
X35100Y37238D01*
D02*
G37*
X35075Y37062D01*
X35095Y37060D01*
X35100Y37238D01*
G36*
X35100Y37238D01*
X35095Y37060D01*
X35119Y37063D01*
X35100Y37238D01*
D02*
G37*
X35095Y37060D01*
X35119Y37063D01*
X35100Y37238D01*
G36*
X35013Y37162D02*
X35013Y37162D01*
X35017Y37607D01*
X35006Y37631D01*
X35013Y37162D01*
D02*
G37*
X35017Y37607D01*
X35006Y37631D01*
X35013Y37162D01*
G36*
X35017Y37607D02*
X35017Y37607D01*
X35013Y37162D01*
X35018Y37144D01*
X35017Y37607D01*
D02*
G37*
X35013Y37162D01*
X35018Y37144D01*
X35017Y37607D01*
G36*
X35018Y37144D02*
X35018Y37144D01*
X35025Y37572D01*
X35017Y37607D01*
X35018Y37144D01*
D02*
G37*
X35025Y37572D01*
X35017Y37607D01*
X35018Y37144D01*
G36*
X35025Y37572D02*
X35025Y37572D01*
X35018Y37144D01*
X35023Y37125D01*
X35025Y37572D01*
D02*
G37*
X35018Y37144D01*
X35023Y37125D01*
X35025Y37572D01*
G36*
X35023Y37125D02*
X35023Y37125D01*
X35029Y37106D01*
X35025Y37572D01*
X35023Y37125D01*
D02*
G37*
X35029Y37106D01*
X35025Y37572D01*
X35023Y37125D01*
G36*
X35013Y37162D02*
X35013Y37162D01*
X35006Y37631D01*
X34990Y37647D01*
X35013Y37162D01*
D02*
G37*
X35006Y37631D01*
X34990Y37647D01*
X35013Y37162D01*
G36*
X35013Y37162D01*
X34990Y37647D01*
X34964Y37652D01*
X35013Y37162D01*
D02*
G37*
X34990Y37647D01*
X34964Y37652D01*
X35013Y37162D01*
G36*
X35013Y37162D01*
X34964Y37652D01*
X34943Y37648D01*
X35013Y37162D01*
D02*
G37*
X34964Y37652D01*
X34943Y37648D01*
X35013Y37162D01*
G36*
X35013Y37162D01*
X34943Y37648D01*
X34925Y37637D01*
X35013Y37162D01*
D02*
G37*
X34943Y37648D01*
X34925Y37637D01*
X35013Y37162D01*
G36*
X35013Y37162D01*
X34925Y37637D01*
X34918Y37548D01*
X35013Y37162D01*
D02*
G37*
X34925Y37637D01*
X34918Y37548D01*
X35013Y37162D01*
G36*
X34913Y37620D02*
X34913Y37620D01*
X34909Y37599D01*
X34912Y37577D01*
X34913Y37620D01*
D02*
G37*
X34909Y37599D01*
X34912Y37577D01*
X34913Y37620D01*
G36*
X34913Y37620D01*
X34912Y37577D01*
X34918Y37548D01*
X34913Y37620D01*
D02*
G37*
X34912Y37577D01*
X34918Y37548D01*
X34913Y37620D01*
G36*
X34913Y37620D01*
X34918Y37548D01*
X34925Y37637D01*
X34913Y37620D01*
D02*
G37*
X34918Y37548D01*
X34925Y37637D01*
X34913Y37620D01*
G54D16*
X30180Y36490D02*
X36480Y36490D01*
X36480Y30190D01*
X30180Y30190D01*
X30180Y36490D01*
G54D17*
X37996Y32245D02*
X37917Y32323D01*
X37917Y32402D01*
X37996Y32480D01*
X38232Y32480D01*
X38311Y32402D01*
X38311Y32323D01*
X38232Y32245D01*
X38232Y32127D02*
X38311Y32049D01*
X38311Y31971D01*
X38232Y31892D01*
X38193Y31892D01*
X37917Y32127D01*
X37917Y31892D01*
X37956Y31892D01*
G54D18*
X38081Y34119D02*
G75*
D01*
G02X38081Y34119I49J0*
G01*
G54D19*
X-100Y-100D02*
X-100Y6587D01*
X-100Y-100D02*
X6586Y-100D01*
X66764Y-100D02*
X60078Y-100D01*
X66764Y-100D02*
X66764Y6587D01*
X66764Y66767D02*
X66764Y60080D01*
X66764Y66767D02*
X60078Y66767D01*
X-100Y66767D02*
X6586Y66767D01*
X-100Y66767D02*
X-100Y60080D01*
X-2069Y-100D02*
X-6006Y-100D01*
X-4037Y-2069D02*
X-4037Y1869D01*
X-5513Y-100D02*
G75*
D01*
G02X-5513Y-100I1476J0*
G01*
X68733Y-100D02*
X72670Y-100D01*
X70701Y-2069D02*
X70701Y1869D01*
X69225Y-100D02*
G75*
D01*
G02X69225Y-100I1476J0*
G01*
X70209Y-100D02*
G75*
D01*
G02X70209Y-100I492J0*
G01*
X-2069Y66767D02*
X-6006Y66767D01*
X-4037Y64798D02*
X-4037Y68735D01*
X-5513Y66767D02*
G75*
D01*
G02X-5513Y66767I1476J0*
G01*
X-5021Y66767D02*
G75*
D01*
G02X-5021Y66767I984J0*
G01*
X-4529Y66767D02*
G75*
D01*
G02X-4529Y66767I492J0*
G01*

M02*
