G04 Generated by Ultiboard 14.1 *
%FSLAX24Y24*%
%MOIN*%

%ADD10C,0.0001*%
%ADD11C,0.0100*%
%ADD12C,0.0200*%
%ADD13C,0.0050*%
%ADD14R,0.0600X0.0600*%
%ADD15C,0.0200*%
%ADD16C,0.0400*%
%ADD17O,0.1575X0.0394*%
%ADD18P,0.0848X4X89*%
%ADD19R,0.0571X0.0453*%
%ADD20P,0.0848X4X33*%
%ADD21P,0.0848X4X57*%
%ADD22P,0.0848X4X68*%
%ADD23P,0.0848X4X22*%
%ADD24P,0.0848X4X56*%


G04 ColorRGB 1C1C1C for the following layer *
%LNCopper Top*%
%LPD*%
G54D10*
G54D11*
X27055Y32370D02*
X27055Y33005D01*
X27720Y33670D01*
X27720Y35520D01*
X28010Y35810D01*
X28010Y36660D01*
X28776Y36536D02*
X29520Y37280D01*
X29520Y38150D01*
X31440Y39200D02*
X31850Y39610D01*
X33680Y39610D01*
X34300Y40230D01*
X29520Y38150D02*
X29850Y38480D01*
X30360Y38480D01*
X30590Y38250D01*
X31210Y38250D01*
X31440Y38480D01*
X31440Y39200D01*
X29104Y37754D02*
X29104Y38608D01*
X29264Y38768D01*
X28010Y36660D02*
X29104Y37754D01*
X32360Y38980D02*
X33410Y38980D01*
X34040Y39610D01*
X37834Y37396D02*
X38748Y37396D01*
X36250Y38540D02*
X36690Y38540D01*
X37834Y37396D01*
X36100Y38390D02*
X36250Y38540D01*
X35290Y38670D02*
X35570Y38390D01*
X36100Y38390D01*
X34930Y39610D02*
X35290Y39250D01*
X35290Y38670D01*
X34040Y39610D02*
X34930Y39610D01*
X36492Y37884D02*
X36986Y37390D01*
X37370Y37390D01*
X37620Y37140D01*
X38090Y37140D01*
X38570Y36660D01*
X39040Y36660D01*
X43030Y33020D02*
X42380Y32370D01*
X40835Y32370D01*
X39040Y36660D02*
X42130Y39750D01*
X45110Y39750D01*
X46090Y38770D01*
X46090Y37430D02*
X43030Y34370D01*
X43030Y33020D01*
X46090Y38770D02*
X46090Y37430D01*
X39585Y34310D02*
X39585Y33875D01*
X40190Y33270D01*
X40190Y31890D01*
X39480Y31180D01*
X38960Y31180D01*
X38590Y30810D01*
X38590Y30000D01*
X37376Y28786D01*
X37376Y27902D01*
X37864Y30158D02*
X36688Y30158D01*
X35570Y29040D01*
X35570Y24920D01*
X30148Y28786D02*
X29254Y28786D01*
X21560Y33280D02*
X20940Y33280D01*
X19910Y34310D01*
X29254Y28786D02*
X28010Y30030D01*
X28010Y30760D01*
X23490Y31350D02*
X27420Y31350D01*
X23490Y31350D02*
X21560Y33280D01*
X27420Y31350D02*
X28010Y30760D01*
X32360Y25100D02*
X32360Y26440D01*
X34300Y27690D02*
X33770Y27690D01*
X33180Y27100D01*
X31990Y27100D01*
X31800Y26910D01*
X31800Y25270D01*
X32440Y24630D01*
X32440Y24270D01*
X32240Y24070D01*
X31450Y24070D01*
X31060Y24460D01*
X31060Y28050D01*
X30840Y28270D01*
X30480Y28270D01*
X29510Y28530D02*
X28636Y28530D01*
X27892Y29274D01*
X30320Y28110D02*
X29930Y28110D01*
X29510Y28530D01*
X30480Y28270D02*
X30320Y28110D01*
X34720Y24070D02*
X33390Y24070D01*
X35570Y24920D02*
X34720Y24070D01*
X33390Y24070D02*
X32360Y25100D01*
X38130Y32987D02*
X38968Y32987D01*
X39585Y32370D01*
X21160Y32370D02*
X20090Y33440D01*
X19680Y33440D01*
X19200Y33920D01*
X19200Y36620D01*
X18240Y37580D01*
X18240Y40333D01*
X18424Y40517D01*
X18816Y38243D02*
X18816Y40126D01*
X19700Y41010D01*
X23400Y41010D01*
X24814Y42424D01*
X24814Y43218D01*
X24326Y40962D02*
X24326Y41496D01*
X25080Y42250D01*
X25080Y42630D01*
X27660Y45210D01*
X27660Y47264D01*
X28369Y47973D01*
X26731Y46347D02*
X26731Y46481D01*
X27250Y47000D01*
X27250Y48070D01*
X27820Y48640D01*
X29060Y48640D01*
X30190Y47510D01*
X33540Y47510D01*
X34300Y46750D01*
X32360Y45500D02*
X32960Y46100D01*
X35850Y46100D01*
X37100Y47350D01*
X39740Y47350D02*
X39960Y47570D01*
X37100Y47350D02*
X39740Y47350D01*
X39960Y47570D02*
X40110Y47570D01*
X37952Y46750D02*
X37952Y46638D01*
X41110Y43480D01*
X41110Y43090D01*
X42354Y41846D01*
X43208Y41846D01*
X40952Y42334D02*
X41426Y42334D01*
X42170Y41590D01*
X42590Y41590D01*
X43330Y40850D01*
X47140Y40850D01*
X47620Y40370D01*
X47620Y40016D01*
X48904Y38731D01*
X46996Y35816D02*
X46090Y34910D01*
X46090Y33010D01*
X46730Y32370D01*
X45480Y34310D02*
X45480Y33230D01*
X46110Y32600D01*
X46110Y31290D01*
X48330Y29070D01*
X48330Y26315D01*
X48146Y26131D01*
X47754Y28405D02*
X47754Y26584D01*
X42334Y25708D02*
X42334Y24864D01*
X41110Y23640D01*
X41110Y20200D01*
X40430Y19520D01*
X39259Y19520D01*
X38211Y18472D01*
X39849Y20098D02*
X39358Y20098D01*
X34300Y21170D02*
X33700Y20570D01*
X30750Y20570D01*
X29370Y19190D01*
X26676Y19190D01*
X26471Y18985D01*
X28629Y19805D02*
X28495Y19805D01*
X28270Y19580D01*
X24306Y24824D02*
X23452Y24824D01*
X25708Y24336D02*
X25194Y24336D01*
X24470Y25060D01*
X24130Y25060D01*
X23680Y25510D01*
X19650Y25510D01*
X18900Y26260D01*
X18900Y26862D02*
X17906Y27857D01*
X18900Y26260D02*
X18900Y26862D01*
X17906Y27857D02*
X17666Y27857D01*
X19574Y26559D02*
X19574Y30806D01*
X18930Y31450D01*
X13670Y31450D01*
X13240Y31880D01*
X13240Y33720D01*
X12650Y34310D01*
X46996Y40029D02*
X46996Y35816D01*
X43192Y23452D02*
X41846Y23452D01*
X46700Y25530D02*
X45270Y25530D01*
X47754Y26584D02*
X46700Y25530D01*
X45270Y25530D02*
X43192Y23452D01*
X38430Y19170D02*
X33110Y19170D01*
X39358Y20098D02*
X38430Y19170D01*
X33110Y19170D02*
X32360Y19920D01*
X25800Y23330D02*
X24306Y24824D01*
X26520Y19580D02*
X25800Y20300D01*
X28270Y19580D02*
X26520Y19580D01*
X25800Y20300D02*
X25800Y23330D01*
X39770Y34900D02*
X40040Y35170D01*
X38720Y34900D02*
X39770Y34900D01*
X37940Y34120D02*
X38720Y34900D01*
X35500Y34120D02*
X37940Y34120D01*
X34710Y34910D02*
X35500Y34120D01*
X29090Y34910D02*
X34710Y34910D01*
X28780Y34600D02*
X29090Y34910D01*
X28780Y33280D02*
X28780Y34600D01*
X29114Y32946D02*
X28780Y33280D01*
X30180Y32946D02*
X29114Y32946D01*
X40200Y35510D02*
X40540Y35170D01*
X38110Y35510D02*
X40200Y35510D01*
X37920Y35700D02*
X38110Y35510D01*
X28540Y35700D02*
X37920Y35700D01*
X28140Y35300D02*
X28540Y35700D01*
X28140Y32570D02*
X28140Y35300D01*
X28551Y32159D02*
X28140Y32570D01*
X30180Y32159D02*
X28551Y32159D01*
X38460Y35170D02*
X39540Y35170D01*
X37811Y34521D02*
X38460Y35170D01*
X36480Y34521D02*
X37811Y34521D01*
X30180Y35309D02*
X28591Y35309D01*
X30180Y34521D02*
X34499Y34521D01*
X35170Y33850D01*
X35170Y25110D01*
X34580Y24520D01*
X30180Y33734D02*
X31136Y33734D01*
X31510Y33360D01*
X31510Y25110D01*
X32080Y24540D01*
X30180Y36096D02*
X30180Y37852D01*
X37788Y36512D02*
X37300Y37000D01*
X29202Y30584D02*
X28776Y30158D01*
X30180Y30584D02*
X29202Y30584D01*
G54D12*
X40835Y34310D02*
X41460Y34310D01*
X32360Y46750D02*
X31040Y46750D01*
X36480Y33734D02*
X38092Y33734D01*
G54D13*
X-100Y-100D02*
X-100Y6587D01*
X-100Y-100D02*
X6586Y-100D01*
X66764Y-100D02*
X60078Y-100D01*
X66764Y-100D02*
X66764Y6587D01*
X66764Y66767D02*
X66764Y60080D01*
X66764Y66767D02*
X60078Y66767D01*
X-100Y66767D02*
X6586Y66767D01*
X-100Y66767D02*
X-100Y60080D01*
X-2069Y-100D02*
X-6006Y-100D01*
X-4037Y-2069D02*
X-4037Y1869D01*
X-5513Y-100D02*
G75*
D01*
G02X-5513Y-100I1476J0*
G01*
X68733Y-100D02*
X72670Y-100D01*
X70701Y-2069D02*
X70701Y1869D01*
X69225Y-100D02*
G75*
D01*
G02X69225Y-100I1476J0*
G01*
X70209Y-100D02*
G75*
D01*
G02X70209Y-100I492J0*
G01*
X-2069Y66767D02*
X-6006Y66767D01*
X-4037Y64798D02*
X-4037Y68735D01*
X-5513Y66767D02*
G75*
D01*
G02X-5513Y66767I1476J0*
G01*
X-5021Y66767D02*
G75*
D01*
G02X-5021Y66767I984J0*
G01*
X-4529Y66767D02*
G75*
D01*
G02X-4529Y66767I492J0*
G01*
G54D14*
X32360Y40230D03*
X32360Y38980D03*
X34300Y38980D03*
X34300Y40230D03*
X32360Y46750D03*
X32360Y45500D03*
X34300Y45500D03*
X34300Y46750D03*
X32360Y54020D03*
X32360Y52770D03*
X34300Y52770D03*
X34300Y54020D03*
X32360Y60530D03*
X32360Y59280D03*
X34300Y59280D03*
X34300Y60530D03*
X39585Y32370D03*
X40835Y32370D03*
X39585Y34310D03*
X40835Y34310D03*
X45480Y32370D03*
X46730Y32370D03*
X45480Y34310D03*
X46730Y34310D03*
X32360Y6130D03*
X34300Y6130D03*
X32360Y7380D03*
X34300Y7380D03*
X32360Y12650D03*
X34300Y12650D03*
X32360Y13900D03*
X34300Y13900D03*
X32360Y19920D03*
X34300Y19920D03*
X32360Y21170D03*
X34300Y21170D03*
X32360Y26440D03*
X34300Y26440D03*
X32360Y27690D03*
X34300Y27690D03*
X6130Y32370D03*
X7380Y32370D03*
X6130Y34310D03*
X7380Y34310D03*
X12650Y32370D03*
X13900Y32370D03*
X12650Y34310D03*
X13900Y34310D03*
X19910Y32370D03*
X21160Y32370D03*
X19910Y34310D03*
X21160Y34310D03*
X25805Y32370D03*
X27055Y32370D03*
X25805Y34310D03*
X27055Y34310D03*
X52750Y32370D03*
X54000Y32370D03*
X52750Y34310D03*
X54000Y34310D03*
X59280Y32370D03*
X60530Y32370D03*
X59280Y34310D03*
X60530Y34310D03*
G54D15*
X27890Y37410D03*
X32350Y40230D03*
X46740Y34310D03*
X48900Y27920D03*
X43210Y24820D03*
X48340Y19680D03*
X52970Y15080D03*
X15060Y13700D03*
X18420Y26080D03*
X17660Y38730D03*
X26470Y47580D03*
X41840Y43230D03*
X38212Y47973D03*
X60530Y34310D03*
X19900Y32370D03*
X28350Y18590D03*
X38740Y29270D03*
X29270Y27900D03*
X32360Y60530D03*
X32360Y54020D03*
X39580Y32370D03*
X51586Y52968D03*
X32350Y59280D03*
X52960Y51590D03*
X14580Y50700D03*
X34300Y60530D03*
X50670Y52090D03*
X60520Y32370D03*
X59270Y34320D03*
X51590Y13700D03*
X52090Y15960D03*
X32340Y6120D03*
X40040Y35170D03*
X52750Y34310D03*
X46980Y18310D03*
X40540Y35170D03*
X39540Y35170D03*
X25805Y32370D03*
X37376Y38768D03*
X34300Y26440D03*
X23442Y41846D03*
X48146Y40517D03*
X40109Y18875D03*
X34300Y19920D03*
X24824Y23452D03*
X12650Y32370D03*
X18312Y46986D03*
X46976Y48358D03*
X54000Y34310D03*
X34300Y12650D03*
X19684Y18312D03*
X6130Y32370D03*
X13702Y51596D03*
X34300Y6130D03*
X47450Y20590D03*
X32360Y12650D03*
X7390Y32360D03*
X15070Y52970D03*
X34290Y7380D03*
X13690Y15080D03*
X20560Y19210D03*
X6110Y34330D03*
X34290Y13910D03*
X18290Y19690D03*
X28590Y35310D03*
X34580Y24520D03*
X32080Y24520D03*
X25800Y34310D03*
X13910Y32370D03*
X19690Y48360D03*
X19190Y46100D03*
X34320Y54020D03*
X32340Y52770D03*
X48350Y46990D03*
X46080Y47480D03*
X54000Y32360D03*
X36120Y31360D03*
X36420Y31370D03*
X37050Y31370D03*
X36730Y31370D03*
X27050Y34310D03*
X30140Y37880D03*
X34290Y38980D03*
X37300Y37000D03*
X36490Y28790D03*
X32350Y27690D03*
X28770Y30150D03*
X21160Y34300D03*
X19560Y40030D03*
X25700Y42330D03*
X28610Y46740D03*
X34290Y45490D03*
X39850Y46340D03*
X42320Y40950D03*
X47750Y38240D03*
X45470Y32370D03*
X46980Y26630D03*
X40950Y24350D03*
X37940Y19690D03*
X32360Y21170D03*
X26720Y20210D03*
X24340Y25700D03*
X18810Y28320D03*
X13900Y34310D03*
X20560Y47470D03*
X34300Y52780D03*
X47460Y46100D03*
X52750Y32370D03*
X46080Y19200D03*
X32360Y13900D03*
X19200Y20570D03*
X7380Y34310D03*
X15960Y52080D03*
X34300Y59280D03*
X52070Y50700D03*
X59280Y32380D03*
X50700Y14570D03*
X32360Y7380D03*
X14580Y15960D03*
X34310Y41645D03*
X34320Y48096D03*
X39540Y31760D03*
X44440Y34297D03*
X42540Y31510D03*
X42040Y31500D03*
X41540Y31500D03*
G54D16*
X41460Y34310D03*
X31050Y46750D03*
X38130Y33700D03*
X41040Y33030D03*
X44430Y35010D03*
G54D17*
X30180Y36096D03*
X30180Y35309D03*
X30180Y34521D03*
X30180Y33734D03*
X30180Y32946D03*
X30180Y32159D03*
X30180Y31371D03*
X30180Y30584D03*
X36480Y36096D03*
X36480Y35309D03*
X36480Y34521D03*
X36480Y33734D03*
X36480Y32946D03*
X36480Y32159D03*
X36480Y31371D03*
X36480Y30584D03*
G54D18*
X29264Y27902D03*
X30148Y28786D03*
X27892Y29274D03*
X28776Y30158D03*
X37376Y27902D03*
X36492Y28786D03*
X38748Y29274D03*
X37864Y30158D03*
X28776Y36512D03*
X27892Y37396D03*
X30148Y37884D03*
X29264Y38768D03*
X37864Y36512D03*
X38748Y37396D03*
X36492Y37884D03*
X37376Y38768D03*
X15074Y13702D03*
X15958Y14586D03*
X13702Y15074D03*
X14586Y15958D03*
X51596Y13702D03*
X50712Y14586D03*
X52968Y15074D03*
X52084Y15958D03*
X19684Y18312D03*
X20568Y19196D03*
X18312Y19684D03*
X19196Y20568D03*
X46976Y18312D03*
X46092Y19196D03*
X48348Y19684D03*
X47464Y20568D03*
X24824Y23452D03*
X23452Y24824D03*
X25708Y24336D03*
X24336Y25708D03*
X41846Y23452D03*
X40962Y24336D03*
X43218Y24824D03*
X42334Y25708D03*
X24326Y40962D03*
X23442Y41846D03*
X25698Y42334D03*
X24814Y43218D03*
X42324Y40962D03*
X43208Y41846D03*
X40952Y42334D03*
X41836Y43218D03*
X19196Y46102D03*
X18312Y46986D03*
X20568Y47474D03*
X19684Y48358D03*
X47464Y46102D03*
X48348Y46986D03*
X46092Y47474D03*
X46976Y48358D03*
X14586Y50712D03*
X13702Y51596D03*
X15958Y52084D03*
X15074Y52968D03*
X52074Y50712D03*
X52958Y51596D03*
X50702Y52084D03*
X51586Y52968D03*
G54D19*
X38130Y32987D03*
X38130Y33696D03*
G54D20*
X28369Y18582D03*
X26471Y18985D03*
X28629Y19805D03*
X26731Y20208D03*
X37952Y46750D03*
X39850Y46347D03*
X40110Y47570D03*
X38212Y47973D03*
G54D21*
X38211Y18472D03*
X40109Y18875D03*
X37951Y19695D03*
X39849Y20098D03*
G54D22*
X18424Y26071D03*
X19574Y26559D03*
X17666Y27857D03*
X18816Y28345D03*
X47754Y38243D03*
X48904Y38731D03*
X46996Y40029D03*
X48146Y40517D03*
G54D23*
X48146Y26131D03*
X46996Y26619D03*
X48904Y27917D03*
X47754Y28405D03*
X18816Y38243D03*
X17666Y38731D03*
X18424Y40517D03*
X19574Y40029D03*
G54D24*
X26731Y46347D03*
X28629Y46750D03*
X26471Y47570D03*
X28369Y47973D03*

M02*
