G04 Generated by Ultiboard 14.1 *
%FSLAX24Y24*%
%MOIN*%

%ADD10C,0.0001*%
%ADD11C,0.0050*%
%ADD12R,0.0600X0.0600*%
%ADD13C,0.1240*%
%ADD14C,0.0200*%
%ADD15C,0.0400*%
%ADD16O,0.1575X0.0394*%
%ADD17P,0.0848X4X89*%
%ADD18R,0.0571X0.0453*%
%ADD19P,0.0848X4X33*%
%ADD20P,0.0848X4X57*%
%ADD21P,0.0848X4X68*%
%ADD22P,0.0848X4X22*%
%ADD23P,0.0848X4X56*%


G04 ColorRGB FF00CC for the following layer *
%LNSolder Mask Top*%
%LPD*%
G54D10*
G54D11*
X-100Y-100D02*
X-100Y6587D01*
X-100Y-100D02*
X6586Y-100D01*
X66764Y-100D02*
X60078Y-100D01*
X66764Y-100D02*
X66764Y6587D01*
X66764Y66767D02*
X66764Y60080D01*
X66764Y66767D02*
X60078Y66767D01*
X-100Y66767D02*
X6586Y66767D01*
X-100Y66767D02*
X-100Y60080D01*
X-2069Y-100D02*
X-6006Y-100D01*
X-4037Y-2069D02*
X-4037Y1869D01*
X-5513Y-100D02*
G75*
D01*
G02X-5513Y-100I1476J0*
G01*
X68733Y-100D02*
X72670Y-100D01*
X70701Y-2069D02*
X70701Y1869D01*
X69225Y-100D02*
G75*
D01*
G02X69225Y-100I1476J0*
G01*
X70209Y-100D02*
G75*
D01*
G02X70209Y-100I492J0*
G01*
X-2069Y66767D02*
X-6006Y66767D01*
X-4037Y64798D02*
X-4037Y68735D01*
X-5513Y66767D02*
G75*
D01*
G02X-5513Y66767I1476J0*
G01*
X-5021Y66767D02*
G75*
D01*
G02X-5021Y66767I984J0*
G01*
X-4529Y66767D02*
G75*
D01*
G02X-4529Y66767I492J0*
G01*
G54D12*
X32360Y40230D03*
X32360Y38980D03*
X34300Y38980D03*
X34300Y40230D03*
X32360Y46750D03*
X32360Y45500D03*
X34300Y45500D03*
X34300Y46750D03*
X32360Y54020D03*
X32360Y52770D03*
X34300Y52770D03*
X34300Y54020D03*
X32360Y60530D03*
X32360Y59280D03*
X34300Y59280D03*
X34300Y60530D03*
X39585Y32370D03*
X40835Y32370D03*
X39585Y34310D03*
X40835Y34310D03*
X45480Y32370D03*
X46730Y32370D03*
X45480Y34310D03*
X46730Y34310D03*
X32360Y6130D03*
X34300Y6130D03*
X32360Y7380D03*
X34300Y7380D03*
X32360Y12650D03*
X34300Y12650D03*
X32360Y13900D03*
X34300Y13900D03*
X32360Y19920D03*
X34300Y19920D03*
X32360Y21170D03*
X34300Y21170D03*
X32360Y26440D03*
X34300Y26440D03*
X32360Y27690D03*
X34300Y27690D03*
X6130Y32370D03*
X7380Y32370D03*
X6130Y34310D03*
X7380Y34310D03*
X12650Y32370D03*
X13900Y32370D03*
X12650Y34310D03*
X13900Y34310D03*
X19910Y32370D03*
X21160Y32370D03*
X19910Y34310D03*
X21160Y34310D03*
X25805Y32370D03*
X27055Y32370D03*
X25805Y34310D03*
X27055Y34310D03*
X52750Y32370D03*
X54000Y32370D03*
X52750Y34310D03*
X54000Y34310D03*
X59280Y32370D03*
X60530Y32370D03*
X59280Y34310D03*
X60530Y34310D03*
G54D13*
X12190Y54460D03*
X33330Y63130D03*
X54460Y54460D03*
G54D14*
X27890Y37410D03*
X32350Y40230D03*
X46740Y34310D03*
X48900Y27920D03*
X43210Y24820D03*
X48340Y19680D03*
X52970Y15080D03*
X15060Y13700D03*
X18420Y26080D03*
X17660Y38730D03*
X26470Y47580D03*
X41840Y43230D03*
X38212Y47973D03*
X60530Y34310D03*
X19900Y32370D03*
X28350Y18590D03*
X38740Y29270D03*
X29270Y27900D03*
X32360Y60530D03*
X32360Y54020D03*
X39580Y32370D03*
X51586Y52968D03*
X32350Y59280D03*
X52960Y51590D03*
X14580Y50700D03*
X34300Y60530D03*
X50670Y52090D03*
X60520Y32370D03*
X59270Y34320D03*
X51590Y13700D03*
X52090Y15960D03*
X32340Y6120D03*
X40040Y35170D03*
X52750Y34310D03*
X46980Y18310D03*
X40540Y35170D03*
X39540Y35170D03*
X25805Y32370D03*
X37376Y38768D03*
X34300Y26440D03*
X23442Y41846D03*
X48146Y40517D03*
X40109Y18875D03*
X34300Y19920D03*
X24824Y23452D03*
X12650Y32370D03*
X18312Y46986D03*
X46976Y48358D03*
X54000Y34310D03*
X34300Y12650D03*
X19684Y18312D03*
X6130Y32370D03*
X13702Y51596D03*
X34300Y6130D03*
X47450Y20590D03*
X32360Y12650D03*
X7390Y32360D03*
X15070Y52970D03*
X34290Y7380D03*
X13690Y15080D03*
X20560Y19210D03*
X6110Y34330D03*
X34290Y13910D03*
X18290Y19690D03*
X28590Y35310D03*
X34580Y24520D03*
X32080Y24520D03*
X25800Y34310D03*
X13910Y32370D03*
X19690Y48360D03*
X19190Y46100D03*
X34320Y54020D03*
X32340Y52770D03*
X48350Y46990D03*
X46080Y47480D03*
X54000Y32360D03*
X36120Y31360D03*
X36420Y31370D03*
X37050Y31370D03*
X36730Y31370D03*
X27050Y34310D03*
X30140Y37880D03*
X34290Y38980D03*
X37300Y37000D03*
X36490Y28790D03*
X32350Y27690D03*
X28770Y30150D03*
X21160Y34300D03*
X19560Y40030D03*
X25700Y42330D03*
X28610Y46740D03*
X34290Y45490D03*
X39850Y46340D03*
X42320Y40950D03*
X47750Y38240D03*
X45470Y32370D03*
X46980Y26630D03*
X40950Y24350D03*
X37940Y19690D03*
X32360Y21170D03*
X26720Y20210D03*
X24340Y25700D03*
X18810Y28320D03*
X13900Y34310D03*
X20560Y47470D03*
X34300Y52780D03*
X47460Y46100D03*
X52750Y32370D03*
X46080Y19200D03*
X32360Y13900D03*
X19200Y20570D03*
X7380Y34310D03*
X15960Y52080D03*
X34300Y59280D03*
X52070Y50700D03*
X59280Y32380D03*
X50700Y14570D03*
X32360Y7380D03*
X14580Y15960D03*
X34310Y41645D03*
X34320Y48096D03*
X39540Y31760D03*
X44440Y34297D03*
X42540Y31510D03*
X42040Y31500D03*
X41540Y31500D03*
G54D15*
X41460Y34310D03*
X31050Y46750D03*
X38130Y33700D03*
X41040Y33030D03*
X44430Y35010D03*
G54D16*
X30180Y36096D03*
X30180Y35309D03*
X30180Y34521D03*
X30180Y33734D03*
X30180Y32946D03*
X30180Y32159D03*
X30180Y31371D03*
X30180Y30584D03*
X36480Y36096D03*
X36480Y35309D03*
X36480Y34521D03*
X36480Y33734D03*
X36480Y32946D03*
X36480Y32159D03*
X36480Y31371D03*
X36480Y30584D03*
G54D17*
X29264Y27902D03*
X30148Y28786D03*
X27892Y29274D03*
X28776Y30158D03*
X37376Y27902D03*
X36492Y28786D03*
X38748Y29274D03*
X37864Y30158D03*
X28776Y36512D03*
X27892Y37396D03*
X30148Y37884D03*
X29264Y38768D03*
X37864Y36512D03*
X38748Y37396D03*
X36492Y37884D03*
X37376Y38768D03*
X15074Y13702D03*
X15958Y14586D03*
X13702Y15074D03*
X14586Y15958D03*
X51596Y13702D03*
X50712Y14586D03*
X52968Y15074D03*
X52084Y15958D03*
X19684Y18312D03*
X20568Y19196D03*
X18312Y19684D03*
X19196Y20568D03*
X46976Y18312D03*
X46092Y19196D03*
X48348Y19684D03*
X47464Y20568D03*
X24824Y23452D03*
X23452Y24824D03*
X25708Y24336D03*
X24336Y25708D03*
X41846Y23452D03*
X40962Y24336D03*
X43218Y24824D03*
X42334Y25708D03*
X24326Y40962D03*
X23442Y41846D03*
X25698Y42334D03*
X24814Y43218D03*
X42324Y40962D03*
X43208Y41846D03*
X40952Y42334D03*
X41836Y43218D03*
X19196Y46102D03*
X18312Y46986D03*
X20568Y47474D03*
X19684Y48358D03*
X47464Y46102D03*
X48348Y46986D03*
X46092Y47474D03*
X46976Y48358D03*
X14586Y50712D03*
X13702Y51596D03*
X15958Y52084D03*
X15074Y52968D03*
X52074Y50712D03*
X52958Y51596D03*
X50702Y52084D03*
X51586Y52968D03*
G54D18*
X38130Y32987D03*
X38130Y33696D03*
G54D19*
X28369Y18582D03*
X26471Y18985D03*
X28629Y19805D03*
X26731Y20208D03*
X37952Y46750D03*
X39850Y46347D03*
X40110Y47570D03*
X38212Y47973D03*
G54D20*
X38211Y18472D03*
X40109Y18875D03*
X37951Y19695D03*
X39849Y20098D03*
G54D21*
X18424Y26071D03*
X19574Y26559D03*
X17666Y27857D03*
X18816Y28345D03*
X47754Y38243D03*
X48904Y38731D03*
X46996Y40029D03*
X48146Y40517D03*
G54D22*
X48146Y26131D03*
X46996Y26619D03*
X48904Y27917D03*
X47754Y28405D03*
X18816Y38243D03*
X17666Y38731D03*
X18424Y40517D03*
X19574Y40029D03*
G54D23*
X26731Y46347D03*
X28629Y46750D03*
X26471Y47570D03*
X28369Y47973D03*

M02*
