M48
INCH,TZ
VER,1
FMAT,2
DETECT,ON
ATC,ON
T1C0.1240
T2C0.0100
T3C0.0200
%
T1
X12190Y54460
X33330Y63130
X54460Y54460
T2
X27890Y37410
X32350Y40230
X46740Y34310
X48900Y27920
X43210Y24820
X48340Y19680
X52970Y15080
X15060Y13700
X18420Y26080
X17660Y38730
X26470Y47580
X41840Y43230
X38212Y47973
X60530Y34310
X19900Y32370
X28350Y18590
X38740Y29270
X29270Y27900
X32360Y60530
Y54020
X39580Y32370
X51586Y52968
X32350Y59280
X52960Y51590
X14580Y50700
X34300Y60530
X50670Y52090
X60520Y32370
X59270Y34320
X51590Y13700
X52090Y15960
X32340Y6120
X40040Y35170
X52750Y34310
X46980Y18310
X40540Y35170
X39540
X25805Y32370
X37376Y38768
X34300Y26440
X23442Y41846
X48146Y40517
X40109Y18875
X34300Y19920
X24824Y23452
X12650Y32370
X18312Y46986
X46976Y48358
X54000Y34310
X34300Y12650
X19684Y18312
X6130Y32370
X13702Y51596
X34300Y6130
X47450Y20590
X32360Y12650
X7390Y32360
X15070Y52970
X34290Y7380
X13690Y15080
X20560Y19210
X6110Y34330
X34290Y13910
X18290Y19690
X28590Y35310
X34580Y24520
X32080
X25800Y34310
X13910Y32370
X19690Y48360
X19190Y46100
X34320Y54020
X32340Y52770
X48350Y46990
X46080Y47480
X54000Y32360
X36120Y31360
X36420Y31370
X37050
X36730
X27050Y34310
X30140Y37880
X34290Y38980
X37300Y37000
X36490Y28790
X32350Y27690
X28770Y30150
X21160Y34300
X19560Y40030
X25700Y42330
X28610Y46740
X34290Y45490
X39850Y46340
X42320Y40950
X47750Y38240
X45470Y32370
X46980Y26630
X40950Y24350
X37940Y19690
X32360Y21170
X26720Y20210
X24340Y25700
X18810Y28320
X13900Y34310
X20560Y47470
X34300Y52780
X47460Y46100
X52750Y32370
X46080Y19200
X32360Y13900
X19200Y20570
X7380Y34310
X15960Y52080
X34300Y59280
X52070Y50700
X59280Y32380
X50700Y14570
X32360Y7380
X14580Y15960
X34310Y41645
X34320Y48096
X39540Y31760
X44440Y34297
X42540Y31510
X42040Y31500
X41540
T3
X41460Y34310
X31050Y46750
X38130Y33700
X41040Y33030
X44430Y35010
M30
