G04 Generated by Ultiboard 14.1 *
%FSLAX24Y24*%
%MOIN*%

%ADD10C,0.0001*%
%ADD11C,0.0200*%
%ADD12C,0.0100*%
%ADD13C,0.0050*%
%ADD14C,0.0200*%
%ADD15C,0.0400*%
%ADD16O,0.1750X0.0750*%
%ADD17R,0.0236X0.0787*%
%ADD18R,0.0571X0.0453*%
%ADD19R,0.0689X0.0413*%
%ADD20R,0.0413X0.0689*%
%ADD21R,0.0430X0.0430*%


G04 ColorRGB 1C1C1C for the following layer *
%LNCopper Bottom*%
%LPD*%
G54D10*
G54D11*
X41040Y31509D02*
X41040Y33030D01*
X38900Y32580D02*
X39350Y33030D01*
X41040Y33030D01*
X37970Y30340D02*
X38900Y31270D01*
X38900Y32580D01*
X36830Y30340D02*
X37970Y30340D01*
X36830Y32340D02*
X37920Y32340D01*
X38130Y32550D01*
X38130Y33700D01*
X44440Y35006D02*
X43599Y35006D01*
G54D12*
X34310Y47155D02*
X34310Y48086D01*
X34320Y48096D01*
X13900Y32370D02*
X18040Y32370D01*
X19200Y33530D01*
X19200Y36620D01*
X18240Y37580D01*
X18240Y39550D01*
X19700Y41010D01*
X21020Y41010D01*
X19196Y46102D02*
X19208Y46102D01*
X20610Y44700D01*
X27150Y44700D01*
X27660Y45210D01*
X33700Y53400D02*
X34320Y54020D01*
X32360Y52770D02*
X32360Y49960D01*
X32870Y49450D01*
X34510Y49450D01*
X34920Y49040D01*
X47444Y46986D02*
X48348Y46986D01*
X54000Y32370D02*
X54000Y32390D01*
X53460Y32930D01*
X46085Y36305D02*
X46085Y38775D01*
X52750Y34310D02*
X52750Y33240D01*
X53360Y32630D01*
X47180Y31100D02*
X47180Y30220D01*
X48330Y29070D01*
X46976Y18312D02*
X46976Y19186D01*
X32990Y13280D02*
X32360Y12650D01*
X34300Y13900D02*
X34300Y17380D01*
X32110Y19570D01*
X19226Y19684D02*
X18312Y19684D01*
X20568Y19196D02*
X20568Y23178D01*
X21700Y24310D01*
X21700Y25040D01*
X19580Y27160D01*
X19580Y30800D01*
X18930Y31450D01*
X7250Y31450D01*
X6730Y31970D01*
X6730Y33710D01*
X6130Y34310D01*
X7380Y32370D02*
X7960Y31790D01*
X18170Y31790D01*
X19430Y33050D01*
X19684Y47684D02*
X19684Y48358D01*
X18380Y46380D02*
X19684Y47684D01*
X18380Y45470D02*
X18380Y46380D01*
X21620Y41610D02*
X21620Y42230D01*
X18380Y45470D01*
X21020Y41010D02*
X21620Y41610D01*
X19430Y33050D02*
X19430Y38820D01*
X21880Y41270D01*
X21880Y42290D01*
X18600Y45570D01*
X18600Y46250D01*
X20320Y47970D01*
X20320Y48530D01*
X19860Y48990D01*
X15140Y48990D01*
X13910Y50220D01*
X13910Y50970D01*
X15074Y52134D01*
X15074Y52968D01*
X14580Y50700D02*
X15960Y49320D01*
X20020Y49320D01*
X24350Y44990D01*
X26710Y44990D01*
X27220Y45500D01*
X27660Y46680D02*
X28280Y47300D01*
X27660Y45210D02*
X27660Y46680D01*
X32460Y53400D02*
X33700Y53400D01*
X31910Y52850D02*
X32460Y53400D01*
X31320Y47300D02*
X31910Y47890D01*
X31910Y52850D01*
X28280Y47300D02*
X31320Y47300D01*
X34920Y46530D02*
X35350Y46100D01*
X38180Y46100D01*
X34920Y49040D02*
X34920Y46530D01*
X27220Y46630D02*
X28130Y47540D01*
X27220Y45500D02*
X27220Y46630D01*
X28130Y47540D02*
X31060Y47540D01*
X31580Y48060D01*
X31580Y59350D01*
X32140Y59910D01*
X33680Y59910D01*
X34300Y60530D01*
X32350Y59280D02*
X32350Y55700D01*
X32770Y55280D01*
X34090Y55280D01*
X35220Y54150D01*
X35220Y46830D01*
X35560Y46490D01*
X38220Y46490D01*
X38180Y46100D02*
X39550Y44730D01*
X46620Y47810D02*
X47444Y46986D01*
X42760Y44730D02*
X45840Y47810D01*
X39550Y44730D02*
X42760Y44730D01*
X45840Y47810D02*
X46620Y47810D01*
X38220Y46490D02*
X39720Y44990D01*
X42580Y44990D01*
X50200Y52610D01*
X50990Y52610D01*
X52010Y51590D01*
X52960Y51590D01*
X46092Y43982D02*
X46092Y47474D01*
X46092Y43982D02*
X44700Y42590D01*
X46085Y38775D02*
X46090Y38770D01*
X44700Y42590D02*
X44700Y40160D01*
X46085Y38775D01*
X47380Y35010D02*
X46085Y36305D01*
X53460Y34360D02*
X52810Y35010D01*
X47380Y35010D01*
X53460Y32930D02*
X53460Y34360D01*
X50670Y52090D02*
X50670Y48050D01*
X44970Y42350D01*
X44970Y40290D01*
X46420Y38840D01*
X46420Y36380D01*
X47510Y35290D01*
X59370Y35290D01*
X59930Y34730D01*
X59930Y32960D01*
X60520Y32370D01*
X48330Y29070D02*
X48330Y27160D01*
X46700Y25530D01*
X45270Y25530D02*
X44660Y24920D01*
X46700Y25530D02*
X45270Y25530D01*
X44660Y24920D02*
X44660Y24080D01*
X48050Y20260D02*
X48050Y20690D01*
X44660Y24080D01*
X46976Y19186D02*
X48050Y20260D01*
X47690Y31610D02*
X47180Y31100D01*
X53360Y32120D02*
X52850Y31610D01*
X47690Y31610D01*
X53360Y32630D02*
X53360Y32120D01*
X59280Y34310D02*
X57330Y34310D01*
X54380Y31360D01*
X47850Y31360D01*
X47530Y31040D01*
X47530Y30240D01*
X49450Y28320D01*
X49450Y26280D01*
X48830Y25660D01*
X48480Y25660D01*
X48360Y25540D01*
X47140Y25540D01*
X46850Y25250D01*
X45390Y25250D01*
X44960Y24820D01*
X44960Y24300D01*
X52750Y16510D01*
X52750Y15770D01*
X51596Y14616D01*
X51596Y13702D01*
X34510Y13280D02*
X32990Y13280D01*
X34770Y13540D02*
X34510Y13280D01*
X47464Y20568D02*
X47450Y20568D01*
X46130Y21888D02*
X41138Y21888D01*
X46130Y21888D02*
X47450Y20568D01*
X41110Y20200D02*
X40420Y19510D01*
X39250Y19510D01*
X38640Y18900D01*
X35050Y7220D02*
X34610Y6780D01*
X33010Y6780D01*
X32360Y6130D01*
X41138Y21888D02*
X38420Y19170D01*
X35440Y18900D02*
X35050Y18510D01*
X38640Y18900D02*
X35440Y18900D01*
X35050Y18510D02*
X35050Y7220D01*
X35250Y19170D02*
X34770Y18690D01*
X34770Y13540D01*
X38420Y19170D02*
X35250Y19170D01*
X41110Y20940D02*
X41110Y20200D01*
X41780Y21610D02*
X41110Y20940D01*
X48222Y15958D02*
X42570Y21610D01*
X48222Y15958D02*
X52084Y15958D01*
X42570Y21610D02*
X41780Y21610D01*
X34300Y7380D02*
X34260Y7380D01*
X31790Y9850D01*
X31790Y18480D01*
X31200Y19070D01*
X30040Y19070D01*
X28910Y17940D01*
X26530Y17940D01*
X25400Y19070D01*
X20770Y18610D02*
X20300Y18610D01*
X24000Y21840D02*
X20770Y18610D01*
X20300Y18610D02*
X19226Y19684D01*
X26530Y19570D02*
X25800Y20300D01*
X32110Y19570D02*
X26530Y19570D01*
X25800Y21210D02*
X25170Y21840D01*
X25800Y20300D02*
X25800Y21210D01*
X25170Y21840D02*
X24000Y21840D01*
X25400Y19070D02*
X25400Y21030D01*
X24800Y21630D01*
X24150Y21630D01*
X16440Y13920D01*
X15710Y13920D01*
X14556Y15074D01*
X13702Y15074D01*
X43540Y31509D02*
X43540Y33100D01*
X42690Y33950D01*
X39000Y33950D01*
X38420Y34530D01*
X38420Y36940D01*
X37680Y37680D01*
X33160Y37680D01*
X32210Y36730D01*
X32210Y36120D01*
X31430Y35340D01*
X29830Y35340D01*
X36830Y33340D02*
X35320Y33340D01*
X34580Y32600D01*
X34580Y25701D01*
X36830Y34340D02*
X34330Y34340D01*
X33330Y33340D01*
X33330Y25701D01*
X43040Y31509D02*
X43040Y33100D01*
X42630Y33510D01*
X38900Y33510D02*
X42630Y33510D01*
X38900Y33510D02*
X38100Y34310D01*
X38100Y36730D01*
X37560Y37270D01*
X33300Y37270D02*
X37560Y37270D01*
X33300Y37270D02*
X32760Y36730D01*
X32760Y35670D01*
X31430Y34340D01*
X29830Y34340D01*
X36830Y35340D02*
X33380Y35340D01*
X32080Y34040D01*
X32080Y25701D01*
X29830Y33340D02*
X27961Y33340D01*
X32350Y47170D02*
X32350Y41645D01*
X32350Y47170D02*
X33531Y48351D01*
X33531Y48800D01*
X34316Y48800D01*
X32349Y48010D02*
X32349Y48800D01*
X31620Y47281D02*
X32349Y48010D01*
X31620Y38880D02*
X31620Y47281D01*
X32450Y38050D02*
X31620Y38880D01*
X37870Y38050D02*
X32450Y38050D01*
X38730Y37190D02*
X37870Y38050D01*
X38730Y34750D02*
X38730Y37190D01*
X39140Y34340D02*
X38730Y34750D01*
X40800Y34340D02*
X39140Y34340D01*
X41040Y34580D02*
X40800Y34340D01*
X41040Y35171D02*
X41040Y34580D01*
X27380Y34100D02*
X28590Y35310D01*
X27380Y32500D02*
X27380Y34100D01*
X28130Y31750D02*
X27380Y32500D01*
X28130Y29700D02*
X28130Y31750D01*
X28770Y29060D02*
X28130Y29700D01*
X30550Y29060D02*
X28770Y29060D01*
X31260Y28350D02*
X30550Y29060D01*
X31260Y25570D02*
X31260Y28350D01*
X31720Y25110D02*
X31260Y25570D01*
X32600Y25110D02*
X31720Y25110D01*
X33191Y24519D02*
X32600Y25110D01*
X33330Y24519D02*
X33191Y24519D01*
X26779Y33340D02*
X26240Y33340D01*
X25800Y33780D01*
X25800Y34310D01*
G54D13*
X-100Y-100D02*
X-100Y6587D01*
X-100Y-100D02*
X6586Y-100D01*
X66764Y-100D02*
X60078Y-100D01*
X66764Y-100D02*
X66764Y6587D01*
X66764Y66767D02*
X66764Y60080D01*
X66764Y66767D02*
X60078Y66767D01*
X-100Y66767D02*
X6586Y66767D01*
X-100Y66767D02*
X-100Y60080D01*
X-2069Y-100D02*
X-6006Y-100D01*
X-4037Y-2069D02*
X-4037Y1869D01*
X-5513Y-100D02*
G75*
D01*
G02X-5513Y-100I1476J0*
G01*
X68733Y-100D02*
X72670Y-100D01*
X70701Y-2069D02*
X70701Y1869D01*
X69225Y-100D02*
G75*
D01*
G02X69225Y-100I1476J0*
G01*
X70209Y-100D02*
G75*
D01*
G02X70209Y-100I492J0*
G01*
X-2069Y66767D02*
X-6006Y66767D01*
X-4037Y64798D02*
X-4037Y68735D01*
X-5513Y66767D02*
G75*
D01*
G02X-5513Y66767I1476J0*
G01*
X-5021Y66767D02*
G75*
D01*
G02X-5021Y66767I984J0*
G01*
X-4529Y66767D02*
G75*
D01*
G02X-4529Y66767I492J0*
G01*
G54D14*
X27890Y37410D03*
X32350Y40230D03*
X46740Y34310D03*
X48900Y27920D03*
X43210Y24820D03*
X48340Y19680D03*
X52970Y15080D03*
X15060Y13700D03*
X18420Y26080D03*
X17660Y38730D03*
X26470Y47580D03*
X41840Y43230D03*
X38212Y47973D03*
X60530Y34310D03*
X19900Y32370D03*
X28350Y18590D03*
X38740Y29270D03*
X29270Y27900D03*
X32360Y60530D03*
X32360Y54020D03*
X39580Y32370D03*
X51586Y52968D03*
X34095Y41430D02*
X34525Y41430D01*
X34525Y41860D01*
X34095Y41860D01*
X34095Y41430D01*D02*
X34095Y46940D02*
X34525Y46940D01*
X34525Y47370D01*
X34095Y47370D01*
X34095Y46940D01*D02*
X32135Y41430D02*
X32565Y41430D01*
X32565Y41860D01*
X32135Y41860D01*
X32135Y41430D01*D02*
X32135Y46940D02*
X32565Y46940D01*
X32565Y47370D01*
X32135Y47370D01*
X32135Y46940D01*D02*
X32350Y59280D03*
X52960Y51590D03*
X14580Y50700D03*
X34300Y60530D03*
X50670Y52090D03*
X60520Y32370D03*
X59270Y34320D03*
X51590Y13700D03*
X52090Y15960D03*
X32340Y6120D03*
X40040Y35170D03*
X52750Y34310D03*
X46980Y18310D03*
X40540Y35170D03*
X39540Y35170D03*
X25805Y32370D03*
X37376Y38768D03*
X34300Y26440D03*
X23442Y41846D03*
X48146Y40517D03*
X40109Y18875D03*
X34300Y19920D03*
X24824Y23452D03*
X12650Y32370D03*
X18312Y46986D03*
X46976Y48358D03*
X54000Y34310D03*
X34300Y12650D03*
X19684Y18312D03*
X6130Y32370D03*
X13702Y51596D03*
X34300Y6130D03*
X47450Y20590D03*
X32360Y12650D03*
X7390Y32360D03*
X15070Y52970D03*
X34290Y7380D03*
X13690Y15080D03*
X20560Y19210D03*
X6110Y34330D03*
X34290Y13910D03*
X18290Y19690D03*
X28590Y35310D03*
X34580Y24520D03*
X32080Y24520D03*
X25800Y34310D03*
X13910Y32370D03*
X19690Y48360D03*
X19190Y46100D03*
X34320Y54020D03*
X32340Y52770D03*
X48350Y46990D03*
X46080Y47480D03*
X54000Y32360D03*
X36120Y31360D03*
X36420Y31370D03*
X37050Y31370D03*
X36730Y31370D03*
X27050Y34310D03*
X30140Y37880D03*
X34290Y38980D03*
X37300Y37000D03*
X36490Y28790D03*
X32350Y27690D03*
X28770Y30150D03*
X21160Y34300D03*
X19560Y40030D03*
X25700Y42330D03*
X28610Y46740D03*
X34290Y45490D03*
X39850Y46340D03*
X42320Y40950D03*
X47750Y38240D03*
X45470Y32370D03*
X46980Y26630D03*
X40950Y24350D03*
X37940Y19690D03*
X32360Y21170D03*
X26720Y20210D03*
X24340Y25700D03*
X18810Y28320D03*
X13900Y34310D03*
X20560Y47470D03*
X34300Y52780D03*
X47460Y46100D03*
X52750Y32370D03*
X46080Y19200D03*
X32360Y13900D03*
X19200Y20570D03*
X7380Y34310D03*
X15960Y52080D03*
X34300Y59280D03*
X52070Y50700D03*
X59280Y32380D03*
X50700Y14570D03*
X32360Y7380D03*
X14580Y15960D03*
X34310Y41645D03*
X34320Y48096D03*
X39540Y31760D03*
X44440Y34297D03*
X42540Y31510D03*
X42040Y31500D03*
X41540Y31500D03*
G54D15*
X41460Y34310D03*
X31050Y46750D03*
X38130Y33700D03*
X41040Y33030D03*
X44430Y35010D03*
G54D16*
X29830Y30340D03*
X36830Y30340D03*
X29830Y31340D03*
X36830Y31340D03*
X29830Y32340D03*
X36830Y32340D03*
X29830Y33340D03*
X36830Y33340D03*
X29830Y34340D03*
X36830Y34340D03*
X29830Y35340D03*
X36830Y35340D03*
X29830Y36340D03*
X36830Y36340D03*
G54D17*
X39540Y31509D03*
X40040Y31509D03*
X41040Y31509D03*
X40540Y31509D03*
X41540Y31509D03*
X42040Y31509D03*
X42540Y31509D03*
X43040Y31509D03*
X43540Y31509D03*
X39540Y35171D03*
X40040Y35171D03*
X40540Y35171D03*
X41040Y35171D03*
X41540Y35171D03*
X42040Y35171D03*
X42540Y35171D03*
X43040Y35171D03*
X43540Y35171D03*
G54D18*
X44440Y34297D03*
X44440Y35006D03*
X34320Y48096D03*
X34320Y48804D03*
G54D19*
X32080Y24519D03*
X32080Y25701D03*
X33330Y24519D03*
X33330Y25701D03*
X34580Y24519D03*
X34580Y25701D03*
G54D20*
X26779Y33340D03*
X27961Y33340D03*
X32349Y48800D03*
X33531Y48800D03*
G54D21*
X34310Y41645D03*
X34310Y47155D03*
X32350Y41645D03*
X32350Y47155D03*

M02*
